<svg width="158" height="24" viewBox="0 0 158 24" fill="none" xmlns="http://www.w3.org/2000/svg">
<path d="M5.56001 23.36V0H0.76001V23.36H5.56001Z" fill="#152764"/>
<path d="M24.7205 17.28C24.8485 16.672 24.9125 16.032 24.9125 15.36C24.9125 12.96 24.1445 10.944 22.5765 9.344C21.0405 7.712 19.1205 6.912 16.7845 6.912C14.2885 6.912 12.2405 7.712 10.6405 9.344C9.07251 10.944 8.27251 12.96 8.27251 15.36C8.27251 17.792 9.07251 19.808 10.6725 21.408C12.3045 23.008 14.4485 23.808 17.1365 23.808C20.2085 23.808 22.5445 22.72 24.1125 20.512L20.2725 18.304C19.5365 19.104 18.5125 19.52 17.2005 19.52C15.1845 19.52 13.9045 18.784 13.3605 17.28H24.7205ZM13.2645 13.696C13.7445 12 14.8965 11.168 16.7525 11.168C18.5445 11.168 19.6645 12 20.1445 13.696H13.2645Z" fill="#152764"/>
<path d="M36.5423 7.36H33.2463V2.88L28.4463 4.32V7.36H25.8863V11.968H28.4463V17.632C28.4463 19.968 29.0223 21.568 30.2063 22.496C31.3903 23.392 33.5023 23.68 36.5423 23.36V19.008C34.2063 19.136 33.2463 18.912 33.2463 17.632V11.968H36.5423V7.36Z" fill="#152764"/>
<path d="M57.68 6.91199C55.568 6.91199 54.032 7.61599 53.04 9.02399C52.112 7.61599 50.704 6.91199 48.848 6.91199C46.864 6.91199 45.424 7.55199 44.56 8.83199V7.35999H39.76V23.36H44.56V14.336C44.56 12.448 45.488 11.328 47.056 11.328C48.56 11.328 49.36 12.32 49.36 13.952V23.36H54.16V14.336C54.16 12.448 55.088 11.328 56.656 11.328C58.16 11.328 58.96 12.32 58.96 13.952V23.36H63.76V13.536C63.76 11.52 63.216 9.91999 62.096 8.73599C60.976 7.51999 59.504 6.91199 57.68 6.91199Z" fill="#3964F9"/>
<path d="M82.6893 17.28C82.8173 16.672 82.8813 16.032 82.8813 15.36C82.8813 12.96 82.1133 10.944 80.5453 9.34399C79.0093 7.71199 77.0893 6.91199 74.7533 6.91199C72.2573 6.91199 70.2093 7.71199 68.6093 9.34399C67.0413 10.944 66.2413 12.96 66.2413 15.36C66.2413 17.792 67.0413 19.808 68.6413 21.408C70.2733 23.008 72.4173 23.808 75.1053 23.808C78.1773 23.808 80.5133 22.72 82.0813 20.512L78.2413 18.304C77.5053 19.104 76.4813 19.52 75.1693 19.52C73.1533 19.52 71.8733 18.784 71.3293 17.28H82.6893ZM71.2333 13.696C71.7133 12 72.8653 11.168 74.7213 11.168C76.5133 11.168 77.6333 12 78.1133 13.696H71.2333Z" fill="#3964F9"/>
<path d="M95.136 7.36001H91.84V2.88L87.04 4.32001V7.36001H84.48V11.968H87.04V17.632C87.04 19.968 87.616 21.568 88.8 22.496C89.984 23.392 92.096 23.68 95.136 23.36V19.008C92.8 19.136 91.84 18.912 91.84 17.632V11.968H95.136V7.36001Z" fill="#152764"/>
<path d="M108.502 16.096C108.502 18.272 107.35 19.392 105.526 19.392C103.894 19.392 102.742 18.368 102.742 16.48V7.36001H97.9423V17.184C97.9423 19.264 98.5183 20.864 99.6383 22.048C100.79 23.232 102.23 23.808 103.926 23.808C106.006 23.808 107.542 23.168 108.502 21.856V23.36H113.302V7.36001H108.502V16.096Z" fill="#152764"/>
<path d="M126.199 7.36001H122.903V2.88L118.103 4.32001V7.36001H115.543V11.968H118.103V17.632C118.103 19.968 118.679 21.568 119.863 22.496C121.047 23.392 123.159 23.68 126.199 23.36V19.008C123.863 19.136 122.903 18.912 122.903 17.632V11.968H126.199V7.36001Z" fill="#152764"/>
<path d="M142.3 21.376C143.932 19.744 144.764 17.728 144.764 15.36C144.764 12.992 143.932 11.008 142.3 9.37601C140.668 7.74401 138.652 6.91201 136.284 6.91201C133.916 6.91201 131.9 7.74401 130.268 9.37601C128.636 11.008 127.804 12.992 127.804 15.36C127.804 17.728 128.636 19.744 130.268 21.376C131.9 23.008 133.916 23.808 136.284 23.808C138.652 23.808 140.668 23.008 142.3 21.376ZM133.66 18.08C132.956 17.376 132.604 16.48 132.604 15.36C132.604 14.24 132.956 13.344 133.66 12.64C134.364 11.936 135.228 11.584 136.284 11.584C137.34 11.584 138.204 11.936 138.908 12.64C139.612 13.344 139.964 14.24 139.964 15.36C139.964 16.48 139.612 17.376 138.908 18.08C138.204 18.784 137.34 19.136 136.284 19.136C135.228 19.136 134.364 18.784 133.66 18.08Z" fill="#152764"/>
<path d="M152.279 7.36001H147.479V23.36H152.279V16.128C152.279 14.688 152.791 13.664 153.783 13.088C154.807 12.48 155.895 12.288 157.079 12.48V7.04C154.903 7.04 152.887 8.16001 152.279 10.208V7.36001Z" fill="#152764"/>
</svg>
