<svg width="180" height="24" viewBox="0 0 180 24" fill="none" xmlns="http://www.w3.org/2000/svg">
<path d="M34.5 0H39.252V13.032H47.268V16.8H34.5V0Z" fill="#0C0C0C"/>
<path d="M62.1815 10.32C62.1815 10.352 62.1575 10.728 62.1095 11.448H52.6536C52.8455 12.12 53.2135 12.64 53.7576 13.008C54.3175 13.36 55.0135 13.536 55.8456 13.536C56.4696 13.536 57.0055 13.448 57.4535 13.272C57.9175 13.096 58.3816 12.808 58.8456 12.408L61.2455 14.904C59.9815 16.312 58.1335 17.016 55.7016 17.016C54.1816 17.016 52.8455 16.728 51.6935 16.152C50.5415 15.576 49.6456 14.776 49.0055 13.752C48.3815 12.728 48.0696 11.568 48.0696 10.272C48.0696 8.99196 48.3736 7.84799 48.9816 6.83999C49.6056 5.81599 50.4616 5.01599 51.5495 4.43999C52.6375 3.86399 53.8615 3.57599 55.2216 3.57599C56.5176 3.57599 57.6935 3.84799 58.7495 4.39199C59.8055 4.91999 60.6376 5.69599 61.2455 6.71999C61.8695 7.72799 62.1815 8.92799 62.1815 10.32ZM55.2455 6.81599C54.5416 6.81599 53.9495 7.01599 53.4695 7.41599C53.0056 7.81596 52.7095 8.36001 52.5816 9.04799H57.9096C57.7816 8.36001 57.4776 7.81596 56.9976 7.41599C56.5336 7.01599 55.9495 6.81599 55.2455 6.81599Z" fill="#0C0C0C"/>
<path d="M73.26 16.272C72.876 16.512 72.404 16.6959 71.844 16.824C71.3 16.952 70.716 17.016 70.092 17.016C68.396 17.016 67.092 16.5999 66.18 15.768C65.268 14.936 64.812 13.6959 64.812 12.048V7.67997H62.916V4.27197H64.812V0.88797H69.372V4.27197H72.348V7.67997H69.372V12C69.372 12.464 69.492 12.8319 69.732 13.104C69.988 13.3599 70.324 13.488 70.74 13.488C71.268 13.488 71.732 13.352 72.132 13.08L73.26 16.272Z" fill="#0C0C0C"/>
<path d="M90.4028 16.8L90.3548 7.896L86.0348 15.144H83.922L79.626 8.136V16.8H75.234V0H79.146L85.0508 9.696L90.8108 0H94.7228L94.7708 16.8H90.4028Z" fill="#0C0C0C"/>
<path d="M111.213 10.32C111.213 10.352 111.189 10.728 111.141 11.448H101.685C101.877 12.12 102.244 12.64 102.789 13.008C103.348 13.36 104.044 13.536 104.877 13.536C105.501 13.536 106.036 13.448 106.485 13.272C106.948 13.096 107.413 12.808 107.877 12.408L110.277 14.904C109.012 16.312 107.164 17.016 104.733 17.016C103.213 17.016 101.877 16.728 100.725 16.152C99.573 15.576 98.6767 14.776 98.037 13.752C97.413 12.728 97.101 11.568 97.101 10.272C97.101 8.99196 97.4047 7.84799 98.013 6.83999C98.637 5.81599 99.4927 5.01599 100.581 4.43999C101.668 3.86399 102.892 3.57599 104.253 3.57599C105.549 3.57599 106.725 3.84799 107.781 4.39199C108.837 4.91999 109.669 5.69599 110.277 6.71999C110.901 7.72799 111.213 8.92799 111.213 10.32ZM104.277 6.81599C103.573 6.81599 102.981 7.01599 102.501 7.41599C102.037 7.81596 101.74 8.36001 101.613 9.04799H106.941C106.813 8.36001 106.509 7.81596 106.029 7.41599C105.565 7.01599 104.98 6.81599 104.277 6.81599Z" fill="#0C0C0C"/>
<path d="M0 0H7.20652C10.2681 0 12.75 2.53601 12.75 5.66434V20.25C12.75 20.25 9.7011 19.1171 5.54348 18.6923C1.38587 18.2675 0 16.1563 0 13.028V0Z" fill="#3964F9"/>
<path d="M26.25 0H19.4674C16.5859 0 14.25 2.5047 14.25 5.59441V18.75C14.25 18.75 17.1196 17.6311 21.0326 17.2115C24.9457 16.792 26.25 15.9569 26.25 12.8672V0Z" fill="#3964F9"/>
<path d="M140.532 3.79196V16.8H136.188V15.408C135.708 15.936 135.132 16.3359 134.46 16.608C133.788 16.88 133.076 17.016 132.324 17.016C130.644 17.016 129.3 16.52 128.292 15.528C127.3 14.5359 126.804 13.0479 126.804 11.064V3.79196H131.364V10.32C131.364 11.2959 131.548 12.008 131.916 12.456C132.284 12.9039 132.82 13.128 133.524 13.128C134.244 13.128 134.828 12.8799 135.276 12.384C135.74 11.8719 135.972 11.096 135.972 10.056V3.79196H140.532Z" fill="#3964F9"/>
<path d="M152.445 16.272C152.061 16.512 151.589 16.6959 151.029 16.824C150.485 16.952 149.901 17.016 149.277 17.016C147.581 17.016 146.277 16.5999 145.365 15.768C144.453 14.936 143.997 13.6959 143.997 12.048V7.67997H142.101V4.27197H143.997V0.88797H148.557V4.27197H151.533V7.67997H148.557V12C148.557 12.464 148.677 12.8319 148.917 13.104C149.173 13.3599 149.509 13.488 149.925 13.488C150.453 13.488 150.917 13.352 151.317 13.08L152.445 16.272Z" fill="#3964F9"/>
<path d="M160.357 17.016C158.965 17.016 157.709 16.728 156.589 16.152C155.468 15.576 154.589 14.776 153.949 13.752C153.325 12.728 153.013 11.568 153.013 10.272C153.013 8.99196 153.325 7.83996 153.949 6.81599C154.589 5.79199 155.461 4.99999 156.565 4.43999C157.685 3.86399 158.948 3.57599 160.357 3.57599C161.765 3.57599 163.028 3.86399 164.149 4.43999C165.269 4.99999 166.141 5.79199 166.765 6.81599C167.389 7.82399 167.701 8.97599 167.701 10.272C167.701 11.568 167.389 12.728 166.765 13.752C166.141 14.776 165.269 15.576 164.149 16.152C163.028 16.728 161.765 17.016 160.357 17.016ZM160.357 13.392C161.156 13.392 161.813 13.12 162.325 12.576C162.836 12.016 163.093 11.248 163.093 10.272C163.093 9.31199 162.836 8.55996 162.325 8.01599C161.813 7.47199 161.156 7.19999 160.357 7.19999C159.557 7.19999 158.9 7.47199 158.389 8.01599C157.877 8.55996 157.621 9.31199 157.621 10.272C157.621 11.248 157.877 12.016 158.389 12.576C158.9 13.12 159.557 13.392 160.357 13.392Z" fill="#3964F9"/>
<path d="M174.157 5.35199C174.621 4.75999 175.221 4.31999 175.957 4.03199C176.709 3.72799 177.565 3.57599 178.525 3.57599V7.67999C178.108 7.63199 177.765 7.60799 177.493 7.60799C176.517 7.60799 175.749 7.87199 175.189 8.39999C174.645 8.92799 174.373 9.73596 174.373 10.824V16.8H169.813V3.79199H174.157V5.35199Z" fill="#3964F9"/>
<path d="M110.507 3.768V0H125.555V3.768H120.419V16.8H115.667V3.768H110.507Z" fill="#3964F9"/>
<path fill-rule="evenodd" clip-rule="evenodd" d="M123.75 19.6997C123.75 19.6997 123.749 19.6982 124.966 18.8554C126.183 18.0124 126.182 18.0111 126.182 18.0111L126.181 18.0098L126.179 18.0074L126.176 18.0037L126.174 18C126.174 18 126.175 18.0019 126.179 18.0074C126.187 18.0185 126.206 18.0416 126.235 18.0754C126.291 18.1431 126.388 18.2525 126.527 18.3902C126.806 18.6656 127.252 19.0526 127.889 19.4462C129.15 20.2263 131.2 21.0601 134.25 21.0601C137.3 21.0601 139.35 20.2263 140.611 19.4462C141.248 19.0526 141.694 18.6656 141.973 18.3902C142.112 18.2525 142.209 18.1431 142.265 18.0754C142.294 18.0416 142.312 18.0183 142.321 18.0072C142.325 18.0017 142.326 18 142.326 18L142.324 18.0037L142.321 18.0072L142.319 18.0098L142.318 18.0111C142.318 18.0111 142.317 18.0124 143.534 18.8554C144.751 19.6982 144.75 19.6997 144.75 19.6997L144.749 19.7013L144.746 19.7046L144.741 19.7123L144.727 19.7318C144.716 19.7465 144.702 19.7647 144.686 19.786C144.653 19.8287 144.609 19.8844 144.554 19.9511C144.442 20.0843 144.283 20.262 144.074 20.4688C143.656 20.8825 143.035 21.4141 142.186 21.9391C140.476 22.9964 137.885 23.9998 134.25 23.9998C130.615 23.9998 128.024 22.9964 126.314 21.9391C125.465 21.4141 124.844 20.8825 124.426 20.4688C124.217 20.262 124.058 20.0843 123.946 19.9511C123.891 19.8844 123.847 19.8287 123.814 19.786C123.798 19.7647 123.784 19.7465 123.773 19.7318L123.759 19.7123L123.754 19.7046L123.751 19.7013L123.75 19.6997Z" fill="#3964F9"/>
</svg>
