<svg width="15" height="15" viewBox="0 0 15 15" fill="none" xmlns="http://www.w3.org/2000/svg">
<path d="M13.2065 3.58696H11.6413L10.7772 2.28261C10.4511 1.79348 9.88043 1.5 9.29348 1.5H5.70652C5.11957 1.5 4.54891 1.79348 4.22283 2.28261L3.3587 3.58696H1.79348C0.798913 3.58696 0 4.38587 0 5.38043V11.7065C0 12.7011 0.798913 13.5 1.79348 13.5H13.2065C14.2011 13.5 15 12.7011 15 11.7065V5.38043C15 4.38587 14.2011 3.58696 13.2065 3.58696ZM7.5 12.0326C5.2663 12.0326 3.45652 10.2228 3.45652 7.98913C3.45652 5.75543 5.2663 3.96196 7.5 3.96196C9.7337 3.96196 11.5435 5.77174 11.5435 8.00543C11.5435 10.2228 9.7337 12.0326 7.5 12.0326ZM12.9783 6.11413C12.962 6.11413 12.9457 6.11413 12.913 6.11413H12.2609C11.9674 6.09783 11.7391 5.85326 11.7554 5.55978C11.7717 5.28261 11.9837 5.07065 12.2609 5.05435H12.913C13.2065 5.03804 13.4511 5.2663 13.4674 5.55978C13.4837 5.85326 13.2717 6.09783 12.9783 6.11413Z" fill="#3964F9"/>
<path d="M7.49998 5.75543C6.26085 5.75543 5.24998 6.7663 5.24998 8.00543C5.24998 9.24456 6.26085 10.2391 7.49998 10.2391C8.7391 10.2391 9.74997 9.22826 9.74997 7.98913C9.74997 6.75 8.7391 5.75543 7.49998 5.75543Z" fill="#3964F9"/>
</svg>
