<svg width="24" height="24" viewBox="0 0 24 24" fill="none" xmlns="http://www.w3.org/2000/svg">
<g clip-path="url(#clip0)">
<path d="M20.8271 8.74862L9.63827 19.9377C9.13253 20.4432 8.31277 20.4432 7.80722 19.9377L1.22292 13.3534C0.717361 12.8476 0.717361 12.0279 1.22292 11.5223L12.4118 0.333268C12.9175 -0.172287 13.7373 -0.172287 14.2428 0.333268L20.8271 6.91757C21.3329 7.42312 21.3329 8.24307 20.8271 8.74862Z" fill="#8CBAFA"/>
<path d="M20.8272 6.91675L20.0056 6.09497C20.4558 6.54523 20.4108 7.32013 19.9052 7.82569L8.71619 19.0147C8.21063 19.5205 7.43573 19.5653 6.98547 19.1151L7.80725 19.9368C8.31281 20.4424 9.13257 20.4424 9.63831 19.9368L20.8272 8.74781C21.3329 8.24225 21.3329 7.4223 20.8272 6.91675Z" fill="#5692D8"/>
<path d="M3.37448 12.8919C3.28439 12.8919 3.19449 12.8575 3.12582 12.7888C2.98849 12.6515 2.98849 12.429 3.12582 12.2917L8.60636 6.81113C8.74369 6.6738 8.96635 6.6738 9.10349 6.81113C9.24082 6.94846 9.24082 7.17111 9.10349 7.30826L3.62296 12.789C3.55429 12.8575 3.46439 12.8919 3.37448 12.8919Z" fill="#252D4C"/>
<path d="M5.11606 14.6334C5.02597 14.6334 4.93607 14.5989 4.8674 14.5303C4.73007 14.3929 4.73007 14.1705 4.8674 14.0331L10.3479 8.55258C10.4853 8.41525 10.7079 8.41525 10.8451 8.55258C10.9824 8.68991 10.9824 8.91257 10.8451 9.04972L5.36453 14.5303C5.29587 14.5989 5.20596 14.6334 5.11606 14.6334Z" fill="#252D4C"/>
<path d="M12.229 2.88345L11.1326 3.97971C10.7016 4.41074 10.7016 5.10947 11.1326 5.5405C11.5636 5.97153 12.2625 5.97153 12.6936 5.5405L13.7898 4.44425C14.2209 4.01322 14.2209 3.31448 13.7898 2.88345C13.3588 2.45242 12.6599 2.45242 12.229 2.88345Z" fill="#FFCD34"/>
<path d="M21.8836 12.0521H6.06C5.34497 12.0521 4.76526 12.6318 4.76526 13.3469V22.6585C4.76526 23.3735 5.34497 23.9533 6.06 23.9533H21.8836C22.5988 23.9533 23.1784 23.3735 23.1784 22.6585V13.3469C23.1786 12.6318 22.5988 12.0521 21.8836 12.0521Z" fill="#FFCD34"/>
<path d="M21.8837 12.0521H20.7249C21.4399 12.0521 22.0196 12.6318 22.0196 13.3469V22.6585C22.0196 23.3735 21.4399 23.9533 20.7249 23.9533H21.8837C22.5989 23.9533 23.1785 23.3735 23.1785 22.6585V13.3469C23.1786 12.6318 22.5989 12.0521 21.8837 12.0521Z" fill="#E69012"/>
<path d="M4.76526 14.9768H23.1786V17.2138H4.76526V14.9768Z" fill="#575B7A"/>
<path d="M22.0196 14.9768H23.1785V17.2138H22.0196V14.9768Z" fill="#252D4C"/>
<path d="M18.653 20.7886V22.1683C18.653 22.2751 18.7394 22.3615 18.8461 22.3615H21.0407C21.1474 22.3615 21.2338 22.2751 21.2338 22.1683V20.7886C21.2338 20.6819 21.1474 20.5955 21.0407 20.5955H18.8461C18.7394 20.5955 18.653 20.6819 18.653 20.7886Z" fill="#E9E9EA"/>
<path d="M12.0363 20.7886V22.1683C12.0363 22.2751 12.1229 22.3615 12.2294 22.3615H16.8712C16.9779 22.3615 17.0643 22.2751 17.0643 22.1683V20.7886C17.0643 20.6819 16.9779 20.5955 16.8712 20.5955H12.2294C12.1229 20.5955 12.0363 20.6819 12.0363 20.7886Z" fill="#E9E9EA"/>
<path d="M10.1442 22.7128H7.83179C7.63751 22.7128 7.48022 22.5553 7.48022 22.3612C7.48022 22.1669 7.63751 22.0096 7.83179 22.0096H10.1442C10.3385 22.0096 10.4958 22.1669 10.4958 22.3612C10.4958 22.5553 10.3385 22.7128 10.1442 22.7128Z" fill="#252D4C"/>
</g>
<defs>
<clipPath id="clip0">
<rect width="24" height="24" fill="white"/>
</clipPath>
</defs>
</svg>
