<svg width="14" height="14" viewBox="0 0 14 14" fill="none" xmlns="http://www.w3.org/2000/svg">
<g clip-path="url(#clip0)">
<path d="M8.28263 7.01119L13.734 1.55971C14.0887 1.20511 14.0887 0.631775 13.734 0.277178C13.3794 -0.0774187 12.806 -0.0774187 12.4514 0.277178L6.99993 5.72867L1.5486 0.277178C1.19384 -0.0774187 0.62067 -0.0774187 0.266073 0.277178C-0.0886908 0.631775 -0.0886908 1.20511 0.266073 1.55971L5.7174 7.01119L0.266073 12.4627C-0.0886908 12.8173 -0.0886908 13.3906 0.266073 13.7452C0.44279 13.9221 0.675146 14.0109 0.907337 14.0109C1.13953 14.0109 1.37172 13.9221 1.5486 13.7452L6.99993 8.29372L12.4514 13.7452C12.6283 13.9221 12.8605 14.0109 13.0927 14.0109C13.3249 14.0109 13.5571 13.9221 13.734 13.7452C14.0887 13.3906 14.0887 12.8173 13.734 12.4627L8.28263 7.01119Z" fill="#777777"/>
</g>
<defs>
<clipPath id="clip0">
<rect width="14" height="14" fill="white"/>
</clipPath>
</defs>
</svg>
