<svg width="16" height="16" viewBox="0 0 16 16" fill="none" xmlns="http://www.w3.org/2000/svg">
<g clip-path="url(#clip0)">
<path d="M8.00267 3.89209C5.73401 3.89209 3.89734 5.73076 3.89734 7.99742C3.89734 10.2661 5.73601 12.1028 8.00267 12.1028C10.2713 12.1028 12.108 10.2641 12.108 7.99742C12.108 5.72876 10.2693 3.89209 8.00267 3.89209ZM8.00267 10.6621C6.53001 10.6621 5.33801 9.46942 5.33801 7.99742C5.33801 6.52542 6.53067 5.33276 8.00267 5.33276C9.47467 5.33276 10.6673 6.52542 10.6673 7.99742C10.668 9.46942 9.47534 10.6621 8.00267 10.6621Z" fill="#777777"/>
<path d="M11.2986 0.0507461C9.82663 -0.0179206 6.18063 -0.0145873 4.7073 0.0507461C3.41263 0.111413 2.27063 0.424079 1.34997 1.34475C-0.188698 2.88341 0.0079684 4.95675 0.0079684 7.99741C0.0079684 11.1094 -0.165365 13.1347 1.34997 14.6501C2.89463 16.1941 4.99797 15.9921 8.00263 15.9921C11.0853 15.9921 12.1493 15.9941 13.2393 15.5721C14.7213 14.9967 15.84 13.6721 15.9493 11.2927C16.0186 9.82008 16.0146 6.17475 15.9493 4.70141C15.8173 1.89275 14.31 0.189413 11.2986 0.0507461ZM13.6286 13.6321C12.62 14.6407 11.2206 14.5507 7.9833 14.5507C4.64997 14.5507 3.3133 14.6001 2.33797 13.6221C1.21463 12.5041 1.41797 10.7087 1.41797 7.98675C1.41797 4.30341 1.03997 1.65075 4.73663 1.46141C5.58597 1.43141 5.83597 1.42141 7.97397 1.42141L8.00397 1.44141C11.5566 1.44141 14.344 1.06941 14.5113 4.76541C14.5493 5.60875 14.558 5.86208 14.558 7.99675C14.5573 11.2914 14.62 12.6361 13.6286 13.6321Z" fill="#777777"/>
<path d="M12.2707 4.68917C12.8005 4.68917 13.23 4.25966 13.23 3.72984C13.23 3.20001 12.8005 2.77051 12.2707 2.77051C11.7408 2.77051 11.3113 3.20001 11.3113 3.72984C11.3113 4.25966 11.7408 4.68917 12.2707 4.68917Z" fill="#777777"/>
</g>
<defs>
<clipPath id="clip0">
<rect width="16" height="16" fill="white"/>
</clipPath>
</defs>
</svg>
