<svg width="16" height="16" viewBox="0 0 16 16" fill="none" xmlns="http://www.w3.org/2000/svg">
<path d="M15.2019 13.8098H4.50277C4.06181 13.8098 3.70441 13.4524 3.70441 13.0115C3.70441 12.5705 4.06181 12.2131 4.50277 12.2131H15.2016C15.6426 12.2131 16 12.5705 16 13.0115C16 13.4524 15.6429 13.8098 15.2019 13.8098Z" fill="#A0A4B9"/>
<path d="M15.2019 8.7985H4.50277C4.06181 8.7985 3.70441 8.4411 3.70441 8.00014C3.70441 7.55918 4.06181 7.20177 4.50277 7.20177H15.2016C15.6426 7.20177 16 7.55918 16 8.00014C16.0003 8.4411 15.6429 8.7985 15.2019 8.7985Z" fill="#A0A4B9"/>
<path d="M15.2019 3.78717H4.50277C4.06181 3.78717 3.70441 3.42977 3.70441 2.98881C3.70441 2.54785 4.06181 2.19044 4.50277 2.19044H15.2016C15.6426 2.19044 16 2.54785 16 2.98881C16 3.42977 15.6429 3.78717 15.2019 3.78717Z" fill="#A0A4B9"/>
<path d="M1.0722 4.12275C1.66436 4.12275 2.1444 3.64271 2.1444 3.05055C2.1444 2.45839 1.66436 1.97835 1.0722 1.97835C0.480041 1.97835 0 2.45839 0 3.05055C0 3.64271 0.480041 4.12275 1.0722 4.12275Z" fill="#A0A4B9"/>
<path d="M1.0722 9.07234C1.66436 9.07234 2.1444 8.59229 2.1444 8.00013C2.1444 7.40797 1.66436 6.92793 1.0722 6.92793C0.480041 6.92793 0 7.40797 0 8.00013C0 8.59229 0.480041 9.07234 1.0722 9.07234Z" fill="#A0A4B9"/>
<path d="M1.0722 14.0219C1.66436 14.0219 2.1444 13.5419 2.1444 12.9497C2.1444 12.3576 1.66436 11.8775 1.0722 11.8775C0.480041 11.8775 0 12.3576 0 12.9497C0 13.5419 0.480041 14.0219 1.0722 14.0219Z" fill="#A0A4B9"/>
</svg>
