<svg width="16" height="16" viewBox="0 0 16 16" fill="none" xmlns="http://www.w3.org/2000/svg">
<g clip-path="url(#clip0)">
<path d="M15.5393 9.69748C16.698 4.49081 12.1367 -0.23919 6.78 0.668809C3.872 -1.13586 0 0.903476 0 4.36348C0 5.16814 0.222 5.92148 0.608 6.57081C-0.468667 11.7895 4.13 16.4515 9.482 15.4815C13.2653 17.4821 17.446 13.4921 15.5393 9.69748ZM10.4473 12.8375C9.042 13.4155 6.72933 13.4188 5.33 12.6861C3.33467 11.6221 2.98 9.22681 4.70133 9.22681C5.99867 9.22681 5.588 10.7395 6.898 11.3561C7.49933 11.6341 8.792 11.6628 9.54333 11.1561C10.2853 10.6595 10.2173 9.87814 9.814 9.50481C8.74533 8.51814 5.68733 8.91014 4.28933 7.18281C3.682 6.43348 3.56733 5.11148 4.314 4.15281C5.61533 2.47814 9.434 2.37614 11.076 3.64081C12.592 4.81414 12.1827 6.37148 10.9593 6.37148C9.488 6.37148 10.2613 4.44614 7.886 4.44614C6.164 4.44614 5.48667 5.67081 6.69933 6.26681C8.34333 7.08348 12.5327 6.81081 12.5327 10.0021C12.5293 11.3301 11.7153 12.3201 10.4473 12.8375Z" fill="#03A9F4"/>
</g>
<defs>
<clipPath id="clip0">
<rect width="16" height="16" fill="white"/>
</clipPath>
</defs>
</svg>
