<svg width="64" height="64" viewBox="0 0 64 64" fill="none" xmlns="http://www.w3.org/2000/svg">
<g clip-path="url(#clip0)">
<path d="M31.9634 22.9528C23.8423 22.9522 17.2583 29.5362 17.2583 37.6579C17.2583 45.7795 23.8417 52.3629 31.9634 52.3629C40.085 52.3629 46.6685 45.7795 46.6685 37.6579C46.6596 29.5401 40.0811 22.9616 31.9634 22.9528ZM31.9634 50.0893C25.0979 50.0893 19.532 44.5239 19.532 37.6579C19.532 30.7918 25.0974 25.2259 31.9634 25.2259C38.8294 25.2259 44.3954 30.7918 44.3948 37.6579C44.3876 44.5205 38.8261 50.0815 31.9634 50.0893Z" fill="#3964F9"/>
<path d="M31.9634 32.2161C33.2756 32.2173 34.3392 33.2808 34.3403 34.5931C34.3403 35.2209 34.8493 35.7299 35.4771 35.7299C36.1055 35.7299 36.614 35.2209 36.614 34.5931C36.6112 32.4632 35.1646 30.6069 33.1002 30.0835V29.1315C33.1002 28.5037 32.5912 27.9946 31.9634 27.9946C31.3355 27.9946 30.8265 28.5037 30.8265 29.1315V30.0835C28.5506 30.6569 27.0585 32.8367 27.3477 35.1659C27.6369 37.4951 29.6164 39.2442 31.9634 39.2437C33.2762 39.2437 34.3403 40.3084 34.3403 41.6212C34.3403 42.934 33.2762 43.9981 31.9634 43.9981C30.6506 43.9981 29.5864 42.934 29.5864 41.6212C29.5864 40.9934 29.0774 40.4843 28.4496 40.4843C27.8218 40.4843 27.3127 40.9934 27.3127 41.6212C27.3155 43.7505 28.7627 45.6068 30.8265 46.1302V47.1788C30.8265 47.8066 31.3355 48.3157 31.9634 48.3157C32.5912 48.3157 33.1002 47.8066 33.1002 47.1788V46.1302C35.3761 45.5568 36.8677 43.3769 36.579 41.0478C36.2898 38.7191 34.3103 36.97 31.9634 36.97C30.6578 36.96 29.6047 35.8987 29.6047 34.5931C29.6047 33.2875 30.6578 32.2261 31.9634 32.2161Z" fill="#3964F9"/>
<path d="M57.4052 12.8433C56.2761 11.5893 54.3449 11.4877 53.0909 12.6168C53.051 12.6523 53.0121 12.6895 52.9744 12.7273L48.1273 17.5738C44.2704 14.4553 39.5954 12.5158 34.6634 11.9879V7.38946H37.9024C38.5457 7.36726 39.0592 6.8438 39.0686 6.19989V3.92621C39.0686 1.73246 37.254 0 35.0603 0H28.0172C25.8234 0 24.0055 1.73246 24.0055 3.92621V6.19989C24.0166 6.84435 24.5312 7.36726 25.1751 7.38946H28.4107V12.0551C15.6213 13.7303 5.73666 24.6885 5.73666 37.9159C5.73666 52.2985 17.4387 64 31.8213 64C46.2038 64 57.9053 52.2985 57.9053 37.9159C57.9109 32.1468 55.9941 26.5403 52.4576 21.9824L57.3163 17.0254C58.4426 15.8725 58.4815 14.0434 57.4052 12.8433ZM53.137 39.3631H55.5861C55.2597 44.7825 53.0843 49.926 49.4223 53.935L47.7187 52.2314C47.4317 51.941 47.0121 51.8267 46.618 51.9316C46.2238 52.0365 45.9157 52.3446 45.8114 52.7387C45.7065 53.1328 45.8208 53.5525 46.1111 53.8389L47.8136 55.5414C43.6937 59.2939 38.3842 61.4754 32.816 61.7041V59.2578C32.816 58.63 32.307 58.1209 31.6792 58.1209C31.0513 58.1209 30.5423 58.63 30.5423 59.2578V61.6919C25.1101 61.4027 19.9422 59.255 15.9049 55.6086L17.674 53.8389C17.9644 53.5525 18.0787 53.1328 17.9738 52.7387C17.8689 52.3446 17.5614 52.0365 17.1672 51.9316C16.7731 51.8267 16.3529 51.941 16.0665 52.2314L14.2891 54.0088C10.5871 49.9904 8.38559 44.8169 8.05642 39.3631H10.6476C11.2754 39.3631 11.7845 38.8541 11.7845 38.2262C11.7845 37.5984 11.2754 37.0894 10.6476 37.0894H8.027C8.21795 31.4624 10.405 26.0868 14.1958 21.9241L16.0665 23.7948C16.5111 24.2339 17.2272 24.2317 17.669 23.7898C18.1115 23.3474 18.1137 22.6313 17.674 22.1867L15.8023 20.3155C19.8539 16.6141 25.0629 14.432 30.5423 14.1406V16.7684C30.5423 17.3962 31.0513 17.9052 31.6792 17.9052C32.307 17.9052 32.816 17.3962 32.816 16.7684V14.1283C32.9792 14.135 33.1413 14.1433 33.3039 14.1533C33.3778 14.1683 33.4527 14.1755 33.5282 14.1761C33.5521 14.1761 33.5754 14.1739 33.5992 14.1722C38.9348 14.5696 43.9796 16.7584 47.9141 20.3837L46.1111 22.1867C45.8208 22.4737 45.7065 22.8933 45.8114 23.2875C45.9157 23.6816 46.2238 23.9897 46.618 24.0946C47.0121 24.1989 47.4317 24.0846 47.7187 23.7948L49.5133 21.9996C49.6943 22.2 49.8714 22.4037 50.0451 22.6108C50.0596 22.6286 50.0751 22.6469 50.0906 22.6641C53.4917 26.7207 55.4368 31.7988 55.6155 37.0894H53.137C52.5092 37.0894 52.0002 37.5984 52.0002 38.2262C52.0002 38.8541 52.5092 39.3631 53.137 39.3631ZM26.2792 3.92621C26.2792 2.98587 27.0768 2.27368 28.0172 2.27368H35.0603C36.0006 2.27368 36.7949 2.98587 36.7949 3.92621V5.11578H26.2792V3.92621ZM30.6844 7.38946H32.3897V11.8397C32.2476 11.8352 32.0106 11.8325 31.8202 11.8325C31.4394 11.8325 31.1107 11.8425 30.6844 11.8586V7.38946ZM55.6921 15.4339L50.9827 20.2389C50.6141 19.8397 50.2339 19.4517 49.8414 19.0754L54.5825 14.3348C54.5914 14.3254 54.6014 14.316 54.6119 14.3065C54.9267 14.034 55.3996 14.0556 55.6877 14.3565C55.9758 14.6574 55.9775 15.1309 55.6916 15.4334L55.6921 15.4339Z" fill="#3964F9"/>
</g>
<defs>
<clipPath id="clip0">
<rect width="64" height="64" fill="white"/>
</clipPath>
</defs>
</svg>
