<svg width="64" height="64" viewBox="0 0 64 64" fill="none" xmlns="http://www.w3.org/2000/svg">
<g clip-path="url(#clip0)">
<path d="M35.9833 42.4404V36.4637C35.9719 32.152 32.4656 28.6665 28.1539 28.6805H24.2986V26.6966C24.7156 26.3636 25.1135 26.0067 25.4895 25.6281C27.5393 23.5348 28.685 20.721 28.6804 17.7915V8.89627H30.1067C30.6944 8.89419 31.1695 8.41649 31.169 7.82936C31.1648 3.50882 27.6648 0.00726212 23.3448 7.09891e-07H16.3842C15.461 -0.000517962 14.5606 0.283196 13.8043 0.81276C9.58597 2.45539 6.7981 6.50726 6.77165 11.0342V17.791C6.76698 20.7204 7.91325 23.5353 9.96408 25.6281C10.4573 26.1214 10.9879 26.5757 11.5517 26.9876V28.6805H7.82248C5.75246 28.6738 3.76491 29.4907 2.29758 30.9507C0.830259 32.4108 0.00349521 34.3942 -0.000135505 36.4637V42.4404C-0.00376622 43.0368 0.466151 43.5285 1.06211 43.5519H34.9143C35.5118 43.529 35.9838 43.0379 35.9833 42.4404ZM16.3842 2.12448H23.3448C26.0865 2.125 28.4397 4.07728 28.9459 6.77179H16.3847C15.1015 6.77179 14.0611 5.73133 14.0611 4.44813C14.0611 3.16494 15.1015 2.12448 16.3847 2.12448H16.3842ZM11.9413 4.41234C11.9413 4.42272 11.9407 4.43309 11.9407 4.44347C11.9418 6.08817 12.851 7.59751 14.3043 8.36826C12.3028 10.3382 10.1498 10.7531 8.94592 10.8102C9.01646 8.35529 10.101 6.0389 11.9413 4.41234ZM8.89613 17.7915V12.9326C10.7551 12.8662 13.9693 12.2158 16.7011 8.89627H26.5559V17.7915C26.5668 20.1644 25.6435 22.4471 23.9864 24.1457C22.3609 25.8537 20.1057 26.82 17.7478 26.82C15.3899 26.82 13.1352 25.8537 11.5097 24.1457C9.84011 22.4512 8.90184 20.1701 8.89613 17.7915ZM17.727 28.945C19.2623 28.9512 20.7805 28.6214 22.1741 27.9782V29.1136L17.8116 31.8221L13.6762 29.1286V28.1499C14.9636 28.6701 16.3386 28.9398 17.727 28.9445V28.945ZM2.12435 36.4637C2.12746 34.9575 2.73016 33.514 3.79914 32.4523C4.86864 31.3906 6.31574 30.7977 7.82248 30.805H12.3593L16.7302 33.6566V41.4274H2.12435V36.4637ZM33.8588 41.4274H18.8546V33.6717L23.5782 30.805H28.1539C29.6612 30.7977 31.1098 31.39 32.1798 32.4512C33.2499 33.513 33.8541 34.9564 33.8588 36.4637V41.4274Z" fill="#3964F9"/>
<path d="M15.2433 14.8008C14.6566 14.8008 14.181 15.2764 14.181 15.863C14.181 16.2095 13.9004 16.4901 13.5539 16.4901C13.2075 16.4901 12.9269 16.2095 12.9269 15.863C12.9269 15.2764 12.4512 14.8008 11.8646 14.8008C11.278 14.8008 10.8024 15.2764 10.8024 15.863C10.8024 17.3827 12.0342 18.6146 13.5539 18.6146C15.0737 18.6146 16.3055 17.3827 16.3055 15.863C16.3055 15.2764 15.8299 14.8008 15.2433 14.8008Z" fill="#3964F9"/>
<path d="M22 18.6146C23.5192 18.613 24.75 17.3822 24.7516 15.863C24.7516 15.2764 24.2759 14.8008 23.6893 14.8008C23.1027 14.8008 22.6271 15.2764 22.6271 15.863C22.6307 16.0892 22.5119 16.2997 22.3164 16.4139C22.1209 16.528 21.8797 16.528 21.6841 16.4139C21.4886 16.2997 21.3703 16.0892 21.3734 15.863C21.3734 15.2764 20.8978 14.8008 20.3112 14.8008C19.7246 14.8008 19.249 15.2764 19.249 15.863C19.2505 17.3822 20.4813 18.613 22 18.6146Z" fill="#3964F9"/>
<path d="M49.5757 35.1515C41.6094 35.1515 35.1515 41.6095 35.1515 49.5758C35.1515 57.5421 41.6094 64 49.5757 64C57.542 64 64 57.5421 64 49.5758C63.9912 41.6131 57.5384 35.1603 49.5757 35.1515ZM49.5757 61.8756C42.7827 61.8756 37.2759 56.3688 37.2759 49.5758C37.2759 42.7827 42.7827 37.276 49.5757 37.276C56.3688 37.276 61.8755 42.7827 61.8755 49.5758C61.8677 56.3657 56.3657 61.8678 49.5757 61.8756Z" fill="#3964F9"/>
<path d="M54.7759 49.6597H49.9253V42.89C49.9253 42.3034 49.4497 41.8278 48.8631 41.8278C48.2765 41.8278 47.8008 42.3034 47.8008 42.89V50.6903C47.7842 51.2769 48.2459 51.7666 48.833 51.7842H54.7759C55.3626 51.7842 55.8382 51.3086 55.8382 50.722C55.8382 50.1353 55.3626 49.6597 54.7759 49.6597Z" fill="#3964F9"/>
<path d="M44.694 12.568C44.2816 12.1505 43.6084 12.1453 43.1904 12.5576C42.7728 12.97 42.7682 13.6432 43.18 14.0608L46.3771 17.2988L46.3797 17.3014C46.3973 17.3191 46.4165 17.3357 46.4357 17.3523C46.4424 17.3585 46.4487 17.3657 46.4564 17.3714C46.5908 17.483 46.7516 17.5592 46.9232 17.594C46.9248 17.594 46.9264 17.594 46.9279 17.5945C46.9606 17.6012 46.9933 17.6287 47.0265 17.6318C47.0617 17.6354 47.097 17.6598 47.1328 17.6598H47.1338C47.1572 17.6598 47.179 17.6354 47.2002 17.6339C47.3901 17.6183 47.5726 17.5525 47.7282 17.443C47.7308 17.4409 47.7339 17.4332 47.7365 17.4311C47.7619 17.4135 47.7868 17.3922 47.8102 17.3725C47.8195 17.3647 47.8283 17.3548 47.8366 17.3471C47.8537 17.332 47.8709 17.3165 47.8864 17.3004L47.8906 17.2962L51.0638 14.0582C51.3439 13.7905 51.4559 13.3912 51.3558 13.0167C51.2562 12.6422 50.9601 12.3523 50.584 12.2594C50.2075 12.1666 49.8107 12.2859 49.5483 12.5711L48.1992 13.9508V8.25474C48.195 6.62352 47.5431 5.06076 46.3859 3.91086C45.2293 2.76097 43.6624 2.11833 42.0316 2.12456H34.9388C34.3517 2.12456 33.8766 2.60018 33.8766 3.1868C33.8766 3.77342 34.3517 4.24904 34.9388 4.24904H42.0316C43.0991 4.2423 44.126 4.66086 44.8843 5.41242C45.6432 6.16398 46.0716 7.1868 46.0747 8.25474V13.9653L44.694 12.568Z" fill="#3964F9"/>
<path d="M29.0617 59.751H21.9684C20.9009 59.7578 19.874 59.3392 19.1157 58.5876C18.3568 57.8361 17.9284 56.8133 17.9253 55.7453V50.0347L19.306 51.432C19.7184 51.8496 20.3916 51.8542 20.8096 51.4419C21.2277 51.0296 21.2324 50.3568 20.82 49.9388L17.6229 46.7007L17.6203 46.6981C17.6027 46.6805 17.5835 46.6639 17.5643 46.6473C17.5576 46.6411 17.5513 46.6338 17.5441 46.6281C17.4092 46.5166 17.2484 46.4403 17.0768 46.4056C17.0752 46.4056 17.0737 46.4056 17.0721 46.4051C17.0399 46.3983 17.0067 46.3708 16.9735 46.3677C16.9404 46.3641 16.903 46.3397 16.8672 46.3397H16.8662C16.8428 46.3397 16.8211 46.3641 16.7998 46.3657C16.61 46.3812 16.4279 46.4471 16.2718 46.5565C16.2687 46.5586 16.2656 46.5669 16.2624 46.5695C16.2376 46.5871 16.2132 46.6079 16.1898 46.6271C16.1805 46.6348 16.1722 46.6447 16.1634 46.653C16.1463 46.668 16.1291 46.6836 16.1136 46.6997L16.1094 46.7033L12.9362 49.9414C12.6561 50.2095 12.5441 50.6084 12.6442 50.9829C12.7443 51.3574 13.0399 51.6478 13.416 51.7407C13.7925 51.8335 14.1893 51.7137 14.4518 51.4284L15.8008 50.0493V55.7458C15.805 57.3765 16.457 58.9393 17.6141 60.0892C18.7707 61.2391 20.3377 61.8817 21.9684 61.8755H29.0617C29.6483 61.8755 30.124 61.3999 30.124 60.8133C30.124 60.2267 29.6483 59.751 29.0617 59.751Z" fill="#3964F9"/>
</g>
<defs>
<clipPath id="clip0">
<rect width="64" height="64" fill="white"/>
</clipPath>
</defs>
</svg>
