<svg width="450" height="290" viewBox="0 0 450 290" fill="none" xmlns="http://www.w3.org/2000/svg">
<g clip-path="url(#clip0)">
<path fill-rule="evenodd" clip-rule="evenodd" d="M148.713 29.3992C149.267 29.5407 149.601 30.1046 149.46 30.6586L148.434 34.6725C148.293 35.2265 147.729 35.5608 147.175 35.4193C146.621 35.2777 146.286 34.7139 146.428 34.1599L147.453 30.1459C147.595 29.592 148.158 29.2576 148.713 29.3992ZM145.637 41.4413C146.191 41.5826 146.526 42.1466 146.384 42.7007L144.334 50.7284C144.192 51.2825 143.628 51.6165 143.074 51.4751C142.52 51.3337 142.185 50.7698 142.327 50.2157L144.377 42.188C144.518 41.6339 145.082 41.2994 145.637 41.4413ZM141.536 57.4967C142.09 57.6386 142.425 58.2025 142.283 58.7561L140.233 66.7843C140.091 67.3384 139.527 67.6724 138.973 67.531C138.419 67.3892 138.084 66.8257 138.226 66.2716L140.276 58.2434C140.418 57.6898 140.982 57.3553 141.536 57.4967ZM137.435 73.5526C137.989 73.6945 138.323 74.2579 138.182 74.812L136.131 82.8402C135.99 83.3938 135.426 83.7284 134.872 83.587C134.318 83.4451 133.983 82.8812 134.125 82.3276L136.175 74.2994C136.317 73.7458 136.881 73.4112 137.435 73.5526ZM133.334 89.6085C133.888 89.7499 134.223 90.3139 134.081 90.868L132.031 98.8957C131.889 99.4498 131.325 99.7843 130.771 99.6424C130.217 99.501 129.882 98.9371 130.023 98.383L132.074 90.3553C132.215 89.8012 132.779 89.4672 133.334 89.6085ZM129.233 105.664C129.787 105.806 130.122 106.37 129.98 106.924L127.93 114.952C127.788 115.506 127.224 115.84 126.67 115.698C126.116 115.557 125.781 114.993 125.923 114.439L127.973 106.411C128.115 105.857 128.679 105.523 129.233 105.664ZM125.132 121.72C125.686 121.862 126.02 122.426 125.879 122.98L123.828 131.008C123.687 131.562 123.123 131.896 122.569 131.754C122.015 131.613 121.68 131.049 121.822 130.495L123.872 122.467C124.014 121.913 124.578 121.579 125.132 121.72ZM121.031 137.776C121.585 137.918 121.92 138.482 121.778 139.035L119.727 147.063C119.586 147.618 119.022 147.952 118.468 147.81C117.913 147.668 117.579 147.105 117.72 146.551L119.771 138.523C119.912 137.969 120.476 137.634 121.031 137.776ZM116.93 153.832C117.484 153.974 117.819 154.537 117.677 155.091L116.652 159.105C116.51 159.659 115.946 159.994 115.392 159.852C114.838 159.71 114.503 159.146 114.645 158.592L115.67 154.579C115.812 154.025 116.375 153.69 116.93 153.832Z" fill="#D8DCDD"/>
<path fill-rule="evenodd" clip-rule="evenodd" d="M385.496 253.379C385.409 253.944 384.879 254.331 384.313 254.244L380.348 253.63C379.782 253.543 379.394 253.014 379.482 252.449C379.569 251.883 380.099 251.496 380.664 251.583L384.63 252.197C385.196 252.284 385.584 252.814 385.496 253.379ZM373.598 251.538C373.51 252.103 372.981 252.49 372.415 252.403L364.483 251.176C363.917 251.088 363.53 250.559 363.617 249.993C363.705 249.428 364.234 249.041 364.8 249.129L372.732 250.356C373.298 250.443 373.685 250.973 373.598 251.538ZM357.733 249.083C357.646 249.649 357.117 250.036 356.551 249.948L348.619 248.721C348.053 248.634 347.665 248.104 347.753 247.539C347.84 246.974 348.37 246.586 348.936 246.674L356.867 247.901C357.433 247.989 357.821 248.518 357.733 249.083ZM341.869 246.628C341.781 247.194 341.252 247.581 340.686 247.494L332.754 246.266C332.188 246.179 331.801 245.65 331.888 245.084C331.976 244.519 332.505 244.132 333.071 244.219L341.003 245.447C341.569 245.534 341.956 246.063 341.869 246.628ZM326.004 244.174C325.917 244.739 325.387 245.127 324.822 245.039L316.889 243.812C316.324 243.724 315.937 243.195 316.024 242.63C316.111 242.065 316.641 241.677 317.206 241.765L325.139 242.992C325.704 243.08 326.092 243.609 326.004 244.174ZM310.14 241.719C310.052 242.285 309.523 242.672 308.958 242.585L301.025 241.357C300.46 241.27 300.072 240.74 300.159 240.175C300.247 239.61 300.776 239.223 301.342 239.31L309.274 240.537C309.84 240.625 310.227 241.154 310.14 241.719ZM294.275 239.265C294.188 239.83 293.659 240.217 293.093 240.13L285.161 238.902C284.595 238.815 284.207 238.286 284.295 237.72C284.382 237.155 284.912 236.768 285.477 236.856L293.41 238.083C293.975 238.17 294.363 238.699 294.275 239.265ZM278.411 236.81C278.324 237.375 277.794 237.762 277.228 237.675L269.296 236.447C268.73 236.36 268.343 235.831 268.431 235.266C268.518 234.7 269.047 234.313 269.613 234.4L277.545 235.628C278.111 235.715 278.498 236.245 278.411 236.81ZM262.546 234.355C262.459 234.92 261.93 235.308 261.364 235.22L253.432 233.993C252.866 233.905 252.478 233.376 252.566 232.811C252.653 232.246 253.183 231.858 253.749 231.946L261.68 233.173C262.246 233.261 262.634 233.79 262.546 234.355ZM246.682 231.901C246.594 232.466 246.065 232.853 245.499 232.766L237.567 231.538C237.002 231.451 236.614 230.922 236.701 230.357C236.789 229.791 237.318 229.404 237.884 229.491L245.816 230.719C246.382 230.806 246.769 231.335 246.682 231.901ZM230.818 229.446C230.73 230.011 230.2 230.398 229.635 230.311L221.702 229.084C221.137 228.996 220.75 228.467 220.837 227.902C220.925 227.336 221.454 226.949 222.019 227.037L229.952 228.264C230.517 228.351 230.905 228.881 230.818 229.446ZM214.953 226.992C214.865 227.557 214.336 227.944 213.771 227.856L205.838 226.629C205.273 226.542 204.885 226.012 204.972 225.447C205.06 224.882 205.59 224.494 206.155 224.582L214.087 225.809C214.653 225.897 215.04 226.426 214.953 226.992ZM199.088 224.537C199.001 225.102 198.472 225.489 197.906 225.402L189.974 224.174C189.408 224.087 189.02 223.558 189.108 222.993C189.195 222.427 189.725 222.04 190.291 222.127L198.223 223.355C198.788 223.442 199.176 223.971 199.088 224.537ZM183.224 222.082C183.137 222.647 182.607 223.035 182.041 222.947L174.109 221.72C173.543 221.632 173.156 221.103 173.244 220.538C173.331 219.973 173.86 219.585 174.426 219.673L182.358 220.9C182.924 220.988 183.312 221.517 183.224 222.082ZM167.359 219.627C167.272 220.193 166.743 220.58 166.177 220.493L158.245 219.265C157.679 219.178 157.292 218.648 157.379 218.083C157.466 217.518 157.996 217.131 158.562 217.218L166.494 218.445C167.059 218.533 167.447 219.062 167.359 219.627ZM151.495 217.173C151.407 217.738 150.878 218.125 150.313 218.038L146.346 217.424C145.781 217.337 145.393 216.808 145.481 216.242C145.568 215.677 146.097 215.29 146.663 215.377L150.629 215.991C151.195 216.078 151.582 216.608 151.495 217.173Z" fill="#D8DCDD"/>
<path d="M449.033 68.7532C449.033 90.346 431.528 107.851 409.936 107.851C388.343 107.851 370.838 90.346 370.838 68.7532C370.838 47.1604 388.343 29.6555 409.936 29.6555C431.528 29.6555 449.033 47.1604 449.033 68.7532Z" fill="#D8DCDD"/>
<path fill-rule="evenodd" clip-rule="evenodd" d="M295.092 30.4094C295.455 30.8511 295.391 31.504 294.95 31.8678L291.605 34.6203C291.164 34.9841 290.511 34.921 290.147 34.4794C289.784 34.0377 289.847 33.3848 290.289 33.021L293.633 30.2685C294.075 29.9047 294.728 29.9678 295.092 30.4094ZM285.06 38.6672C285.423 39.1084 285.36 39.7614 284.918 40.1254L278.23 45.6302C277.788 45.9942 277.135 45.931 276.772 45.4893C276.408 45.0476 276.471 44.3946 276.913 44.031L283.602 38.5258C284.043 38.1622 284.696 38.2254 285.06 38.6672ZM271.684 49.6772C272.048 50.1184 271.984 50.7714 271.542 51.1354L264.854 56.6402C264.412 57.0042 263.759 56.941 263.396 56.4993C263.032 56.0576 263.096 55.4051 263.538 55.041L270.225 49.5363C270.668 49.1723 271.321 49.2354 271.684 49.6772ZM258.308 60.6872C258.672 61.1289 258.608 61.7814 258.166 62.1454L251.478 67.6502C251.037 68.0142 250.384 67.951 250.02 67.5093C249.656 67.0676 249.72 66.4151 250.162 66.051L256.85 60.5463C257.292 60.1823 257.945 60.2454 258.308 60.6872ZM244.933 71.6972C245.296 72.1389 245.232 72.7914 244.791 73.1554L238.103 78.6602C237.66 79.0242 237.007 78.961 236.644 78.5193C236.281 78.0776 236.344 77.4251 236.786 77.0611L243.474 71.5563C243.916 71.1923 244.569 71.2554 244.933 71.6972ZM231.557 82.7072C231.92 83.1489 231.857 83.8014 231.415 84.1654L224.727 89.6702C224.285 90.0342 223.632 89.971 223.268 89.5293C222.905 89.0876 222.969 88.4351 223.41 88.0711L230.098 82.5663C230.541 82.2023 231.193 82.2654 231.557 82.7072ZM218.181 93.7172C218.545 94.1589 218.481 94.8119 218.039 95.1754L211.351 100.681C210.909 101.044 210.256 100.981 209.893 100.539C209.529 100.098 209.593 99.4451 210.035 99.0811L216.723 93.5763C217.165 93.2123 217.818 93.2754 218.181 93.7172ZM204.806 104.727C205.169 105.169 205.105 105.822 204.663 106.185L197.976 111.691C197.533 112.054 196.88 111.991 196.517 111.549C196.153 111.108 196.217 110.455 196.659 110.091L203.347 104.586C203.789 104.222 204.442 104.285 204.806 104.727ZM191.429 115.737C191.793 116.179 191.73 116.832 191.288 117.195L184.6 122.701C184.158 123.064 183.505 123.001 183.141 122.559C182.778 122.118 182.841 121.465 183.283 121.101L189.971 115.596C190.413 115.232 191.066 115.295 191.429 115.737ZM178.054 126.747C178.417 127.189 178.354 127.842 177.912 128.205L171.224 133.711C170.782 134.074 170.129 134.011 169.766 133.569C169.402 133.128 169.465 132.475 169.908 132.111L176.596 126.606C177.037 126.242 177.69 126.305 178.054 126.747ZM164.678 137.757C165.042 138.199 164.978 138.852 164.536 139.215L157.848 144.721C157.406 145.084 156.753 145.021 156.39 144.58C156.026 144.138 156.09 143.485 156.532 143.121L163.22 137.616C163.662 137.252 164.315 137.315 164.678 137.757ZM151.302 148.767C151.666 149.209 151.602 149.862 151.16 150.225L147.817 152.978C147.374 153.342 146.721 153.279 146.358 152.837C145.994 152.396 146.058 151.743 146.5 151.379L149.844 148.626C150.286 148.262 150.939 148.325 151.302 148.767Z" fill="#D8DCDD"/>
<path fill-rule="evenodd" clip-rule="evenodd" d="M299.141 148.27C299.27 148.827 298.923 149.383 298.365 149.513L294.146 150.492C293.588 150.621 293.032 150.274 292.902 149.717C292.773 149.16 293.12 148.603 293.678 148.474L297.897 147.495C298.455 147.366 299.011 147.713 299.141 148.27ZM286.483 151.206C286.613 151.763 286.265 152.32 285.708 152.449L277.27 154.406C276.712 154.536 276.155 154.189 276.026 153.631C275.897 153.074 276.244 152.518 276.802 152.389L285.24 150.431C285.797 150.302 286.354 150.649 286.483 151.206ZM269.607 155.121C269.737 155.678 269.389 156.234 268.831 156.364L260.394 158.321C259.836 158.45 259.279 158.104 259.15 157.546C259.021 156.989 259.368 156.432 259.925 156.303L268.364 154.346C268.921 154.217 269.478 154.563 269.607 155.121ZM252.731 159.035C252.86 159.592 252.513 160.149 251.955 160.278L243.517 162.235C242.96 162.365 242.403 162.018 242.274 161.461C242.145 160.904 242.492 160.347 243.049 160.218L251.488 158.26C252.045 158.131 252.602 158.478 252.731 159.035ZM235.855 162.95C235.984 163.507 235.637 164.063 235.079 164.193L226.641 166.15C226.083 166.279 225.527 165.933 225.397 165.376C225.268 164.818 225.615 164.262 226.173 164.132L234.611 162.175C235.169 162.046 235.726 162.392 235.855 162.95ZM218.979 166.865C219.108 167.422 218.761 167.978 218.203 168.107L209.765 170.065C209.207 170.194 208.651 169.847 208.521 169.29C208.392 168.733 208.739 168.176 209.297 168.047L217.735 166.09C218.292 165.96 218.85 166.307 218.979 166.865ZM202.102 170.779C202.232 171.336 201.884 171.893 201.327 172.022L192.889 173.979C192.331 174.109 191.774 173.762 191.645 173.205C191.516 172.647 191.863 172.091 192.421 171.962L200.859 170.004C201.416 169.875 201.973 170.222 202.102 170.779ZM185.226 174.694C185.356 175.251 185.008 175.807 184.45 175.937L176.013 177.894C175.455 178.024 174.898 177.677 174.769 177.119C174.64 176.562 174.987 176.006 175.544 175.876L183.983 173.919C184.54 173.79 185.097 174.137 185.226 174.694ZM168.35 178.608C168.479 179.166 168.132 179.722 167.574 179.852L159.136 181.809C158.579 181.938 158.022 181.591 157.892 181.034C157.764 180.477 158.11 179.92 158.668 179.791L167.107 177.834C167.664 177.704 168.221 178.051 168.35 178.608ZM151.474 182.523C151.603 183.08 151.256 183.637 150.698 183.766L142.26 185.724C141.702 185.853 141.146 185.506 141.016 184.949C140.887 184.392 141.234 183.835 141.792 183.706L150.23 181.748C150.788 181.619 151.345 181.966 151.474 182.523ZM134.598 186.438C134.727 186.995 134.38 187.552 133.822 187.681L125.384 189.638C124.826 189.767 124.27 189.42 124.14 188.863C124.011 188.306 124.358 187.749 124.916 187.62L133.354 185.663C133.911 185.534 134.469 185.88 134.598 186.438ZM117.721 190.352C117.851 190.909 117.503 191.466 116.946 191.595L112.727 192.574C112.169 192.703 111.612 192.357 111.483 191.799C111.354 191.242 111.701 190.686 112.259 190.556L116.478 189.577C117.035 189.448 117.592 189.795 117.721 190.352Z" fill="#D8DCDD"/>
<path d="M370.838 136.592C370.838 161.044 351.015 180.868 326.562 180.868C302.109 180.868 282.286 161.044 282.286 136.592C282.286 112.139 302.109 92.3154 326.562 92.3154C351.015 92.3154 370.838 112.139 370.838 136.592Z" fill="#F87373"/>
<path d="M435.522 251.285C436.529 271.136 421.253 288.044 401.402 289.051C381.551 290.058 364.642 274.782 363.635 254.931C362.629 235.08 377.905 218.171 397.756 217.164C417.607 216.158 434.515 231.434 435.522 251.285Z" fill="#D8DCDD"/>
<path d="M231.536 263.465C231.536 272.76 224.001 280.295 214.706 280.295C205.411 280.295 197.876 272.76 197.876 263.465C197.876 254.17 205.411 246.635 214.706 246.635C224.001 246.635 231.536 254.17 231.536 263.465Z" fill="#D8DCDD"/>
<path d="M326.303 25.2538C326.303 38.8391 315.29 49.8517 301.705 49.8517C288.12 49.8517 277.107 38.8391 277.107 25.2538C277.107 11.6688 288.12 0.655945 301.705 0.655945C315.29 0.655945 326.303 11.6688 326.303 25.2538Z" fill="#D8DCDD"/>
<path d="M167.462 30.2504C164.257 40.1855 153.606 45.641 143.671 42.436C133.736 39.2316 128.28 28.5795 131.485 18.6446C134.69 8.70972 145.341 3.25396 155.276 6.45878C165.211 9.66365 170.667 20.3155 167.462 30.2504Z" fill="#D8DCDD"/>
<path d="M0.575378 198.216C0.575378 243.547 37.3236 280.295 82.6546 280.295C127.986 280.295 164.734 243.547 164.734 198.216C164.734 152.885 127.986 116.136 82.6546 116.136C37.3236 116.136 0.575378 152.885 0.575378 198.216Z" fill="#4067F0"/>
<path d="M7.82529 198.216C7.82529 239.543 41.3276 273.045 82.6546 273.045C123.982 273.045 157.484 239.543 157.484 198.216C157.484 156.889 123.982 123.386 82.6546 123.386C41.3276 123.386 7.82529 156.889 7.82529 198.216Z" fill="#FEFEFE"/>
<path d="M125.885 139.316C123.51 133.357 115.732 128.331 114.178 128.047C111.845 129.111 111.086 134.251 110.407 134.421C109.729 134.592 90.7594 154.356 81.36 164.217C81.36 164.217 88.6451 179.537 96.1161 193.918C97.5567 196.691 90.7548 223.063 92.1581 225.65C94.0126 229.068 102.405 224.551 106.111 230.683C108.082 233.943 118.252 212.082 118.252 212.082C118.252 212.082 115.268 223.242 110.407 232.653C114.396 231.121 125.171 219.084 128.005 213.395C131.708 205.961 131.821 202.91 128.005 195.887C124.188 188.864 128.217 176.135 132.033 168.26C135.85 160.386 128.853 146.765 125.885 139.316Z" fill="#1E1D3D"/>
<path d="M94.4776 236.039L96.8955 209.084L64.5443 192.778L60.1281 220.224C62.3373 224.345 70.4447 233.229 79.5081 233.911C88.572 234.593 93.1234 238.383 94.4776 236.039Z" fill="#FDCAAD"/>
<path d="M119.716 162.483C119.716 154.838 123.117 151.229 117.378 136.153C111.639 121.078 96.1223 120.101 84.219 117.043C69.3401 113.221 56.1888 122.03 47.8716 133.181C39.7947 144.01 36.9792 151.088 38.0941 159.722C39.7947 172.887 39.1568 174.373 44.4709 183.292C47.7862 188.856 56.5865 188.813 56.5865 188.813C56.5865 188.813 55.7787 188.812 72.1034 204.101C92.5087 223.21 107.388 210.682 113.977 199.854C120.566 189.024 119.716 172.038 119.716 162.483Z" fill="#FDCAAD"/>
<path d="M89.9594 214.192C94.0939 214.656 95.6117 214.105 96.3776 213.719C94.6237 215.439 90.2665 218.019 82.7245 216.802C75.1831 215.584 69.351 206.148 67.378 201.582C67.378 201.582 75.3151 212.552 89.9594 214.192Z" fill="#ECA98E"/>
<path d="M49.9493 174.796C49.8685 175.941 50.1906 176.634 50.3014 176.841C49.824 176.375 48.9301 174.919 49.1777 172.828C49.4252 170.737 51.886 169.035 53.0859 168.445C53.0859 168.445 50.2367 170.743 49.9493 174.796Z" fill="#ECA98E"/>
<path d="M136.252 250.384C133.296 242.337 125.344 240.471 116.922 238.496C108.669 236.559 100.231 235.025 95.3419 226.956C95.3419 226.956 89.9625 234.122 79.5237 233.19C71.323 232.457 66.1171 226.408 62.2285 221.889C61.1669 220.656 60.2037 219.537 59.3048 218.671C59.3048 218.671 33.0441 220.823 20.7715 240.432C34.2626 260.125 56.917 273.045 82.5878 273.045C103.632 273.045 122.649 264.363 136.252 250.384Z" fill="#FFD501"/>
<path d="M81.432 239.951C76.0577 238.969 62.7795 233.169 56.2909 227.811C66.4335 236.187 81.8058 243.203 87.9507 243.451C94.096 243.7 93.5186 238.355 93.5067 233.477C91.6652 241.036 86.8062 240.934 81.432 239.951Z" fill="#FFA001"/>
<path d="M82.9135 169.475C82.9135 170.905 84.073 172.064 85.5028 172.064C86.9325 172.064 88.092 170.905 88.092 169.475C88.092 168.045 86.9325 166.886 85.5028 166.886C84.073 166.886 82.9135 168.045 82.9135 169.475Z" fill="#1E1D3D"/>
<path d="M109.324 167.921C109.324 169.351 110.483 170.511 111.913 170.511C113.343 170.511 114.502 169.351 114.502 167.921C114.502 166.492 113.343 165.332 111.913 165.332C110.483 165.332 109.324 166.492 109.324 167.921Z" fill="#1E1D3D"/>
<path d="M116.574 165.209C112.054 160.229 106.735 166.368 106.735 166.368C106.735 166.368 111.763 163.586 116.574 165.209Z" fill="#1E1D3D"/>
<path d="M81.36 166.763C86.6555 161.782 91.1991 167.921 91.1991 167.921C91.1991 167.921 86.1703 165.14 81.36 166.763Z" fill="#1E1D3D"/>
<path d="M115.986 156.82C111.691 148.889 105.237 155.082 106.303 155.984C107.369 156.887 111.459 154.215 115.986 156.82Z" fill="#1E1D3D"/>
<path d="M78.8774 157.52C83.2718 149.729 88.9811 154.718 88.6684 156.636C88.3556 158.555 83.2527 155.071 78.8774 157.52Z" fill="#1E1D3D"/>
<path d="M105.695 182.521C105.87 177.753 99.738 165.674 97.4133 160.672C98.2854 163.982 103.952 180.058 103.952 181.858C103.952 184.245 100.246 184.581 98.7209 183.845C100.755 185.316 105.521 187.288 105.695 182.521Z" fill="#1E1D3D"/>
<path d="M90.9619 188.118C93.7739 193.989 101.058 192.05 102.592 191.392C100.401 195.341 95.33 194.508 93.255 193.47C91.1805 192.431 90.1427 189.314 90.9619 188.118Z" fill="#1E1D3D"/>
<path d="M120.826 135.333C120.258 131.294 113.08 119.494 106.262 115.439C97.3258 110.125 78.1275 102.196 59.8806 111.942C38.3914 123.42 37.6338 127.255 35.5059 141.497C33.3786 155.738 20.827 159.125 24.657 173.579C27.9003 185.819 21.5939 182.802 21.8129 196.55C22.0315 210.299 29.0328 204.834 23.5633 219.479C29.9085 216.446 31.8716 212.248 32.3786 210.807C31.796 212.808 29.8986 220.155 32.5329 222.976C35.0854 224.682 34.9399 219.916 42.3783 225.38C49.8167 230.844 50.9373 233.03 62.5061 229.096C62.5061 229.096 60.3182 219.26 62.5061 210.299C64.694 201.337 64.694 193.469 64.694 193.469L57.2085 187.41C54.8678 187.056 51.2076 186.452 49.3361 183.371C45.719 177.42 43.166 165.87 49.3361 165.273C54.6125 164.763 57.2085 165.273 59.8806 168.77C62.315 165.273 65.2274 170.845 68.7275 161.665C72.2282 152.485 71.9429 145.566 89.4457 146.659C106.948 147.752 102.912 123.374 120.004 143.037C123.323 146.854 118.627 136.891 120.826 135.333Z" fill="#1E1D3D"/>
<path d="M49.1497 217.285C45.4036 223.019 46.5004 226.334 48.1896 229.49L44.8759 227.023C43.4233 222.9 46.475 220.151 49.1497 217.285Z" fill="#434266"/>
<path d="M74.5248 141.775C83.8891 136.969 90.1095 142.979 98.7727 128.243C89.0956 133 94.852 125.289 94.852 125.289C94.852 125.289 86.8077 134.691 74.5248 141.775C74.0728 142.007 73.6134 142.264 73.1458 142.55C73.6114 142.295 74.0707 142.036 74.5248 141.775Z" fill="#434266"/>
<path d="M48.1316 156.817C54.411 152.445 54.0656 148.552 61.6527 150.497C49.7934 147.457 48.5863 156.383 43.3032 158.641C38.0195 160.899 37.656 164.85 39.5886 168.989C38.163 161.827 41.8522 161.189 48.1316 156.817Z" fill="#434266"/>
</g>
<defs>
<clipPath id="clip0">
<rect width="450" height="289.628" fill="white"/>
</clipPath>
</defs>
</svg>
