<svg width="450" height="257" viewBox="0 0 450 257" fill="none" xmlns="http://www.w3.org/2000/svg">
<path d="M34.6722 254.913C34.6722 254.913 -18.6689 190.658 7.40003 124.509C24.3924 81.3904 88.1333 57.7638 124.106 81.3904C139.426 91.4535 188.581 81.7298 214.826 40.0688C265.827 -40.8883 443.822 8.27754 411.417 132.575C395.736 192.727 459.143 194.913 426.834 255.04L34.6722 254.913Z" fill="#EBF3FA"/>
<path d="M74.1564 149.162C74.1564 149.162 68.7767 142.886 73.8246 138.898C73.8246 138.898 77.5119 136.667 80.5185 136.848C80.5185 136.848 76.2583 143.991 77.6366 144.702C79.0146 145.412 81.8096 136.4 81.8096 136.4C81.8096 136.4 90.2005 135.587 92.8997 136.884C92.8997 136.884 85.7266 142.754 87.2374 143.103C88.748 143.453 96.496 137.692 96.496 137.692C96.496 137.692 104.305 139.021 103.889 143.785C103.473 148.548 100.782 150.02 99.5991 149.893C98.4163 149.766 91.4978 147.125 91.3472 148.094C91.1965 149.063 95.361 152.23 98.2773 152.378C98.2773 152.378 92.7714 158.451 89.1122 156.698C85.453 154.946 85.1405 152.169 82.8596 151.127C80.5786 150.085 78.6314 150.086 79.5731 151.149C80.5148 152.211 84.6432 153.244 85.9475 155.552C87.252 157.859 88.4223 159.415 84.6365 158.846C80.8506 158.276 74.6966 155.506 74.4265 152.334C74.1564 149.162 74.1564 149.162 74.1564 149.162Z" fill="#C8DBF4"/>
<path d="M100.052 143.914C100.052 143.914 78.8407 143.095 74.1564 149.162C74.1564 149.162 73.1204 152.264 69.9326 155.09L69.4359 156.444C69.4359 156.444 73.1114 152.568 74.4265 152.333C74.4265 152.333 72.3698 144.819 100.052 143.914Z" fill="#C8DBF4"/>
<path d="M69.9325 155.09C69.9325 155.09 65.3798 158.457 65.0635 164.473L65.8898 164.547C65.8898 164.547 67.344 158.325 69.9722 155.894C72.6003 153.461 69.9325 155.09 69.9325 155.09Z" fill="#C8DBF4"/>
<path d="M55.3473 141.268C55.3473 141.268 63.9049 136.477 59.9113 129.973C59.9113 129.973 56.7165 125.979 53.2934 124.953C53.2934 124.953 55.1191 134.651 53.2934 134.88C51.4678 135.108 52.0384 123.925 52.0384 123.925C52.0384 123.925 43.0243 119.589 39.4872 119.932C39.4872 119.932 45.0781 129.402 43.2525 129.173C41.4268 128.946 35.1514 119.361 35.1514 119.361C35.1514 119.361 25.909 117.649 24.4258 123.127C22.9424 128.604 25.3385 131.341 26.7077 131.684C28.077 132.026 36.8628 131.912 36.6346 133.054C36.4064 134.194 30.4732 136.02 27.1641 134.994C27.1641 134.994 30.8154 144.007 35.6077 143.55C40.3999 143.095 41.8833 140.128 44.8499 139.899C47.8167 139.671 49.9846 140.47 48.5012 141.268C47.0178 142.067 41.9975 141.531 39.6012 143.568C37.2051 145.604 35.2654 146.86 39.7154 147.772C44.1654 148.686 52.1525 148.115 53.7499 144.692C55.3473 141.268 55.3473 141.268 55.3473 141.268Z" fill="#C8DBF4"/>
<path d="M28.6475 124.839C28.6475 124.839 52.6089 132.597 55.3473 141.268C55.3473 141.268 55.2333 145.149 57.6294 149.598V151.311C57.6294 151.311 55.1191 145.49 53.7499 144.692C53.7499 144.692 59.1126 137.162 28.6475 124.839Z" fill="#C8DBF4"/>
<path d="M57.6293 149.598C57.6293 149.598 61.3246 155.21 59.2179 162.04L58.2672 161.784C58.2672 161.784 59.19 154.262 57.2566 150.478C55.3235 146.694 57.6293 149.598 57.6293 149.598Z" fill="#C8DBF4"/>
<path d="M68.9618 134.659C68.9618 134.659 57.6812 128.342 62.9455 119.77C62.9455 119.77 67.1569 114.504 71.6692 113.151C71.6692 113.151 69.2627 125.936 71.6692 126.236C74.0757 126.537 73.3236 111.797 73.3236 111.797C73.3236 111.797 85.2059 106.083 89.8686 106.533C89.8686 106.533 82.4984 119.016 84.905 118.717C87.3115 118.415 95.584 105.781 95.584 105.781C95.584 105.781 107.767 103.524 109.722 110.745C111.678 117.965 108.519 121.575 106.714 122.025C104.909 122.477 93.3279 122.326 93.6286 123.83C93.9295 125.335 101.751 127.741 106.112 126.387C106.112 126.387 101.299 138.269 94.9823 137.668C88.6653 137.067 86.7099 133.156 82.7993 132.854C78.8887 132.554 76.0309 133.606 77.9863 134.659C79.9416 135.712 86.5595 135.005 89.718 137.69C92.8766 140.375 95.4335 142.029 89.5677 143.233C83.7017 144.437 73.1732 143.683 71.0675 139.171C68.9618 134.659 68.9618 134.659 68.9618 134.659Z" fill="#D4E4F8"/>
<path d="M104.157 113.001C104.157 113.001 72.5715 123.229 68.9618 134.659C68.9618 134.659 69.1121 139.774 65.9536 145.639V147.896C65.9536 147.896 69.2626 140.224 71.0675 139.171C71.0675 139.171 63.9984 129.244 104.157 113.001Z" fill="#D4E4F8"/>
<path d="M65.9536 145.639C65.9536 145.639 61.0827 153.036 63.8597 162.04L65.1127 161.704C65.1127 161.704 63.8963 151.786 66.4448 146.798C68.9932 141.81 65.9536 145.639 65.9536 145.639Z" fill="#D4E4F8"/>
<path d="M68.5819 181.567C80.7856 181.567 90.6786 171.673 90.6786 159.469H46.485C46.485 171.673 56.3781 181.567 68.5819 181.567Z" fill="#D4E4F8"/>
<path d="M90.9837 182.691H46.1797C46.1797 181.185 47.4003 179.965 48.9059 179.965H88.2575C89.7631 179.965 90.9837 181.185 90.9837 182.691Z" fill="#D4E4F8"/>
<path d="M91.181 160.146H45.7583V159.469H91.181V160.146Z" fill="#9FC1F4"/>
<path d="M182.602 254.453L182.711 254.451C183.604 254.435 184.294 253.706 184.21 252.865L178.253 193.379L173.056 193.844L181.609 253.649C181.676 254.116 182.102 254.462 182.602 254.453Z" fill="#8CB4F4"/>
<path d="M125.248 254.453L125.139 254.451C124.246 254.435 123.557 253.706 123.641 252.865L129.598 193.379L134.795 193.844L126.242 253.649C126.175 254.116 125.748 254.462 125.248 254.453Z" fill="#8CB4F4"/>
<path d="M224.623 254.453L224.732 254.451C225.625 254.435 226.315 253.706 226.231 252.865L220.274 193.379L215.077 193.844L223.63 253.649C223.697 254.116 224.123 254.462 224.623 254.453Z" fill="#8CB4F4"/>
<path d="M127.022 184.727L116.449 132.515C115.092 125.446 120.95 118.982 128.556 119.156L148.947 119.621C155.981 119.782 162.097 124.49 164.052 131.249L179.52 184.727H127.022Z" fill="#8CB4F4"/>
<path d="M133.419 184.727L122.846 132.515C121.489 125.446 127.346 118.982 134.952 119.156L155.343 119.621C162.377 119.782 168.493 124.49 170.448 131.249L185.917 184.727H133.419Z" fill="#8CB4F4"/>
<path d="M129.969 194.25H210.642C212.263 194.25 213.589 192.924 213.589 191.303V187.674C213.589 186.053 212.263 184.727 210.642 184.727H127.022V191.303C127.022 192.924 128.348 194.25 129.969 194.25Z" fill="#8CB4F4"/>
<path d="M167.827 194.25H219.254C220.56 194.25 221.629 193.181 221.629 191.876V187.1C221.629 185.795 220.56 184.727 219.254 184.727H167.827C166.522 184.727 165.453 185.795 165.453 187.1V191.876C165.453 193.181 166.522 194.25 167.827 194.25Z" fill="#8CB4F4"/>
<path d="M102.951 184.047V185.828C102.951 186.452 102.749 186.961 102.503 186.961H37.5C37.2537 186.961 37.0518 186.452 37.0518 185.828V184.047C37.0518 183.424 37.2537 182.915 37.5 182.915H102.503C102.749 182.915 102.951 183.424 102.951 184.047Z" fill="#9ABFE2"/>
<path d="M102.951 184.047V185.828C102.951 186.452 102.766 186.961 102.54 186.961H50.9345C50.7084 186.961 50.523 186.452 50.523 185.828V184.047C50.523 183.424 50.7084 182.915 50.9345 182.915H102.54C102.766 182.915 102.951 183.424 102.951 184.047Z" fill="#BAD4F4"/>
<path d="M86.4991 254.224H40.3509V186.962H86.4991V254.224Z" fill="#C8DBF4"/>
<path d="M99.4316 254.224H53.2834V186.962H99.4316V254.224Z" fill="#DFEBFD"/>
<path d="M56.2085 250.066H96.5076V189.306H56.2085V250.066ZM96.9524 250.511H55.7638V188.862H96.9524V250.511Z" fill="#B7D3F3"/>
<path d="M96.7299 209.701H55.9861V209.257H96.7299V209.701Z" fill="#B7D3F3"/>
<path d="M96.7299 230.491H55.9861V230.047H96.7299V230.491Z" fill="#B7D3F3"/>
<path d="M80.5331 192.838H72.9725C72.6055 192.838 72.3054 192.537 72.3054 192.171C72.3054 191.804 72.6055 191.503 72.9725 191.503H80.5331C80.8999 191.503 81.2001 191.804 81.2001 192.171C81.2001 192.537 80.8999 192.838 80.5331 192.838Z" fill="#B7D3F3"/>
<path d="M80.5331 213.169H72.9725C72.6055 213.169 72.3054 212.869 72.3054 212.503C72.3054 212.135 72.6055 211.835 72.9725 211.835H80.5331C80.8999 211.835 81.2001 212.135 81.2001 212.503C81.2001 212.869 80.8999 213.169 80.5331 213.169Z" fill="#B7D3F3"/>
<path d="M80.5331 234.365H72.9725C72.6055 234.365 72.3054 234.065 72.3054 233.697C72.3054 233.33 72.6055 233.031 72.9725 233.031H80.5331C80.8999 233.031 81.2001 233.33 81.2001 233.697C81.2001 234.065 80.8999 234.365 80.5331 234.365Z" fill="#B7D3F3"/>
<path d="M284.115 66.022H254.865C253.521 66.022 252.422 64.9229 252.422 63.5795V35.3472C252.422 34.0055 253.521 32.9064 254.865 32.9064H284.115C285.459 32.9064 286.558 34.0055 286.558 35.3472V63.5795C286.558 64.9229 285.459 66.022 284.115 66.022Z" fill="#C0D8FB"/>
<path d="M282.848 64.5865H256.132C254.904 64.5865 253.902 63.5842 253.902 62.3567V36.57C253.902 35.344 254.904 34.3401 256.132 34.3401H282.848C284.074 34.3401 285.078 35.344 285.078 36.57V62.3567C285.078 63.5842 284.074 64.5865 282.848 64.5865Z" fill="#DFEBFD"/>
<path d="M268.783 37.3629C268.783 36.9728 269.099 36.6555 269.489 36.6555C269.881 36.6555 270.196 36.9728 270.196 37.3629C270.196 37.7531 269.881 38.0703 269.489 38.0703C269.099 38.0703 268.783 37.7531 268.783 37.3629Z" fill="#B7D3F3"/>
<path d="M274.488 38.3622C274.679 38.0212 275.108 37.8991 275.449 38.0878C275.792 38.2781 275.914 38.708 275.724 39.049C275.535 39.3915 275.104 39.5137 274.763 39.3233C274.422 39.1346 274.298 38.7032 274.488 38.3622Z" fill="#B7D3F3"/>
<path d="M279.376 42.2463C279.704 42.0338 280.142 42.1289 280.353 42.4572C280.566 42.7855 280.47 43.2233 280.142 43.4342C279.815 43.6468 279.378 43.5516 279.165 43.2233C278.954 42.895 279.048 42.4572 279.376 42.2463Z" fill="#B7D3F3"/>
<path d="M281.798 48.2572C282.188 48.2572 282.504 48.5728 282.504 48.9629C282.504 49.3547 282.188 49.6703 281.798 49.6703C281.406 49.6703 281.091 49.3547 281.091 48.9629C281.091 48.5728 281.406 48.2572 281.798 48.2572Z" fill="#B7D3F3"/>
<path d="M280.561 55.2325C280.837 55.5084 280.837 55.9557 280.561 56.2316C280.285 56.5076 279.838 56.5076 279.562 56.2316C279.286 55.9557 279.286 55.5084 279.562 55.2325C279.838 54.9565 280.285 54.9565 280.561 55.2325Z" fill="#B7D3F3"/>
<path d="M276.122 59.6844C276.398 59.9603 276.398 60.4076 276.122 60.6835C275.846 60.9595 275.397 60.9595 275.121 60.6835C274.845 60.4076 274.845 59.9603 275.121 59.6844C275.397 59.4084 275.846 59.4084 276.122 59.6844Z" fill="#B7D3F3"/>
<path d="M268.783 61.9777C268.783 61.5876 269.099 61.272 269.489 61.272C269.881 61.272 270.196 61.5876 270.196 61.9777C270.196 62.3694 269.881 62.6851 269.489 62.6851C269.099 62.6851 268.783 62.3694 268.783 61.9777Z" fill="#B7D3F3"/>
<path d="M264.469 38.3622C264.279 38.0212 263.849 37.8991 263.507 38.0878C263.166 38.2781 263.044 38.708 263.232 39.049C263.423 39.3915 263.852 39.5137 264.195 39.3233C264.536 39.1346 264.658 38.7032 264.469 38.3622Z" fill="#B7D3F3"/>
<path d="M259.582 42.2463C259.253 42.0338 258.815 42.1289 258.603 42.4572C258.392 42.7855 258.486 43.2233 258.814 43.4342C259.142 43.6468 259.58 43.5516 259.792 43.2233C260.003 42.895 259.91 42.4572 259.582 42.2463Z" fill="#B7D3F3"/>
<path d="M257.16 48.2572C256.769 48.2572 256.452 48.5728 256.452 48.9629C256.452 49.3547 256.769 49.6703 257.16 49.6703C257.55 49.6703 257.867 49.3547 257.867 48.9629C257.867 48.5728 257.55 48.2572 257.16 48.2572Z" fill="#B7D3F3"/>
<path d="M258.397 55.2325C258.119 55.5084 258.119 55.9557 258.397 56.2316C258.673 56.5076 259.12 56.5076 259.396 56.2316C259.672 55.9557 259.672 55.5084 259.396 55.2325C259.12 54.9565 258.673 54.9565 258.397 55.2325Z" fill="#B7D3F3"/>
<path d="M262.836 59.6844C262.56 59.9603 262.56 60.4076 262.836 60.6835C263.112 60.9595 263.561 60.9595 263.837 60.6835C264.113 60.4076 264.113 59.9603 263.837 59.6844C263.561 59.4084 263.112 59.4084 262.836 59.6844Z" fill="#B7D3F3"/>
<path d="M269.299 48.9629C269.299 48.5728 269.616 48.2572 270.006 48.2572C270.396 48.2572 270.713 48.5728 270.713 48.9629C270.713 49.3547 270.396 49.6703 270.006 49.6703C269.616 49.6703 269.299 49.3547 269.299 48.9629Z" fill="#B7D3F3"/>
<path d="M270.103 48.963H269.909V40.1306H270.103V48.963Z" fill="#B7D3F3"/>
<path d="M270.097 49.1787L269.738 48.7235L274.421 45.0472L274.778 45.5024L270.097 49.1787Z" fill="#B7D3F3"/>
<path d="M197.301 173.8C192.936 181.397 187.447 184.328 187.447 184.328H164.61C164.61 184.328 200.63 168.006 197.301 173.8Z" fill="#233862"/>
<path d="M225.467 249.265C225.221 251.661 228.553 252.28 232.418 252.515C236.283 252.748 235.106 253.528 240.396 254.545C245.685 255.561 247.824 254.134 248.216 253.422C248.563 252.79 246.11 251.771 243.496 250.619C243.168 250.475 242.838 250.327 242.51 250.178C239.568 248.848 237.937 246.18 235.66 243.698C233.503 241.346 231.511 233.873 231.511 233.873L224.325 232.257C224.325 232.257 226.275 238.986 226.946 241.857C227.341 243.546 226.712 245.422 226.157 246.849C225.857 247.627 225.554 248.421 225.467 249.265Z" fill="#FFB27D"/>
<path d="M232.418 252.515C236.283 252.748 235.106 253.528 240.396 254.545C245.685 255.561 247.824 254.134 248.216 253.422C248.563 252.79 246.11 251.771 243.496 250.619L243.455 250.664C243.455 250.664 239.715 251.888 235.427 250.673C231.931 249.683 228.564 247.552 226.157 246.849C225.857 247.626 225.554 248.421 225.467 249.265C225.221 251.661 228.553 252.28 232.418 252.515Z" fill="#0F2549"/>
<path d="M214.58 166.019C210.715 163.306 185.139 158.465 172.087 157.065L157.662 144.542C157.662 144.542 145.382 162.73 145.285 176.644C145.241 183.13 148.229 183.774 148.229 183.776C148.229 183.776 194.475 184.12 196.502 184.328C199.819 184.67 204.195 192.937 205.29 200.465C206.384 207.994 225.668 238.615 225.668 238.615C225.668 238.615 229.69 239.904 231.549 239.795C233.549 239.678 234.475 239.007 234.475 239.007C234.475 239.007 223.3 172.143 214.58 166.019Z" fill="#233862"/>
<path d="M213.505 249.265C213.259 251.661 216.591 252.28 220.456 252.515C224.322 252.748 223.145 253.528 228.434 254.545C233.723 255.561 235.863 254.134 236.253 253.422C236.602 252.79 234.148 251.771 231.535 250.619C231.206 250.475 230.876 250.327 230.548 250.178C227.606 248.848 225.976 246.18 223.698 243.698C221.541 241.346 219.549 233.873 219.549 233.873L212.363 232.257C212.363 232.257 214.314 238.986 214.985 241.857C215.38 243.546 214.75 245.422 214.195 246.849C213.894 247.627 213.592 248.421 213.505 249.265Z" fill="#FFB27D"/>
<path d="M220.456 252.515C224.322 252.748 223.145 253.528 228.434 254.545C233.723 255.561 235.863 254.134 236.253 253.422C236.602 252.79 234.148 251.771 231.535 250.619L231.493 250.664C231.493 250.664 227.754 251.888 223.465 250.673C219.97 249.683 216.602 247.552 214.195 246.849C213.894 247.626 213.592 248.421 213.505 249.265C213.259 251.661 216.591 252.28 220.456 252.515Z" fill="#233862"/>
<path d="M202.514 166.019C199.155 163.661 189.052 161.832 177.901 160.476C174.818 160.1 172.285 157.859 171.533 154.846L145.594 144.542C145.594 144.542 133.315 162.73 133.217 176.644C133.173 183.13 136.161 183.774 136.161 183.776C136.161 183.776 182.407 184.12 184.434 184.328C187.752 184.67 192.129 192.937 193.222 200.465C194.316 207.994 213.6 238.615 213.6 238.615C213.6 238.615 217.622 239.904 219.481 239.795C221.483 239.678 222.407 239.007 222.407 239.007C222.407 239.007 211.232 172.143 202.514 166.019Z" fill="#2B478B"/>
<path d="M167.805 68.9783C164.239 67.1052 158.817 66.8531 157.935 66.7341C147.391 65.3178 141.046 80.6386 140.671 85.2808C139.985 93.8388 135.458 95.1425 129.086 100.502C116.31 111.247 120.056 123.733 127.043 128.374C131.233 131.157 138.622 128.372 138.622 128.372C138.727 128.445 158.828 117.136 168.735 111.68C183.59 109.569 176.887 73.7474 167.805 68.9783Z" fill="#233862"/>
<path d="M165.605 106.409C165.652 106.433 160.92 108.585 157.505 107.456C154.292 106.398 151.462 101.561 151.507 101.553C152.903 101.352 154.319 99.975 154.715 91.823L155.332 91.9785L165.716 94.6033C165.716 94.6033 165.305 97.8926 165.135 101.003C164.993 103.615 165.023 106.099 165.605 106.409Z" fill="#FFB27D"/>
<path d="M165.716 94.6033C165.716 94.6033 165.716 95.2805 165.327 98.3398C159.456 96.8585 156.866 94.9125 155.04 92.6842L165.716 94.6033Z" fill="#ED975D"/>
<path d="M167.931 95.0172C167.931 95.0172 154.2 97.2534 152.941 88.6811C151.68 80.1088 149.058 74.6244 157.772 72.8338C166.485 71.0448 168.674 74.0646 169.79 76.8242C170.907 79.5822 171.47 94.2146 167.931 95.0172Z" fill="#FFB27D"/>
<path d="M167.944 72.4754C167.944 72.4754 161.71 82.3181 156.143 84.6495C150.576 86.9809 147.842 85.7962 147.842 85.7962C147.842 85.7962 150.374 81.9565 151.034 76.802C151.228 75.281 152.219 73.9789 153.64 73.4096C157.635 71.8093 165.362 69.286 167.944 72.4754Z" fill="#233862"/>
<path d="M162.468 73.427C162.468 73.427 166.122 75.3 167.627 77.0573C169.08 78.7512 170.758 83.349 170.637 85.4139C170.637 85.4139 172.44 75.5189 168.685 72.1169C164.702 68.5088 162.468 73.427 162.468 73.427Z" fill="#233862"/>
<path d="M176.589 127.351C176.174 155.262 176.475 149.428 173.422 152.077C172.686 152.714 170.62 153.095 167.897 153.274C159.339 153.842 144.295 152.434 143.723 150.851C141.748 145.379 143.142 143.679 141.496 135.3C141.323 134.409 141.111 133.445 140.862 132.395C139.488 126.641 138.153 124.682 143.023 115.439C147.442 107.065 152.638 100.261 153.05 100.506C164.706 107.426 165.105 101.626 165.105 101.626C165.105 101.626 176.794 113.738 176.589 127.351Z" fill="white"/>
<path d="M165.105 101.626C165.105 101.626 177.035 103.648 178.443 108.811C179.852 113.975 188.139 144.332 188.139 144.332C188.139 144.332 182.042 145.428 179.225 142.611C176.409 139.795 169.424 116.479 169.424 116.479L165.105 101.626Z" fill="white"/>
<path d="M167.896 153.274C159.338 153.842 144.295 152.434 143.723 150.851C141.748 145.379 143.142 143.679 141.496 135.3L145.623 123.678C145.623 123.678 144.941 136.621 148.758 140.025C152.571 143.43 164.387 146.597 166.242 149.441C167.137 150.806 167.725 152.175 167.896 153.274Z" fill="#EBF3FF"/>
<path d="M158.092 147.831C158.092 147.831 166.534 145.952 167.897 146.7C169.259 147.449 172.589 150.178 173.005 151.128C173.422 152.077 169.973 150.407 168.851 150.105C168.123 149.91 166.211 150.576 165.264 150.892C161.28 152.219 158.837 151.536 158.837 151.536L158.092 147.831Z" fill="#FFB27D"/>
<path d="M153.05 100.506C153.05 100.506 141.101 101.204 137.176 106.677C131.652 114.384 120.693 147.222 126.973 151.601C134.047 156.533 159.166 152.89 159.166 152.89C159.166 152.89 160.001 148.984 158.837 147.093C157.675 145.204 138.776 142.151 137.904 141.279C137.031 140.407 148.806 124.269 148.806 121.652C148.806 119.035 153.05 100.506 153.05 100.506Z" fill="white"/>
<path d="M168.306 149.05C168.306 149.05 170.074 151.331 170.655 151.604C171.235 151.877 171.609 151.809 171.609 151.809L170.417 149.663L168.306 149.05Z" fill="#FFB27D"/>
<path d="M167.897 146.7L173.04 149.198C173.04 149.198 172.821 149.556 172.188 149.526C171.555 149.498 169.958 148.914 169.958 148.914L167.897 146.7Z" fill="#FFB27D"/>
<path d="M186.844 152.62H162.956C162.956 151.569 163.809 150.717 164.861 150.717H186.844V152.62Z" fill="#ED7D2B"/>
<path d="M186.775 126.605H223.708L214.848 152.62H177.677L186.775 126.605Z" fill="#ED7D2B"/>
<path d="M224.252 126.604L215.392 152.62H178.221L187.32 126.604H224.252Z" fill="#F99746"/>
<path d="M204.34 139.373C204.111 140.367 203.118 141.173 202.124 141.173C201.131 141.173 200.511 140.367 200.741 139.373C200.969 138.378 201.962 137.573 202.955 137.573C203.949 137.573 204.57 138.378 204.34 139.373Z" fill="white"/>
<path d="M154.699 158.474H316.549C317.229 158.474 317.781 157.922 317.781 157.242V153.853C317.781 153.173 317.229 152.621 316.549 152.621H154.699C154.019 152.621 153.467 153.173 153.467 153.853V157.242C153.467 157.922 154.019 158.474 154.699 158.474Z" fill="#182D4F"/>
<path d="M320.511 254.889L320.58 254.881C321.41 254.778 321.997 254.037 321.892 253.227L307.469 155.599L302.189 155.75L319.158 253.907C319.267 254.535 319.864 254.968 320.511 254.889Z" fill="#182D4F"/>
<path d="M149.28 254.889L149.21 254.881C148.381 254.778 147.794 254.037 147.899 253.227L162.322 155.599L167.602 155.75L150.631 253.907C150.524 254.535 149.927 254.968 149.28 254.889Z" fill="#182D4F"/>
<path d="M182.669 254.889L182.599 254.881C181.771 254.778 181.182 254.037 181.289 253.227L195.71 155.599L200.992 155.75L184.021 253.907C183.912 254.535 183.316 254.968 182.669 254.889Z" fill="#182D4F"/>
<path d="M449.082 255.693H0.836462C0.499438 255.693 0.223633 255.417 0.223633 255.081V254.58C0.223633 254.242 0.499438 253.966 0.836462 253.966H449.082C449.419 253.966 449.695 254.242 449.695 254.58V255.081C449.695 255.417 449.419 255.693 449.082 255.693Z" fill="#2E3552"/>
<path d="M267.757 254.809H296.378C297.755 253.13 297.247 246.932 297.039 244.908C296.995 244.5 296.966 244.262 296.966 244.262C296.966 244.262 287.194 236.445 285.85 242.43C285.809 242.618 285.76 242.802 285.706 242.982C284.015 248.581 276.428 251.127 272.047 251.834C269.199 252.297 268.147 253.777 267.757 254.809Z" fill="#233862"/>
<path d="M345.852 161.813C344.818 161.813 296.827 170.823 288.889 180.65C284.922 185.558 284.332 242.251 284.332 242.251C284.332 242.251 289.24 248.334 299.836 244.802C299.836 244.802 307.604 206.014 307.031 194.249C306.871 190.997 339.82 193.778 345.852 192.218C351.882 190.657 366.617 177.538 363.369 171.148C360.122 164.756 345.852 161.813 345.852 161.813Z" fill="#233862"/>
<path d="M289.094 147.931C289.094 147.931 279.414 148.061 277.124 149.043C274.836 150.023 270.19 152.275 271.434 152.621C272.677 152.966 278.607 152.479 279.889 152.674C281.17 152.871 282.75 152.621 283.535 152.621C284.32 152.621 287.981 152.621 287.981 152.621L289.094 147.931Z" fill="#FFB27D"/>
<path d="M277.776 124.699C277.776 124.699 274.476 122.341 271.27 121.882C269.443 121.621 267.665 121.295 266.592 120.916C263.634 119.874 257.716 114.555 258.165 113.93C259.599 111.93 266.508 116.163 267.713 115.708C268.92 115.254 265.396 112.749 266.622 111.868C267.261 111.407 268.758 113.714 269.982 113.946C271.638 114.258 272.934 116.598 273.432 116.72C274.403 116.958 278.652 120.117 278.652 120.117L277.776 124.699Z" fill="#FFB27D"/>
<path d="M341.072 97.1566C341.072 97.1566 333.703 99.4404 326.442 119.433C319.182 139.426 316.424 140.507 313.784 141.292C311.145 142.075 287.98 146.687 287.98 146.687V152.62H323.675C323.675 152.62 337.059 139.89 341.072 131.319C345.084 122.747 341.072 97.1566 341.072 97.1566Z" fill="#ED7D2B"/>
<path d="M255.109 254.809H283.728C285.105 253.13 284.597 246.932 284.389 244.908C284.347 244.5 284.318 244.262 284.318 244.262C284.318 244.262 274.544 236.445 273.202 242.43C273.161 242.618 273.111 242.802 273.058 242.982C271.365 248.581 263.779 251.127 259.399 251.834C256.551 252.297 255.497 253.777 255.109 254.809Z" fill="#1B3051"/>
<path d="M331.709 161.813C330.675 161.813 282.685 170.823 274.747 180.65C270.78 185.558 270.19 242.251 270.19 242.251C270.19 242.251 275.097 248.334 285.693 244.802C285.693 244.802 293.461 206.014 292.889 194.249C292.729 190.997 325.678 193.778 331.709 192.218C337.739 190.657 352.475 177.538 349.227 171.148C345.98 164.756 331.709 161.813 331.709 161.813Z" fill="#2B478B"/>
<path d="M334.713 103.493C338.164 103.207 341.785 102.287 344.913 101.272C348.824 100.004 351.977 98.1479 349.945 94.5746C348.072 91.2805 345.043 83.92 345.247 77.8234L337.971 83.6884L333.027 87.6724C333.027 87.6724 333.048 90.0197 333.587 94.1353C333.687 94.8855 333.801 95.696 333.938 96.5603C334.049 97.2597 333.727 97.9592 333.126 98.3319C333.088 98.3541 333.051 98.3779 333.015 98.4017C330.558 99.9448 331.82 103.731 334.713 103.493Z" fill="#FFB27D"/>
<path d="M333.027 86.7018C333.027 86.7018 332.774 87.555 333.208 90.7032C337.616 89.9848 341.736 86.4702 341.736 86.4702C339.492 85.8532 338.675 83.4298 337.005 83.655L333.027 86.7018Z" fill="#ED975D"/>
<path d="M328.951 87.4202C328.951 87.4202 345.903 90.2369 347.495 79.6536C349.086 69.0686 352.345 62.3044 341.589 60.0586C330.832 57.8128 328.119 61.5352 326.728 64.9387C325.337 68.3423 324.582 86.4147 328.951 87.4202Z" fill="#FFB27D"/>
<path d="M324.235 60.2553C323.507 62.804 325.454 65.9078 328.725 66.9307C333.579 68.4469 332.507 74.4008 334.691 74.3215C336.875 74.239 337.757 70.8973 339.708 73.5681C341.373 75.8456 338.323 78.545 338.532 79.7947C338.892 81.939 342.252 86.3258 345.278 86.1054C348.305 85.8849 353.969 71.5016 352.835 67.0513C351.703 62.601 347.171 57.908 342.884 57.2609C338.596 56.6139 332.64 58.4663 331.265 58.4663C329.89 58.4663 324.628 58.8787 324.235 60.2553Z" fill="#2B478B"/>
<path d="M363.596 111.846C361.145 101.985 354.373 91.636 349.795 91.6455C341.993 91.6598 330.775 93.7184 326.247 104.89C322.912 113.118 318.463 160.449 323.491 163.815C334.984 171.51 361.628 187.219 366.36 171.199C370.698 156.522 367.848 128.961 363.596 111.846Z" fill="#F99746"/>
<path d="M344.644 102.032C342.419 96.2413 335.24 94.2398 330.344 98.0494C327.695 100.11 324.453 103.044 320.536 107.215C305.975 122.72 303.015 122.624 300.281 122.304C297.545 121.984 274.441 117.08 274.441 117.08C274.441 117.08 273.257 117.952 272.561 119.364C271.632 121.248 272.1 122.531 272.1 122.531C271.194 121.947 280.29 128.217 284.818 130.716C290.795 134.017 299.804 137.113 303.393 138.288C304.409 138.621 305.505 138.603 306.513 138.24C311.838 136.321 329.723 129.327 344.281 117.189C348.118 113.99 346.708 107.4 344.644 102.032Z" fill="#F99746"/>
<path d="M350.58 91.7405L348.815 87.7596C348.815 87.7596 333.002 89.049 330.344 98.0496C330.344 98.0496 342.601 91.9324 350.58 91.7405Z" fill="white"/>
<path d="M388.97 254.453L389.08 254.451C389.973 254.435 390.661 253.706 390.577 252.865L384.621 193.379L379.424 193.844L387.976 253.649C388.044 254.116 388.471 254.462 388.97 254.453Z" fill="#8CB4F4"/>
<path d="M358.311 254.453L358.421 254.451C359.314 254.435 360.003 253.706 359.919 252.865L353.962 193.379L348.765 193.844L357.318 253.649C357.385 254.116 357.812 254.462 358.311 254.453Z" fill="#8CB4F4"/>
<path d="M300.755 254.453L300.646 254.451C299.755 254.435 299.065 253.706 299.149 252.865L305.104 193.379L310.301 193.844L301.75 253.649C301.683 254.116 301.255 254.462 300.755 254.453Z" fill="#73A2E5"/>
<path d="M387.288 184.953L392.94 135.27C393.681 128.11 391.286 121.099 380.953 120.556L362.777 119.449C352.004 119.005 347.14 127.971 345.776 134.873L334.984 189.489L387.288 184.953Z" fill="#8CB4F4"/>
<path d="M384.249 194.25H303.577C301.956 194.25 300.629 192.924 300.629 191.303V187.674C300.629 186.053 301.956 184.727 303.577 184.727H387.195V191.303C387.195 192.924 385.869 194.25 384.249 194.25Z" fill="#73A2E5"/>
<path d="M384.907 194.25H337.273C336.015 194.25 334.984 193.219 334.984 191.961V187.016C334.984 185.757 336.015 184.727 337.273 184.727H387.195V191.961C387.195 193.219 386.166 194.25 384.907 194.25Z" fill="#8CB4F4"/>
</svg>
