<svg width="450" height="246" viewBox="0 0 450 246" fill="none" xmlns="http://www.w3.org/2000/svg">
<g clip-path="url(#clip0)">
<path d="M23.1981 7.84508C13.5858 13.9012 6.37075 23.1028 2.78226 33.8823C-0.806187 44.6618 -0.546062 56.352 3.51842 66.961C7.58287 77.57 15.2002 86.4415 25.0724 92.0642C34.9444 97.6868 46.4609 99.7123 57.6592 97.7954C68.8574 95.8789 79.0444 90.1388 86.4848 81.553C93.9252 72.9676 98.1587 62.0674 98.4634 50.7107C98.7685 39.3536 95.1261 28.2424 88.1567 19.2699C81.1877 10.2975 71.3231 4.0191 60.2436 1.50446L55.9938 20.2291C62.741 21.7603 68.7489 25.5839 72.9927 31.0482C77.237 36.5124 79.4553 43.2792 79.2694 50.1955C79.084 57.1118 76.5061 63.7496 71.9748 68.9781C67.4436 74.2067 61.2396 77.7028 54.4197 78.8698C47.6003 80.0371 40.5866 78.8036 34.5745 75.3797C28.5624 71.9553 23.9236 66.5525 21.4484 60.0918C18.9732 53.6311 18.8147 46.5117 21.0001 39.9471C23.1855 33.3825 27.5795 27.7784 33.4332 24.0904L23.1981 7.84508Z" fill="#EDF0F4"/>
<path d="M0.969004 57.6582C2.75088 68.094 7.85773 77.6744 15.5282 84.9718C23.1986 92.2686 33.0219 96.8912 43.5336 98.1508C54.0452 99.4099 64.6826 97.2382 73.8596 91.9598C83.0367 86.6809 90.2618 78.5777 94.4586 68.8579C98.6553 59.1387 99.5982 48.3228 97.1469 38.0236C94.6957 27.7244 88.9822 18.4929 80.857 11.7057C72.7318 4.91853 62.6311 0.93882 52.0598 0.359923C41.489 -0.218928 31.0137 2.63401 22.1962 8.49346L32.823 24.4854C38.1932 20.9171 44.5724 19.1795 51.0103 19.5322C57.4477 19.8843 63.5991 22.3081 68.5472 26.4415C73.4954 30.5749 76.9752 36.1966 78.4677 42.4691C79.9607 48.7412 79.3863 55.3281 76.8308 61.2471C74.2752 67.1665 69.8749 72.1011 64.2862 75.3158C58.6971 78.5306 52.2191 79.8531 45.8176 79.0863C39.416 78.3191 33.4337 75.5041 28.7623 71.06C24.0911 66.6163 20.9811 60.7817 19.8959 54.4263L0.969004 57.6582Z" fill="#D8DCDD"/>
<path d="M94.0994 101.553C94.0994 99.2376 95.8724 97.3602 98.059 97.3602H181.91C184.097 97.3602 185.87 99.2376 185.87 101.553C185.87 103.868 184.097 105.745 181.91 105.745H98.059C95.8724 105.745 94.0994 103.868 94.0994 101.553Z" fill="#E7E9EA"/>
<path d="M94.0994 116.46C94.0994 114.144 96.2893 112.267 98.9907 112.267H180.978C183.68 112.267 185.87 114.144 185.87 116.46C185.87 118.775 183.68 120.652 180.978 120.652H98.9907C96.2893 120.652 94.0994 118.775 94.0994 116.46Z" fill="#E7E9EA"/>
<path d="M94.0994 131.366C94.0994 129.051 95.8724 127.174 98.059 127.174H181.91C184.097 127.174 185.87 129.051 185.87 131.366C185.87 133.682 184.097 135.559 181.91 135.559H98.059C95.8724 135.559 94.0994 133.682 94.0994 131.366Z" fill="#E7E9EA"/>
<path d="M198.777 53.9194C198.777 48.7742 202.948 44.6026 208.093 44.6026H413.435C418.581 44.6026 422.752 48.7742 422.752 53.9194V184.515H198.777V53.9194Z" fill="#4067F0"/>
<path d="M207.989 57.8977C207.989 55.3249 210.075 53.2393 212.647 53.2393H408.881C411.454 53.2393 413.54 55.3249 413.54 57.8977V174.727H207.989V57.8977Z" fill="white"/>
<path d="M186.11 187.866C186.11 193.011 190.281 197.182 195.427 197.182H426.103C431.248 197.182 435.419 193.011 435.419 187.866V181.636H186.11V187.866Z" fill="#4067F0"/>
<path d="M281.272 182.283C281.272 184.407 282.993 186.128 285.117 186.128H336.543C338.666 186.128 340.388 184.407 340.388 182.283H281.272Z" fill="#1F3C9F"/>
<path d="M255.073 105.403C253.43 98.3721 252.383 89.6124 248.945 89.8863C245.508 90.1602 246.804 93.5651 247.743 97.5824C249.151 103.609 250.007 109.411 250.438 111.253C244.507 112.992 232.659 113.526 231.708 114.596C230.52 115.933 233.816 123.612 234.637 127.127C235.295 129.94 244.643 157.097 249.235 170.325L266.786 166.222C265.308 156.328 262.612 135.949 263.661 133.585C264.971 130.631 267.046 124.524 266.414 121.82C264.888 115.291 270.698 114.463 270.82 112.845C270.942 111.228 269.167 110.053 264.184 112.277C260.197 114.057 258.601 117.643 258.477 119.967L255.073 105.403Z" fill="#F7CBB2"/>
<path d="M250.062 110.008C249.197 106.307 248.688 107.267 243.296 109.293C243.449 113.085 246.146 127.765 250.148 126.063C254.15 124.363 251.419 115.815 250.062 110.008Z" fill="#ECA98E"/>
<path d="M244.407 111.514C243.123 107.685 242.875 108.619 236.566 110.906C236.656 114.952 238.863 129.542 243.55 127.633C248.236 125.725 246.765 118.548 244.407 111.514Z" fill="#ECA98E"/>
<path d="M237.008 113.68C235.871 110.805 236.54 113.604 231.947 116.059C232.46 119.115 235.292 128.686 238.681 126.703C242.069 124.721 238.792 118.191 237.008 113.68Z" fill="#ECA98E"/>
<path d="M249.858 109.136C248.999 105.458 243.914 107.113 243.065 108.442C242.216 109.771 245.881 126.797 249.904 125.096C253.927 123.395 251.206 114.905 249.858 109.136Z" fill="#F7CBB2"/>
<path d="M244.093 109.442C243.178 105.525 237.222 107.711 236.36 109.098C235.499 110.485 239.227 128.4 243.856 126.508C248.485 124.616 245.529 115.587 244.093 109.442Z" fill="#F7CBB2"/>
<path d="M237.034 112.708C235.908 109.853 231.351 110.89 231.036 113.131C230.721 115.371 235.368 127.598 238.705 125.636C242.04 123.674 238.799 117.188 237.034 112.708Z" fill="#F7CBB2"/>
<path fill-rule="evenodd" clip-rule="evenodd" d="M252.031 117.072C251.605 114.36 250.846 111.931 250.577 111.082L250.002 111.264C250.269 112.107 251.017 114.5 251.436 117.166C251.646 118.499 251.771 119.891 251.717 121.188C251.661 122.487 251.426 123.668 250.928 124.592L251.459 124.877C252.016 123.842 252.262 122.56 252.319 121.213C252.376 119.864 252.245 118.429 252.031 117.072Z" fill="#ECA98E"/>
<path fill-rule="evenodd" clip-rule="evenodd" d="M244.657 111.595C244.477 110.996 244.333 110.515 244.253 110.196L243.668 110.342C243.757 110.697 243.91 111.207 244.098 111.832C244.572 113.41 245.267 115.723 245.698 118.12C245.997 119.785 246.162 121.46 246.034 122.914C245.905 124.373 245.485 125.565 244.661 126.321L245.068 126.765C246.052 125.863 246.499 124.493 246.634 122.967C246.769 121.436 246.595 119.702 246.291 118.014C245.854 115.579 245.132 113.176 244.657 111.595Z" fill="#ECA98E"/>
<path fill-rule="evenodd" clip-rule="evenodd" d="M238.118 115.279C237.875 114.601 237.692 114.09 237.623 113.812L237.038 113.959C237.115 114.267 237.315 114.826 237.566 115.525C237.662 115.795 237.767 116.086 237.874 116.391C238.265 117.503 238.711 118.836 239.042 120.156C239.374 121.479 239.584 122.764 239.518 123.783C239.452 124.808 239.118 125.465 238.464 125.717L238.681 126.279C239.667 125.899 240.048 124.93 240.12 123.822C240.192 122.707 239.963 121.35 239.627 120.008C239.289 118.662 238.835 117.307 238.443 116.191C238.327 115.862 238.217 115.556 238.118 115.279Z" fill="#ECA98E"/>
<path d="M241.621 162.818L269.016 153.687L271.419 168.345L269.016 169.06V174.834H247.629L247.148 173.392L244.745 173.872L241.621 162.818Z" fill="#F87373"/>
<path d="M301.055 109.612C300.198 105.759 300.162 78.5734 300.251 65.4624C301.859 60.0219 306.682 48.0699 313.112 43.7888C321.151 38.4372 343.122 45.1267 348.481 47.8025C353.84 50.4782 355.18 80.9818 357.86 80.7144C360.539 80.4466 363.754 82.3197 363.486 90.347C363.272 96.7686 356.474 97.507 353.169 97.1501V148.781C352.562 153.64 353.194 166.344 329.176 160.625C321.435 158.782 319.082 135.201 318.546 133.595V123.269C318.546 123.269 317.332 123.269 313.112 122.456C305.18 120.927 302.127 114.429 301.055 109.612Z" fill="#F7CBB2"/>
<path d="M331.178 126.148C338.07 125.01 344.44 116.492 345.203 111.918C329.572 126.345 318.517 122.592 318.517 122.592C320.12 124.2 324.286 127.287 331.178 126.148Z" fill="#ECA98E"/>
<path d="M332.241 83.7065C332.241 84.9699 331.217 85.9942 329.954 85.9942C328.691 85.9942 327.667 84.9699 327.667 83.7065C327.667 82.4432 328.691 81.4193 329.954 81.4193C331.217 81.4193 332.241 82.4432 332.241 83.7065Z" fill="#1E1D3D"/>
<path d="M310.13 83.7065C310.13 84.9699 309.106 85.9942 307.842 85.9942C306.579 85.9942 305.555 84.9699 305.555 83.7065C305.555 82.4432 306.579 81.4193 307.842 81.4193C309.106 81.4193 310.13 82.4432 310.13 83.7065Z" fill="#1E1D3D"/>
<path d="M305.303 79.902C309.156 75.0135 313.69 81.0392 313.69 81.0392C313.69 81.0392 309.403 78.3093 305.303 79.902Z" fill="#1E1D3D"/>
<path d="M334.528 79.8042C330.014 76.1371 326.141 80.6567 326.141 80.6567C326.141 80.6567 330.428 78.6093 334.528 79.8042Z" fill="#1E1D3D"/>
<path d="M305.345 71.2663C309.146 64.5568 314.74 69.7323 313.803 70.4995C312.867 71.2663 309.314 69.0424 305.345 71.2663Z" fill="#1E1D3D"/>
<path d="M337.041 71.2663C333.239 64.5568 328.311 68.8477 328.582 70.4995C328.854 72.1509 333.259 69.1551 337.041 71.2663Z" fill="#1E1D3D"/>
<path d="M314.708 93.3228C314.564 89.2285 319.642 78.8534 321.567 74.5569C320.845 77.4004 316.152 91.2074 316.152 92.754C316.152 94.8037 319.22 95.092 320.484 94.4599C318.799 95.7237 314.852 97.4171 314.708 93.3228Z" fill="#1E1D3D"/>
<path d="M326.671 98.1932C324.331 103.236 318.268 101.571 316.992 101.006C318.816 104.398 324.003 105.796 325.729 104.904C327.456 104.012 327.352 99.2213 326.671 98.1932Z" fill="#1E1D3D"/>
<path d="M330.391 147.262C319.355 145.137 318.546 131.346 318.546 127.521C317.273 129.08 314.778 132.015 314.099 132.355C313.25 132.78 289.132 136.196 284.387 142.98C277.908 152.245 276.947 174.834 276.947 174.834H401.186C401.186 174.834 407.194 142.33 388.38 134.48C383.286 132.355 363.761 131.93 359.092 130.655C355.357 129.634 353.735 127.905 353.169 126.914C353.169 126.914 353.169 144.225 344.665 147.566L339.143 158.707L330.391 147.262Z" fill="#F87373"/>
<path d="M380.199 146.959C380.442 141.856 383.945 137.948 385.666 136.632C385.666 136.632 379.288 142.706 380.807 157.892C380.199 154.248 379.956 152.061 380.199 146.959Z" fill="#C71F1F"/>
<path fill-rule="evenodd" clip-rule="evenodd" d="M357.151 148.117C355.639 152.691 354.022 156.7 352.884 158.252L352.037 159.324L351.834 158.816C351.365 157.642 350.046 155.62 348.698 153.797C348.028 152.89 347.359 152.041 346.795 151.384C346.513 151.055 346.26 150.776 346.048 150.563C345.964 150.478 345.89 150.407 345.825 150.348L339.186 158.816L339.228 158.358L345.785 148.666L346.048 148.824C346.21 148.921 346.412 149.102 346.632 149.324C346.858 149.551 347.121 149.842 347.409 150.177C347.984 150.849 348.663 151.709 349.34 152.625C350.518 154.22 351.711 156.012 352.326 157.276C353.45 155.57 355.205 152.07 356.575 147.926C358.075 143.388 359.095 138.129 358.348 133.645L358.647 132.684C359.862 139.366 358.663 143.543 357.151 148.117Z" fill="#C71F1F"/>
<path fill-rule="evenodd" clip-rule="evenodd" d="M317.331 150.177C320.672 156.859 324.702 160.285 324.702 160.285L324.906 159.777C325.376 158.603 326.694 156.581 328.042 154.758C328.712 153.851 329.382 153.003 329.945 152.345C330.227 152.016 330.481 151.738 330.693 151.524C330.776 151.44 330.851 151.368 330.916 151.309L334.643 154.248L334.601 153.79L330.693 148.666L330.43 148.824C330.268 148.921 330.066 149.102 329.846 149.324C329.62 149.551 329.356 149.842 329.069 150.177C328.493 150.849 327.814 151.709 327.138 152.625C325.959 154.22 324.767 156.012 324.151 157.276C322.494 156.07 318.397 151.406 317.027 147.262C315.527 142.724 314.454 138.24 315.201 133.757L314.902 132.796C313.687 139.477 315.177 145.869 317.331 150.177Z" fill="#C71F1F"/>
<path d="M371.803 53.1126C372.702 61.8885 365.325 76.1944 362.085 83.1796C362.085 83.1796 355.404 76.1944 352.38 87.7355V74.9795C352.38 57.668 346.279 51.8977 335.966 49.4678C325.876 47.0907 328.677 56.7568 310.758 59.4904C305.485 60.2949 303.165 65.8682 300.129 73.4609C299.116 72.8534 297.469 70.5769 294.068 67.4185C290.666 64.2596 290.815 59.5914 292.232 56.4536C292.232 56.4536 289.486 50.6515 291.017 44.305C292.549 37.9584 305.885 25.7473 327.766 24.2604C345.961 23.0236 354.695 33.5739 357.833 39.7495C361.275 39.2431 370.958 44.8518 371.803 53.1126Z" fill="black"/>
<path d="M35.4624 230.027C34.1106 223.071 34.8992 214.085 35.4624 210.462L83.2584 202.469C107.769 213.523 107.049 212.322 123.87 219.291C134.274 223.601 134.444 230.027 138.048 245.244H39.6881C38.843 243.07 36.8148 236.983 35.4624 230.027Z" fill="#282D57"/>
<path d="M125.177 194.461L74.5794 199.979L85.453 180.605L123.084 178.477L125.177 194.461Z" fill="#FFA001"/>
<path d="M175.242 151.598C176.551 150.842 181.757 150.57 181.757 150.57C181.757 150.57 178.918 154.942 177.609 155.697L157.469 167.325C156.161 168.081 154.57 167.775 153.916 166.643C153.263 165.511 153.794 163.981 155.102 163.226L175.242 151.598Z" fill="#4067F0"/>
<path d="M164.83 155.611C165.449 154.711 171.459 153.724 172.537 153.88C173.615 154.036 174.291 153.914 174.822 154.865C175.353 155.816 175.079 156.214 174.935 157.286C175.294 157.338 176.097 157.147 176.946 158.669C177.329 159.354 176.931 160.415 176.657 160.813C177.059 161.09 177.156 160.711 177.864 161.643C178.797 162.87 178.159 163.798 177.703 164.461C177.972 164.645 178.292 164.983 179.039 165.965C179.973 167.193 178.879 168.784 176.417 172.364C173.956 175.943 168.534 178.66 167.183 178.902C165.832 179.144 164.19 181.531 161.343 183.088C159.065 184.333 151.094 187.367 147.394 188.728C142.773 186.488 140.404 180.798 139.798 178.234C145.027 176.947 155.819 173.198 157.672 171.192C159.989 168.684 160.728 161.577 164.83 155.611Z" fill="#F7CBB2"/>
<path fill-rule="evenodd" clip-rule="evenodd" d="M172.555 157.296C173.294 157.008 174.077 156.736 174.638 156.628L174.727 157.085C174.211 157.185 173.462 157.443 172.725 157.731C171.992 158.017 171.286 158.326 170.861 158.524L170.665 158.101C171.097 157.901 171.812 157.587 172.555 157.296ZM173.292 161.083C174.627 160.537 176.147 160.411 176.748 160.415L176.744 160.881C176.183 160.876 174.729 160.998 173.468 161.514L173.292 161.083ZM175.739 163.786C176.502 163.777 177.3 163.929 177.804 164.072L177.677 164.52C177.203 164.386 176.452 164.243 175.744 164.252C175.391 164.256 175.059 164.297 174.782 164.389C174.506 164.481 174.299 164.619 174.17 164.806L173.786 164.542C173.989 164.246 174.296 164.06 174.635 163.947C174.973 163.835 175.357 163.79 175.739 163.786Z" fill="#ECA98E"/>
<path d="M44.6637 132.856C49.9388 121.72 55.9472 113.427 58.2922 110.672C74.5584 116.326 107.97 129.028 111.487 134.596C115.884 141.556 115.004 141.121 115.884 151.996C116.763 162.871 107.091 165.481 104.014 171.136C100.937 176.791 91.704 178.966 85.5494 184.621C84.2208 185.841 83.3511 195.496 85.5494 198.106C87.3079 200.194 93.7794 210.596 93.3512 215.926C92.9227 221.257 82.5596 227.946 70.6016 230.73C58.644 233.514 42.1724 231.89 35.4312 230.73C34.5517 227.395 32.7932 216.201 32.7932 198.106C32.7932 175.486 38.0688 146.776 44.6637 132.856Z" fill="#FFD501"/>
<path d="M97.4418 123.062C92.4908 121.66 86.2435 124.522 83.7386 126.128L99.6522 169.927C104.367 178.103 114.593 194.805 117.776 196.207C121.754 197.959 124.606 198.638 129.469 197.762C134.331 196.886 134.713 183.223 133.824 181.713C129.196 173.864 129.268 174.891 126.174 169.927C123.375 161.313 116.98 142.421 113.797 135.764C109.819 127.442 103.63 124.814 97.4418 123.062Z" fill="#FFD501"/>
<path d="M157.509 180.928C157.286 176.759 154.323 172.477 152.87 170.857C134.551 182.58 113.329 171.969 123.019 196.849C123.611 198.368 128.086 198.109 129.915 198.001C132.59 197.623 139.234 196.544 144.413 195.262C149.593 193.98 154.643 189.88 156.521 187.992C156.943 187.373 157.733 185.096 157.509 180.928Z" fill="#FFD501"/>
<path d="M91.909 122.759L55.446 115.958H54.9014C59.0739 120.764 69.7048 130.377 78.8478 130.377C87.9908 130.377 91.3649 125.298 91.909 122.759Z" fill="#FFA001"/>
<path d="M111.484 72.3265C110.786 70.8876 108.26 67.1418 103.752 65.3045C99.7127 64.9714 90.2124 64.295 84.5194 64.2568C77.4037 64.2088 69.0927 78.9531 68.7107 86.0637C68.3292 93.1747 72.7556 100.547 74.1764 106.695C75.3135 111.613 73.3481 117.857 72.2231 120.363L95.3511 124.765L97.9174 115.249C99.1919 115.927 102.294 117.638 106.486 117.391C111.727 117.082 112.366 113.636 113.458 109.599C114.332 106.37 114.232 101.613 114.627 98.9678C116.221 97.9649 117.626 95.9688 116.769 94.6835C114.253 90.9098 112.057 92.5206 112.057 84.4006C112.057 80.2355 112.181 73.7655 111.484 72.3265Z" fill="#F7CBB2"/>
<path d="M107.77 83.7569C107.77 83.7569 111.284 79.4847 112.095 82.3328C110.203 82.9025 107.77 83.7569 107.77 83.7569Z" fill="#1E1D3D"/>
<path d="M111.134 89.7648C111.134 90.6937 110.811 91.4469 110.413 91.4469C110.015 91.4469 109.692 90.6937 109.692 89.7648C109.692 88.8354 110.015 88.0826 110.413 88.0826C110.811 88.0826 111.134 88.8354 111.134 89.7648Z" fill="#1E1D3D"/>
<path d="M112.336 103.742C111.495 103.29 111.074 102.386 110.653 100.578C111.915 102.838 114.018 102.386 114.018 102.386V103.742C113.877 103.742 113.177 104.194 112.336 103.742Z" fill="#1E1D3D"/>
<path d="M108.426 58.2731C112.097 61.5289 115.521 64.2932 114.898 71.3185C114.274 78.3438 112.095 79.9118 112.095 79.9118C112.095 79.9118 108.054 67.0789 103.2 76.2727C98.345 85.4664 102.723 84.9461 101.522 88.0826C100.32 91.2186 98.8272 92.3278 95.9944 91.9272C94.7767 89.4899 93.1752 88.7911 91.4166 89.2961C86.9371 91.527 87.0377 96.0573 88.5447 100.098C89.3143 102.161 92.1741 103.167 93.5762 103.661L93.6326 103.681C93.6326 103.681 94.8438 111.873 99.4528 115.649C99.4528 119.788 98.6381 123.408 100.08 126.292C91.0542 126.292 88.8457 129.388 82.493 124.246C74.5738 123.445 68.3702 124.749 66.4365 122.447C62.7168 118.016 56.584 119.788 54.9727 119.788C55.4711 117.169 55.7735 110.428 55.7735 110.428C55.7735 110.428 54.286 118.921 49.1343 120.284C54.1519 112.002 49.295 110.958 50.7545 102.564C52.214 94.1706 53.5309 94.7059 52.9794 86.8807C52.3281 77.6404 56.653 74.8099 59.5943 66.3871C62.536 57.9643 64.7022 59.2593 79.0812 54.756C91.2904 50.932 103.616 54.006 108.426 58.2731Z" fill="#1E1D3D"/>
<path d="M117.396 96.2245C117.214 94.0383 114.887 93.1206 113.537 90.9661C114.122 92.4293 116.585 94.3304 116.553 96.0196C116.522 97.7087 115.004 99.1472 114.258 98.8961C115.279 99.4547 117.578 98.4112 117.396 96.2245Z" fill="#1E1D3D"/>
<path d="M95.2738 158.733L102.002 173.655L99.9317 175.554L95.2738 158.733Z" fill="#FFA001"/>
<path d="M264.931 169.787L247.148 173.392L264.931 171.47V169.787Z" fill="#C71F1F"/>
<path d="M154.87 29.447H266.373C271.682 29.447 275.986 33.7509 275.986 39.0596V72.4905C275.986 75.5273 273.524 77.9893 270.486 77.9893H263.175L268.295 88.0826L246.011 78.5837C245.339 78.1942 244.577 77.9893 243.801 77.9893H154.87C149.562 77.9893 145.258 73.6858 145.258 68.3771V39.0596C145.258 33.7509 149.562 29.447 154.87 29.447Z" fill="#EDF0F4"/>
<path fill-rule="evenodd" clip-rule="evenodd" d="M270.486 77.9893C273.524 77.9893 275.986 75.5273 275.986 72.4905V39.0596C275.986 33.7509 271.682 29.447 266.373 29.447H154.87C149.562 29.447 145.258 33.7509 145.258 39.0596V68.3771C145.258 73.6858 149.562 77.9893 154.87 77.9893H243.801C244.577 77.9893 245.339 78.1942 246.011 78.5837L268.295 88.0826L263.175 77.9893H270.486ZM264.318 84.3615L260.14 76.1259H270.486C272.495 76.1259 274.122 74.4983 274.122 72.4905V39.0596C274.122 34.7799 270.653 31.3104 266.373 31.3104H154.87C150.591 31.3104 147.121 34.7799 147.121 39.0596V68.3771C147.121 72.6568 150.591 76.1259 154.87 76.1259H243.801C244.864 76.1259 245.909 76.3961 246.837 76.9104L264.318 84.3615Z" fill="#E7E9EA"/>
<path d="M158.385 43.09C158.385 41.1605 160.145 39.5963 162.314 39.5963H258.804C260.973 39.5963 262.733 41.1605 262.733 43.09C262.733 45.0195 260.973 46.5838 258.804 46.5838H162.314C160.145 46.5838 158.385 45.0195 158.385 43.09Z" fill="white"/>
<path d="M158.385 52.8727C158.385 50.9432 160.146 49.3789 162.32 49.3789H211.283C213.456 49.3789 215.217 50.9432 215.217 52.8727C215.217 54.8022 213.456 56.3665 211.283 56.3665H162.32C160.146 56.3665 158.385 54.8022 158.385 52.8727Z" fill="white"/>
<path d="M159.783 62.6553C159.783 60.7258 161.539 59.1615 163.706 59.1615H189.865C192.032 59.1615 193.789 60.7258 193.789 62.6553C193.789 64.5848 192.032 66.1491 189.865 66.1491H163.706C161.539 66.1491 159.783 64.5848 159.783 62.6553Z" fill="white"/>
<path d="M219.876 52.8727C219.876 50.9432 221.638 49.3789 223.812 49.3789H258.797C260.971 49.3789 262.733 50.9432 262.733 52.8727C262.733 54.8022 260.971 56.3665 258.797 56.3665H223.812C221.638 56.3665 219.876 54.8022 219.876 52.8727Z" fill="white"/>
<path d="M196.584 62.6553C196.584 60.7258 198.345 59.1615 200.516 59.1615H242.03C244.202 59.1615 245.963 60.7258 245.963 62.6553C245.963 64.5848 244.202 66.1491 242.03 66.1491H200.516C198.345 66.1491 196.584 64.5848 196.584 62.6553Z" fill="white"/>
<path fill-rule="evenodd" clip-rule="evenodd" d="M114.018 200.14C114.018 198.853 115.06 197.811 116.347 197.811H447.638C448.924 197.811 449.967 198.853 449.967 200.14C449.967 201.426 448.924 202.469 447.638 202.469H116.347C115.06 202.469 114.018 201.426 114.018 200.14Z" fill="#E7E9EA"/>
<path d="M199.087 181.104H422.573" stroke="#1F3C9F" stroke-width="3"/>
</g>
<defs>
<clipPath id="clip0">
<rect width="450" height="245.497" fill="white"/>
</clipPath>
</defs>
</svg>
