<svg width="450" height="210" viewBox="0 0 450 210" fill="none" xmlns="http://www.w3.org/2000/svg">
<g clip-path="url(#clip0)">
<path d="M1.33084 21.2987C1.43627 9.43083 11.149 -0.104566 23.0245 0.000865949L304.407 2.5006C316.283 2.60603 325.825 12.3122 325.719 24.1801L324.389 173.662C324.284 185.53 314.571 195.066 302.696 194.96L21.3128 192.461C9.43731 192.355 -0.104567 182.649 0.000865366 170.781L1.33084 21.2987Z" fill="#FFD501"/>
<path d="M25.6173 79.1625C25.6638 74.4069 29.543 70.5825 34.2821 70.6208L77.7578 70.97C82.4969 71.0077 86.3007 74.894 86.2547 79.6496L86.0233 103.424C85.9767 108.179 82.0975 112.004 77.359 111.965L33.8828 111.616C29.1436 111.578 25.3398 107.692 25.3858 102.936L25.6173 79.1625Z" fill="#FFA001"/>
<path d="M25.5896 134.421C25.6214 130.892 28.5146 128.058 32.0521 128.089L80.0949 128.515C83.6325 128.546 86.475 131.432 86.4432 134.961C86.412 138.489 83.5188 141.324 79.9806 141.293L31.9385 140.867C28.4009 140.835 25.5584 137.95 25.5896 134.421Z" fill="#FFA001"/>
<path d="M26.4949 32.8379C26.5267 29.3092 29.4199 26.4743 32.9574 26.5055L81.0002 26.9319C84.5378 26.9632 87.3803 29.8487 87.3485 33.3774C87.3173 36.9056 84.4241 39.741 80.8859 39.7092L32.8438 39.2834C29.3062 39.2522 26.4637 36.3666 26.4949 32.8379Z" fill="#FFA001"/>
<path d="M25.3275 163.81C25.3593 160.281 28.2525 157.447 31.7906 157.478L128.516 158.335C132.053 158.367 134.896 161.253 134.865 164.781C134.833 168.31 131.94 171.144 128.402 171.113L31.6764 170.256C28.1388 170.224 25.2963 167.339 25.3275 163.81Z" fill="#FFA001"/>
<path d="M96.6925 135.051C96.7237 131.523 99.6175 128.688 103.155 128.72L151.198 129.145C154.735 129.177 157.578 132.063 157.546 135.591C157.515 139.12 154.622 141.955 151.084 141.923L103.041 141.497C99.5032 141.466 96.6613 138.58 96.6925 135.051Z" fill="#FFA001"/>
<path d="M168.436 135.688C168.467 132.159 171.361 129.324 174.899 129.356L222.941 129.782C226.479 129.813 229.321 132.698 229.29 136.227C229.258 139.756 226.365 142.591 222.827 142.559L174.784 142.133C171.247 142.102 168.404 139.216 168.436 135.688Z" fill="#FFA001"/>
<path d="M239.539 136.318C239.57 132.79 242.464 129.955 246.001 129.986L294.044 130.412C297.581 130.443 300.424 133.329 300.393 136.857C300.361 140.386 297.468 143.221 293.93 143.19L245.887 142.764C242.35 142.733 239.507 139.847 239.539 136.318Z" fill="#FFA001"/>
<path d="M239.277 165.707C239.308 162.179 242.202 159.343 245.74 159.375L293.782 159.801C297.32 159.832 300.162 162.718 300.131 166.246C300.099 169.775 297.206 172.61 293.668 172.579L245.626 172.152C242.088 172.121 239.245 169.235 239.277 165.707Z" fill="#FFA001"/>
<path d="M369.306 181.266C369.306 192.246 350.451 201.145 327.192 201.145C303.934 201.145 285.079 192.246 285.079 181.266C285.079 170.287 303.934 161.388 327.192 161.388C350.451 161.388 369.306 170.287 369.306 181.266Z" fill="#4067F0"/>
<path d="M369.306 189.218C369.306 200.197 350.451 209.097 327.192 209.097C303.934 209.097 285.079 200.197 285.079 189.218C285.079 186.169 285.079 180.699 285.079 180.699C285.079 180.699 310.393 169.339 327.192 169.339C342.531 169.339 369.306 181.267 369.306 181.267C369.306 181.267 369.306 185.48 369.306 189.218Z" fill="#4067F0"/>
<path d="M365.183 180.825C365.183 189.608 348.306 196.728 327.487 196.728C306.668 196.728 289.791 189.608 289.791 180.825C289.791 172.042 306.668 164.922 327.487 164.922C348.306 164.922 365.183 172.042 365.183 180.825Z" fill="#7A98FF"/>
<path d="M326.468 192.605C326.186 192.605 325.946 192.536 325.748 192.399C325.55 192.281 325.451 192.114 325.451 191.898V189.837C323.418 189.699 321.666 189.365 320.198 188.835C318.757 188.286 317.656 187.618 316.893 186.833C316.159 186.027 315.763 185.173 315.707 184.27C315.707 184.094 315.792 183.946 315.961 183.829C316.159 183.711 316.385 183.652 316.639 183.652H320.409C320.72 183.652 320.96 183.701 321.13 183.799C321.328 183.878 321.511 184.015 321.681 184.212C321.992 184.879 322.641 185.438 323.63 185.89C324.646 186.342 326.045 186.568 327.824 186.568C329.801 186.568 331.298 186.342 332.314 185.89C333.332 185.419 333.84 184.771 333.84 183.946C333.84 183.397 333.586 182.945 333.077 182.592C332.569 182.238 331.792 181.934 330.747 181.679C329.702 181.404 328.163 181.09 326.129 180.736C322.796 180.187 320.353 179.46 318.8 178.557C317.274 177.634 316.512 176.329 316.512 174.64C316.512 173.109 317.303 171.823 318.885 170.782C320.494 169.722 322.683 169.074 325.451 168.838V166.806C325.451 166.59 325.55 166.424 325.748 166.306C325.946 166.169 326.186 166.1 326.468 166.1H329.053C329.335 166.1 329.575 166.169 329.773 166.306C329.97 166.443 330.069 166.61 330.069 166.806V168.897C331.905 169.074 333.473 169.457 334.772 170.046C336.099 170.616 337.102 171.283 337.78 172.049C338.486 172.814 338.868 173.561 338.924 174.287C338.924 174.463 338.839 174.611 338.67 174.729C338.5 174.846 338.289 174.905 338.034 174.905H334.094C333.473 174.905 333.049 174.719 332.823 174.346C332.682 173.717 332.131 173.197 331.171 172.785C330.211 172.353 329.01 172.137 327.569 172.137C326.016 172.137 324.788 172.343 323.883 172.755C322.98 173.168 322.528 173.767 322.528 174.552C322.528 175.101 322.754 175.553 323.206 175.907C323.658 176.26 324.364 176.574 325.324 176.849C326.313 177.124 327.725 177.428 329.561 177.762C332.046 178.155 334.024 178.597 335.492 179.087C336.989 179.578 338.091 180.196 338.797 180.943C339.503 181.689 339.856 182.641 339.856 183.799C339.856 185.488 338.98 186.872 337.229 187.952C335.478 189.012 333.091 189.65 330.069 189.866V191.898C330.069 192.094 329.97 192.261 329.773 192.399C329.575 192.536 329.335 192.605 329.053 192.605H326.468Z" fill="#C9D5FF"/>
<path d="M368.128 166.541C368.128 177.52 349.273 186.42 326.014 186.42C302.756 186.42 283.901 177.52 283.901 166.541C283.901 155.562 302.756 146.662 326.014 146.662C349.273 146.662 368.128 155.562 368.128 166.541Z" fill="#4067F0"/>
<path d="M368.128 174.493C368.128 185.472 349.273 194.372 326.014 194.372C302.756 194.372 283.901 185.472 283.901 174.493C283.901 171.444 283.901 165.974 283.901 165.974C283.901 165.974 309.215 154.614 326.014 154.614C341.353 154.614 368.128 166.541 368.128 166.541C368.128 166.541 368.128 170.755 368.128 174.493Z" fill="#4067F0"/>
<path d="M363.416 166.1C363.416 174.883 346.539 182.003 325.72 182.003C304.901 182.003 288.024 174.883 288.024 166.1C288.024 157.316 304.901 150.197 325.72 150.197C346.539 150.197 363.416 157.316 363.416 166.1Z" fill="#7A98FF"/>
<path d="M325.29 177.88C325.008 177.88 324.768 177.811 324.57 177.674C324.372 177.556 324.273 177.389 324.273 177.173V175.111C322.24 174.974 320.488 174.64 319.02 174.11C317.579 173.561 316.478 172.893 315.715 172.107C314.981 171.302 314.585 170.448 314.529 169.545C314.529 169.369 314.614 169.221 314.783 169.104C314.981 168.986 315.207 168.927 315.461 168.927H319.232C319.543 168.927 319.782 168.976 319.952 169.074C320.15 169.152 320.333 169.29 320.503 169.486C320.814 170.154 321.463 170.713 322.452 171.165C323.468 171.617 324.867 171.842 326.646 171.842C328.623 171.842 330.12 171.617 331.136 171.165C332.154 170.694 332.662 170.046 332.662 169.221C332.662 168.672 332.408 168.22 331.899 167.867C331.391 167.513 330.614 167.209 329.569 166.954C328.524 166.679 326.985 166.365 324.951 166.011C321.618 165.462 319.175 164.735 317.622 163.832C316.096 162.909 315.334 161.604 315.334 159.915C315.334 158.384 316.125 157.098 317.707 156.057C319.316 154.997 321.505 154.349 324.273 154.113V152.081C324.273 151.865 324.372 151.698 324.57 151.581C324.768 151.443 325.008 151.375 325.29 151.375H327.875C328.157 151.375 328.397 151.443 328.595 151.581C328.792 151.718 328.891 151.885 328.891 152.081V154.172C330.727 154.349 332.295 154.732 333.594 155.321C334.921 155.89 335.924 156.558 336.602 157.323C337.308 158.089 337.69 158.835 337.746 159.562C337.746 159.738 337.661 159.886 337.492 160.003C337.322 160.121 337.111 160.18 336.856 160.18H332.916C332.295 160.18 331.871 159.993 331.645 159.621C331.504 158.992 330.953 158.472 329.993 158.06C329.033 157.628 327.832 157.412 326.391 157.412C324.838 157.412 323.61 157.618 322.705 158.03C321.802 158.443 321.35 159.042 321.35 159.827C321.35 160.376 321.576 160.828 322.028 161.181C322.48 161.535 323.186 161.849 324.146 162.124C325.135 162.399 326.547 162.703 328.383 163.037C330.868 163.43 332.846 163.871 334.314 164.362C335.811 164.853 336.913 165.471 337.619 166.217C338.325 166.964 338.678 167.916 338.678 169.074C338.678 170.763 337.802 172.147 336.051 173.227C334.3 174.287 331.913 174.925 328.891 175.141V177.173C328.891 177.369 328.792 177.536 328.595 177.674C328.397 177.811 328.157 177.88 327.875 177.88H325.29Z" fill="#C9D5FF"/>
<path d="M372.251 150.638C372.251 161.617 353.396 170.517 330.137 170.517C306.879 170.517 288.024 161.617 288.024 150.638C288.024 139.659 306.879 130.759 330.137 130.759C353.396 130.759 372.251 139.659 372.251 150.638Z" fill="#4067F0"/>
<path d="M372.251 158.59C372.251 169.569 353.396 178.469 330.137 178.469C306.879 178.469 288.024 169.569 288.024 158.59C288.024 155.541 288.024 150.07 288.024 150.07C288.024 150.07 313.338 138.711 330.137 138.711C345.476 138.711 372.251 150.638 372.251 150.638C372.251 150.638 372.251 154.851 372.251 158.59Z" fill="#4067F0"/>
<path d="M368.128 150.196C368.128 158.98 351.251 166.1 330.432 166.1C309.613 166.1 292.736 158.98 292.736 150.196C292.736 141.413 309.613 134.293 330.432 134.293C351.251 134.293 368.128 141.413 368.128 150.196Z" fill="#7A98FF"/>
<path d="M329.095 161.977C329.377 161.977 329.617 161.908 329.815 161.77C330.013 161.653 330.112 161.486 330.112 161.27V159.208C332.145 159.071 333.897 158.737 335.365 158.207C336.806 157.657 337.907 156.989 338.67 156.204C339.404 155.399 339.8 154.545 339.856 153.642C339.856 153.465 339.771 153.318 339.602 153.2C339.404 153.083 339.178 153.024 338.924 153.024H335.153C334.842 153.024 334.603 153.073 334.433 153.171C334.235 153.249 334.052 153.387 333.882 153.583C333.571 154.251 332.922 154.81 331.933 155.262C330.917 155.714 329.518 155.939 327.739 155.939C325.762 155.939 324.265 155.714 323.249 155.262C322.231 154.791 321.723 154.143 321.723 153.318C321.723 152.769 321.977 152.317 322.486 151.964C322.994 151.61 323.771 151.306 324.816 151.051C325.861 150.775 327.4 150.462 329.434 150.108C332.767 149.559 335.21 148.832 336.763 147.929C338.289 147.006 339.051 145.701 339.051 144.012C339.051 142.481 338.26 141.195 336.678 140.154C335.069 139.094 332.88 138.446 330.112 138.21V136.178C330.112 135.962 330.013 135.795 329.815 135.678C329.617 135.54 329.377 135.471 329.095 135.471H326.51C326.228 135.471 325.988 135.54 325.79 135.678C325.593 135.815 325.494 135.982 325.494 136.178V138.269C323.658 138.446 322.09 138.829 320.791 139.418C319.464 139.987 318.46 140.655 317.783 141.42C317.077 142.186 316.695 142.932 316.639 143.659C316.639 143.835 316.723 143.982 316.893 144.1C317.063 144.218 317.274 144.277 317.529 144.277H321.469C322.09 144.277 322.514 144.09 322.74 143.717C322.881 143.089 323.432 142.569 324.392 142.157C325.352 141.725 326.553 141.509 327.994 141.509C329.547 141.509 330.775 141.715 331.68 142.127C332.583 142.539 333.035 143.138 333.035 143.924C333.035 144.473 332.809 144.925 332.357 145.278C331.905 145.632 331.199 145.946 330.239 146.221C329.25 146.496 327.838 146.8 326.002 147.134C323.516 147.527 321.539 147.968 320.071 148.459C318.574 148.95 317.472 149.568 316.766 150.314C316.06 151.061 315.707 152.012 315.707 153.171C315.707 154.86 316.583 156.244 318.334 157.323C320.085 158.384 322.472 159.022 325.494 159.238V161.27C325.494 161.466 325.593 161.633 325.79 161.77C325.988 161.908 326.228 161.977 326.51 161.977H329.095Z" fill="#C9D5FF"/>
<path d="M361.06 129.434C361.06 140.413 342.205 149.313 318.946 149.313C295.688 149.313 276.833 140.413 276.833 129.434C276.833 118.455 295.688 109.555 318.946 109.555C342.205 109.555 361.06 118.455 361.06 129.434Z" fill="#4067F0"/>
<path d="M361.06 137.386C361.06 148.365 342.205 157.265 318.946 157.265C295.688 157.265 276.833 148.365 276.833 137.386C276.833 134.337 276.833 128.866 276.833 128.866C276.833 128.866 302.147 117.507 318.946 117.507C334.285 117.507 361.06 129.434 361.06 129.434C361.06 129.434 361.06 133.647 361.06 137.386Z" fill="#4067F0"/>
<path d="M356.937 128.403C356.937 137.187 340.06 144.306 319.241 144.306C298.422 144.306 281.545 137.187 281.545 128.403C281.545 119.62 298.422 112.5 319.241 112.5C340.06 112.5 356.937 119.62 356.937 128.403Z" fill="#7A98FF"/>
<path d="M319.671 140.183C319.953 140.183 320.193 140.115 320.391 139.977C320.589 139.859 320.688 139.693 320.688 139.477V137.415C322.721 137.278 324.472 136.944 325.941 136.414C327.382 135.864 328.483 135.196 329.246 134.411C329.98 133.606 330.375 132.752 330.432 131.849C330.432 131.672 330.347 131.525 330.178 131.407C329.98 131.289 329.754 131.231 329.5 131.231H325.729C325.418 131.231 325.179 131.279 325.009 131.378C324.811 131.456 324.628 131.594 324.458 131.79C324.147 132.457 323.498 133.017 322.509 133.469C321.493 133.921 320.094 134.146 318.315 134.146C316.338 134.146 314.841 133.921 313.824 133.469C312.807 132.998 312.299 132.35 312.299 131.525C312.299 130.976 312.553 130.524 313.062 130.17C313.57 129.817 314.347 129.512 315.392 129.257C316.437 128.982 317.976 128.668 320.01 128.315C323.343 127.765 325.786 127.039 327.339 126.136C328.865 125.213 329.627 123.907 329.627 122.219C329.627 120.687 328.836 119.402 327.254 118.361C325.645 117.301 323.456 116.653 320.688 116.417V114.385C320.688 114.169 320.589 114.002 320.391 113.884C320.193 113.747 319.953 113.678 319.671 113.678H317.086C316.804 113.678 316.564 113.747 316.366 113.884C316.169 114.022 316.07 114.189 316.07 114.385V116.476C314.234 116.653 312.666 117.036 311.367 117.625C310.039 118.194 309.036 118.861 308.359 119.627C307.653 120.393 307.271 121.139 307.215 121.865C307.215 122.042 307.299 122.189 307.469 122.307C307.639 122.425 307.85 122.484 308.105 122.484H312.044C312.666 122.484 313.09 122.297 313.316 121.924C313.457 121.296 314.008 120.776 314.968 120.363C315.928 119.932 317.129 119.716 318.569 119.716C320.123 119.716 321.351 119.922 322.255 120.334C323.159 120.746 323.611 121.345 323.611 122.13C323.611 122.68 323.385 123.132 322.933 123.485C322.481 123.839 321.775 124.152 320.815 124.428C319.826 124.703 318.414 125.007 316.578 125.341C314.092 125.733 312.115 126.175 310.647 126.666C309.149 127.156 308.048 127.775 307.342 128.521C306.636 129.267 306.283 130.219 306.283 131.378C306.283 133.066 307.159 134.451 308.91 135.53C310.661 136.591 313.048 137.228 316.07 137.445V139.477C316.07 139.673 316.169 139.84 316.366 139.977C316.564 140.115 316.804 140.183 317.086 140.183H319.671Z" fill="#C9D5FF"/>
<path d="M450 181.855C450 192.835 431.145 201.734 407.886 201.734C384.628 201.734 365.772 192.835 365.772 181.855C365.772 170.876 384.628 161.977 407.886 161.977C431.145 161.977 450 170.876 450 181.855Z" fill="#4067F0"/>
<path d="M450 189.807C450 200.786 431.145 209.686 407.886 209.686C384.628 209.686 365.772 200.786 365.772 189.807C365.772 186.758 365.772 181.288 365.772 181.288C365.772 181.288 391.087 169.928 407.886 169.928C423.224 169.928 450 181.856 450 181.856C450 181.856 450 186.069 450 189.807Z" fill="#4067F0"/>
<path d="M445.288 181.414C445.288 190.197 428.411 197.317 407.592 197.317C386.773 197.317 369.895 190.197 369.895 181.414C369.895 172.631 386.773 165.511 407.592 165.511C428.411 165.511 445.288 172.631 445.288 181.414Z" fill="#7A98FF"/>
<path d="M407.162 193.194C406.88 193.194 406.639 193.125 406.441 192.988C406.244 192.87 406.145 192.703 406.145 192.487V190.425C404.111 190.288 402.36 189.954 400.892 189.424C399.451 188.875 398.35 188.207 397.587 187.422C396.852 186.616 396.457 185.762 396.401 184.859C396.401 184.683 396.485 184.535 396.655 184.418C396.852 184.3 397.078 184.241 397.332 184.241H401.103C401.414 184.241 401.654 184.29 401.824 184.388C402.021 184.467 402.205 184.604 402.374 184.801C402.685 185.468 403.335 186.027 404.323 186.479C405.34 186.931 406.738 187.157 408.518 187.157C410.495 187.157 411.992 186.931 413.008 186.479C414.025 186.008 414.534 185.36 414.534 184.535C414.534 183.986 414.279 183.534 413.771 183.181C413.263 182.827 412.486 182.523 411.441 182.268C410.396 181.993 408.856 181.679 406.823 181.325C403.49 180.776 401.047 180.049 399.493 179.146C397.968 178.223 397.206 176.918 397.206 175.229C397.206 173.698 397.996 172.412 399.578 171.371C401.188 170.311 403.377 169.663 406.145 169.427V167.395C406.145 167.179 406.244 167.013 406.441 166.895C406.639 166.758 406.88 166.689 407.162 166.689H409.746C410.028 166.689 410.269 166.758 410.467 166.895C410.664 167.032 410.763 167.199 410.763 167.395V169.486C412.599 169.663 414.167 170.046 415.465 170.635C416.793 171.205 417.796 171.872 418.473 172.638C419.18 173.403 419.561 174.15 419.618 174.876C419.618 175.052 419.533 175.2 419.364 175.318C419.194 175.435 418.982 175.494 418.728 175.494H414.788C414.167 175.494 413.743 175.308 413.517 174.935C413.376 174.306 412.825 173.786 411.864 173.374C410.904 172.942 409.704 172.726 408.263 172.726C406.71 172.726 405.481 172.932 404.577 173.344C403.674 173.757 403.222 174.356 403.222 175.141C403.222 175.69 403.447 176.142 403.9 176.496C404.352 176.849 405.058 177.163 406.018 177.438C407.006 177.713 408.419 178.017 410.255 178.351C412.74 178.744 414.717 179.186 416.186 179.676C417.683 180.167 418.785 180.785 419.491 181.532C420.197 182.278 420.55 183.23 420.55 184.388C420.55 186.077 419.674 187.461 417.923 188.541C416.172 189.601 413.785 190.239 410.763 190.455V192.487C410.763 192.683 410.664 192.85 410.467 192.988C410.269 193.125 410.028 193.194 409.746 193.194H407.162Z" fill="#C9D5FF"/>
<path d="M379.908 111.764C379.908 122.743 361.053 131.643 337.795 131.643C314.536 131.643 295.681 122.743 295.681 111.764C295.681 100.785 314.536 91.885 337.795 91.885C361.053 91.885 379.908 100.785 379.908 111.764Z" fill="#4067F0"/>
<path d="M379.908 119.715C379.908 130.695 361.053 139.594 337.795 139.594C314.536 139.594 295.681 130.695 295.681 119.715C295.681 116.667 295.681 111.196 295.681 111.196C295.681 111.196 320.995 99.8365 337.795 99.8365C353.133 99.8365 379.908 111.764 379.908 111.764C379.908 111.764 379.908 115.977 379.908 119.715Z" fill="#4067F0"/>
<path d="M375.785 110.733C375.785 119.516 358.908 126.636 338.089 126.636C317.27 126.636 300.393 119.516 300.393 110.733C300.393 101.95 317.27 94.83 338.089 94.83C358.908 94.83 375.785 101.95 375.785 110.733Z" fill="#7A98FF"/>
<path d="M335.303 122.513C335.021 122.513 334.781 122.444 334.583 122.307C334.385 122.189 334.286 122.023 334.286 121.806V119.745C332.253 119.608 330.502 119.274 329.033 118.744C327.592 118.194 326.491 117.526 325.728 116.741C324.994 115.936 324.599 115.082 324.542 114.179C324.542 114.002 324.627 113.855 324.796 113.737C324.994 113.619 325.22 113.56 325.474 113.56H329.245C329.556 113.56 329.795 113.609 329.965 113.708C330.163 113.786 330.346 113.924 330.516 114.12C330.827 114.787 331.476 115.347 332.465 115.799C333.481 116.25 334.88 116.476 336.659 116.476C338.636 116.476 340.133 116.25 341.15 115.799C342.167 115.327 342.675 114.68 342.675 113.855C342.675 113.305 342.421 112.854 341.912 112.5C341.404 112.147 340.627 111.842 339.582 111.587C338.537 111.312 336.998 110.998 334.964 110.645C331.631 110.095 329.188 109.368 327.635 108.466C326.109 107.543 325.347 106.237 325.347 104.549C325.347 103.017 326.138 101.731 327.72 100.691C329.329 99.6304 331.518 98.9825 334.286 98.7469V96.7149C334.286 96.4987 334.385 96.332 334.583 96.2142C334.781 96.077 335.021 96.0081 335.303 96.0081H337.888C338.17 96.0081 338.41 96.077 338.608 96.2142C338.805 96.3515 338.904 96.5187 338.904 96.7149V98.8058C340.74 98.9825 342.308 99.3654 343.607 99.9544C344.934 100.524 345.938 101.191 346.615 101.957C347.321 102.723 347.703 103.469 347.759 104.195C347.759 104.372 347.675 104.519 347.505 104.637C347.335 104.755 347.124 104.814 346.869 104.814H342.93C342.308 104.814 341.884 104.627 341.658 104.254C341.517 103.626 340.966 103.106 340.006 102.693C339.046 102.262 337.845 102.045 336.405 102.045C334.851 102.045 333.623 102.252 332.719 102.664C331.815 103.076 331.363 103.675 331.363 104.46C331.363 105.01 331.589 105.462 332.041 105.815C332.493 106.168 333.199 106.482 334.159 106.757C335.148 107.032 336.56 107.336 338.396 107.67C340.882 108.063 342.859 108.505 344.327 108.996C345.824 109.486 346.926 110.105 347.632 110.851C348.338 111.597 348.691 112.549 348.691 113.708C348.691 115.396 347.815 116.781 346.064 117.86C344.313 118.92 341.926 119.558 338.904 119.774V121.806C338.904 122.003 338.805 122.17 338.608 122.307C338.41 122.444 338.17 122.513 337.888 122.513H335.303Z" fill="#C9D5FF"/>
<path d="M440.576 168.897C440.576 179.876 421.721 188.776 398.462 188.776C375.203 188.776 356.348 179.876 356.348 168.897C356.348 157.918 375.203 149.018 398.462 149.018C421.721 149.018 440.576 157.918 440.576 168.897Z" fill="#4067F0"/>
<path d="M440.576 176.849C440.576 187.828 421.721 196.728 398.462 196.728C375.203 196.728 356.348 187.828 356.348 176.849C356.348 173.8 356.348 168.33 356.348 168.33C356.348 168.33 381.662 156.97 398.462 156.97C413.8 156.97 440.576 168.897 440.576 168.897C440.576 168.897 440.576 173.111 440.576 176.849Z" fill="#4067F0"/>
<path d="M436.453 168.456C436.453 177.239 419.576 184.359 398.757 184.359C377.938 184.359 361.06 177.239 361.06 168.456C361.06 159.672 377.938 152.552 398.757 152.552C419.576 152.552 436.453 159.672 436.453 168.456Z" fill="#7A98FF"/>
<path d="M396.56 180.236C396.277 180.236 396.037 180.167 395.839 180.03C395.642 179.912 395.543 179.745 395.543 179.529V177.467C393.509 177.33 391.758 176.996 390.29 176.466C388.849 175.917 387.747 175.249 386.985 174.464C386.25 173.658 385.855 172.804 385.798 171.901C385.798 171.725 385.883 171.577 386.053 171.46C386.25 171.342 386.476 171.283 386.73 171.283H390.501C390.812 171.283 391.052 171.332 391.221 171.43C391.419 171.508 391.603 171.646 391.772 171.842C392.083 172.51 392.733 173.069 393.721 173.521C394.738 173.973 396.136 174.198 397.915 174.198C399.893 174.198 401.389 173.973 402.406 173.521C403.423 173.05 403.932 172.402 403.932 171.577C403.932 171.028 403.677 170.576 403.169 170.223C402.661 169.869 401.884 169.565 400.839 169.31C399.794 169.035 398.254 168.721 396.221 168.367C392.888 167.818 390.445 167.091 388.891 166.188C387.366 165.265 386.604 163.96 386.604 162.271C386.604 160.74 387.394 159.454 388.976 158.413C390.586 157.353 392.775 156.705 395.543 156.469V154.437C395.543 154.221 395.642 154.054 395.839 153.937C396.037 153.799 396.277 153.731 396.56 153.731H399.144C399.426 153.731 399.667 153.799 399.864 153.937C400.062 154.074 400.161 154.241 400.161 154.437V156.528C401.997 156.705 403.565 157.088 404.863 157.677C406.191 158.246 407.194 158.914 407.871 159.679C408.578 160.445 408.959 161.191 409.016 161.918C409.016 162.094 408.931 162.242 408.761 162.359C408.592 162.477 408.38 162.536 408.126 162.536H404.186C403.565 162.536 403.141 162.349 402.915 161.977C402.774 161.348 402.223 160.828 401.262 160.416C400.302 159.984 399.102 159.768 397.661 159.768C396.108 159.768 394.879 159.974 393.975 160.386C393.072 160.799 392.62 161.398 392.62 162.183C392.62 162.732 392.845 163.184 393.298 163.537C393.749 163.891 394.456 164.205 395.416 164.48C396.404 164.755 397.817 165.059 399.652 165.393C402.138 165.786 404.115 166.227 405.584 166.718C407.081 167.209 408.182 167.827 408.889 168.573C409.595 169.32 409.948 170.272 409.948 171.43C409.948 173.119 409.072 174.503 407.321 175.583C405.57 176.643 403.183 177.281 400.161 177.497V179.529C400.161 179.725 400.062 179.892 399.864 180.03C399.667 180.167 399.426 180.236 399.144 180.236H396.56Z" fill="#C9D5FF"/>
</g>
<defs>
<clipPath id="clip0">
<rect width="450" height="209.686" fill="white"/>
</clipPath>
</defs>
</svg>
