<svg width="391" height="300" viewBox="0 0 391 300" fill="none" xmlns="http://www.w3.org/2000/svg">
<g clip-path="url(#clip0)">
<path d="M231.769 221.48C231.769 217.592 234.921 214.44 238.809 214.44H383.393C387.282 214.44 390.433 217.592 390.433 221.48C390.433 225.368 387.282 228.52 383.393 228.52H238.809C234.921 228.52 231.769 225.368 231.769 221.48Z" fill="#ECF0F3"/>
<path fill-rule="evenodd" clip-rule="evenodd" d="M153.298 9.85227L16.3413 25.8032C9.50954 26.5993 4.62182 32.8868 5.42489 39.8469L31.0733 262.198C31.8758 269.159 38.0653 274.156 44.8971 273.361L181.854 257.41C188.685 256.614 193.573 250.326 192.77 243.366L167.122 21.0145C166.319 14.0541 160.13 9.05657 153.298 9.85227ZM15.7186 20.4021C5.95827 21.5388 -1.02349 30.5209 0.12344 40.4642L25.7713 262.816C26.9187 272.76 35.7601 279.898 45.5204 278.762L182.476 262.811C192.237 261.674 199.218 252.692 198.071 242.749L172.424 20.397C171.276 10.4536 162.435 3.31432 152.674 4.45102L15.7186 20.4021Z" fill="#4067F0"/>
<path d="M16.3413 25.8033L153.298 9.8523C160.13 9.05659 166.319 14.0541 167.122 21.0145L192.77 243.366C193.573 250.326 188.685 256.614 181.854 257.41L44.8971 273.361C38.0653 274.156 31.8758 269.159 31.0732 262.198L5.42486 39.8469C4.62179 32.8868 9.50952 26.5993 16.3413 25.8033Z" fill="#4067F0"/>
<path d="M15.8063 64.0592C14.8408 55.7312 20.8153 48.1971 29.1514 47.231L146.123 33.6764C154.458 32.7108 161.998 38.6789 162.964 47.0069L184.555 233.233C185.52 241.561 179.546 249.095 171.21 250.061L54.2383 263.616C45.9027 264.582 38.3626 258.614 37.3971 250.286L15.8063 64.0592Z" fill="white"/>
<path d="M52.2434 79.1258C52.0544 77.4921 53.2609 76.01 54.939 75.815L129.367 67.1692C131.044 66.9742 132.558 68.1406 132.746 69.7749C132.935 71.4087 131.729 72.8908 130.051 73.0858L55.623 81.7316C53.9454 81.9266 52.4318 80.7596 52.2434 79.1258Z" fill="#EDF0F4"/>
<path d="M49.0261 206.506C48.8377 204.872 50.0599 203.388 51.757 203.19L84.79 199.353C86.4866 199.156 88.0158 200.321 88.2048 201.955C88.3938 203.588 87.1711 205.073 85.474 205.27L52.4415 209.107C50.7444 209.304 49.2151 208.139 49.0261 206.506Z" fill="#EDF0F4"/>
<path d="M50.7991 221.835C50.5934 220.052 51.7831 218.45 53.4569 218.255L86.0367 214.471C87.7105 214.276 89.2349 215.564 89.4406 217.346C89.647 219.128 88.4573 220.731 86.7834 220.925L54.2031 224.71C52.5293 224.904 51.0055 223.617 50.7991 221.835Z" fill="#EDF0F4"/>
<path d="M38.4672 105.8C38.2782 104.167 39.4814 102.684 41.1542 102.49L90.3753 96.7727C92.048 96.5783 93.5572 97.7453 93.7462 99.3791C93.9352 101.013 92.732 102.495 91.0592 102.689L41.8381 108.407C40.1654 108.601 38.6562 107.434 38.4672 105.8Z" fill="#EDF0F4"/>
<path d="M99.7121 99.2312C99.5231 97.5974 100.739 96.1142 102.427 95.9177L146.761 90.7679C148.45 90.5718 149.972 91.7372 150.161 93.3709C150.35 95.0047 149.134 96.4884 147.445 96.6845L103.112 101.834C101.423 102.03 99.9011 100.865 99.7121 99.2312Z" fill="#EDF0F4"/>
<path d="M39.7035 121.192C39.4972 119.41 40.6977 117.806 42.3845 117.61L110.339 109.716C112.026 109.52 113.56 110.806 113.767 112.589C113.972 114.371 112.772 115.974 111.086 116.17L43.1307 124.064C41.4439 124.26 39.9098 122.974 39.7035 121.192Z" fill="#EDF0F4"/>
<path d="M43.1555 151.044C42.9324 149.112 44.2781 147.37 46.1609 147.151L77.9837 143.455C79.8666 143.236 81.5739 144.624 81.7976 146.555C82.0207 148.485 80.675 150.228 78.7922 150.447L46.9694 154.143C45.0866 154.362 43.3792 152.974 43.1555 151.044Z" fill="#EDF0F4"/>
<path d="M125.099 111.817C124.893 110.035 126.099 108.431 127.792 108.234L148.494 105.829C150.187 105.632 151.727 106.918 151.934 108.7C152.14 110.482 150.934 112.087 149.24 112.283L128.539 114.688C126.845 114.885 125.305 113.6 125.099 111.817Z" fill="#EDF0F4"/>
<path d="M95.8137 145.472C95.5901 143.541 96.9341 141.798 98.8154 141.58L151.039 135.513C152.92 135.295 154.626 136.683 154.849 138.614C155.073 140.545 153.729 142.287 151.848 142.506L99.6238 148.572C97.7426 148.791 96.0369 147.402 95.8137 145.472Z" fill="#EDF0F4"/>
<path d="M41.4763 136.521C41.2874 134.887 42.4977 133.404 44.1796 133.209L103.565 126.311C105.247 126.115 106.763 127.281 106.952 128.915C107.141 130.549 105.931 132.032 104.249 132.227L44.8635 139.125C43.1816 139.321 41.6653 138.155 41.4763 136.521Z" fill="#EDF0F4"/>
<path d="M115.57 128.187C115.364 126.404 116.562 124.801 118.245 124.605L150.254 120.887C151.938 120.692 153.469 121.978 153.675 123.76C153.882 125.542 152.684 127.146 151 127.341L118.992 131.059C117.309 131.255 115.777 129.969 115.57 128.187Z" fill="#EDF0F4"/>
<path d="M52.213 43.9976C51.4359 37.2947 56.2998 31.2238 63.0758 30.4381L112.769 24.6785C119.545 23.8928 125.669 28.6906 126.445 35.394L127.782 46.9245L53.5495 55.5287L52.213 43.9976Z" fill="#282D57"/>
<path d="M101.612 13.9786C102.577 22.2969 96.7354 29.8078 88.5656 30.7549C80.3957 31.702 72.991 25.7258 72.0271 17.4077C71.0627 9.08945 76.904 1.57846 85.0739 0.631566C93.2437 -0.315383 100.648 5.66025 101.612 13.9786ZM80.3843 16.4391C80.8035 20.058 84.025 22.6576 87.5795 22.2457C91.1334 21.8337 93.6748 18.5661 93.2551 14.9473C92.836 11.3284 89.6145 8.72864 86.0605 9.14063C82.506 9.55261 79.9647 12.8202 80.3843 16.4391Z" fill="#282D57"/>
<path d="M187.257 276.343C187.463 271.803 189.234 268.433 190.094 267.315L177.713 256.223L164.815 274.796C166.019 277.633 169.355 283.515 173.07 284.34C177.713 285.371 186.999 282.018 187.257 276.343Z" fill="#ECA98E"/>
<path d="M241.169 259.061C241.169 255.14 238.417 245.217 237.042 240.746V239.972L252.776 230.944L256.388 240.746C258.452 244.873 262.114 254.056 260.257 257.771C257.935 262.414 241.169 263.962 241.169 259.061Z" fill="#ECA98E"/>
<path d="M191.04 289.611C191.926 285.743 189.897 277.619 188.771 274.041C187.099 276.277 182.813 280.793 179.041 280.973C175.269 281.152 171.28 278.873 169.757 277.711C170.135 277.035 170.844 275.338 170.658 273.957C170.472 272.577 167.952 269.518 166.715 268.161C166.501 268.307 165.348 269.059 162.456 270.901C158.841 273.203 149.266 277.361 144.164 278.633C139.063 279.905 131.522 278.282 129.341 279.923C127.596 281.236 126.467 284.547 126.121 286.039C128.933 287.633 135.133 290.931 137.441 291.37C139.75 291.81 172.854 297.114 189.118 299.711C189.39 297.956 190.154 293.48 191.04 289.611Z" fill="#F87373"/>
<path fill-rule="evenodd" clip-rule="evenodd" d="M148.486 277.81C148.519 277.832 148.559 277.862 148.606 277.902C148.79 278.059 149.011 278.458 149.179 279.099C149.336 279.696 149.398 280.314 149.406 280.68C149.42 281.288 149.925 281.77 150.533 281.756C151.141 281.742 151.623 281.238 151.609 280.629C151.597 280.119 151.517 279.328 151.31 278.54C151.115 277.798 150.754 276.84 150.037 276.227C149.402 275.685 148.679 275.435 147.959 275.603C147.298 275.757 146.874 276.212 146.669 276.579C146.371 277.11 146.561 277.781 147.093 278.078C147.567 278.344 148.155 278.22 148.486 277.81Z" fill="#C71F1F"/>
<path fill-rule="evenodd" clip-rule="evenodd" d="M153.364 275.749C153.396 275.77 153.437 275.8 153.484 275.841C153.667 275.997 153.889 276.396 154.057 277.038C154.213 277.634 154.276 278.252 154.284 278.618C154.298 279.226 154.803 279.708 155.411 279.694C156.019 279.68 156.501 279.176 156.487 278.567C156.475 278.057 156.394 277.266 156.188 276.479C155.993 275.736 155.632 274.778 154.915 274.166C154.28 273.623 153.557 273.373 152.837 273.541C152.176 273.695 151.752 274.15 151.546 274.517C151.249 275.049 151.439 275.72 151.97 276.016C152.445 276.282 153.032 276.158 153.364 275.749Z" fill="#C71F1F"/>
<path fill-rule="evenodd" clip-rule="evenodd" d="M158.242 273.687C158.274 273.709 158.314 273.738 158.362 273.779C158.545 273.936 158.767 274.334 158.935 274.975C159.092 275.572 159.154 276.191 159.162 276.556C159.176 277.165 159.68 277.646 160.289 277.632C160.897 277.619 161.378 277.114 161.364 276.506C161.353 275.996 161.272 275.204 161.066 274.417C160.872 273.675 160.51 272.717 159.793 272.104C159.158 271.561 158.435 271.312 157.715 271.479C157.054 271.633 156.63 272.088 156.424 272.455C156.127 272.986 156.317 273.657 156.848 273.955C157.324 274.22 157.911 274.096 158.242 273.687Z" fill="#C71F1F"/>
<path d="M138.077 286.191C134.93 285.403 130.836 281.89 128.946 280.035C128.946 280.035 126.164 282.869 126.121 286.039C127.539 287.43 130.304 290.573 137.768 291.619C145.231 292.666 172.76 297.283 189.118 299.711L190.491 292.497C175.512 293.144 150.041 289.188 138.077 286.191Z" fill="white"/>
<path d="M160.186 281.132L169.555 277.862L173.826 280.04L160.186 281.132Z" fill="#C71F1F"/>
<path d="M135.869 291.188C132.709 290.486 126.875 285.995 126.552 284.252C126.552 284.252 125.727 285.636 126.071 286.777C127.627 287.452 130.044 291.683 137.473 292.971C144.902 294.258 170.011 298.74 189.298 299.746L189.218 298.206C171.033 296.531 139.029 291.891 135.869 291.188Z" fill="#C4C4C4"/>
<path d="M269.663 248.889C267.223 245.76 259.641 242.206 256.155 240.82C256.834 243.528 257.631 249.703 255.389 252.742C253.147 255.78 248.861 257.436 246.998 257.883C246.713 257.164 245.845 255.543 244.656 254.815C243.468 254.087 239.505 254.111 237.672 254.214C237.649 254.473 237.506 255.841 237.108 259.247C236.611 263.504 233.791 273.555 231.558 278.314C229.323 283.073 223.305 287.898 223.2 290.625C223.117 292.807 224.973 295.772 225.911 296.983C228.922 295.809 235.394 293.082 237.192 291.569C238.99 290.056 264.002 267.73 276.283 256.756C275.093 255.438 272.104 252.018 269.663 248.889Z" fill="#F87373"/>
<path fill-rule="evenodd" clip-rule="evenodd" d="M233.648 274.443C233.686 274.432 233.734 274.419 233.795 274.408C234.033 274.365 234.482 274.445 235.085 274.719C235.647 274.974 236.166 275.317 236.455 275.541C236.936 275.914 237.628 275.827 238.001 275.346C238.374 274.866 238.287 274.174 237.806 273.801C237.403 273.488 236.738 273.05 235.997 272.714C235.299 272.396 234.328 272.072 233.4 272.241C232.578 272.391 231.928 272.794 231.604 273.459C231.306 274.068 231.391 274.685 231.546 275.076C231.771 275.641 232.411 275.918 232.976 275.693C233.482 275.493 233.757 274.959 233.648 274.443Z" fill="#C71F1F"/>
<path fill-rule="evenodd" clip-rule="evenodd" d="M235.128 269.359C235.165 269.347 235.214 269.334 235.275 269.324C235.512 269.28 235.961 269.36 236.565 269.634C237.127 269.89 237.645 270.232 237.935 270.456C238.415 270.83 239.107 270.742 239.48 270.262C239.853 269.781 239.766 269.089 239.286 268.716C238.882 268.403 238.218 267.966 237.477 267.629C236.779 267.311 235.808 266.987 234.88 267.156C234.058 267.306 233.408 267.709 233.083 268.374C232.785 268.984 232.87 269.6 233.026 269.991C233.25 270.557 233.891 270.833 234.456 270.609C234.962 270.408 235.236 269.874 235.128 269.359Z" fill="#C71F1F"/>
<path fill-rule="evenodd" clip-rule="evenodd" d="M236.609 264.274C236.646 264.263 236.695 264.25 236.756 264.239C236.993 264.195 237.442 264.276 238.046 264.55C238.607 264.805 239.126 265.147 239.415 265.372C239.895 265.745 240.588 265.658 240.961 265.177C241.334 264.697 241.247 264.005 240.766 263.632C240.363 263.319 239.698 262.881 238.958 262.544C238.259 262.227 237.288 261.902 236.36 262.072C235.538 262.221 234.888 262.625 234.564 263.289C234.266 263.899 234.351 264.515 234.506 264.906C234.731 265.472 235.371 265.749 235.936 265.524C236.443 265.323 236.717 264.79 236.609 264.274Z" fill="#C71F1F"/>
<path d="M233.577 287.807C230.979 289.751 225.67 290.708 223.039 291.002C223.039 291.002 223.48 294.949 225.911 296.983C227.885 296.762 232.068 296.6 237.592 291.473C243.115 286.346 264.074 267.91 276.283 256.756L271.555 251.137C262.602 263.163 243.453 280.42 233.577 287.807Z" fill="white"/>
<path d="M243.61 267.466L246.988 258.136L251.373 256.198L243.61 267.466Z" fill="#C71F1F"/>
<path d="M236.058 292.674C233.519 294.681 226.353 296.371 224.797 295.521C224.797 295.521 225.35 297.035 226.452 297.488C227.958 296.708 232.765 297.504 238.453 292.555C244.141 287.606 263.468 270.962 276.423 256.638L275.178 255.729C262.399 268.775 238.599 290.666 236.058 292.674Z" fill="#C4C4C4"/>
<path d="M299.886 56.4277C299.333 53.941 299.31 36.3991 299.368 27.939C300.405 24.4284 303.517 16.7164 307.667 13.9539C312.853 10.5008 327.031 14.8172 330.489 16.5438C333.947 18.2704 334.811 37.9533 336.54 37.7805C338.269 37.6078 340.344 38.8165 340.171 43.9961C340.033 48.1397 335.646 48.6163 333.514 48.3861V81.7013C333.122 84.8367 332.358 98.8495 316.86 95.1596C311.866 93.9704 310.2 77.2127 310.2 73.3186L311.173 65.2397C311.173 65.2397 310.389 65.2397 307.667 64.715C302.548 63.7284 300.578 59.5354 299.886 56.4277Z" fill="#F7CBB2"/>
<path d="M319.324 67.0971C323.771 66.3628 327.882 60.867 328.373 57.9146C318.288 67.2244 311.154 64.8027 311.154 64.8027C312.188 65.8402 314.877 67.8319 319.324 67.0971Z" fill="#ECA98E"/>
<path d="M320.01 39.7115C320.01 40.5265 319.349 41.1872 318.534 41.1872C317.718 41.1872 317.058 40.5265 317.058 39.7115C317.058 38.896 317.718 38.2354 318.534 38.2354C319.349 38.2354 320.01 38.896 320.01 39.7115Z" fill="#1E1D3D"/>
<path d="M305.742 39.7115C305.742 40.5265 305.081 41.1872 304.266 41.1872C303.451 41.1872 302.79 40.5265 302.79 39.7115C302.79 38.896 303.451 38.2354 304.266 38.2354C305.081 38.2354 305.742 38.896 305.742 39.7115Z" fill="#1E1D3D"/>
<path d="M302.79 36.5177C305.276 33.3634 308.202 37.2515 308.202 37.2515C308.202 37.2515 305.436 35.4899 302.79 36.5177Z" fill="#1E1D3D"/>
<path d="M321.486 37.193C318.573 34.8271 316.074 37.7432 316.074 37.7432C316.074 37.7432 318.84 36.4224 321.486 37.193Z" fill="#1E1D3D"/>
<path d="M302.654 31.6841C305.107 27.3547 308.716 30.6942 308.112 31.1892C307.508 31.6841 305.215 30.2491 302.654 31.6841Z" fill="#1E1D3D"/>
<path d="M323.106 31.6841C320.654 27.3547 317.474 30.1234 317.649 31.1892C317.823 32.2549 320.666 30.3216 323.106 31.6841Z" fill="#1E1D3D"/>
<path d="M308.696 45.9162C308.603 43.2747 311.879 36.5799 313.122 33.8074C312.656 35.642 309.628 44.5516 309.628 45.5496C309.628 46.872 311.607 47.0577 312.423 46.65C311.336 47.4655 308.789 48.5583 308.696 45.9162Z" fill="#1E1D3D"/>
<path d="M316.414 49.0592C314.905 52.3132 310.993 51.2388 310.169 50.8738C311.346 53.0626 314.069 52.6013 315.183 52.0251C316.297 51.4495 316.854 49.7226 316.414 49.0592Z" fill="#1E1D3D"/>
<path d="M227.882 127.946C241.621 127.107 255.358 128.096 250.73 154.447C246.1 180.799 255.807 236.347 255.807 236.347C249.475 242.456 238.584 244.033 234.602 243.683C225.842 218.53 208.171 164.988 207.573 152.052C206.827 135.882 210.709 128.994 227.882 127.946Z" fill="#1D2035"/>
<path d="M225.885 195.556C243.612 185.471 266.748 181.106 282.371 176.591L361.092 182.612C356.535 191.743 355.383 214.972 332.097 217.23C308.812 219.487 252.025 222.347 247.368 225.357C243.642 227.766 209.66 258.27 193.135 273.221C184.121 273.582 173.855 262.534 169.849 256.965C177.962 249.891 208.158 205.64 225.885 195.556Z" fill="#282D57"/>
<path d="M316.127 80.5532C308.995 79.1832 311.206 70.0949 311.206 67.6289C310.383 68.6334 308.771 70.526 308.332 70.7453C307.783 71.0193 289.124 75.0883 282.441 80.5532C275.758 86.0188 273.878 128.18 273.147 129.459C277.994 134.301 305.806 183.829 324.662 184.72C354.144 186.113 354.935 186.663 360.971 182.553C359.325 174.331 394.798 85.4729 356.344 72.1159C352.975 70.9457 340.432 70.4713 337.414 69.6493C334.999 68.9913 333.951 67.8763 333.585 67.2368C333.585 67.2368 333.585 78.3991 328.089 80.5532L320.162 93.5475L316.127 80.5532Z" fill="#F87373"/>
<path fill-rule="evenodd" clip-rule="evenodd" d="M336.152 81.3774C335.141 84.333 333.29 87.8193 332.529 88.8227L332.313 89.1076L332.177 88.7794C331.863 88.0208 330.697 85.8856 330.216 84.945C329.735 84.0043 329.312 83.2885 328.935 82.8639C328.746 82.6511 328.577 82.4713 328.436 82.3332C328.38 82.2785 328.33 82.2325 328.287 82.1946L325.997 85.4345L326.025 85.1383L328.158 81.632L328.333 81.7338C328.442 81.7966 328.577 81.9135 328.724 82.0565C328.875 82.2038 329.051 82.3917 329.243 82.6083C329.627 83.0421 330.081 83.5977 330.533 84.1895C331.321 85.22 332.118 86.3778 332.529 87.1949C333.28 86.0924 334.453 83.831 335.368 81.1538C336.37 78.222 337.053 74.824 336.553 71.9269L336.753 71.3058C337.565 75.6228 337.162 78.4229 336.152 81.3774Z" fill="#C71F1F"/>
<path fill-rule="evenodd" clip-rule="evenodd" d="M309.247 83.0605C310.342 86.3442 311.509 89.6166 311.509 89.6166C311.509 89.6166 312.343 85.8108 313.25 84.6271C313.701 84.0385 314.152 83.4877 314.531 83.0605C314.721 82.8471 314.892 82.6657 315.034 82.5271C315.09 82.4724 315.14 82.4264 315.184 82.3879L316.842 86.9664L316.813 86.6691L315.314 81.8226L315.137 81.9249C315.028 81.9883 314.892 82.1058 314.744 82.2493C314.592 82.3971 314.414 82.5861 314.221 82.8038C313.834 83.2397 313.377 83.798 312.921 84.3926C312.128 85.4285 311.509 85.8753 311.509 85.8753C311.509 85.8753 310.971 83.3897 310.048 80.6989C309.039 77.7525 308.316 74.8413 308.819 71.9302L308.618 71.3058C307.8 75.6444 308.254 80.0832 309.247 83.0605Z" fill="#C71F1F"/>
<path d="M345.784 20.1547C346.368 25.7718 341.57 34.9278 339.463 39.3985C339.463 39.3985 335.117 34.9278 333.151 42.3146V34.1502C333.151 23.0707 329.182 19.3772 322.475 17.8221C315.912 16.3007 317.734 22.4874 306.079 24.2366C302.649 24.7516 301.14 28.3191 299.165 33.1787C298.507 32.7899 297.435 31.3326 295.223 29.3106C293.01 27.2891 293.107 24.3016 294.029 22.293C294.029 22.293 292.242 18.5796 293.239 14.5176C294.235 10.4557 302.91 2.64025 317.141 1.68837C328.975 0.89689 334.657 7.64943 336.698 11.6019C338.936 11.2779 345.235 14.8677 345.784 20.1547Z" fill="#1E1D3D"/>
<path d="M362.715 169.611C346.622 171.827 314.002 176.354 312.264 176.725C327.684 177.189 358.71 178.117 359.455 178.117C360.387 178.117 361.784 174.869 362.715 171.776C363.46 169.301 363.025 169.301 362.715 169.611Z" fill="#C71F1F"/>
<path d="M375.871 108.312C375.374 95.5549 371.203 82.663 367.623 79.9793C359.687 73.3219 349.416 89.8879 346.147 95.4618C342.879 101.036 345.37 106.919 346.147 118.531C346.77 127.821 348.586 140.981 349.416 146.4L311.755 159.715L312.845 176.591C331.986 174.114 360.776 172.875 367.623 171.481C374.471 170.088 376.805 167.456 377.272 162.502C377.739 157.547 376.37 121.07 375.871 108.312Z" fill="#F87373"/>
<path d="M347.445 115.124C346.646 99.5561 345.897 102.484 345.897 102.484C345.897 102.484 346.378 133.582 348.385 145.53L311.481 159.806L349.62 146.772C348.951 141.703 348.385 133.438 347.445 115.124Z" fill="#C71F1F"/>
<path d="M290.482 138.393C289.812 135.186 288.443 121.417 288.32 91.9955C287.342 98.7715 285.634 116.203 286.622 131.72C287.61 147.237 289.607 142.634 290.482 138.393Z" fill="#C71F1F"/>
<path d="M237.496 132.248C237.496 128.929 240.179 126.237 243.49 126.237H309.716C313.026 126.237 315.709 128.929 315.709 132.248V179.735C315.709 183.055 313.026 185.746 309.716 185.746H243.49C240.179 185.746 237.496 183.055 237.496 179.735V132.248Z" fill="#4067F0"/>
<path d="M293.534 181.388C293.534 178.981 295.479 177.03 297.879 177.03H327.246C329.646 177.03 331.591 178.981 331.591 181.388C331.591 183.795 329.646 185.746 327.246 185.746H297.879C295.479 185.746 293.534 183.795 293.534 181.388Z" fill="#4067F0"/>
</g>
<defs>
<clipPath id="clip0">
<rect width="390.433" height="300" fill="white"/>
</clipPath>
</defs>
</svg>
