<svg width="450" height="243" viewBox="0 0 450 243" fill="none" xmlns="http://www.w3.org/2000/svg">
<g clip-path="url(#clip0)">
<path d="M0.51193 87.4442C-1.99341 76.3858 4.93983 65.3906 15.9982 62.8853L278.014 3.5159C289.072 1.01056 300.068 7.9438 302.574 19.0015L334.134 158.283C336.64 169.342 329.706 180.337 318.648 182.842L56.6321 242.212C45.5738 244.717 34.5785 237.784 32.0726 226.726L0.51193 87.4442Z" fill="#F87373"/>
<path d="M35.6515 135.67C34.6518 131.272 37.4185 126.899 41.8326 125.902L82.3242 116.759C86.7376 115.762 91.1259 118.52 92.1262 122.918L97.1255 144.904C98.1252 149.302 95.3586 153.675 90.9445 154.672L50.4529 163.815C46.0394 164.812 41.6511 162.054 40.6508 157.656L35.6515 135.67Z" fill="#C71F1F"/>
<path d="M47.4519 187.19C46.7063 183.906 48.7695 180.641 52.0601 179.897L96.7452 169.792C100.036 169.049 103.308 171.107 104.053 174.391C104.799 177.675 102.736 180.94 99.4452 181.684L54.7601 191.789C51.4695 192.533 48.1975 190.474 47.4519 187.19Z" fill="#C71F1F"/>
<path d="M25.9871 92.6502C25.2415 89.3662 27.3041 86.1008 30.5947 85.357L75.2798 75.2522C78.5704 74.5084 81.8424 76.5673 82.588 79.8507C83.3336 83.1347 81.2704 86.4 77.9798 87.1438L33.2947 97.2487C30.0047 97.9931 26.7327 95.9341 25.9871 92.6502Z" fill="#C71F1F"/>
<path d="M53.6624 214.542C52.9168 211.258 54.9799 207.993 58.2705 207.249L148.236 186.904C151.526 186.161 154.798 188.219 155.544 191.503C156.289 194.787 154.226 198.052 150.936 198.796L60.9705 219.14C57.6799 219.884 54.408 217.825 53.6624 214.542Z" fill="#C71F1F"/>
<path d="M113.586 172.236C112.84 168.952 114.903 165.687 118.194 164.942L162.879 154.838C166.17 154.093 169.441 156.152 170.187 159.436C170.932 162.72 168.87 165.986 165.579 166.729L120.894 176.834C117.603 177.578 114.331 175.519 113.586 172.236Z" fill="#C71F1F"/>
<path d="M180.315 157.146C179.57 153.862 181.633 150.597 184.924 149.852L229.608 139.748C232.899 139.004 236.171 141.063 236.916 144.347C237.662 147.631 235.599 150.896 232.308 151.64L187.624 161.745C184.333 162.488 181.061 160.43 180.315 157.146Z" fill="#C71F1F"/>
<path d="M246.449 142.191C245.704 138.907 247.767 135.642 251.057 134.898L295.742 124.793C299.033 124.049 302.305 126.108 303.05 129.392C303.796 132.676 301.733 135.941 298.442 136.685L253.757 146.79C250.467 147.534 247.195 145.475 246.449 142.191Z" fill="#C71F1F"/>
<path d="M252.659 169.542C251.913 166.258 253.977 162.993 257.267 162.249L301.952 152.144C305.242 151.4 308.514 153.459 309.26 156.743C310.006 160.027 307.943 163.292 304.652 164.036L259.967 174.141C256.677 174.885 253.405 172.826 252.659 169.542Z" fill="#C71F1F"/>
<path fill-rule="evenodd" clip-rule="evenodd" d="M322.327 41.102C320.27 40.4291 319.149 38.2182 319.822 36.164L330.797 2.69521C331.47 0.641668 333.684 -0.477626 335.741 0.195872C337.799 0.86937 338.92 3.07972 338.246 5.13386L330.126 29.8965C355.494 18.4524 380.216 13.6628 400.798 17.6437C412.28 19.8649 422.486 24.8245 430.674 32.877C438.856 40.923 444.834 51.8708 448.171 65.7823C453.505 88.0186 446.599 106.455 434.877 119.413C423.281 132.234 406.878 139.811 392.762 140.581C390.601 140.699 388.753 139.046 388.634 136.887C388.515 134.729 390.17 132.884 392.331 132.766C404.251 132.116 418.758 125.554 429.059 114.166C439.236 102.915 445.218 87.0705 440.548 67.6021C437.492 54.8628 432.138 45.3004 425.175 38.4525C418.218 31.6106 409.468 27.2926 399.31 25.328C381.05 21.7959 358.291 25.8987 334.068 36.7095L358.288 44.6371C360.345 45.31 361.467 47.521 360.793 49.5751C360.12 51.6286 357.906 52.7479 355.849 52.0744L322.327 41.102Z" fill="#D8DCDD"/>
<path d="M305.207 210.48C305.207 223.2 327.13 233.512 354.172 233.512C381.215 233.512 403.137 223.2 403.137 210.48C403.137 197.761 381.215 187.45 354.172 187.45C327.13 187.45 305.207 197.761 305.207 210.48Z" fill="#4067F0"/>
<path d="M305.207 219.693C305.207 232.413 327.13 242.724 354.172 242.724C381.215 242.724 403.137 232.413 403.137 219.693C403.137 216.16 403.137 209.823 403.137 209.823C403.137 209.823 373.705 196.662 354.172 196.662C336.339 196.662 305.207 210.48 305.207 210.48C305.207 210.48 305.207 215.361 305.207 219.693Z" fill="#4067F0"/>
<path d="M310.614 209.68C310.614 219.966 330.116 228.304 354.172 228.304C378.229 228.304 397.73 219.966 397.73 209.68C397.73 199.393 378.229 191.055 354.172 191.055C330.116 191.055 310.614 199.393 310.614 209.68Z" fill="#7A98FF"/>
<path d="M354.774 222.897C355.097 222.897 355.372 222.818 355.598 222.659C355.824 222.523 355.938 222.33 355.938 222.08V219.697C358.265 219.538 360.269 219.152 361.95 218.54C363.598 217.904 364.859 217.132 365.732 216.224C366.572 215.293 367.024 214.306 367.089 213.262C367.089 213.058 366.993 212.888 366.799 212.751C366.572 212.616 366.314 212.547 366.023 212.547H361.707C361.352 212.547 361.077 212.604 360.883 212.718C360.657 212.809 360.447 212.967 360.253 213.194C359.897 213.966 359.154 214.613 358.023 215.135C356.859 215.657 355.259 215.918 353.222 215.918C350.96 215.918 349.247 215.657 348.083 215.135C346.919 214.59 346.338 213.841 346.338 212.888C346.338 212.252 346.628 211.73 347.21 211.322C347.792 210.913 348.681 210.562 349.877 210.267C351.073 209.949 352.835 209.585 355.162 209.177C358.976 208.542 361.772 207.702 363.55 206.658C365.295 205.591 366.168 204.081 366.168 202.129C366.168 200.359 365.263 198.872 363.453 197.67C361.611 196.444 359.105 195.695 355.938 195.423V193.073C355.938 192.823 355.824 192.631 355.598 192.495C355.372 192.336 355.097 192.256 354.774 192.256H351.816C351.493 192.256 351.219 192.336 350.992 192.495C350.766 192.653 350.653 192.846 350.653 193.073V195.49C348.552 195.695 346.758 196.138 345.271 196.818C343.752 197.477 342.604 198.248 341.828 199.134C341.02 200.019 340.584 200.881 340.519 201.721C340.519 201.925 340.616 202.096 340.81 202.231C341.004 202.368 341.246 202.436 341.537 202.436H346.046C346.758 202.436 347.242 202.22 347.501 201.789C347.662 201.063 348.293 200.461 349.392 199.984C350.491 199.485 351.865 199.236 353.514 199.236C355.291 199.236 356.697 199.474 357.732 199.951C358.766 200.427 359.283 201.119 359.283 202.027C359.283 202.663 359.025 203.185 358.508 203.593C357.99 204.002 357.182 204.365 356.083 204.683C354.952 205.001 353.336 205.353 351.235 205.738C348.39 206.193 346.127 206.703 344.446 207.27C342.733 207.838 341.473 208.552 340.665 209.415C339.857 210.278 339.453 211.379 339.453 212.718C339.453 214.67 340.455 216.27 342.459 217.518C344.463 218.744 347.194 219.481 350.653 219.731V222.08C350.653 222.307 350.766 222.5 350.992 222.659C351.219 222.818 351.493 222.897 351.816 222.897H354.774Z" fill="#C9D5FF"/>
<path d="M307.009 193.057C307.009 205.777 328.932 216.088 355.975 216.088C383.017 216.088 404.94 205.777 404.94 193.057C404.94 180.338 383.017 170.027 355.975 170.027C328.932 170.027 307.009 180.338 307.009 193.057Z" fill="#4067F0"/>
<path d="M307.009 202.27C307.009 214.989 328.932 225.3 355.975 225.3C383.017 225.3 404.94 214.989 404.94 202.27C404.94 198.737 404.94 192.399 404.94 192.399C404.94 192.399 375.507 179.239 355.975 179.239C338.141 179.239 307.009 193.057 307.009 193.057C307.009 193.057 307.009 197.938 307.009 202.27Z" fill="#4067F0"/>
<path d="M312.417 192.857C312.417 203.143 331.918 211.482 355.975 211.482C380.031 211.482 399.533 203.143 399.533 192.857C399.533 182.571 380.031 174.232 355.975 174.232C331.918 174.232 312.417 182.571 312.417 192.857Z" fill="#7A98FF"/>
<path d="M356.577 206.075C356.9 206.075 357.174 205.995 357.401 205.836C357.627 205.7 357.74 205.508 357.74 205.258V202.874C360.067 202.716 362.071 202.33 363.752 201.717C365.4 201.082 366.662 200.31 367.534 199.402C368.374 198.471 368.827 197.484 368.892 196.44C368.892 196.235 368.795 196.065 368.601 195.929C368.374 195.793 368.116 195.725 367.825 195.725H363.51C363.154 195.725 362.88 195.782 362.685 195.895C362.46 195.986 362.249 196.145 362.055 196.372C361.7 197.143 360.956 197.79 359.825 198.312C358.661 198.835 357.061 199.095 355.025 199.095C352.762 199.095 351.049 198.835 349.885 198.312C348.722 197.768 348.14 197.019 348.14 196.065C348.14 195.43 348.431 194.908 349.012 194.499C349.595 194.091 350.483 193.739 351.679 193.444C352.876 193.126 354.637 192.763 356.964 192.354C360.779 191.719 363.575 190.879 365.352 189.835C367.098 188.768 367.971 187.259 367.971 185.307C367.971 183.537 367.065 182.05 365.255 180.847C363.413 179.622 360.908 178.872 357.74 178.6V176.251C357.74 176.001 357.627 175.808 357.401 175.672C357.174 175.513 356.9 175.434 356.577 175.434H353.619C353.296 175.434 353.021 175.513 352.794 175.672C352.568 175.831 352.455 176.024 352.455 176.251V178.668C350.354 178.872 348.56 179.315 347.073 179.996C345.554 180.654 344.407 181.426 343.63 182.311C342.822 183.196 342.386 184.059 342.321 184.898C342.321 185.103 342.419 185.273 342.613 185.409C342.806 185.545 343.049 185.613 343.34 185.613H347.849C348.56 185.613 349.045 185.398 349.303 184.967C349.465 184.241 350.096 183.639 351.195 183.162C352.293 182.663 353.667 182.413 355.316 182.413C357.094 182.413 358.5 182.651 359.534 183.128C360.568 183.605 361.086 184.297 361.086 185.205C361.086 185.84 360.827 186.363 360.31 186.771C359.793 187.18 358.985 187.543 357.886 187.86C356.754 188.178 355.138 188.53 353.037 188.916C350.192 189.37 347.93 189.881 346.249 190.448C344.536 191.015 343.275 191.73 342.467 192.593C341.659 193.456 341.255 194.556 341.255 195.895C341.255 197.847 342.257 199.447 344.261 200.696C346.265 201.921 348.996 202.659 352.455 202.909V205.258C352.455 205.485 352.568 205.678 352.794 205.836C353.021 205.995 353.296 206.075 353.619 206.075H356.577Z" fill="#C9D5FF"/>
<path d="M301.602 175.033C301.602 187.753 323.525 198.064 350.567 198.064C377.61 198.064 399.533 187.753 399.533 175.033C399.533 162.314 377.61 152.003 350.567 152.003C323.525 152.003 301.602 162.314 301.602 175.033Z" fill="#4067F0"/>
<path d="M301.602 184.246C301.602 196.965 323.525 207.276 350.567 207.276C377.61 207.276 399.533 196.965 399.533 184.246C399.533 180.713 399.533 174.375 399.533 174.375C399.533 174.375 370.1 161.215 350.567 161.215C332.734 161.215 301.602 175.033 301.602 175.033C301.602 175.033 301.602 179.914 301.602 184.246Z" fill="#4067F0"/>
<path d="M307.009 174.232C307.009 184.519 326.511 192.857 350.567 192.857C374.624 192.857 394.125 184.519 394.125 174.232C394.125 163.946 374.624 155.607 350.567 155.607C326.511 155.607 307.009 163.946 307.009 174.232Z" fill="#7A98FF"/>
<path d="M351.768 187.45C351.444 187.45 351.17 187.371 350.943 187.211C350.718 187.076 350.604 186.883 350.604 186.633V184.249C348.277 184.091 346.273 183.705 344.592 183.092C342.944 182.457 341.683 181.685 340.81 180.777C339.97 179.846 339.517 178.859 339.453 177.815C339.453 177.611 339.549 177.441 339.743 177.304C339.97 177.168 340.228 177.1 340.519 177.1H344.834C345.19 177.1 345.465 177.157 345.659 177.271C345.885 177.361 346.095 177.52 346.289 177.747C346.645 178.518 347.388 179.165 348.519 179.688C349.683 180.21 351.283 180.47 353.32 180.47C355.582 180.47 357.295 180.21 358.459 179.688C359.623 179.143 360.204 178.394 360.204 177.441C360.204 176.805 359.913 176.283 359.332 175.874C358.75 175.466 357.861 175.114 356.665 174.819C355.469 174.501 353.707 174.138 351.38 173.729C347.566 173.094 344.77 172.254 342.992 171.21C341.247 170.143 340.374 168.634 340.374 166.682C340.374 164.912 341.279 163.425 343.089 162.222C344.931 160.997 347.437 160.247 350.604 159.975V157.626C350.604 157.376 350.718 157.183 350.943 157.048C351.17 156.888 351.444 156.809 351.768 156.809H354.725C355.049 156.809 355.323 156.888 355.55 157.048C355.776 157.206 355.889 157.399 355.889 157.626V160.043C357.99 160.247 359.784 160.69 361.271 161.371C362.79 162.029 363.938 162.801 364.714 163.686C365.522 164.571 365.958 165.434 366.023 166.273C366.023 166.478 365.926 166.648 365.732 166.784C365.538 166.921 365.295 166.988 365.005 166.988H360.496C359.784 166.988 359.299 166.773 359.041 166.342C358.879 165.616 358.249 165.014 357.15 164.537C356.051 164.038 354.677 163.789 353.028 163.789C351.25 163.789 349.845 164.027 348.81 164.504C347.776 164.98 347.259 165.672 347.259 166.58C347.259 167.216 347.517 167.738 348.034 168.146C348.552 168.555 349.36 168.918 350.459 169.235C351.59 169.553 353.206 169.905 355.307 170.291C358.152 170.745 360.414 171.256 362.095 171.823C363.808 172.39 365.069 173.105 365.877 173.968C366.685 174.831 367.089 175.931 367.089 177.271C367.089 179.223 366.087 180.822 364.083 182.071C362.079 183.297 359.348 184.034 355.889 184.284V186.633C355.889 186.86 355.776 187.053 355.55 187.211C355.323 187.371 355.049 187.45 354.725 187.45H351.768Z" fill="#C9D5FF"/>
<path d="M314.82 149.8C314.82 162.519 336.742 172.831 363.785 172.831C390.828 172.831 412.75 162.519 412.75 149.8C412.75 137.08 390.828 126.769 363.785 126.769C336.742 126.769 314.82 137.08 314.82 149.8Z" fill="#4067F0"/>
<path d="M314.82 159.012C314.82 171.732 336.742 182.043 363.785 182.043C390.828 182.043 412.75 171.732 412.75 159.012C412.75 155.48 412.75 149.142 412.75 149.142C412.75 149.142 383.318 135.981 363.785 135.981C345.951 135.981 314.82 149.8 314.82 149.8C314.82 149.8 314.82 154.68 314.82 159.012Z" fill="#4067F0"/>
<path d="M320.227 148.999C320.227 159.285 339.728 167.623 363.785 167.623C387.842 167.623 407.343 159.285 407.343 148.999C407.343 138.712 387.842 130.374 363.785 130.374C339.728 130.374 320.227 138.712 320.227 148.999Z" fill="#7A98FF"/>
<path d="M362.582 162.817C362.259 162.817 361.984 162.738 361.758 162.579C361.532 162.443 361.418 162.25 361.418 162V159.617C359.092 159.458 357.087 159.072 355.406 158.46C353.758 157.824 352.497 157.052 351.625 156.144C350.784 155.213 350.332 154.226 350.267 153.182C350.267 152.978 350.364 152.808 350.558 152.671C350.784 152.536 351.043 152.467 351.333 152.467H355.649C356.005 152.467 356.279 152.524 356.473 152.638C356.699 152.728 356.909 152.887 357.103 153.114C357.459 153.886 358.202 154.533 359.334 155.055C360.497 155.577 362.097 155.838 364.134 155.838C366.397 155.838 368.11 155.577 369.273 155.055C370.437 154.51 371.019 153.761 371.019 152.808C371.019 152.172 370.728 151.65 370.146 151.241C369.564 150.833 368.675 150.481 367.479 150.186C366.283 149.869 364.522 149.505 362.195 149.097C358.38 148.462 355.584 147.622 353.806 146.577C352.061 145.51 351.188 144.001 351.188 142.049C351.188 140.279 352.093 138.792 353.904 137.589C355.746 136.364 358.251 135.615 361.418 135.342V132.993C361.418 132.743 361.532 132.551 361.758 132.415C361.984 132.256 362.259 132.176 362.582 132.176H365.54C365.863 132.176 366.138 132.256 366.364 132.415C366.591 132.573 366.704 132.766 366.704 132.993V135.41C368.805 135.615 370.599 136.057 372.086 136.738C373.604 137.397 374.752 138.168 375.528 139.054C376.336 139.939 376.772 140.801 376.837 141.641C376.837 141.845 376.74 142.016 376.546 142.151C376.353 142.288 376.11 142.356 375.819 142.356H371.31C370.599 142.356 370.114 142.14 369.855 141.709C369.694 140.983 369.063 140.381 367.964 139.904C366.865 139.405 365.491 139.156 363.843 139.156C362.065 139.156 360.659 139.394 359.624 139.871C358.59 140.347 358.073 141.039 358.073 141.947C358.073 142.583 358.332 143.105 358.849 143.513C359.366 143.922 360.174 144.285 361.273 144.603C362.404 144.92 364.02 145.273 366.121 145.658C368.966 146.112 371.229 146.623 372.91 147.19C374.623 147.757 375.883 148.472 376.691 149.335C377.499 150.198 377.904 151.299 377.904 152.638C377.904 154.59 376.902 156.19 374.897 157.438C372.894 158.664 370.162 159.401 366.704 159.651V162C366.704 162.227 366.591 162.42 366.364 162.579C366.138 162.738 365.863 162.817 365.54 162.817H362.582Z" fill="#C9D5FF"/>
<path d="M189.252 210.48C189.252 223.2 211.175 233.512 238.218 233.512C265.26 233.512 287.183 223.2 287.183 210.48C287.183 197.761 265.26 187.45 238.218 187.45C211.175 187.45 189.252 197.761 189.252 210.48Z" fill="#4067F0"/>
<path d="M189.252 219.693C189.252 232.413 211.175 242.724 238.218 242.724C265.26 242.724 287.183 232.413 287.183 219.693C287.183 216.16 287.183 209.823 287.183 209.823C287.183 209.823 257.75 196.662 238.218 196.662C220.384 196.662 189.252 210.48 189.252 210.48C189.252 210.48 189.252 215.361 189.252 219.693Z" fill="#4067F0"/>
<path d="M194.66 210.28C194.66 220.567 214.161 228.905 238.218 228.905C262.274 228.905 281.776 220.567 281.776 210.28C281.776 199.994 262.274 191.656 238.218 191.656C214.161 191.656 194.66 199.994 194.66 210.28Z" fill="#7A98FF"/>
<path d="M239.42 223.498C239.744 223.498 240.018 223.419 240.245 223.259C240.471 223.124 240.584 222.931 240.584 222.681V220.298C242.911 220.139 244.915 219.753 246.596 219.14C248.244 218.505 249.505 217.733 250.378 216.825C251.218 215.894 251.671 214.907 251.736 213.863C251.736 213.659 251.639 213.489 251.445 213.352C251.218 213.217 250.96 213.148 250.669 213.148H246.354C245.998 213.148 245.723 213.205 245.529 213.319C245.303 213.409 245.093 213.568 244.899 213.795C244.543 214.567 243.8 215.214 242.669 215.736C241.505 216.258 239.905 216.519 237.869 216.519C235.606 216.519 233.893 216.258 232.729 215.736C231.566 215.191 230.984 214.442 230.984 213.489C230.984 212.853 231.275 212.331 231.856 211.922C232.438 211.514 233.327 211.162 234.523 210.867C235.719 210.55 237.481 210.186 239.808 209.778C243.622 209.142 246.419 208.303 248.196 207.258C249.942 206.191 250.815 204.682 250.815 202.73C250.815 200.96 249.909 199.473 248.099 198.27C246.257 197.045 243.752 196.296 240.584 196.023V193.674C240.584 193.424 240.471 193.231 240.245 193.096C240.018 192.936 239.744 192.857 239.42 192.857H236.463C236.139 192.857 235.865 192.936 235.638 193.096C235.412 193.254 235.299 193.447 235.299 193.674V196.091C233.198 196.296 231.404 196.738 229.917 197.419C228.398 198.078 227.251 198.849 226.474 199.735C225.666 200.62 225.23 201.482 225.165 202.322C225.165 202.526 225.263 202.696 225.457 202.832C225.65 202.969 225.893 203.037 226.184 203.037H230.693C231.404 203.037 231.889 202.821 232.147 202.39C232.309 201.664 232.94 201.062 234.038 200.585C235.137 200.086 236.511 199.837 238.16 199.837C239.938 199.837 241.344 200.075 242.378 200.552C243.412 201.028 243.929 201.72 243.929 202.628C243.929 203.264 243.671 203.786 243.154 204.194C242.636 204.603 241.828 204.966 240.73 205.284C239.598 205.601 237.982 205.953 235.881 206.339C233.036 206.793 230.774 207.304 229.093 207.871C227.38 208.438 226.119 209.153 225.311 210.016C224.503 210.879 224.099 211.979 224.099 213.319C224.099 215.271 225.101 216.871 227.105 218.119C229.109 219.345 231.84 220.082 235.299 220.332V222.681C235.299 222.908 235.412 223.101 235.638 223.259C235.865 223.419 236.139 223.498 236.463 223.498H239.42Z" fill="#C9D5FF"/>
<path d="M297.396 128.771C297.396 141.491 319.319 151.803 346.362 151.803C373.404 151.803 395.327 141.491 395.327 128.771C395.327 116.052 373.404 105.741 346.362 105.741C319.319 105.741 297.396 116.052 297.396 128.771Z" fill="#4067F0"/>
<path d="M297.396 137.984C297.396 150.704 319.319 161.015 346.362 161.015C373.404 161.015 395.327 150.704 395.327 137.984C395.327 134.451 395.327 128.114 395.327 128.114C395.327 128.114 365.894 114.953 346.362 114.953C328.528 114.953 297.396 128.771 297.396 128.771C297.396 128.771 297.396 133.652 297.396 137.984Z" fill="#4067F0"/>
<path d="M302.804 127.971C302.804 138.257 322.305 146.595 346.362 146.595C370.418 146.595 389.92 138.257 389.92 127.971C389.92 117.684 370.418 109.346 346.362 109.346C322.305 109.346 302.804 117.684 302.804 127.971Z" fill="#7A98FF"/>
<path d="M346.961 141.188C346.638 141.188 346.364 141.109 346.137 140.95C345.911 140.814 345.798 140.621 345.798 140.371V137.988C343.471 137.829 341.466 137.443 339.785 136.831C338.137 136.195 336.876 135.423 336.004 134.515C335.163 133.585 334.711 132.597 334.646 131.553C334.646 131.349 334.743 131.179 334.937 131.043C335.163 130.907 335.422 130.838 335.713 130.838H340.028C340.384 130.838 340.658 130.895 340.852 131.009C341.078 131.1 341.289 131.258 341.483 131.485C341.838 132.257 342.581 132.904 343.713 133.426C344.877 133.948 346.476 134.209 348.513 134.209C350.776 134.209 352.489 133.948 353.652 133.426C354.816 132.881 355.398 132.132 355.398 131.179C355.398 130.543 355.107 130.021 354.525 129.613C353.943 129.204 353.055 128.853 351.858 128.558C350.662 128.24 348.901 127.876 346.574 127.468C342.759 126.833 339.963 125.993 338.185 124.949C336.44 123.882 335.567 122.372 335.567 120.42C335.567 118.65 336.473 117.163 338.283 115.961C340.125 114.735 342.63 113.986 345.798 113.714V111.365C345.798 111.115 345.911 110.922 346.137 110.786C346.364 110.627 346.638 110.547 346.961 110.547H349.919C350.242 110.547 350.517 110.627 350.743 110.786C350.97 110.945 351.083 111.137 351.083 111.365V113.782C353.184 113.986 354.978 114.429 356.465 115.109C357.984 115.768 359.131 116.539 359.907 117.425C360.715 118.31 361.152 119.173 361.217 120.012C361.217 120.216 361.119 120.387 360.925 120.523C360.732 120.659 360.489 120.727 360.198 120.727H355.689C354.978 120.727 354.493 120.511 354.235 120.08C354.073 119.354 353.442 118.753 352.343 118.276C351.244 117.776 349.87 117.527 348.222 117.527C346.444 117.527 345.038 117.765 344.004 118.242C342.97 118.718 342.452 119.41 342.452 120.318C342.452 120.954 342.711 121.476 343.228 121.885C343.745 122.293 344.553 122.656 345.652 122.974C346.783 123.292 348.4 123.644 350.501 124.029C353.345 124.484 355.608 124.994 357.289 125.561C359.002 126.129 360.262 126.844 361.071 127.706C361.879 128.569 362.283 129.67 362.283 131.009C362.283 132.961 361.281 134.561 359.277 135.809C357.273 137.035 354.542 137.772 351.083 138.022V140.371C351.083 140.598 350.97 140.791 350.743 140.95C350.517 141.109 350.242 141.188 349.919 141.188H346.961Z" fill="#C9D5FF"/>
<path d="M199.466 195.46C199.466 208.18 221.389 218.492 248.431 218.492C275.474 218.492 297.396 208.18 297.396 195.46C297.396 182.741 275.474 172.43 248.431 172.43C221.389 172.43 199.466 182.741 199.466 195.46Z" fill="#4067F0"/>
<path d="M199.466 204.673C199.466 217.393 221.389 227.704 248.431 227.704C275.474 227.704 297.396 217.393 297.396 204.673C297.396 201.14 297.396 194.803 297.396 194.803C297.396 194.803 267.964 181.642 248.431 181.642C230.598 181.642 199.466 195.46 199.466 195.46C199.466 195.46 199.466 200.341 199.466 204.673Z" fill="#4067F0"/>
<path d="M205.474 195.26C205.474 205.547 224.975 213.885 249.032 213.885C273.089 213.885 292.59 205.547 292.59 195.26C292.59 184.974 273.089 176.635 249.032 176.635C224.975 176.635 205.474 184.974 205.474 195.26Z" fill="#7A98FF"/>
<path d="M248.43 208.478C248.107 208.478 247.832 208.399 247.606 208.239C247.38 208.104 247.266 207.911 247.266 207.661V205.278C244.939 205.119 242.935 204.733 241.254 204.12C239.606 203.485 238.345 202.713 237.473 201.805C236.632 200.874 236.18 199.887 236.115 198.843C236.115 198.639 236.211 198.469 236.406 198.332C236.632 198.197 236.89 198.128 237.181 198.128H241.497C241.852 198.128 242.127 198.185 242.321 198.299C242.547 198.389 242.757 198.548 242.951 198.775C243.307 199.547 244.05 200.194 245.181 200.716C246.345 201.238 247.945 201.499 249.982 201.499C252.244 201.499 253.957 201.238 255.121 200.716C256.285 200.171 256.866 199.422 256.866 198.469C256.866 197.833 256.576 197.311 255.994 196.902C255.412 196.494 254.523 196.142 253.327 195.847C252.131 195.53 250.369 195.166 248.042 194.758C244.228 194.122 241.432 193.283 239.654 192.238C237.909 191.171 237.036 189.662 237.036 187.71C237.036 185.94 237.941 184.453 239.751 183.25C241.593 182.025 244.099 181.276 247.266 181.003V178.654C247.266 178.404 247.38 178.211 247.606 178.076C247.832 177.916 248.107 177.837 248.43 177.837H251.388C251.711 177.837 251.986 177.916 252.212 178.076C252.439 178.234 252.551 178.427 252.551 178.654V181.071C254.652 181.276 256.446 181.718 257.933 182.399C259.452 183.058 260.6 183.829 261.376 184.715C262.184 185.6 262.62 186.462 262.685 187.302C262.685 187.506 262.588 187.676 262.394 187.812C262.2 187.949 261.958 188.017 261.667 188.017H257.158C256.446 188.017 255.962 187.801 255.703 187.37C255.542 186.644 254.911 186.042 253.812 185.565C252.713 185.066 251.339 184.817 249.69 184.817C247.913 184.817 246.507 185.055 245.472 185.532C244.438 186.008 243.921 186.7 243.921 187.608C243.921 188.244 244.179 188.766 244.697 189.174C245.214 189.583 246.022 189.946 247.121 190.264C248.252 190.581 249.868 190.933 251.969 191.319C254.814 191.773 257.077 192.284 258.758 192.851C260.471 193.418 261.731 194.133 262.539 194.996C263.347 195.859 263.752 196.959 263.752 198.299C263.752 200.251 262.749 201.851 260.745 203.099C258.742 204.325 256.01 205.062 252.551 205.312V207.661C252.551 207.888 252.439 208.081 252.212 208.239C251.986 208.399 251.711 208.478 251.388 208.478H248.43Z" fill="#C9D5FF"/>
</g>
<defs>
<clipPath id="clip0">
<rect width="450" height="242.724" fill="white"/>
</clipPath>
</defs>
</svg>
