<svg width="1040" height="640" viewBox="0 0 1040 640" fill="none" xmlns="http://www.w3.org/2000/svg">
<path d="M185 62C185 50.9543 193.954 42 205 42H685C696.045 42 705 50.9543 705 62V421C705 432.046 696.045 441 685 441H205C193.954 441 185 432.046 185 421V62Z" fill="white"/>
<path fill-rule="evenodd" clip-rule="evenodd" d="M205 38H685C698.254 38 709 48.7452 709 62V421C709 434.255 698.254 445 685 445H205C191.745 445 181 434.255 181 421V62C181 48.7452 191.745 38 205 38ZM205 42C193.954 42 185 50.9543 185 62V421C185 432.046 193.954 441 205 441H685C696.045 441 705 432.046 705 421V62C705 50.9543 696.045 42 685 42H205Z" fill="#D8DCDD"/>
<path d="M222 151C222 139.954 230.954 131 242 131H645C656.045 131 665 139.954 665 151V163C665 174.046 656.045 183 645 183H242C230.954 183 222 174.046 222 163V151Z" fill="#ECF0F3"/>
<path d="M222 222C222 210.954 230.954 202 242 202H645C656.045 202 665 210.954 665 222V235C665 246.046 656.045 255 645 255H242C230.954 255 222 246.046 222 235V222Z" fill="#ECF0F3"/>
<path d="M222 294C222 282.954 230.954 274 242 274H645C656.045 274 665 282.954 665 294V308C665 319.046 656.045 328 645 328H242C230.954 328 222 319.046 222 308V294Z" fill="#ECF0F3"/>
<path d="M226 373C226 370.791 227.79 369 230 369H661C663.209 369 665 370.791 665 373C665 375.209 663.209 377 661 377H230C227.791 377 226 375.209 226 373Z" fill="#D8DCDD"/>
<path d="M253 160C253 157.791 254.79 156 257 156H351C353.209 156 355 157.791 355 160C355 162.209 353.209 164 351 164H257C254.79 164 253 162.209 253 160Z" fill="#D8DCDD"/>
<path d="M253 302C253 299.791 254.79 298 257 298H387C389.209 298 391 299.791 391 302C391 304.209 389.209 306 387 306H257C254.79 306 253 304.209 253 302Z" fill="#D8DCDD"/>
<path d="M253 229C253 226.791 254.79 225 257 225H319C321.209 225 323 226.791 323 229C323 231.209 321.209 233 319 233H257C254.79 233 253 231.209 253 229Z" fill="#D8DCDD"/>
<path d="M383 229C383 226.791 384.791 225 387 225H469C471.209 225 473 226.791 473 229C473 231.209 471.209 233 469 233H387C384.791 233 383 231.209 383 229Z" fill="#D8DCDD"/>
<path d="M334 229C334 226.791 335.79 225 338 225H368C370.209 225 372 226.791 372 229C372 231.209 370.209 233 368 233H338C335.79 233 334 231.209 334 229Z" fill="#D8DCDD"/>
<path fill-rule="evenodd" clip-rule="evenodd" d="M648.857 147.644C650.158 148.669 650.382 150.555 649.356 151.857L632.807 172.857C632.294 173.509 631.533 173.918 630.707 173.989C629.88 174.06 629.061 173.785 628.444 173.23L619.993 165.622C618.762 164.514 618.662 162.617 619.77 161.385C620.879 160.154 622.776 160.054 624.007 161.163L630.078 166.627L644.644 148.143C645.669 146.842 647.556 146.618 648.857 147.644Z" fill="#D8DCDD"/>
<path fill-rule="evenodd" clip-rule="evenodd" d="M648.913 288.689C650.189 289.745 650.368 291.636 649.311 292.913L632.763 312.913C632.249 313.533 631.509 313.92 630.707 313.989C629.905 314.058 629.11 313.801 628.499 313.278L620.047 306.032C618.79 304.954 618.644 303.06 619.722 301.802C620.801 300.544 622.695 300.399 623.953 301.477L630.086 306.735L644.689 289.088C645.745 287.811 647.636 287.632 648.913 288.689Z" fill="#D8DCDD"/>
<path fill-rule="evenodd" clip-rule="evenodd" d="M646.603 214.464C648.003 215.349 648.421 217.202 647.536 218.603L633.631 240.603C633.16 241.349 632.383 241.85 631.509 241.971C630.635 242.093 629.751 241.823 629.094 241.234L619.998 233.084C618.764 231.979 618.66 230.082 619.766 228.848C620.871 227.614 622.768 227.51 624.002 228.616L630.455 234.398L642.464 215.397C643.349 213.997 645.202 213.579 646.603 214.464Z" fill="#D8DCDD"/>
<path d="M391 373.5C391 384.27 382.045 393 371 393C359.954 393 351 384.27 351 373.5C351 362.73 359.954 354 371 354C382.045 354 391 362.73 391 373.5Z" fill="#D8DCDD"/>
<path d="M370.684 385C370.509 385 370.359 384.94 370.237 384.821C370.114 384.719 370.052 384.574 370.052 384.387V382.598C368.789 382.479 367.702 382.189 366.789 381.729C365.894 381.252 365.21 380.673 364.737 379.991C364.28 379.293 364.035 378.552 364 377.768C364 377.614 364.052 377.487 364.158 377.384C364.28 377.282 364.421 377.231 364.579 377.231H366.921C367.114 377.231 367.263 377.274 367.368 377.359C367.491 377.427 367.605 377.546 367.71 377.717C367.903 378.296 368.307 378.782 368.921 379.173C369.552 379.565 370.421 379.761 371.526 379.761C372.754 379.761 373.684 379.565 374.316 379.173C374.947 378.764 375.263 378.202 375.263 377.487C375.263 377.01 375.105 376.618 374.789 376.311C374.473 376.004 373.991 375.74 373.342 375.519C372.693 375.28 371.737 375.008 370.473 374.701C368.403 374.224 366.886 373.594 365.921 372.81C364.973 372.009 364.5 370.876 364.5 369.411C364.5 368.082 364.991 366.966 365.973 366.063C366.973 365.143 368.333 364.581 370.052 364.377V362.613C370.052 362.426 370.114 362.281 370.237 362.179C370.359 362.06 370.509 362 370.684 362H372.289C372.465 362 372.614 362.06 372.737 362.179C372.859 362.298 372.921 362.443 372.921 362.613V364.428C374.061 364.581 375.035 364.913 375.842 365.424C376.666 365.919 377.289 366.498 377.71 367.162C378.149 367.827 378.386 368.474 378.421 369.104C378.421 369.258 378.368 369.386 378.263 369.488C378.158 369.59 378.026 369.641 377.868 369.641H375.421C375.035 369.641 374.772 369.479 374.631 369.156C374.544 368.61 374.202 368.159 373.605 367.801C373.009 367.426 372.263 367.239 371.368 367.239C370.403 367.239 369.64 367.418 369.079 367.776C368.517 368.133 368.237 368.653 368.237 369.334C368.237 369.812 368.377 370.203 368.658 370.51C368.938 370.817 369.377 371.089 369.973 371.328C370.587 371.566 371.465 371.83 372.605 372.12C374.149 372.461 375.377 372.844 376.289 373.27C377.219 373.696 377.903 374.233 378.342 374.88C378.78 375.527 379 376.354 379 377.359C379 378.824 378.456 380.025 377.368 380.962C376.28 381.882 374.798 382.436 372.921 382.623V384.387C372.921 384.557 372.859 384.702 372.737 384.821C372.614 384.94 372.465 385 372.289 385H370.684Z" fill="white"/>
<path d="M185 62C185 50.9543 193.954 42 205 42H685C696.045 42 705 50.9543 705 62V87H185V62Z" fill="#ECF0F3"/>
<circle cx="211" cy="65" r="6" fill="white"/>
<circle cx="233" cy="65" r="6" fill="white"/>
<circle cx="255" cy="65" r="6" fill="white"/>
<path fill-rule="evenodd" clip-rule="evenodd" d="M140 625.5C140 624.119 141.119 623 142.5 623L555.5 623C556.88 623 558 624.119 558 625.5C558 626.881 556.88 628 555.5 628L142.5 628C141.119 628 140 626.881 140 625.5Z" fill="#EDF0F4"/>
<path fill-rule="evenodd" clip-rule="evenodd" d="M573 625.5C573 624.119 574.119 623 575.5 623L695.5 623C696.88 623 698 624.119 698 625.5C698 626.881 696.88 628 695.5 628L575.5 628C574.119 628 573 626.881 573 625.5Z" fill="#EDF0F4"/>
<path fill-rule="evenodd" clip-rule="evenodd" d="M777 625.5C777 624.119 778.119 623 779.5 623L899.5 623C900.881 623 902 624.119 902 625.5C902 626.881 900.881 628 899.5 628L779.5 628C778.119 628 777 626.881 777 625.5Z" fill="#EDF0F4"/>
<path fill-rule="evenodd" clip-rule="evenodd" d="M715 625.5C715 624.119 716.119 623 717.5 623L755.5 623C756.881 623 758 624.119 758 625.5C758 626.881 756.881 628 755.5 628L717.5 628C716.119 628 715 626.881 715 625.5Z" fill="#EDF0F4"/>
<path d="M869.495 361.483C871.977 361.483 873.989 363.496 873.989 365.978L873.989 614.522C873.989 617.004 871.977 619.017 869.495 619.017C867.012 619.017 865 617.004 865 614.522L865 365.978C865 363.496 867.012 361.483 869.495 361.483Z" fill="#D8DCDD"/>
<path d="M766 495.5C766 493.015 768.015 491 770.5 491H864.5C866.985 491 869 493.015 869 495.5C869 497.985 866.985 500 864.5 500H770.5C768.015 500 766 497.985 766 495.5Z" fill="#D8DCDD"/>
<path d="M769.5 361.962C771.985 361.962 774 363.977 774 366.462L774 614.462C774 616.947 771.985 618.962 769.5 618.962C767.015 618.962 765 616.947 765 614.462L765 366.462C765 363.977 767.015 361.962 769.5 361.962Z" fill="#D8DCDD"/>
<path d="M748.868 582.099L743.25 561.424L766.845 544.345L774.037 576.706L748.868 582.099Z" fill="#FFAD91"/>
<path d="M668.649 417.826C667.75 401.826 713.744 321.719 749.325 278.273L828.195 324.566L714.043 414.68C721.459 423.669 738.898 446.276 749.325 464.793C759.752 483.31 767.594 527.266 769.991 549.963C761.542 562.548 744.748 566.893 739.429 564.346C732.388 545.469 718.448 501.918 704.605 479.625C687.301 451.759 669.773 437.826 668.649 417.826Z" fill="#1D2035"/>
<path d="M769.5 361.962C771.985 361.962 774 363.977 774 366.462L774 411.462C774 413.947 771.985 415.962 769.5 415.962C767.015 415.962 765 413.947 765 411.462L765 366.462C765 363.977 767.015 361.962 769.5 361.962Z" fill="#D8DCDD"/>
<path d="M715.609 490.636L709.99 469.962L733.586 452.883L740.778 485.243L715.609 490.636Z" fill="#FFAD91"/>
<path fill-rule="evenodd" clip-rule="evenodd" d="M832.382 103.112C829.223 105.267 824.575 107.593 818.642 108.252C816.941 108.441 815.168 108.4 813.748 108.277C813.037 108.215 812.401 108.13 811.896 108.04C811.441 107.958 810.966 107.851 810.669 107.703L811.563 105.914C811.559 105.912 811.557 105.911 811.557 105.911C811.557 105.91 811.604 105.929 811.725 105.961C811.855 105.994 812.03 106.032 812.249 106.071C812.685 106.149 813.259 106.226 813.922 106.284C815.251 106.4 816.887 106.435 818.422 106.264C823.95 105.65 828.291 103.481 831.255 101.46C832.737 100.45 833.869 99.4795 834.627 98.7661C835.006 98.4096 835.291 98.1179 835.479 97.9182C835.573 97.8184 835.642 97.7417 835.687 97.6914C835.709 97.6663 835.725 97.6478 835.735 97.6364L835.745 97.6246L835.746 97.6232C835.746 97.6235 835.746 97.6237 836.51 98.269C837.274 98.9143 837.274 98.9146 837.273 98.915L837.273 98.9158L837.271 98.918L837.265 98.9246L837.247 98.946C837.231 98.9638 837.209 98.9888 837.181 99.0205C837.125 99.0839 837.043 99.1742 836.936 99.2878C836.723 99.5151 836.409 99.8361 835.998 100.223C835.176 100.996 833.963 102.034 832.382 103.112Z" fill="#ECA98E"/>
<path d="M873.14 332.656C885.649 312.242 872.665 272.936 871.424 264.611L795.165 272.491C751.679 272.153 697.185 276.528 679.663 277.746C662.141 278.963 653.159 302.07 654.125 316.546C654.759 326.06 688.172 415.377 706.326 473.502C719.209 478.538 731.965 461.929 736.508 456.254C731.008 441.473 728.024 386.159 727.519 370.634C727.115 358.214 718.08 338.937 714.708 329.838C753.888 336.517 790.594 346.561 804.599 348.162C827.268 350.752 861.757 351.232 873.14 332.656Z" fill="#282D57"/>
<path d="M749 355C749 350.582 752.582 347 757 347H882C886.418 347 890 350.582 890 355V360C890 364.418 886.418 368 882 368H757C752.582 368 749 364.418 749 360V355Z" fill="#D8DCDD"/>
<path d="M782.033 34.958C784.334 29.207 791.868 24.3563 793.374 24.0824C795.634 25.1094 796.37 30.0696 797.027 30.2339C797.684 30.3982 816.06 49.4725 825.166 58.9891C825.166 58.9891 818.109 73.7746 810.871 87.6535C809.476 90.3295 816.065 115.781 814.706 118.277C812.909 121.576 804.779 117.217 801.189 123.135C799.28 126.281 789.427 105.183 789.427 105.183C789.427 105.183 792.318 115.954 797.027 125.036C793.163 123.557 782.725 111.941 779.979 106.45C776.392 99.2761 776.282 96.3323 779.979 89.5543C783.677 82.7763 779.774 70.4912 776.077 62.8916C772.38 55.292 779.158 42.1468 782.033 34.958Z" fill="#111320"/>
<path d="M812.171 128.204L809.848 102.226L840.932 86.5119L844.423 113.419C842.301 117.39 835.263 125.496 826.554 126.153C817.845 126.81 813.472 130.463 812.171 128.204Z" fill="#FDCAAD"/>
<path d="M787.94 57.1403C787.94 49.7461 784.653 46.2544 790.199 31.6717C795.745 17.089 810.738 16.1436 822.241 13.1859C836.618 9.48881 849.326 18.0096 857.363 28.7961C865.168 39.2713 867.889 46.1183 866.811 54.4702C865.168 67.2047 865.784 68.6424 860.649 77.269C857.446 82.6511 848.942 82.6094 848.942 82.6094C848.942 82.6094 849.722 82.6092 833.948 97.3976C814.23 115.883 799.853 103.765 793.485 93.2897C787.118 82.8146 787.94 66.383 787.94 57.1403Z" fill="#FDCAAD"/>
<path d="M816.606 107.084C812.623 107.534 810.163 106.459 809.425 106.084C811.115 107.755 816.31 110.801 823.576 109.618C830.841 108.435 836.459 99.2694 838.36 94.8342C838.36 94.8342 830.713 105.49 816.606 107.084Z" fill="#ECA98E"/>
<path d="M855.328 69.1323C855.406 70.2373 855.095 70.9063 854.988 71.1064C855.449 70.6562 856.312 69.251 856.073 67.2319C855.834 65.2128 853.458 63.5693 852.3 63C852.3 63 855.051 65.2187 855.328 69.1323Z" fill="#ECA98E"/>
<path d="M713.365 243.129C717.327 243.816 731.876 246.318 738.655 247.483L746.289 259.3C745.261 261.217 738.905 265.656 726.942 263.107C709.816 259.458 714.809 255.537 707.463 254.659C695.92 253.279 694.651 254.99 691.527 258.874C688.886 262.155 683.254 261.876 684.192 260.131C686.867 257.79 691.362 249.099 695.729 248.201C703.913 246.518 708.412 242.271 713.365 243.129Z" fill="#DC9376"/>
<path d="M717.682 241.722C709.265 240.716 699.705 246.769 695.877 248.09L686.741 261.066C690.437 263.533 694.582 259.683 696.299 256.783C698.016 253.884 703.82 250.98 707.024 249.422L701.263 256.253L696.6 266.61C696.481 266.919 697.403 268.097 700.742 266.361C704.082 264.626 703.882 261.947 707.225 257.557C710.568 253.167 716.797 249.122 716.797 249.122C716.797 249.122 712.642 255.846 711.418 259.407C710.195 262.968 712.265 270.666 712.265 270.666C715.705 270.545 715.541 262.944 716.542 261.066C718.943 256.563 722.801 255.013 725.07 256.497C727.34 257.981 729.921 260.998 736.762 261.088C744.2 261.186 759.301 257.78 763.822 259.533L764.884 243.968C748.663 243.885 729.331 243.114 717.682 241.722Z" fill="#FDCAAD"/>
<path d="M787.827 567.299C784.65 562.782 774.358 557.32 769.609 555.154C770.366 558.964 771.049 567.602 767.723 571.67C764.397 575.739 758.326 577.744 755.707 578.238C755.359 577.218 754.264 574.905 752.663 573.812C751.062 572.718 745.552 572.478 742.997 572.495C742.949 572.853 742.654 574.745 741.867 579.451C740.883 585.334 736.272 599.109 732.839 605.569C729.406 612.03 720.709 618.32 720.376 622.103C720.109 625.13 722.484 629.38 723.705 631.126C727.97 629.702 737.153 626.358 739.756 624.379C742.36 622.4 778.66 593.094 796.485 578.689C794.923 576.774 791.004 571.816 787.827 567.299Z" fill="#4067F0"/>
<path fill-rule="evenodd" clip-rule="evenodd" d="M736.011 600.333C736.064 600.32 736.132 600.306 736.218 600.295C736.551 600.251 737.169 600.393 737.989 600.816C738.752 601.209 739.449 601.721 739.836 602.052C740.478 602.604 741.446 602.531 741.997 601.888C742.549 601.246 742.476 600.279 741.833 599.727C741.295 599.264 740.401 598.61 739.395 598.091C738.446 597.602 737.119 597.084 735.818 597.255C734.665 597.407 733.733 597.922 733.237 598.823C732.781 599.65 732.857 600.513 733.045 601.067C733.318 601.869 734.189 602.297 734.991 602.024C735.708 601.78 736.126 601.057 736.011 600.333Z" fill="#1F3C9F"/>
<path fill-rule="evenodd" clip-rule="evenodd" d="M738.418 593.368C738.471 593.355 738.539 593.341 738.625 593.33C738.958 593.286 739.577 593.428 740.397 593.851C741.159 594.244 741.857 594.756 742.243 595.087C742.885 595.639 743.853 595.566 744.405 594.924C744.956 594.281 744.883 593.314 744.241 592.762C743.702 592.299 742.808 591.646 741.802 591.126C740.853 590.637 739.526 590.119 738.225 590.29C737.072 590.442 736.141 590.958 735.644 591.859C735.189 592.685 735.264 593.548 735.453 594.102C735.726 594.904 736.597 595.332 737.398 595.059C738.115 594.815 738.534 594.092 738.418 593.368Z" fill="#1F3C9F"/>
<path fill-rule="evenodd" clip-rule="evenodd" d="M740.826 586.404C740.879 586.39 740.947 586.376 741.033 586.365C741.366 586.321 741.984 586.463 742.804 586.886C743.567 587.28 744.265 587.791 744.651 588.123C745.293 588.674 746.261 588.601 746.812 587.959C747.364 587.317 747.291 586.349 746.649 585.797C746.11 585.335 745.216 584.681 744.21 584.162C743.261 583.672 741.934 583.154 740.633 583.325C739.48 583.477 738.549 583.993 738.052 584.894C737.596 585.721 737.672 586.583 737.861 587.138C738.134 587.939 739.004 588.367 739.806 588.094C740.523 587.85 740.941 587.127 740.826 586.404Z" fill="#1F3C9F"/>
<path d="M734.991 618.902C731.246 621.424 723.801 622.388 720.124 622.616C720.124 622.616 720.466 628.132 723.705 631.126C726.463 630.955 732.288 631.019 740.318 624.273C748.348 617.528 778.747 593.349 796.485 578.689L790.301 570.553C777.028 586.651 749.226 609.315 734.991 618.902Z" fill="white"/>
<path d="M750.338 591.322L755.676 578.587L761.904 576.197L750.338 591.322Z" fill="#1F3C9F"/>
<path d="M738.105 625.836C734.436 628.451 724.361 630.306 722.257 629.018C722.257 629.018 722.921 631.159 724.421 631.865C726.568 630.884 733.195 632.322 741.441 625.836C749.688 619.35 777.695 597.549 796.688 578.534L795.021 577.185C776.361 594.436 741.773 623.221 738.105 625.836Z" fill="#C4C4C4"/>
<path d="M754.204 477.264C751.187 472.57 741.028 466.623 736.325 464.235C736.929 468.114 737.254 476.862 733.725 480.829C730.196 484.796 723.983 486.564 721.318 486.952C721.01 485.908 720.002 483.527 718.432 482.356C716.862 481.184 711.31 480.71 708.73 480.619C708.666 480.978 708.289 482.876 707.296 487.593C706.054 493.49 700.818 507.201 697.08 513.578C693.343 519.955 684.298 525.938 683.802 529.744C683.406 532.788 685.623 537.178 686.782 538.992C691.148 537.734 700.559 534.747 703.271 532.859C705.982 530.971 743.862 502.917 762.464 489.127C760.967 487.128 757.22 481.958 754.204 477.264Z" fill="#4067F0"/>
<path fill-rule="evenodd" clip-rule="evenodd" d="M700.503 508.426C700.558 508.415 700.627 508.404 700.714 508.396C701.052 508.366 701.671 508.536 702.48 508.997C703.234 509.426 703.916 509.972 704.292 510.323C704.917 510.907 705.897 510.874 706.481 510.249C707.065 509.624 707.032 508.644 706.407 508.06C705.883 507.57 705.008 506.872 704.014 506.306C703.077 505.772 701.759 505.193 700.438 505.311C699.268 505.415 698.306 505.897 697.767 506.785C697.272 507.601 697.312 508.475 697.479 509.042C697.721 509.863 698.582 510.332 699.402 510.09C700.137 509.874 700.59 509.162 700.503 508.426Z" fill="#1F3C9F"/>
<path fill-rule="evenodd" clip-rule="evenodd" d="M703.227 501.497C703.282 501.486 703.351 501.474 703.438 501.467C703.776 501.437 704.394 501.606 705.204 502.068C705.957 502.497 706.64 503.042 707.016 503.394C707.641 503.978 708.621 503.944 709.205 503.319C709.789 502.694 709.756 501.714 709.131 501.13C708.607 500.641 707.732 499.943 706.738 499.377C705.801 498.842 704.483 498.264 703.162 498.381C701.992 498.486 701.03 498.967 700.491 499.856C699.996 500.671 700.036 501.545 700.203 502.113C700.445 502.933 701.306 503.403 702.126 503.161C702.86 502.945 703.313 502.232 703.227 501.497Z" fill="#1F3C9F"/>
<path fill-rule="evenodd" clip-rule="evenodd" d="M705.951 494.568C706.006 494.556 706.075 494.545 706.162 494.537C706.5 494.507 707.119 494.677 707.928 495.138C708.682 495.568 709.364 496.113 709.74 496.465C710.365 497.049 711.345 497.015 711.929 496.39C712.513 495.765 712.48 494.785 711.855 494.201C711.331 493.711 710.456 493.014 709.462 492.447C708.525 491.913 707.207 491.334 705.886 491.452C704.716 491.557 703.754 492.038 703.215 492.927C702.72 493.742 702.76 494.616 702.927 495.184C703.169 496.004 704.03 496.473 704.85 496.232C705.585 496.015 706.038 495.303 705.951 494.568Z" fill="#1F3C9F"/>
<path d="M698.691 527.128C694.804 529.516 687.248 530.175 683.526 530.25C683.526 530.25 683.639 535.833 686.782 538.992C689.574 538.936 695.452 539.246 703.842 532.775C712.232 526.304 743.939 503.178 762.464 489.127L756.564 480.653C742.486 496.344 713.465 518.051 698.691 527.128Z" fill="white"/>
<path d="M715.347 499.934L721.272 487.304L727.66 485.153L715.347 499.934Z" fill="#1F3C9F"/>
<path d="M701.542 534.26C697.728 536.745 687.479 538.192 685.409 536.803C685.409 536.803 685.989 538.993 687.474 539.768C689.683 538.869 696.311 540.6 704.91 534.4C713.508 528.201 742.7 507.374 762.675 488.979L761.049 487.547C741.484 504.174 705.355 531.774 701.542 534.26Z" fill="#C4C4C4"/>
<path d="M820.779 125.685C810.711 126.584 811.5 119 811.5 119C798.017 141.248 772.486 188.922 773.384 197.372C774.283 205.822 776.98 212.653 784.823 225.912C784.823 225.912 792.442 255.351 795.385 271.756C795.385 271.756 798.577 276.025 810.239 276.025C827.543 276.025 840.127 281.122 858.33 276.025C867.319 273.508 872.862 263.516 874.735 259.171C873.311 254.077 869.117 246.975 869.117 232.878C869.117 221.867 872.065 221.867 872.915 175.124C873.765 128.382 848.892 110.629 848.892 110.629C844.847 114.524 830.847 124.786 820.779 125.685Z" fill="#FFD501"/>
<path d="M820.33 196.024C821.408 185.237 822.502 159.918 822.802 148.832C837.933 156.772 867.791 175.664 866.173 187.709C864.555 199.754 848.42 253.328 843.027 259.621C837.633 265.913 753.587 262.317 753.587 262.317V242.317L820.33 229.957C820.929 225.463 819.251 206.81 820.33 196.024Z" fill="#FFD501"/>
<path d="M842.5 253.5C854.53 244.402 860.181 211.455 865.274 190.855C861.903 214.077 860.799 265.688 842.5 270.5C832.384 273.16 807.109 265.547 794 263C809.731 262.026 830.47 262.598 842.5 253.5Z" fill="#FFA001"/>
<path d="M813.813 220.069C818.307 211.979 823.326 194.076 823.251 179.844C823.368 202.091 820.105 217.148 813.813 225.463C807.52 233.777 799.58 235.5 790.891 235.8C800.105 234.077 809.318 228.159 813.813 220.069Z" fill="#FFA001"/>
<path d="M819.945 132.069C825.137 131.131 837.957 125.551 844.215 120.383C834.432 128.462 819.591 135.214 813.653 135.439C807.714 135.665 808.259 130.496 808.259 125.776C810.057 133.094 814.753 133.006 819.945 132.069Z" fill="#FFA001"/>
<path d="M821.413 65.5856C821.413 66.9853 820.278 68.12 818.878 68.12C817.479 68.12 816.344 66.9853 816.344 65.5856C816.344 64.1859 817.479 63.0512 818.878 63.0512C820.278 63.0512 821.413 64.1859 821.413 65.5856Z" fill="#1E1D3D"/>
<path d="M796.914 65.5856C796.914 66.9853 795.779 68.12 794.38 68.12C792.98 68.12 791.845 66.9853 791.845 65.5856C791.845 64.1859 792.98 63.0512 794.38 63.0512C795.779 63.0512 796.914 64.1859 796.914 65.5856Z" fill="#1E1D3D"/>
<path d="M791 59.7757C795.366 55.237 800.504 60.8314 800.504 60.8314C800.504 60.8314 795.646 58.297 791 59.7757Z" fill="#1E1D3D"/>
<path d="M825.004 61.4443C819.889 56.9055 815.5 62.5 815.5 62.5C815.5 62.5 820.358 59.9655 825.004 61.4443Z" fill="#1E1D3D"/>
<path d="M791.531 51.504C795.811 43.9495 802.109 49.7766 801.054 50.6403C800 51.504 796 49 791.531 51.504Z" fill="#1E1D3D"/>
<path d="M827.218 51.504C822.938 43.9495 817.389 48.7807 817.694 50.6403C818 52.5 822.96 49.1271 827.218 51.504Z" fill="#1E1D3D"/>
<path d="M801.349 76.3568C801.18 71.7948 807.122 60.2352 809.375 55.448C808.53 58.616 803.039 74.0001 803.039 75.7232C803.039 78.0066 806.629 78.3279 808.107 77.6239C806.136 79.0319 801.518 80.9187 801.349 76.3568Z" fill="#1E1D3D"/>
<path d="M815.711 81.848C813 87.5 805.978 85.6336 804.5 85C806.612 88.8016 811.5 88 813.5 87C815.5 86 816.5 83 815.711 81.848Z" fill="#1E1D3D"/>
<path d="M786.707 31.0556C787.255 27.1531 794.184 15.7507 800.766 11.833C809.393 6.69815 827.926 -0.963851 845.54 8.45367C866.285 19.5448 867.016 23.2506 869.07 37.012C871.124 50.7734 883.241 54.0451 879.544 68.0119C876.413 79.8391 882.5 76.9247 882.289 90.2091C882.078 103.493 875.32 98.2135 880.6 112.364C874.474 109.433 872.579 105.377 872.09 103.985C872.652 105.918 874.484 113.018 871.94 115.743C869.477 117.393 869.617 112.786 862.436 118.066C855.256 123.346 854.174 125.458 843.006 121.657C843.006 121.657 845.118 112.153 843.006 103.493C840.894 94.8343 840.894 87.2311 840.894 87.2311L848.12 81.3772C850.379 81.0349 853.913 80.4509 855.72 77.4747C859.211 71.7236 861.676 60.563 855.72 59.9865C850.626 59.4936 848.12 59.9865 845.54 63.3657C843.191 59.9865 840.379 65.3702 837 56.5C833.621 47.6298 833.896 40.944 817 42C800.104 43.056 804 19.5 787.5 38.5C784.297 42.1887 788.83 32.5618 786.707 31.0556Z" fill="#111320"/>
<path d="M701.9 310.858C718.979 320.521 724.373 358.049 724.373 358.049C724.373 358.049 717.5 325 701.9 310.858Z" fill="#525999"/>
<path d="M719.278 311.082C725.047 324.566 715.609 331.307 715.609 331.307C715.609 331.307 722.5 323 719.278 311.082Z" fill="#525999"/>
<path d="M733.811 448.388C720.328 464.793 704.597 466.332 704.597 466.332C704.597 466.332 718.979 461.872 733.811 448.388Z" fill="#525999"/>
<path d="M856.66 108.712C860.446 114.64 859.399 118.028 857.762 121.244L861.018 118.755C862.409 114.542 859.348 111.685 856.66 108.712Z" fill="#434266"/>
<path d="M829.574 38.1874C819.895 33.141 813.562 39.2632 804.5 24C814.5 29 808.5 21 808.5 21C808.5 21 816.87 30.765 829.574 38.1874C830.041 38.431 830.516 38.7007 831 39C830.519 38.7327 830.044 38.4617 829.574 38.1874Z" fill="#434266"/>
<path d="M857 53.3296C850.5 48.8296 850.863 44.8142 843 46.8295C855.29 43.6793 856.529 52.8821 862 55.2041C867.471 57.5261 867.842 61.5987 865.835 65.8696C867.321 58.4825 863.5 57.8296 857 53.3296Z" fill="#434266"/>
<path d="M640.229 198.005C639.425 196.557 639.947 194.73 641.395 193.926C642.843 193.121 644.67 193.643 645.474 195.092L686.094 268.223C686.899 269.672 686.377 271.498 684.928 272.303C684.775 272.388 684.616 272.458 684.456 272.514C683.867 272.72 683.242 272.73 682.666 272.57C681.92 272.362 681.255 271.867 680.849 271.137L678.384 266.7L640.636 198.738L640.229 198.005Z" fill="#4067F0"/>
<path d="M621.714 194.942C620.089 194.616 619.037 193.035 619.362 191.411C619.688 189.786 621.269 188.733 622.894 189.059L643.158 193.125C644.782 193.45 645.835 195.032 645.509 196.656C645.183 198.281 643.602 199.333 641.977 199.007L640.636 198.738L627.604 196.124L621.714 194.942Z" fill="#4067F0"/>
<path d="M619.378 193.671C618.573 192.222 619.095 190.396 620.544 189.591C621.992 188.787 623.819 189.309 624.623 190.757L627.604 196.124L667.235 267.476L670.278 272.953L671.386 274.947L672.094 276.223C672.899 277.672 672.377 279.498 670.928 280.303C669.48 281.107 667.654 280.585 666.849 279.137L619.378 193.671Z" fill="#4067F0"/>
<path d="M669.957 280.994C668.301 281.046 666.917 279.745 666.865 278.089C666.814 276.433 668.115 275.049 669.771 274.997L671.386 274.947L778.608 271.627L780.718 271.562C782.374 271.511 783.758 272.812 783.809 274.468C783.861 276.124 782.56 277.508 780.904 277.559L669.957 280.994Z" fill="#4067F0"/>
<path d="M668.957 272.994C667.301 273.046 665.917 271.745 665.865 270.089C665.832 268.999 666.383 268.028 667.235 267.476C667.679 267.188 668.204 267.015 668.771 266.997L678.384 266.7L780.634 263.534C782.29 263.482 783.674 264.783 783.726 266.439C783.777 268.095 782.476 269.479 780.82 269.531L778.382 269.606L684.456 272.514L682.666 272.57L670.278 272.953L668.957 272.994Z" fill="#4067F0"/>
<path d="M778.105 267.115C777.921 265.469 779.107 263.985 780.754 263.801C782.401 263.618 783.884 264.804 784.068 266.451L784.917 274.071C785.101 275.718 783.915 277.201 782.268 277.385C780.621 277.568 779.138 276.382 778.954 274.736L778.608 271.627L778.382 269.606L778.105 267.115Z" fill="#4067F0"/>
<path d="M678.384 266.7L640.636 198.738L627.604 196.124L667.235 267.476C667.679 267.188 668.204 267.015 668.771 266.997L678.384 266.7Z" fill="#4067F0"/>
<path d="M684.456 272.514C683.867 272.72 683.242 272.73 682.666 272.57L670.278 272.953L671.386 274.947L778.608 271.627L778.382 269.606L684.456 272.514Z" fill="#4067F0"/>
<path d="M284.159 425.961C273.468 429.598 268.798 451.005 268 462C275.381 455.484 292.658 447.462 305.106 452.837C317.555 458.213 338.621 445.915 347 442.453C330.841 434.92 321.864 413.133 284.159 425.961Z" fill="#D8DCDD"/>
<path d="M204 553H305V567H204V553Z" fill="#D8DCDD"/>
<path d="M215 567H294L284.424 628H226.371L215 567Z" fill="#D8DCDD"/>
<path d="M269.898 508.749C261.502 493.727 263.901 478.704 277.094 480.507C290.288 482.31 305.281 470.893 318.475 503.942C321.935 512.608 323.073 531.182 320.874 543C295.086 541.197 276.615 520.767 269.898 508.749Z" fill="#D8DCDD"/>
<path d="M262.331 474.279C267.716 457.514 269.511 435.36 250.964 433.563C234.883 421.083 221.536 435.36 219.254 462.304C216.82 491.044 232.616 500.225 234.81 512C255.677 497.63 258.135 487.345 262.331 474.279Z" fill="#D8DCDD"/>
<path d="M166 469C173.144 452.687 170.525 424.479 198.148 418.272C202.514 418.272 218.39 413.497 229.106 422.449C239.822 431.401 232.083 435.579 214.223 453.483C199.934 467.806 181.28 468.204 166 469Z" fill="#D8DCDD"/>
<path fill-rule="evenodd" clip-rule="evenodd" d="M255.962 519.008C255.962 494.723 265.067 466.51 269.612 455.431L272.388 456.569C267.907 467.492 258.962 495.287 258.962 519.008C258.962 530.96 259.575 539.799 260.335 545.978C261.102 552.212 262.006 555.624 262.527 556.809L259.781 558.016C259.071 556.4 258.129 552.612 257.357 546.344C256.579 540.022 255.962 531.058 255.962 519.008ZM247.346 557.382L249.193 466.171L252.192 466.232L250.346 557.443L247.346 557.382ZM267.869 522.816C267.772 533.956 268.293 546.641 268.805 554.92L265.811 555.105C265.296 546.782 264.771 534.023 264.869 522.79C264.918 517.178 265.123 511.912 265.568 507.759C265.791 505.686 266.077 503.851 266.446 502.373C266.798 500.966 267.281 499.633 268.045 498.795L270.262 500.816C270.042 501.058 269.697 501.741 269.357 503.101C269.035 504.39 268.766 506.072 268.551 508.079C268.121 512.089 267.918 517.242 267.869 522.816ZM241.808 552.612C241.808 546.471 238.95 517.017 237.508 502.959L240.492 502.653C241.922 516.598 244.808 546.272 244.808 552.612V557.999L241.808 558V552.612Z" fill="#D8DCDD"/>
</svg>
