<svg width="1040" height="640" viewBox="0 0 1040 640" fill="none" xmlns="http://www.w3.org/2000/svg">
<path d="M94.7982 81.8406C74.1638 94.841 58.6754 114.594 50.9721 137.734C43.2689 160.874 43.8274 185.969 52.5524 208.743C61.2775 231.517 77.6292 250.561 98.8216 262.631C120.014 274.701 144.736 279.049 168.774 274.934C192.813 270.82 214.682 258.498 230.654 240.067C246.626 221.637 255.713 198.238 256.368 173.859C257.022 149.479 249.203 125.627 234.243 106.366C219.282 87.1052 198.106 73.6275 174.323 68.2295L165.2 108.425C179.684 111.712 192.58 119.92 201.691 131.65C210.802 143.38 215.563 157.906 215.165 172.753C214.766 187.6 209.232 201.849 199.505 213.073C189.778 224.297 176.46 231.802 161.821 234.307C147.181 236.813 132.126 234.165 119.22 226.815C106.314 219.464 96.3557 207.866 91.0421 193.997C85.7286 180.128 85.3885 164.845 90.0798 150.753C94.771 136.661 104.203 124.631 116.77 116.714L94.7982 81.8406Z" fill="#EDF0F4"/>
<path d="M47.0793 188.773C50.9045 211.175 61.8672 231.741 78.3331 247.406C94.7989 263.07 115.886 272.993 138.451 275.697C161.017 278.4 183.851 273.738 203.551 262.407C223.251 251.075 238.762 233.68 247.77 212.815C256.779 191.951 258.803 168.733 253.541 146.624C248.28 124.515 236.014 104.698 218.572 90.1283C201.13 75.5584 179.447 67.0153 156.755 65.7726C134.062 64.53 111.575 70.6543 92.6471 83.2326L115.46 117.562C126.987 109.902 140.681 106.172 154.501 106.929C168.32 107.685 181.526 112.888 192.147 121.761C202.769 130.634 210.239 142.702 213.444 156.167C216.648 169.631 215.415 183.771 209.929 196.477C204.443 209.184 194.997 219.777 183 226.678C171.003 233.579 157.096 236.418 143.354 234.772C129.612 233.125 116.77 227.082 106.742 217.542C96.7147 208.003 90.0385 195.478 87.709 181.835L47.0793 188.773Z" fill="#D8DCDD"/>
<path d="M247.462 283.271C247.462 278.576 251.268 274.771 255.962 274.771H435.962C440.657 274.771 444.462 278.576 444.462 283.271C444.462 287.965 440.657 291.771 435.962 291.771H255.962C251.268 291.771 247.462 287.965 247.462 283.271Z" fill="#E7E9EA"/>
<path d="M247.462 316.271C247.462 310.472 252.163 305.771 257.962 305.771H433.962C439.761 305.771 444.462 310.472 444.462 316.271C444.462 322.07 439.761 326.771 433.962 326.771H257.962C252.163 326.771 247.462 322.07 247.462 316.271Z" fill="#E7E9EA"/>
<path d="M247.462 348.271C247.462 343.576 251.268 339.771 255.962 339.771H435.962C440.657 339.771 444.462 343.576 444.462 348.271C444.462 352.965 440.657 356.771 435.962 356.771H255.962C251.268 356.771 247.462 352.965 247.462 348.271Z" fill="#E7E9EA"/>
<path d="M471.708 180.747C471.708 169.702 480.662 160.747 491.708 160.747H932.508C943.554 160.747 952.508 169.702 952.508 180.747V461.093H471.708V180.747Z" fill="#4067F0"/>
<path d="M491.483 189.287C491.483 183.764 495.961 179.287 501.483 179.287H922.732C928.255 179.287 932.732 183.764 932.732 189.287V440.081H491.483V189.287Z" fill="white"/>
<path d="M444.516 468.285C444.516 479.331 453.47 488.285 464.516 488.285H959.7C970.746 488.285 979.7 479.331 979.7 468.285V454.913H444.516V468.285Z" fill="#4067F0"/>
<path d="M648.797 456.302C648.797 460.86 652.492 464.555 657.051 464.555H767.445C772.004 464.555 775.699 460.86 775.699 456.302H648.797Z" fill="#1F3C9F"/>
<path d="M592.557 291.265C589.03 276.172 586.783 257.368 579.403 257.956C572.023 258.544 574.805 265.853 576.821 274.477C579.844 287.414 581.682 299.87 582.606 303.823C569.875 307.556 544.441 308.703 542.4 310.999C539.85 313.869 546.924 330.354 548.688 337.9C550.099 343.938 570.167 402.235 580.024 430.63L617.701 421.824C614.527 400.585 608.741 356.837 610.992 351.763C613.805 345.421 618.259 332.312 616.902 326.506C613.627 312.491 626.098 310.713 626.36 307.241C626.623 303.769 622.812 301.248 612.115 306.022C603.557 309.842 600.13 317.54 599.864 322.529L592.557 291.265Z" fill="#F7CBB2"/>
<path d="M581.8 301.151C579.943 293.206 578.851 295.267 567.275 299.616C567.604 307.755 573.394 339.268 581.985 335.617C590.576 331.965 584.713 313.616 581.8 301.151Z" fill="#ECA98E"/>
<path d="M569.661 304.383C566.905 296.164 566.372 298.168 552.829 303.079C553.022 311.764 557.76 343.084 567.821 338.986C577.881 334.889 574.723 319.485 569.661 304.383Z" fill="#ECA98E"/>
<path d="M553.778 309.034C551.337 302.862 552.773 308.87 542.914 314.141C544.015 320.701 550.094 341.246 557.368 336.99C564.643 332.734 557.607 318.717 553.778 309.034Z" fill="#ECA98E"/>
<path d="M581.362 299.278C579.517 291.384 568.603 294.935 566.78 297.788C564.957 300.641 572.826 337.191 581.462 333.54C590.098 329.889 584.256 311.663 581.362 299.278Z" fill="#F7CBB2"/>
<path d="M568.987 299.935C567.022 291.528 554.236 296.22 552.387 299.197C550.538 302.175 558.541 340.632 568.478 336.571C578.414 332.51 572.07 313.126 568.987 299.935Z" fill="#F7CBB2"/>
<path d="M553.832 306.946C551.417 300.817 541.634 303.044 540.958 307.854C540.282 312.663 550.257 338.91 557.419 334.699C564.581 330.487 557.623 316.563 553.832 306.946Z" fill="#F7CBB2"/>
<path fill-rule="evenodd" clip-rule="evenodd" d="M586.027 316.315C585.112 310.492 583.482 305.278 582.904 303.456L581.671 303.847C582.245 305.657 583.85 310.794 584.749 316.516C585.199 319.377 585.469 322.367 585.351 325.15C585.233 327.939 584.727 330.474 583.659 332.457L584.798 333.07C585.995 330.848 586.522 328.095 586.644 325.205C586.767 322.308 586.485 319.227 586.027 316.315Z" fill="#ECA98E"/>
<path fill-rule="evenodd" clip-rule="evenodd" d="M570.198 304.558C569.811 303.271 569.501 302.239 569.33 301.554L568.074 301.868C568.265 302.63 568.594 303.724 568.997 305.065C570.015 308.454 571.507 313.418 572.432 318.565C573.074 322.138 573.428 325.733 573.152 328.855C572.876 331.988 571.975 334.546 570.206 336.168L571.08 337.122C573.193 335.185 574.152 332.245 574.441 328.969C574.731 325.683 574.357 321.96 573.706 318.336C572.766 313.109 571.216 307.95 570.198 304.558Z" fill="#ECA98E"/>
<path fill-rule="evenodd" clip-rule="evenodd" d="M556.16 312.465C555.639 311.01 555.246 309.913 555.097 309.317L553.842 309.631C554.007 310.293 554.437 311.494 554.974 312.994C555.182 313.574 555.406 314.198 555.636 314.853C556.475 317.239 557.433 320.102 558.144 322.934C558.857 325.776 559.308 328.533 559.166 330.721C559.023 332.922 558.306 334.331 556.903 334.872L557.369 336.079C559.485 335.263 560.303 333.184 560.457 330.805C560.613 328.412 560.121 325.498 559.399 322.619C558.673 319.728 557.699 316.819 556.857 314.424C556.608 313.717 556.373 313.061 556.16 312.465Z" fill="#ECA98E"/>
<path d="M563.68 414.517L622.488 394.914L627.647 426.382L622.488 427.916V440.31H576.576L575.545 437.215L570.386 438.246L563.68 414.517Z" fill="#F87373"/>
<path d="M691.265 300.301C689.424 292.03 689.348 233.671 689.539 205.526C692.99 193.847 703.344 168.19 717.148 159C734.404 147.512 781.57 161.872 793.073 167.616C804.577 173.36 807.453 238.841 813.205 238.267C818.957 237.692 825.859 241.713 825.284 258.945C824.824 272.73 810.23 274.315 803.136 273.549V384.383C801.832 394.814 803.189 422.085 751.631 409.809C735.015 405.853 729.963 355.231 728.813 351.785V329.618C728.813 329.618 726.205 329.618 717.148 327.872C700.12 324.59 693.566 310.64 691.265 300.301Z" fill="#F7CBB2"/>
<path d="M755.929 335.798C770.724 333.354 784.399 315.07 786.035 305.25C752.482 336.221 728.749 328.164 728.749 328.164C732.19 331.617 741.134 338.242 755.929 335.798Z" fill="#ECA98E"/>
<path d="M758.211 244.69C758.211 247.402 756.013 249.601 753.301 249.601C750.589 249.601 748.391 247.402 748.391 244.69C748.391 241.978 750.589 239.78 753.301 239.78C756.013 239.78 758.211 241.978 758.211 244.69Z" fill="#1E1D3D"/>
<path d="M710.746 244.69C710.746 247.402 708.547 249.601 705.835 249.601C703.123 249.601 700.925 247.402 700.925 244.69C700.925 241.978 703.123 239.78 705.835 239.78C708.547 239.78 710.746 241.978 710.746 244.69Z" fill="#1E1D3D"/>
<path d="M700.384 236.523C708.654 226.029 718.388 238.964 718.388 238.964C718.388 238.964 709.186 233.104 700.384 236.523Z" fill="#1E1D3D"/>
<path d="M763.121 236.313C753.431 228.441 745.117 238.143 745.117 238.143C745.117 238.143 754.319 233.748 763.121 236.313Z" fill="#1E1D3D"/>
<path d="M700.473 217.985C708.634 203.582 720.642 214.692 718.631 216.339C716.621 217.985 708.994 213.211 700.473 217.985Z" fill="#1E1D3D"/>
<path d="M768.515 217.985C760.355 203.582 749.775 212.793 750.357 216.339C750.939 219.884 760.397 213.453 768.515 217.985Z" fill="#1E1D3D"/>
<path d="M720.572 265.333C720.262 256.544 731.164 234.272 735.297 225.049C733.747 231.153 723.672 260.792 723.672 264.112C723.672 268.511 730.259 269.131 732.972 267.774C729.355 270.487 720.882 274.122 720.572 265.333Z" fill="#1E1D3D"/>
<path d="M746.253 275.788C741.229 286.614 728.216 283.039 725.476 281.826C729.39 289.107 740.525 292.109 744.232 290.194C747.938 288.279 747.716 277.995 746.253 275.788Z" fill="#1E1D3D"/>
<path d="M754.239 381.123C730.549 376.561 728.813 346.957 728.813 338.745C726.079 342.091 720.724 348.392 719.266 349.122C717.444 350.034 665.669 357.368 655.484 371.931C641.575 391.819 639.512 440.31 639.512 440.31H906.212C906.212 440.31 919.109 370.534 878.723 353.683C867.788 349.122 825.874 348.209 815.851 345.472C807.833 343.282 804.351 339.57 803.136 337.441C803.136 337.441 803.136 374.603 784.881 381.775L773.026 405.69L754.239 381.123Z" fill="#F87373"/>
<path d="M861.161 380.471C861.682 369.518 869.201 361.129 872.896 358.304C872.896 358.304 859.205 371.343 862.464 403.941C861.161 396.118 860.639 391.424 861.161 380.471Z" fill="#C71F1F"/>
<path fill-rule="evenodd" clip-rule="evenodd" d="M811.684 382.957C808.439 392.776 804.968 401.382 802.524 404.715L800.707 407.016L800.271 405.925C799.263 403.404 796.431 399.064 793.539 395.15C792.101 393.203 790.663 391.382 789.453 389.971C788.847 389.265 788.304 388.666 787.849 388.208C787.67 388.027 787.51 387.874 787.37 387.747L773.12 405.925L773.21 404.942L787.285 384.137L787.849 384.476C788.196 384.684 788.631 385.072 789.103 385.548C789.588 386.037 790.154 386.661 790.771 387.381C792.006 388.822 793.464 390.668 794.916 392.634C797.446 396.058 800.006 399.906 801.327 402.619C803.738 398.956 807.506 391.444 810.446 382.548C813.667 372.807 815.857 361.517 814.253 351.892L814.896 349.829C817.503 364.172 814.93 373.14 811.684 382.957Z" fill="#C71F1F"/>
<path fill-rule="evenodd" clip-rule="evenodd" d="M726.205 387.381C733.377 401.724 742.029 409.079 742.029 409.079L742.465 407.988C743.474 405.467 746.305 401.128 749.197 397.213C750.635 395.267 752.074 393.446 753.283 392.034C753.889 391.328 754.432 390.73 754.887 390.271C755.066 390.091 755.226 389.937 755.366 389.811L763.367 396.118L763.277 395.135L754.887 384.137L754.323 384.475C753.976 384.684 753.541 385.072 753.069 385.548C752.584 386.037 752.018 386.661 751.401 387.381C750.166 388.822 748.708 390.668 747.256 392.634C744.726 396.058 742.166 399.906 740.845 402.619C737.288 400.03 728.494 390.019 725.553 381.123C722.333 371.381 720.028 361.756 721.632 352.131L720.989 350.068C718.381 364.411 721.581 378.133 726.205 387.381Z" fill="#C71F1F"/>
<path d="M843.138 179.015C845.066 197.855 829.23 228.564 822.276 243.559C822.276 243.559 807.933 228.564 801.442 253.339V225.956C801.442 188.795 788.345 176.407 766.207 171.191C744.547 166.089 750.56 186.839 712.094 192.706C700.775 194.433 695.795 206.397 689.276 222.696C687.103 221.393 683.567 216.505 676.265 209.725C668.963 202.944 669.282 192.924 672.325 186.187C672.325 186.187 666.429 173.732 669.717 160.108C673.005 146.484 701.634 120.271 748.604 117.079C787.663 114.424 806.411 137.072 813.148 150.329C820.537 149.242 841.324 161.282 843.138 179.015Z" fill="black"/>
<path d="M121.126 558.791C118.223 543.858 119.916 524.57 121.126 516.792L223.727 499.634C276.345 523.364 274.797 520.784 310.908 535.744C333.241 544.997 333.606 558.791 341.343 591.457H130.196C128.382 586.791 124.028 573.724 121.126 558.791Z" fill="#282D57"/>
<path d="M313.713 482.444L205.096 494.289L228.438 452.698L309.219 448.13L313.713 482.444Z" fill="#FFA001"/>
<path d="M421.186 390.43C423.995 388.808 435.171 388.223 435.171 388.223C435.171 388.223 429.076 397.608 426.267 399.23L383.034 424.191C380.224 425.813 376.81 425.158 375.407 422.727C374.004 420.297 375.144 417.012 377.953 415.391L421.186 390.43Z" fill="#4067F0"/>
<path d="M398.835 399.044C400.163 397.112 413.064 394.995 415.378 395.329C417.693 395.663 419.143 395.402 420.283 397.444C421.424 399.485 420.837 400.339 420.526 402.64C421.297 402.752 423.02 402.343 424.844 405.609C425.666 407.081 424.81 409.358 424.223 410.212C425.087 410.806 425.293 409.993 426.814 411.993C428.817 414.628 427.448 416.62 426.469 418.044C427.045 418.439 427.734 419.164 429.337 421.272C431.34 423.907 428.992 427.323 423.709 435.008C418.425 442.692 406.786 448.523 403.885 449.043C400.984 449.563 397.462 454.686 391.349 458.028C386.458 460.702 369.348 467.214 361.405 470.136C351.484 465.327 346.4 453.113 345.098 447.608C356.323 444.846 379.491 436.799 383.47 432.492C388.442 427.109 390.029 411.852 398.835 399.044Z" fill="#F7CBB2"/>
<path fill-rule="evenodd" clip-rule="evenodd" d="M415.419 402.663C417.005 402.044 418.685 401.461 419.89 401.228L420.079 402.21C418.972 402.424 417.365 402.977 415.783 403.595C414.209 404.209 412.693 404.874 411.781 405.298L411.36 404.391C412.289 403.96 413.824 403.286 415.419 402.663ZM417 410.791C419.867 409.62 423.128 409.348 424.418 409.357L424.411 410.357C423.207 410.348 420.086 410.61 417.378 411.716L417 410.791ZM422.253 416.594C423.892 416.575 425.603 416.901 426.685 417.207L426.413 418.17C425.396 417.882 423.783 417.576 422.264 417.594C421.505 417.602 420.793 417.691 420.199 417.889C419.605 418.087 419.16 418.382 418.884 418.783L418.06 418.217C418.497 417.581 419.156 417.182 419.883 416.94C420.609 416.699 421.433 416.603 422.253 416.594Z" fill="#ECA98E"/>
<path d="M140.877 350.198C152.202 326.293 165.1 308.489 170.133 302.575C205.052 314.714 276.776 341.981 284.326 353.933C293.763 368.874 291.876 367.94 293.763 391.285C295.651 414.63 274.889 420.232 268.282 432.372C261.676 444.511 241.858 449.18 228.645 461.319C225.794 463.939 223.927 484.664 228.645 490.267C232.42 494.749 246.312 517.079 245.393 528.522C244.474 539.965 222.228 554.325 196.558 560.301C170.888 566.277 135.529 562.791 121.059 560.301C119.171 553.142 115.396 529.112 115.396 490.267C115.396 441.71 126.721 380.079 140.877 350.198Z" fill="#FFD501"/>
<path d="M254.175 329.173C243.547 326.164 230.136 332.307 224.759 335.755L258.919 429.777C269.041 447.328 290.992 483.181 297.824 486.19C306.365 489.951 312.488 491.41 322.925 489.529C333.363 487.649 334.185 458.318 332.275 455.078C322.341 438.228 322.496 440.433 315.854 429.777C309.844 411.286 296.116 370.731 289.284 356.439C280.744 338.575 267.46 332.934 254.175 329.173Z" fill="#FFD501"/>
<path d="M383.12 453.391C382.641 444.443 376.28 435.251 373.16 431.773C333.836 456.939 288.279 434.161 309.081 487.568C310.351 490.829 319.956 490.273 323.884 490.043C329.625 489.23 343.887 486.914 355.007 484.162C366.127 481.41 376.968 472.61 380.998 468.555C381.905 467.228 383.599 462.339 383.12 453.391Z" fill="#FFD501"/>
<path d="M242.298 328.524L164.024 313.924H162.855C171.812 324.241 194.632 344.875 214.259 344.875C233.886 344.875 241.13 333.974 242.298 328.524Z" fill="#FFA001"/>
<path d="M284.317 220.261C282.819 217.172 277.397 209.131 267.719 205.187C259.05 204.472 238.655 203.02 226.435 202.938C211.16 202.835 193.318 234.486 192.499 249.75C191.679 265.015 201.181 280.841 204.232 294.038C206.672 304.596 202.453 317.999 200.038 323.38L249.686 332.828L255.196 312.401C257.931 313.856 264.591 317.53 273.59 316.999C284.84 316.336 286.212 308.939 288.556 300.273C290.432 293.34 290.216 283.13 291.065 277.451C294.487 275.298 297.503 271.013 295.664 268.254C290.264 260.153 285.547 263.611 285.547 246.18C285.547 237.239 285.815 223.35 284.317 220.261Z" fill="#F7CBB2"/>
<path d="M276.345 244.798C276.345 244.798 283.889 235.627 285.63 241.741C281.568 242.964 276.345 244.798 276.345 244.798Z" fill="#1E1D3D"/>
<path d="M283.567 257.695C283.567 259.689 282.874 261.306 282.019 261.306C281.165 261.306 280.472 259.689 280.472 257.695C280.472 255.7 281.165 254.084 282.019 254.084C282.874 254.084 283.567 255.7 283.567 257.695Z" fill="#1E1D3D"/>
<path d="M286.146 287.699C284.341 286.729 283.438 284.789 282.535 280.909C285.244 285.759 289.757 284.789 289.757 284.789V287.699C289.456 287.699 287.952 288.67 286.146 287.699Z" fill="#1E1D3D"/>
<path d="M277.755 190.093C285.634 197.082 292.985 203.016 291.646 218.097C290.307 233.178 285.63 236.544 285.63 236.544C285.63 236.544 276.956 208.996 266.535 228.732C256.113 248.468 265.512 247.351 262.933 254.084C260.353 260.816 257.149 263.197 251.068 262.337C248.454 257.105 245.015 255.605 241.24 256.689C231.624 261.478 231.841 271.203 235.076 279.877C236.728 284.305 242.866 286.466 245.876 287.525L245.998 287.568C245.998 287.568 248.598 305.154 258.491 313.26C258.491 322.144 256.742 329.915 259.837 336.106C240.462 336.106 235.722 342.752 222.085 331.715C205.084 329.995 191.767 332.795 187.617 327.852C179.632 318.342 166.466 322.144 163.008 322.144C164.077 316.523 164.727 302.052 164.727 302.052C164.727 302.052 161.533 320.283 150.475 323.209C161.246 305.431 150.819 303.189 153.952 285.171C157.086 267.153 159.912 268.302 158.728 251.504C157.33 231.668 166.614 225.592 172.929 207.511C179.244 189.43 183.894 192.21 214.761 182.543C240.97 174.334 267.427 180.933 277.755 190.093Z" fill="#1E1D3D"/>
<path d="M297.01 271.562C296.619 266.869 291.625 264.899 288.726 260.274C289.982 263.415 295.269 267.496 295.201 271.122C295.133 274.748 291.875 277.836 290.273 277.297C292.466 278.496 297.4 276.256 297.01 271.562Z" fill="#1E1D3D"/>
<path d="M249.52 405.747L263.964 437.78L259.52 441.857L249.52 405.747Z" fill="#FFA001"/>
<path d="M613.718 429.477L575.545 437.215L613.718 433.088V429.477Z" fill="#C71F1F"/>
<path d="M377.454 128.213H616.814C628.21 128.213 637.448 137.452 637.448 148.848V220.613C637.448 227.132 632.163 232.418 625.643 232.418H609.947L620.941 254.084L573.102 233.693C571.661 232.858 570.025 232.418 568.359 232.418H377.454C366.058 232.418 356.819 223.179 356.819 211.783V148.848C356.819 137.452 366.058 128.213 377.454 128.213Z" fill="#EDF0F4"/>
<path fill-rule="evenodd" clip-rule="evenodd" d="M625.643 232.418C632.163 232.418 637.448 227.132 637.448 220.613V148.848C637.448 137.452 628.21 128.213 616.814 128.213H377.454C366.058 128.213 356.819 137.452 356.819 148.848V211.783C356.819 223.179 366.058 232.418 377.454 232.418H568.359C570.025 232.418 571.661 232.858 573.102 233.693L620.941 254.084L609.947 232.418H625.643ZM612.402 246.096L603.432 228.418H625.643C629.954 228.418 633.448 224.923 633.448 220.613V148.848C633.448 139.661 626.001 132.213 616.814 132.213H377.454C368.267 132.213 360.819 139.661 360.819 148.848V211.783C360.819 220.97 368.267 228.418 377.454 228.418H568.359C570.64 228.418 572.883 228.998 574.876 230.101L612.402 246.096Z" fill="#E7E9EA"/>
<path d="M373.327 155.038C373.327 149.91 377.484 145.753 382.612 145.753H610.623C615.752 145.753 619.909 149.91 619.909 155.038C619.909 160.167 615.752 164.324 610.623 164.324H382.612C377.484 164.324 373.327 160.167 373.327 155.038Z" fill="white"/>
<path d="M373.327 180.831C373.327 175.703 377.484 171.546 382.612 171.546H498.165C503.294 171.546 507.451 175.703 507.451 180.831C507.451 185.96 503.294 190.117 498.165 190.117H382.612C377.484 190.117 373.327 185.96 373.327 180.831Z" fill="white"/>
<path d="M376.422 206.624C376.422 201.496 380.579 197.339 385.708 197.339H447.611C452.739 197.339 456.897 201.496 456.897 206.624C456.897 211.753 452.739 215.91 447.611 215.91H385.708C380.579 215.91 376.422 211.753 376.422 206.624Z" fill="white"/>
<path d="M518.8 180.831C518.8 175.703 522.957 171.546 528.086 171.546H610.623C615.752 171.546 619.909 175.703 619.909 180.831C619.909 185.96 615.752 190.117 610.623 190.117H528.086C522.957 190.117 518.8 185.96 518.8 180.831Z" fill="white"/>
<path d="M463.087 206.624C463.087 201.496 467.244 197.339 472.372 197.339H570.386C575.514 197.339 579.672 201.496 579.672 206.624C579.672 211.753 575.514 215.91 570.386 215.91H472.372C467.244 215.91 463.087 211.753 463.087 206.624Z" fill="white"/>
<path fill-rule="evenodd" clip-rule="evenodd" d="M289.757 494.634C289.757 491.872 291.996 489.634 294.757 489.634L1005.93 489.634C1008.69 489.634 1010.93 491.873 1010.93 494.634C1010.93 497.395 1008.69 499.634 1005.93 499.634L294.757 499.634C291.996 499.634 289.757 497.395 289.757 494.634Z" fill="#E7E9EA"/>
<line x1="472.372" y1="453.77" x2="952.124" y2="453.77" stroke="#1F3C9F" stroke-width="3"/>
</svg>
