<svg width="357" height="219" viewBox="0 0 357 219" fill="none" xmlns="http://www.w3.org/2000/svg">
<g clip-path="url(#clip0)">
<path d="M0 17.8423C0 11.5506 5.4787 6.45026 12.237 6.45026H107.074C113.832 6.45026 119.311 11.5506 119.311 17.8423V158.534C119.311 164.825 113.832 169.926 107.074 169.926H12.237C5.4787 169.926 0 164.825 0 158.534V17.8423Z" fill="#FFA6A6"/>
<path fill-rule="evenodd" clip-rule="evenodd" d="M107.074 9.86784H12.237C7.50619 9.86784 3.67109 13.4381 3.67109 17.8423V158.534C3.67109 162.938 7.50619 166.509 12.237 166.509H107.074C111.805 166.509 115.64 162.938 115.64 158.534V17.8423C115.64 13.4381 111.805 9.86784 107.074 9.86784ZM12.237 6.45026C5.4787 6.45026 0 11.5506 0 17.8423V158.534C0 164.825 5.4787 169.926 12.237 169.926H107.074C113.832 169.926 119.311 164.825 119.311 158.534V17.8423C119.311 11.5506 113.832 6.45026 107.074 6.45026H12.237Z" fill="#F87373"/>
<path d="M28.362 33.9145C28.362 32.6093 29.4907 31.5512 30.8831 31.5512H92.6488C94.0408 31.5512 95.1697 32.6093 95.1697 33.9145C95.1697 35.2197 94.0408 36.2778 92.6488 36.2778H30.8831C29.4907 36.2778 28.362 35.2197 28.362 33.9145Z" fill="#F87373"/>
<path d="M14.4961 128.043C14.4961 126.738 15.6248 125.68 17.0171 125.68H44.1183C45.511 125.68 46.6391 126.738 46.6391 128.043C46.6391 129.348 45.511 130.407 44.1183 130.407H17.0171C15.6248 130.407 14.4961 129.348 14.4961 128.043Z" fill="#F87373"/>
<path d="M14.4961 139.453C14.4961 138.147 15.6248 137.089 17.0171 137.089H44.1183C45.511 137.089 46.6391 138.147 46.6391 139.453C46.6391 140.758 45.511 141.816 44.1183 141.816H17.0171C15.6248 141.816 14.4961 140.758 14.4961 139.453Z" fill="#F87373"/>
<path d="M14.4961 52.7401C14.4961 51.435 15.6248 50.3768 17.0171 50.3768H57.9838C59.3766 50.3768 60.5055 51.435 60.5055 52.7401C60.5055 54.0454 59.3766 55.1037 57.9838 55.1037H17.0171C15.6248 55.1037 14.4961 54.0454 14.4961 52.7401Z" fill="#F87373"/>
<path d="M65.5472 52.7401C65.5472 51.435 66.676 50.3768 68.068 50.3768H104.624C106.016 50.3768 107.145 51.435 107.145 52.7401C107.145 54.0454 106.016 55.1037 104.624 55.1037H68.068C66.676 55.1037 65.5472 54.0454 65.5472 52.7401Z" fill="#F87373"/>
<path d="M14.4961 64.1497C14.4961 62.8444 15.6248 61.7864 17.0171 61.7864H73.1106C74.5026 61.7864 75.6314 62.8444 75.6314 64.1497C75.6314 65.455 74.5026 66.513 73.1106 66.513H17.0171C15.6248 66.513 14.4961 65.455 14.4961 64.1497Z" fill="#F87373"/>
<path d="M14.4961 86.3979C14.4961 85.0925 15.7659 84.0345 17.3322 84.0345H43.8032C45.3692 84.0345 46.6391 85.0925 46.6391 86.3979C46.6391 87.7032 45.3692 88.7612 43.8032 88.7612H17.3322C15.7659 88.7612 14.4961 87.7032 14.4961 86.3979Z" fill="#F87373"/>
<path d="M85.0854 64.1497C85.0854 62.8444 86.2143 61.7864 87.6071 61.7864H104.624C106.016 61.7864 107.145 62.8444 107.145 64.1497C107.145 65.455 106.016 66.513 104.624 66.513H87.6071C86.2143 66.513 85.0854 65.455 85.0854 64.1497Z" fill="#F87373"/>
<path d="M57.9838 86.3979C57.9838 85.0925 59.2537 84.0345 60.8206 84.0345H104.309C105.875 84.0345 107.145 85.0925 107.145 86.3979C107.145 87.7032 105.875 88.7612 104.309 88.7612H60.8206C59.2537 88.7612 57.9838 87.7032 57.9838 86.3979Z" fill="#F87373"/>
<path d="M14.4961 75.5589C14.4961 74.2536 15.6248 73.1956 17.0171 73.1956H66.1774C67.5702 73.1956 68.6982 74.2536 68.6982 75.5589C68.6982 76.8643 67.5702 77.9222 66.1774 77.9222H17.0171C15.6248 77.9222 14.4961 76.8643 14.4961 75.5589Z" fill="#F87373"/>
<path d="M75.6314 75.5589C75.6314 74.2536 76.7603 73.1956 78.1523 73.1956H104.624C106.016 73.1956 107.145 74.2536 107.145 75.5589C107.145 76.8643 106.016 77.9222 104.624 77.9222H78.1523C76.7603 77.9222 75.6314 76.8643 75.6314 75.5589Z" fill="#F87373"/>
<path d="M191.02 12.1779C191.02 5.45223 197.043 0 204.474 0H308.744C316.175 0 322.198 5.45223 322.198 12.1779V162.575C322.198 169.3 316.175 174.753 308.744 174.753H204.474C197.043 174.753 191.02 169.3 191.02 162.575V12.1779Z" fill="#FAFAFB"/>
<path fill-rule="evenodd" clip-rule="evenodd" d="M308.744 3.65336H204.474C199.273 3.65336 195.057 7.46995 195.057 12.1779V162.575C195.057 167.283 199.273 171.1 204.474 171.1H308.744C313.945 171.1 318.162 167.283 318.162 162.575V12.1779C318.162 7.46995 313.945 3.65336 308.744 3.65336ZM204.474 0C197.043 0 191.02 5.45223 191.02 12.1779V162.575C191.02 169.3 197.043 174.753 204.474 174.753H308.744C316.175 174.753 322.198 169.3 322.198 162.575V12.1779C322.198 5.45223 316.175 0 308.744 0H204.474Z" fill="#D8DCDD"/>
<path d="M221.292 29.1548C221.292 27.8495 222.496 26.7914 223.983 26.7914H289.908C291.394 26.7914 292.599 27.8495 292.599 29.1548C292.599 30.4599 291.394 31.5181 289.908 31.5181H223.983C222.496 31.5181 221.292 30.4599 221.292 29.1548Z" fill="#E5E7E8"/>
<path d="M271.165 129.622C271.165 128.317 272.37 127.259 273.856 127.259H302.782C304.268 127.259 305.473 128.317 305.473 129.622C305.473 130.927 304.268 131.985 302.782 131.985H273.856C272.37 131.985 271.165 130.927 271.165 129.622Z" fill="#E5E7E8"/>
<path d="M271.165 141.8C271.165 140.495 272.37 139.437 273.856 139.437H302.782C304.268 139.437 305.473 140.495 305.473 141.8C305.473 143.105 304.268 144.163 302.782 144.163H273.856C272.37 144.163 271.165 143.105 271.165 141.8Z" fill="#E5E7E8"/>
<path d="M206.493 49.2482C206.493 47.9429 207.697 46.8849 209.184 46.8849H252.91C254.395 46.8849 255.601 47.9429 255.601 49.2482C255.601 50.5534 254.395 51.6115 252.91 51.6115H209.184C207.697 51.6115 206.493 50.5534 206.493 49.2482Z" fill="#E5E7E8"/>
<path d="M260.982 49.2482C260.982 47.9429 262.186 46.8849 263.672 46.8849H302.689C304.175 46.8849 305.381 47.9429 305.381 49.2482C305.381 50.5534 304.175 51.6115 302.689 51.6115H263.672C262.186 51.6115 260.982 50.5534 260.982 49.2482Z" fill="#E5E7E8"/>
<path d="M206.493 61.4264C206.493 60.121 207.697 59.063 209.184 59.063H269.054C270.541 59.063 271.745 60.121 271.745 61.4264C271.745 62.7309 270.541 63.7897 269.054 63.7897H209.184C207.697 63.7897 206.493 62.7309 206.493 61.4264Z" fill="#E5E7E8"/>
<path d="M206.493 85.1729C206.493 83.8675 207.848 82.8096 209.52 82.8096H237.773C239.446 82.8096 240.801 83.8675 240.801 85.1729C240.801 86.4782 239.446 87.5362 237.773 87.5362H209.52C207.848 87.5362 206.493 86.4782 206.493 85.1729Z" fill="#E5E7E8"/>
<path d="M281.836 61.4264C281.836 60.121 283.04 59.063 284.527 59.063H302.689C304.176 59.063 305.381 60.121 305.381 61.4264C305.381 62.7309 304.176 63.7897 302.689 63.7897H284.527C283.04 63.7897 281.836 62.7309 281.836 61.4264Z" fill="#E5E7E8"/>
<path d="M252.909 85.1729C252.909 83.8675 254.264 82.8096 255.936 82.8096H302.353C304.025 82.8096 305.381 83.8675 305.381 85.1729C305.381 86.4782 304.025 87.5362 302.353 87.5362H255.936C254.264 87.5362 252.909 86.4782 252.909 85.1729Z" fill="#E5E7E8"/>
<path d="M206.493 73.6037C206.493 72.2983 207.697 71.2404 209.184 71.2404H261.655C263.141 71.2404 264.346 72.2983 264.346 73.6037C264.346 74.909 263.141 75.967 261.655 75.967H209.184C207.697 75.967 206.493 74.909 206.493 73.6037Z" fill="#E5E7E8"/>
<path d="M271.745 73.6037C271.745 72.2983 272.95 71.2404 274.435 71.2404H302.689C304.175 71.2404 305.381 72.2983 305.381 73.6037C305.381 74.909 304.175 75.967 302.689 75.967H274.435C272.95 75.967 271.745 74.909 271.745 73.6037Z" fill="#E5E7E8"/>
<path d="M94.6049 32.2615C94.6049 25.0937 101.024 19.283 108.943 19.283H220.068C227.987 19.283 234.407 25.0937 234.407 32.2615V192.546C234.407 199.714 227.987 205.524 220.068 205.524H108.943C101.024 205.524 94.6049 199.714 94.6049 192.546V32.2615Z" fill="white"/>
<path fill-rule="evenodd" clip-rule="evenodd" d="M220.068 23.1766H108.943C103.4 23.1766 98.9061 27.2441 98.9061 32.2615V192.546C98.9061 197.563 103.4 201.631 108.943 201.631H220.068C225.612 201.631 230.105 197.563 230.105 192.546V32.2615C230.105 27.2441 225.612 23.1766 220.068 23.1766ZM108.943 19.283C101.024 19.283 94.6049 25.0937 94.6049 32.2615V192.546C94.6049 199.714 101.024 205.524 108.943 205.524H220.068C227.987 205.524 234.407 199.714 234.407 192.546V32.2615C234.407 25.0937 227.987 19.283 220.068 19.283H108.943Z" fill="#D8DCDD"/>
<path d="M126.866 50.1991C126.866 48.8939 128.15 47.8358 129.735 47.8358H199.994C201.578 47.8358 202.862 48.8939 202.862 50.1991C202.862 51.5043 201.578 52.5624 199.994 52.5624H129.735C128.15 52.5624 126.866 51.5043 126.866 50.1991Z" fill="#EDF0F4"/>
<path d="M111.094 157.272C111.094 155.967 112.379 154.909 113.962 154.909H144.791C146.374 154.909 147.658 155.967 147.658 157.272C147.658 158.577 146.374 159.635 144.791 159.635H113.962C112.379 159.635 111.094 158.577 111.094 157.272Z" fill="#EDF0F4"/>
<path d="M111.094 170.25C111.094 168.945 112.379 167.887 113.962 167.887H144.791C146.374 167.887 147.658 168.945 147.658 170.25C147.658 171.556 146.374 172.614 144.791 172.614H113.962C112.379 172.614 111.094 171.556 111.094 170.25Z" fill="#EDF0F4"/>
<path d="M111.094 71.6138C111.094 70.3085 112.379 69.2505 113.962 69.2505H160.563C162.147 69.2505 163.431 70.3085 163.431 71.6138C163.431 72.9191 162.147 73.9771 160.563 73.9771H113.962C112.379 73.9771 111.094 72.9191 111.094 71.6138Z" fill="#EDF0F4"/>
<path d="M169.166 71.6138C169.166 70.3085 170.45 69.2505 172.034 69.2505H213.616C215.2 69.2505 216.484 70.3085 216.484 71.6138C216.484 72.9191 215.2 73.9771 213.616 73.9771H172.034C170.45 73.9771 169.166 72.9191 169.166 71.6138Z" fill="#EDF0F4"/>
<path d="M111.094 84.5923C111.094 83.287 112.379 82.229 113.962 82.229H177.769C179.353 82.229 180.637 83.287 180.637 84.5923C180.637 85.8976 179.353 86.9556 177.769 86.9556H113.962C112.379 86.9556 111.094 85.8976 111.094 84.5923Z" fill="#EDF0F4"/>
<path d="M111.094 109.9C111.094 108.595 112.538 107.537 114.32 107.537H144.432C146.213 107.537 147.658 108.595 147.658 109.9C147.658 111.206 146.213 112.263 144.432 112.263H114.32C112.538 112.263 111.094 111.206 111.094 109.9Z" fill="#EDF0F4"/>
<path d="M191.391 84.5923C191.391 83.287 192.674 82.229 194.259 82.229H213.616C215.2 82.229 216.483 83.287 216.483 84.5923C216.483 85.8976 215.2 86.9556 213.616 86.9556H194.259C192.674 86.9556 191.391 85.8976 191.391 84.5923Z" fill="#EDF0F4"/>
<path d="M160.562 109.9C160.562 108.595 162.006 107.537 163.788 107.537H213.257C215.039 107.537 216.483 108.595 216.483 109.9C216.483 111.206 215.039 112.263 213.257 112.263H163.788C162.006 112.263 160.562 111.206 160.562 109.9Z" fill="#EDF0F4"/>
<path d="M111.094 97.5708C111.094 96.2655 112.379 95.2075 113.962 95.2075H169.883C171.467 95.2075 172.751 96.2655 172.751 97.5708C172.751 98.8762 171.467 99.9341 169.883 99.9341H113.962C112.379 99.9341 111.094 98.8762 111.094 97.5708Z" fill="#EDF0F4"/>
<path d="M180.636 97.5708C180.636 96.2655 181.92 95.2075 183.505 95.2075H213.616C215.199 95.2075 216.483 96.2655 216.483 97.5708C216.483 98.8762 215.199 99.9341 213.616 99.9341H183.505C181.92 99.9341 180.636 98.8762 180.636 97.5708Z" fill="#EDF0F4"/>
<path d="M356.86 97.7496C356.86 116.959 341.288 132.53 322.079 132.53C302.87 132.53 287.298 116.959 287.298 97.7496C287.298 78.5407 302.87 62.9688 322.079 62.9688C341.288 62.9688 356.86 78.5407 356.86 97.7496Z" fill="#4067F0"/>
<path fill-rule="evenodd" clip-rule="evenodd" d="M343.991 80.4998C345.98 82.1463 346.258 85.0926 344.612 87.0817L321.297 115.259C320.498 116.224 319.344 116.829 318.094 116.936C316.845 117.043 315.605 116.644 314.653 115.827L302.747 105.62C300.787 103.94 300.56 100.988 302.24 99.0282C303.921 97.0682 306.872 96.8421 308.832 98.5224L317.127 105.634L337.409 81.1214C339.055 79.1323 342.002 78.8542 343.991 80.4998Z" fill="white"/>
<path d="M187.291 192.216L178.036 213.92L186.557 213.43L193.223 219L201.669 199.944L187.291 192.216Z" fill="#284CC8"/>
<path d="M214.162 192.216L223.727 213.92L214.922 213.43L208.033 219L199.306 199.944L214.162 192.216Z" fill="#284CC8"/>
<path d="M206.307 206.214L210.541 201.801L216.645 201.069L218.534 195.274L223.707 191.991L222.861 185.955L226.09 180.77L222.693 175.694L223.321 169.634L218.035 166.518L215.958 160.782L209.837 160.247L205.448 155.978L199.696 158.123L193.88 156.16L189.646 160.573L183.542 161.305L181.653 167.1L176.48 170.382L177.326 176.419L174.097 181.603L177.494 186.68L176.866 192.739L182.152 195.856L184.229 201.591L190.35 202.128L194.739 206.396L200.491 204.251L206.307 206.214ZM182.649 177.534C184.674 168.002 194.147 161.886 203.765 163.9C213.384 165.915 219.562 175.308 217.538 184.84C215.513 194.372 206.04 200.488 196.422 198.474C186.803 196.46 180.625 187.066 182.649 177.534Z" fill="#284CC8"/>
<path d="M200.094 162.281C189.668 162.281 181.187 170.762 181.187 181.187C181.187 191.612 189.668 200.094 200.094 200.094C210.519 200.094 219 191.612 219 181.187C219 170.762 210.519 162.281 200.094 162.281Z" fill="#4067F0"/>
</g>
<defs>
<clipPath id="clip0">
<rect width="356.86" height="219" fill="white"/>
</clipPath>
</defs>
</svg>
