<svg width="416" height="219" viewBox="0 0 416 219" fill="none" xmlns="http://www.w3.org/2000/svg">
<g clip-path="url(#clip0)">
<path d="M49.9891 20.4045C49.9891 13.5177 55.5898 7.93482 62.4986 7.93482H338.208C345.117 7.93482 350.717 13.5177 350.717 20.4045V195.196H49.9891V20.4045Z" fill="#4067F0"/>
<path d="M62.6848 25.3112C62.6848 21.8496 65.4865 19.0435 68.9427 19.0435H332.557C336.013 19.0435 338.815 21.8496 338.815 25.3112V182.5H62.6848V25.3112Z" fill="#EDF0F4"/>
<path d="M33.3261 200.288C33.3261 207.117 38.9285 212.652 45.8395 212.652H355.661C362.571 212.652 368.174 207.117 368.174 200.288V192.022H33.3261V200.288Z" fill="#4067F0"/>
<path d="M161.076 192.022C161.076 194.651 163.387 196.783 166.237 196.783H235.263C238.113 196.783 240.424 194.651 240.424 192.022H161.076Z" fill="#1F3C9F"/>
<path fill-rule="evenodd" clip-rule="evenodd" d="M0 215.826C0 214.073 1.20196 212.652 2.68465 212.652H384.533C386.015 212.652 387.217 214.073 387.217 215.826C387.217 217.579 386.015 219 384.533 219H2.68465C1.20196 219 0 217.579 0 215.826Z" fill="#E7E9EA"/>
<path fill-rule="evenodd" clip-rule="evenodd" d="M350.717 192.022H50.7826V189.641H350.717V192.022Z" fill="#1F3C9F"/>
<path d="M206.884 103.754C207.916 99.0785 207.959 66.0864 207.851 50.1751C205.916 43.5723 200.11 29.0678 192.37 23.8722C182.694 17.3778 156.248 25.4959 149.798 28.7431C143.347 31.9904 141.734 69.0088 138.51 68.6843C135.284 68.3598 131.413 70.6331 131.736 80.3746C131.994 88.1682 140.177 89.064 144.155 88.6308V151.289C144.886 157.186 144.126 172.603 173.035 165.663C202.189 165.663 185.184 127.92 185.829 125.971V120.329C185.829 120.329 187.292 120.329 192.37 119.342C201.918 117.486 205.593 109.6 206.884 103.754Z" fill="#F7CBB2"/>
<path d="M170.615 123.486C162.418 122.113 154.842 111.842 153.935 106.326C172.525 123.723 185.674 119.197 185.674 119.197C183.767 121.136 178.813 124.859 170.615 123.486Z" fill="#ECA98E"/>
<path d="M167.424 71.8098C167.424 73.3436 168.667 74.587 170.201 74.587C171.735 74.587 172.978 73.3436 172.978 71.8098C172.978 70.276 171.735 69.0326 170.201 69.0326C168.667 69.0326 167.424 70.276 167.424 71.8098Z" fill="#1E1D3D"/>
<path d="M193.609 71.8098C193.609 73.3436 194.852 74.587 196.386 74.587C197.92 74.587 199.163 73.3436 199.163 71.8098C199.163 70.276 197.92 69.0326 196.386 69.0326C194.852 69.0326 193.609 70.276 193.609 71.8098Z" fill="#1E1D3D"/>
<path d="M202.337 67.5536C197.598 61.1939 192.022 69.0326 192.022 69.0326C192.022 69.0326 197.294 65.481 202.337 67.5536Z" fill="#1E1D3D"/>
<path d="M166.63 67.3512C172.182 63.5354 176.946 68.2392 176.946 68.2392C176.946 68.2392 171.674 66.1087 166.63 67.3512Z" fill="#1E1D3D"/>
<path d="M201.893 57.0789C197.286 48.9483 190.508 55.2198 191.643 56.1489C192.778 57.0789 197.083 54.3834 201.893 57.0789Z" fill="#1E1D3D"/>
<path d="M163.485 57.0789C168.091 48.9484 174.064 54.1478 173.734 56.1489C173.406 58.1509 168.067 54.5207 163.485 57.0789Z" fill="#1E1D3D"/>
<path d="M190.432 84.1143C190.598 79.0923 184.726 66.3673 182.5 61.0979C183.335 64.5852 188.761 81.5204 188.761 83.4168C188.761 85.9305 185.214 86.2844 183.752 85.5092C185.7 87.0589 190.264 89.1362 190.432 84.1143Z" fill="#1E1D3D"/>
<path d="M175.936 89.6631C178.866 95.9752 186.456 93.8907 188.054 93.1829C185.771 97.428 179.276 99.1793 177.114 98.062C174.952 96.9456 175.082 90.9493 175.936 89.6631Z" fill="#1E1D3D"/>
<path d="M180.338 149.717C193.677 147.148 185.994 129.934 185.994 125.31C187.534 127.194 190.548 130.742 191.369 131.153C192.395 131.667 236.805 135.797 242.539 143.997C250.371 155.196 251.533 182.5 251.533 182.5H76.1739C76.1739 182.5 76.6222 153.485 99.3617 143.997C105.518 141.428 131.344 130.639 136.988 129.098C141.503 127.865 143.462 125.775 144.147 124.576C144.147 124.576 152.806 146.046 163.085 150.084L169.76 163.55L180.338 149.717Z" fill="#F87373"/>
<path fill-rule="evenodd" clip-rule="evenodd" d="M145.541 158.196C148.636 163.145 151.469 165.64 153.256 167.141L154.56 168.158L154.653 167.502C154.868 165.985 155.839 163.226 156.901 160.691C157.428 159.431 157.973 158.24 158.447 157.304C158.685 156.836 158.903 156.435 159.091 156.122C159.165 155.999 159.231 155.894 159.292 155.806L169.541 163.864L169.36 163.337L158.854 153.815L158.59 154.076C158.427 154.237 158.242 154.508 158.047 154.832C157.846 155.165 157.619 155.584 157.378 156.061C156.893 157.016 156.341 158.224 155.808 159.496C154.88 161.712 153.992 164.166 153.631 165.831C151.818 164.145 148.745 160.531 145.941 156.047C142.87 151.137 140.157 145.24 139.747 139.747L139.117 138.702C139.609 146.916 142.446 153.247 145.541 158.196Z" fill="#C71F1F"/>
<path fill-rule="evenodd" clip-rule="evenodd" d="M188.941 156.869C187.055 162.035 188.941 164.25 188.941 164.25C188.941 164.25 185.206 161.338 183.536 159.128C182.706 158.029 181.876 157.001 181.178 156.204C180.829 155.805 180.515 155.468 180.253 155.208C180.149 155.107 180.057 155.02 179.976 154.949L175.359 158.51L175.411 157.955L180.253 151.746L180.578 151.937C180.779 152.054 181.03 152.273 181.302 152.542C181.582 152.818 181.909 153.171 182.264 153.577C182.978 154.39 183.819 155.433 184.657 156.542C186.117 158.476 186.3 159.128 186.3 159.128C186.3 159.128 187.997 155.066 189.694 150.044C191.553 144.544 192.883 139.11 191.957 133.676L192.328 132.511C193.833 140.608 191.609 151.647 188.941 156.869Z" fill="#C71F1F"/>
<path d="M121.493 35.0511C120.407 45.676 129.331 62.9951 133.251 71.452C133.251 71.452 141.334 62.9951 144.993 76.9674V61.5247C144.993 40.5664 152.374 33.5803 164.851 30.6388C177.058 27.7609 173.669 39.4634 195.348 42.7726C201.728 43.7464 204.534 50.494 208.208 59.6863C209.433 58.9507 211.425 56.1942 215.541 52.3704C219.656 48.5465 219.476 42.8951 217.761 39.0957C217.761 39.0957 221.084 32.0716 219.232 24.3881C217.378 16.7047 201.243 1.92129 174.771 0.120804C152.758 -1.37641 142.192 11.3965 138.395 18.8728C134.231 18.26 122.515 25.0504 121.493 35.0511Z" fill="black"/>
<path d="M402.889 32.5326H253.318C246.196 32.5326 240.424 38.2982 240.424 45.4104V90.1979C240.424 94.2668 243.726 97.5653 247.8 97.5653H257.608L250.739 111.087L280.633 98.3612C281.533 97.8399 282.555 97.5653 283.596 97.5653H402.889C410.01 97.5653 415.783 91.7999 415.783 84.688V45.4104C415.783 38.2982 410.01 32.5326 402.889 32.5326Z" fill="white"/>
<path fill-rule="evenodd" clip-rule="evenodd" d="M247.8 97.5653C243.726 97.5653 240.424 94.2668 240.424 90.1979V45.4104C240.424 38.2982 246.196 32.5326 253.318 32.5326H402.889C410.01 32.5326 415.783 38.2982 415.783 45.4104V84.688C415.783 91.7999 410.01 97.5653 402.889 97.5653H283.596C282.555 97.5653 281.533 97.8399 280.633 98.3612L250.739 111.087L257.608 97.5653H247.8ZM256.074 106.102L261.68 95.069H247.8C245.107 95.069 242.923 92.8885 242.923 90.1979V45.4104C242.923 39.6769 247.577 35.029 253.318 35.029H402.889C408.629 35.029 413.283 39.6769 413.283 45.4104V84.688C413.283 90.4208 408.629 95.069 402.889 95.069H283.596C282.17 95.069 280.769 95.4308 279.524 96.1196L256.074 106.102Z" fill="#E7E9EA"/>
<path d="M405.467 49.5924C405.467 46.3057 402.872 43.6413 399.671 43.6413H257.329C254.128 43.6413 251.533 46.3057 251.533 49.5924C251.533 52.8791 254.128 55.5435 257.329 55.5435H399.671C402.872 55.5435 405.467 52.8791 405.467 49.5924Z" fill="#E7E9EA"/>
<path d="M405.467 65.462C405.467 62.1754 402.86 59.5109 399.645 59.5109H327.181C323.966 59.5109 321.359 62.1754 321.359 65.462C321.359 68.7486 323.966 71.4131 327.181 71.4131H399.645C402.86 71.4131 405.467 68.7486 405.467 65.462Z" fill="#E7E9EA"/>
<path d="M403.88 81.7283C403.88 78.6607 401.257 76.1739 398.021 76.1739H358.958C355.721 76.1739 353.098 78.6607 353.098 81.7283C353.098 84.7959 355.721 87.2826 358.958 87.2826H398.021C401.257 87.2826 403.88 84.7959 403.88 81.7283Z" fill="#E7E9EA"/>
<path d="M314.217 65.462C314.217 62.1754 311.64 59.5109 308.461 59.5109H257.289C254.11 59.5109 251.533 62.1754 251.533 65.462C251.533 68.7486 254.11 71.4131 257.289 71.4131H308.461C311.64 71.4131 314.217 68.7486 314.217 65.462Z" fill="#E7E9EA"/>
<path d="M349.13 81.7283C349.13 78.6607 346.527 76.1739 343.317 76.1739H281.944C278.734 76.1739 276.13 78.6607 276.13 81.7283C276.13 84.7959 278.734 87.2826 281.944 87.2826H343.317C346.527 87.2826 349.13 84.7959 349.13 81.7283Z" fill="#E7E9EA"/>
<path d="M328.5 157.109C328.5 167.188 320.329 175.359 310.25 175.359C300.17 175.359 292 167.188 292 157.109C292 147.029 300.17 138.859 310.25 138.859C320.329 138.859 328.5 147.029 328.5 157.109Z" fill="white"/>
<path d="M321.309 159.426C321.432 158.778 321.497 158.115 321.497 157.452C321.497 155.982 321.2 154.555 320.613 153.213C320.047 151.915 319.237 150.751 318.204 149.75C317.172 148.75 315.969 147.965 314.632 147.416C313.246 146.848 311.774 146.56 310.256 146.56C309.541 146.56 308.825 146.625 308.128 146.755C308.127 146.755 308.125 146.755 308.123 146.756C307.166 146.263 306.091 146 305.002 146C303.224 146 301.553 146.67 300.297 147.889C299.04 149.106 298.348 150.726 298.348 152.449C298.348 153.544 298.639 154.623 299.185 155.575C299.075 156.191 299.016 156.822 299.016 157.452C299.016 158.923 299.313 160.348 299.9 161.692C300.466 162.989 301.276 164.153 302.308 165.154C303.34 166.154 304.542 166.94 305.881 167.487C307.266 168.056 308.739 168.344 310.256 168.344C310.917 168.344 311.579 168.286 312.225 168.175C313.221 168.72 314.347 169.011 315.499 169.011C317.276 169.011 318.946 168.341 320.203 167.122C321.46 165.906 322.152 164.286 322.152 162.564C322.152 161.463 321.859 160.383 321.309 159.426Z" fill="#4067F0"/>
<path d="M310.298 163.457C306.427 163.457 304.696 161.595 304.696 160.2C304.696 159.485 305.236 158.984 305.979 158.984C307.636 158.984 307.207 161.309 310.298 161.309C311.879 161.309 312.753 160.469 312.753 159.61C312.753 159.092 312.492 158.519 311.45 158.268L308.008 157.428C305.236 156.747 304.733 155.281 304.733 153.903C304.733 151.042 307.487 149.967 310.073 149.967C312.456 149.967 315.264 151.255 315.264 152.972C315.264 153.708 314.613 154.136 313.869 154.136C312.456 154.136 312.715 152.222 309.868 152.222C308.455 152.222 307.673 152.848 307.673 153.743C307.673 154.637 308.789 154.923 309.758 155.138L312.306 155.692C315.097 156.3 315.804 157.893 315.804 159.395C315.804 161.72 313.98 163.457 310.298 163.457Z" fill="white"/>
</g>
<defs>
<clipPath id="clip0">
<rect width="415.783" height="219" fill="white"/>
</clipPath>
</defs>
</svg>
