<svg width="16" height="16" viewBox="0 0 16 16" fill="none" xmlns="http://www.w3.org/2000/svg">
<g clip-path="url(#clip0)">
<path d="M0.727249 8.72693L13.5169 8.72693L11.1221 11.1218C10.8381 11.4058 10.8381 11.8663 11.1221 12.1503C11.4061 12.4343 11.8666 12.4343 12.1506 12.1503L15.787 8.51394C16.071 8.22996 16.071 7.76945 15.787 7.48543L12.1506 3.84906C12.0086 3.70705 11.8225 3.63602 11.6363 3.63602C11.4502 3.63602 11.2641 3.70705 11.1221 3.84906C10.8381 4.13304 10.8381 4.59355 11.1221 4.87757L13.5169 7.27238L0.72725 7.27238C0.325601 7.27238 -2.24716e-05 7.59801 -2.25067e-05 7.99966C-2.25418e-05 8.4013 0.325601 8.72693 0.727249 8.72693Z" fill="#A0A4B9"/>
</g>
<defs>
<clipPath id="clip0">
<rect width="16" height="16" fill="white" transform="translate(16 16) rotate(-180)"/>
</clipPath>
</defs>
</svg>
