<svg width="64" height="64" viewBox="0 0 64 64" fill="none" xmlns="http://www.w3.org/2000/svg">
<g clip-path="url(#clip0)">
<path d="M49.1248 43.4929C50.4551 43.4946 51.5331 44.5726 51.5348 45.9029C51.5348 46.5472 52.0572 47.0697 52.7016 47.0697C53.3459 47.0697 53.8684 46.5472 53.8684 45.9029C53.8655 43.7499 52.415 41.8675 50.3338 41.3166V40.168C50.3338 39.5237 49.8113 39.0012 49.167 39.0012C48.5226 39.0012 48.0002 39.5237 48.0002 40.168V41.2955C45.6683 41.8647 44.1295 44.0866 44.416 46.4698C44.7026 48.8529 46.7246 50.6464 49.1248 50.6464C50.364 50.6464 51.4003 51.5859 51.5228 52.8188C51.6447 54.0517 50.8118 55.1763 49.5971 55.419C49.3128 55.3056 48.9944 55.3085 48.7123 55.4281C47.5592 55.227 46.7172 54.2266 46.7149 53.0564C46.7149 52.412 46.193 51.8896 45.5481 51.8896C44.9037 51.8896 44.3813 52.412 44.3813 53.0564C44.3847 55.2418 45.878 57.143 48.0002 57.6637V58.691C48.0002 59.3353 48.5226 59.8577 49.167 59.8577C49.8113 59.8577 50.3338 59.3353 50.3338 58.691V57.6432C52.6395 57.0359 54.1361 54.8111 53.8296 52.4468C53.5231 50.0824 51.5091 48.3128 49.1248 48.3128C47.8014 48.3026 46.7337 47.2269 46.7337 45.9029C46.7337 44.5794 47.8014 43.5038 49.1248 43.4935V43.4929Z" fill="#3964F9"/>
<path d="M41.3811 33.1672C41.3811 32.5228 40.8587 32.0004 40.2143 32.0004H31.2274V19.904C31.2274 19.2596 30.705 18.7372 30.0606 18.7372C29.4163 18.7372 28.8938 19.2596 28.8938 19.904V33.1661C28.9166 33.8201 29.4556 34.3374 30.1102 34.334H40.2143C40.8587 34.334 41.3811 33.8116 41.3811 33.1672Z" fill="#3964F9"/>
<path d="M62.6433 31.2712C62.6439 18.6232 55.0249 7.22073 43.3398 2.38033C31.6548 -2.46006 18.2047 0.215942 9.26167 9.15894C-0.865786 19.3029 -2.80286 35.0325 4.56086 47.33C11.9246 59.6281 26.705 65.3476 40.4285 61.2097C46.3839 65.465 54.5424 64.7904 59.7178 59.615C64.8932 54.4396 65.5677 46.2812 61.3124 40.3264C62.1978 37.3894 62.6462 34.3386 62.6433 31.2712ZM2.43692 31.2712C2.43692 15.3148 15.4176 2.33418 31.3733 2.33418C47.3291 2.33418 60.3097 15.3148 60.3097 31.2712C60.3114 33.6076 60.03 35.9355 59.4728 38.2047C58.1533 36.9405 56.6139 35.9275 54.9304 35.2159C55.1474 33.9124 55.2562 32.5929 55.2568 31.2712C55.2574 18.1008 44.5437 7.38709 31.3733 7.38709C18.203 7.38709 7.48925 18.1008 7.48925 31.2712C7.48925 44.4409 18.203 55.1552 31.3733 55.1552C32.6951 55.1547 34.0146 55.0453 35.3187 54.8282C36.0303 56.5117 37.0432 58.0511 38.3075 59.3712C36.0382 59.9278 33.7098 60.2087 31.3733 60.2076C15.4176 60.2076 2.43692 47.2269 2.43692 31.2712ZM34.1473 49.0227C34.1467 50.2225 34.2909 51.4178 34.5763 52.5835C33.5161 52.7413 32.4455 52.8211 31.3733 52.8216C19.4905 52.8216 9.82285 43.1539 9.82285 31.2712C9.82285 19.3878 19.4905 9.72069 31.3733 9.72069C43.2561 9.72069 52.9238 19.3878 52.9238 31.2712C52.9232 32.3428 52.844 33.4133 52.6862 34.4736C48.219 33.3814 43.4971 34.4012 39.8793 37.2407C36.2616 40.0797 34.1479 44.4233 34.1473 49.0227ZM49.1249 61.6661C46.3953 61.6689 43.7387 60.7841 41.556 59.1444C41.458 59.0311 41.3384 58.9382 41.2045 58.8698C36.4097 55.0077 35.0965 48.2513 38.0955 42.8742C41.0946 37.4966 47.5325 35.0633 53.3385 37.1131C59.1446 39.1624 62.6285 45.0984 61.587 51.1666C60.5456 57.2353 55.2819 61.6695 49.1249 61.6661Z" fill="#3964F9"/>
</g>
<defs>
<clipPath id="clip0">
<rect width="64" height="64" fill="white"/>
</clipPath>
</defs>
</svg>
