<svg width="12" height="12" viewBox="0 0 12 12" fill="none" xmlns="http://www.w3.org/2000/svg">
<g clip-path="url(#clip0)">
<path d="M7.09939 6.00961L11.772 1.33691C12.076 1.03297 12.076 0.541539 11.772 0.237599C11.468 -0.0663414 10.9766 -0.0663414 10.6727 0.237599L5.99994 4.9103L1.32737 0.237599C1.02329 -0.0663414 0.532003 -0.0663414 0.228062 0.237599C-0.0760207 0.541539 -0.0760207 1.03297 0.228062 1.33691L4.90063 6.00961L0.228062 10.6823C-0.0760207 10.9863 -0.0760207 11.4777 0.228062 11.7816C0.379534 11.9332 0.578697 12.0094 0.777717 12.0094C0.976738 12.0094 1.17576 11.9332 1.32737 11.7816L5.99994 7.10892L10.6727 11.7816C10.8243 11.9332 11.0233 12.0094 11.2223 12.0094C11.4213 12.0094 11.6203 11.9332 11.772 11.7816C12.076 11.4777 12.076 10.9863 11.772 10.6823L7.09939 6.00961Z" fill="#F44336"/>
</g>
<defs>
<clipPath id="clip0">
<rect width="12" height="12" fill="white"/>
</clipPath>
</defs>
</svg>
