<svg width="16" height="16" viewBox="0 0 16 16" fill="none" xmlns="http://www.w3.org/2000/svg">
<path d="M15.4238 13.4958L13.589 9.56104C12.5758 11.0363 10.9939 12.0867 9.16275 12.4053L10.6987 15.699C10.8951 16.1205 11.5029 16.0924 11.661 15.6571L12.4483 13.4945L12.6106 13.4189L14.7732 14.2061C15.2072 14.3654 15.62 13.9156 15.4238 13.4958Z" fill="#A0A4B9"/>
<path d="M8.00004 0C4.83798 0 2.26517 2.57266 2.26517 5.73488C2.26517 8.89709 4.83801 11.4698 8.00004 11.4698C11.1621 11.4698 13.7349 8.89709 13.7349 5.73488C13.7349 2.57266 11.1621 0 8.00004 0ZM10.7905 5.3135L9.77357 6.30481L10.0139 7.70494C10.0874 8.13241 9.63695 8.45356 9.25729 8.25447L8.00007 7.59359L6.74285 8.25444C6.36101 8.45494 5.9132 8.13 5.98626 7.70491L6.22657 6.30478L5.20967 5.31347C4.9006 5.01216 5.07214 4.48619 5.49857 4.42422L6.9041 4.22006L7.53273 2.94653C7.72295 2.55978 8.27707 2.55944 8.46751 2.94653L9.09614 4.22006L10.5017 4.42422C10.928 4.48616 11.0995 5.01216 10.7905 5.3135Z" fill="#A0A4B9"/>
<path d="M2.41113 9.56104L0.576254 13.4958C0.379222 13.9176 0.795722 14.3649 1.22691 14.206L3.38953 13.4188L3.55178 13.4944L4.33907 15.6571C4.49691 16.0914 5.10457 16.1213 5.30135 15.699L6.83735 12.4052C5.00619 12.0867 3.42432 11.0363 2.41113 9.56104Z" fill="#A0A4B9"/>
</svg>
