<svg width="14" height="14" viewBox="0 0 14 14" fill="none" xmlns="http://www.w3.org/2000/svg">
<g clip-path="url(#clip0)">
<path d="M6.12514 0.000694275C2.74783 0.000694275 0.000484107 2.23794 0.000484107 4.98791C0.000484107 6.38083 0.700445 7.68713 1.93587 8.62683C1.52727 9.26467 0.998803 9.91038 0.33209 10.0749C0.121227 10.1274 -0.0196398 10.3269 0.00223401 10.543C0.0241078 10.76 0.201723 10.9271 0.419585 10.9367C0.42921 10.9367 0.466833 10.9385 0.529829 10.9385C0.982179 10.9385 2.72858 10.8658 4.71034 9.83776C5.16444 9.92963 5.63954 9.97513 6.12514 9.97513C9.50157 9.97513 12.2498 7.73788 12.2498 4.98791C12.2498 2.23794 9.50157 0.000694275 6.12514 0.000694275Z" fill="#3964F9"/>
<path d="M13.6673 13.1046C13.1099 12.9672 12.6882 12.5595 12.3933 12.1553C13.4196 11.3512 13.9997 10.2452 13.9997 9.06668C13.9997 8.07974 13.585 7.17242 12.8964 6.44708C12.1186 8.97481 9.38262 10.8498 6.12518 10.8498C5.69033 10.8498 5.26073 10.8166 4.84338 10.751C4.59489 10.8708 4.35165 10.9767 4.11279 11.0712C4.99562 12.4274 6.74202 13.3539 8.75003 13.3539C9.16038 13.3539 9.55848 13.3163 9.93646 13.2428C11.192 13.8824 12.3373 14.0005 13.011 13.9997C13.3803 13.9997 13.6078 13.9647 13.6331 13.9603C13.8379 13.927 13.991 13.7538 13.9997 13.5464C14.0076 13.3391 13.8694 13.1536 13.6673 13.1046Z" fill="#3964F9"/>
</g>
<defs>
<clipPath id="clip0">
<rect width="14" height="14" fill="white"/>
</clipPath>
</defs>
</svg>
