<svg width="16" height="16" viewBox="0 0 16 16" fill="none" xmlns="http://www.w3.org/2000/svg">
<path d="M12.7433 1.96473C11.4763 0.697753 9.79177 0 8.00008 0C6.20835 0 4.52385 0.697721 3.25681 1.96473C1.98987 3.23167 1.29211 4.91611 1.29211 6.70784C1.29211 8.49956 1.98987 10.1841 3.25681 11.451L7.66864 15.8627C7.76017 15.9543 7.88014 16 8.00008 16C8.12005 16 8.24002 15.9542 8.33152 15.8627L12.7432 11.4511C14.0102 10.1841 14.7079 8.4996 14.7079 6.70787C14.7079 4.91608 14.0102 3.23164 12.7433 1.96473ZM10.1067 8.81441C9.54402 9.3771 8.79589 9.68701 8.00011 9.68701C7.20433 9.68701 6.4562 9.37713 5.89354 8.81444C5.33082 8.25175 5.02094 7.50362 5.02094 6.70784C5.02094 5.91209 5.33082 5.16396 5.89354 4.60124C6.4562 4.03855 7.20433 3.72867 8.00011 3.72867C8.79589 3.72867 9.54402 4.03855 10.1067 4.60124C10.6694 5.1639 10.9793 5.91202 10.9793 6.70781C10.9793 7.50359 10.6694 8.25175 10.1067 8.81441Z" fill="#A0A4B9"/>
</svg>
