<svg width="20" height="20" viewBox="0 0 20 20" fill="none" xmlns="http://www.w3.org/2000/svg">
<g clip-path="url(#clip0)">
<path d="M17.1084 8.39284C17.1324 5.57309 14.7308 2.98812 11.7548 2.63066C11.6956 2.62365 11.6312 2.61296 11.5629 2.60166C11.4156 2.57725 11.2632 2.55215 11.1095 2.55215C10.4995 2.55215 10.3365 2.9806 10.2936 3.23613C10.2518 3.48458 10.2916 3.69321 10.4117 3.8565C10.6137 4.13116 10.9691 4.17992 11.2546 4.21899C11.3382 4.23054 11.4172 4.24128 11.4833 4.25613C14.1571 4.85358 15.0574 5.7929 15.4974 8.44396C15.5081 8.50874 15.513 8.58855 15.5181 8.67321C15.5373 8.9901 15.5773 9.64942 16.2861 9.64942H16.2862C16.3452 9.64942 16.4086 9.64433 16.4747 9.63427C17.1347 9.53396 17.114 8.93129 17.1041 8.64172C17.1013 8.56017 17.0986 8.48302 17.1055 8.43172C17.1074 8.4188 17.1083 8.40582 17.1084 8.39284Z" fill="#A0A4B9"/>
<path d="M10.9364 1.59553C11.0156 1.60124 11.0906 1.60671 11.153 1.61627C15.5436 2.29149 17.5628 4.37174 18.1224 8.79671C18.1319 8.87192 18.1334 8.96366 18.135 9.06081C18.1405 9.40652 18.152 10.1257 18.9244 10.1406L18.9484 10.1409C19.1906 10.1409 19.3833 10.0678 19.5211 9.9236C19.7615 9.67211 19.7448 9.29851 19.7312 8.99826C19.7279 8.92459 19.7248 8.85522 19.7256 8.79447C19.7814 4.26888 15.864 0.165093 11.3425 0.0124845C11.3237 0.0118634 11.3058 0.0128571 11.2877 0.0154037C11.2789 0.0167081 11.2624 0.018323 11.2342 0.018323C11.1891 0.018323 11.1336 0.0144099 11.0748 0.0104348C11.0037 0.00559006 10.9231 0 10.8413 0C10.1213 0 9.98438 0.511801 9.96687 0.816894C9.92649 1.52199 10.6086 1.57161 10.9364 1.59553Z" fill="#A0A4B9"/>
<path d="M17.9105 14.5157C17.8172 14.4444 17.7207 14.3706 17.6303 14.2978C17.1509 13.912 16.6409 13.5565 16.1477 13.2125C16.0453 13.1412 15.943 13.0699 15.841 12.9983C15.2092 12.5545 14.6412 12.3389 14.1045 12.3389C13.3817 12.3389 12.7515 12.7383 12.2314 13.5258C12.001 13.8749 11.7214 14.0447 11.3769 14.0447C11.1732 14.0447 10.9417 13.9865 10.6889 13.8718C8.64961 12.947 7.1934 11.5291 6.36067 9.65751C5.95812 8.75292 6.08862 8.16161 6.79706 7.68037C7.19936 7.40733 7.94818 6.899 7.89514 5.92559C7.83508 4.82018 5.39607 1.49416 4.36843 1.11639C3.93334 0.956394 3.47619 0.954903 3.00725 1.11267C1.82588 1.50981 0.978119 2.20726 0.555386 3.1295C0.146877 4.02062 0.165324 5.06695 0.60874 6.1554C1.8906 9.30236 3.69284 12.0461 5.96557 14.3102C8.19017 16.5266 10.9244 18.3422 14.0922 19.7062C14.3777 19.8291 14.6772 19.8961 14.8959 19.945C14.9705 19.9617 15.0348 19.976 15.0817 19.9889C15.1075 19.9959 15.1341 19.9997 15.1607 19.9999L15.1858 20.0001C15.1858 20.0001 15.1858 20.0001 15.1859 20.0001C16.6758 20.0001 18.4648 18.6386 19.0143 17.0864C19.4956 15.7273 18.6168 15.0555 17.9105 14.5157Z" fill="#A0A4B9"/>
<path d="M11.5954 5.19036C11.3404 5.19682 10.8095 5.20999 10.6232 5.75067C10.5361 6.00335 10.5465 6.22272 10.6543 6.40272C10.8124 6.66682 11.1154 6.74776 11.391 6.79217C12.3904 6.95254 12.9037 7.50521 13.0064 8.5313C13.0541 9.00975 13.3763 9.34385 13.7899 9.34385H13.79C13.8205 9.34385 13.8518 9.34205 13.8829 9.33826C14.3804 9.27907 14.6216 8.91354 14.5998 8.25192C14.6078 7.56142 14.2464 6.77751 13.6318 6.1531C13.0151 5.52676 12.2717 5.17403 11.5954 5.19036Z" fill="#A0A4B9"/>
</g>
<defs>
<clipPath id="clip0">
<rect width="20" height="20" fill="white"/>
</clipPath>
</defs>
</svg>
