<svg width="16" height="16" viewBox="0 0 16 16" fill="none" xmlns="http://www.w3.org/2000/svg">
<g clip-path="url(#clip0)">
<path d="M14.5624 5.50016H11.9999V1.12603C11.9999 0.733285 11.8005 0.37554 11.4664 0.169043C11.1323 -0.0374228 10.7232 -0.0558601 10.3719 0.119794C10.3674 0.122044 10.3629 0.124356 10.3585 0.126731L1.08423 5.11798C0.415523 5.47788 9.15527e-05 6.17324 9.15527e-05 6.93264V6.93764V7.25013V14.5625C9.15527e-05 15.3551 0.644958 16 1.43757 16H14.5624C15.355 16 15.9999 15.3551 15.9999 14.5625V6.93764C15.9999 6.14502 15.355 5.50016 14.5624 5.50016ZM10.8437 5.50016H3.10421C2.94186 5.50016 2.88721 5.28325 3.03014 5.20632L10.8234 1.01213C10.873 0.989313 10.9144 1.0035 10.9406 1.01972C10.9677 1.03644 10.9999 1.06847 10.9999 1.12606V5.34394C10.9999 5.43022 10.93 5.50016 10.8437 5.50016ZM12.9999 11.7501C12.4485 11.7501 11.9999 11.3015 11.9999 10.7501C11.9999 10.1987 12.4485 9.7501 12.9999 9.7501C13.5513 9.7501 13.9999 10.1987 13.9999 10.7501C13.9999 11.3015 13.5513 11.7501 12.9999 11.7501Z" fill="#A0A4B9"/>
</g>
<defs>
<clipPath id="clip0">
<rect width="16" height="16" fill="white"/>
</clipPath>
</defs>
</svg>
