<svg width="24" height="24" viewBox="0 0 24 24" fill="none" xmlns="http://www.w3.org/2000/svg">
<path d="M15.4787 3.99988C10.7326 3.99988 6.9573 7.8195 6.9573 12.4999C6.9573 17.2341 10.7865 20.9999 15.4787 20.9999C20.1708 20.9999 24 17.1803 24 12.4999C24 7.8195 20.1708 3.99988 15.4787 3.99988ZM15.4787 15.674C13.7528 15.674 12.2966 14.2214 12.2966 12.4999C12.2966 10.7784 13.7528 9.32583 15.4787 9.32583C17.2045 9.32583 18.6607 10.7784 18.6607 12.4999C18.6067 14.2214 17.2045 15.674 15.4787 15.674ZM6.90337 6.47456V18.848H3.88315L0 6.47456H6.90337Z" fill="#8B3FFD"/>
</svg>
