<svg width="94" height="57" viewBox="0 0 94 57" fill="none" xmlns="http://www.w3.org/2000/svg">
<path d="M42.0803 9.84021L24.4589 54.4449L42.0803 94C65.3199 94 84.1598 75.1601 84.1598 51.9198C84.1598 28.6801 65.3199 9.84021 42.0803 9.84021Z" fill="#FF4C04"/>
<path d="M0 51.9198C0 75.1601 18.8399 94 42.0803 94V9.84021C18.8399 9.84021 0 28.6801 0 51.9198Z" fill="#FF4C04"/>
<path d="M42.0802 20.9419L29.1075 53.7786L42.0802 82.8983C59.1889 82.8983 73.0588 69.0291 73.0588 51.9198C73.0581 34.8111 59.1889 20.9419 42.0802 20.9419Z" fill="#FFF5F5"/>
<path d="M11.1017 51.9198C11.1017 69.0291 24.9709 82.8983 42.0803 82.8983V20.9419C24.9709 20.9419 11.1017 34.8111 11.1017 51.9198Z" fill="#FFF5F5"/>
<path d="M42.0803 32.0428L33.7562 53.1131L42.0803 71.7973C53.0579 71.7973 61.9572 62.8981 61.9572 51.9205C61.9572 40.9421 53.0579 32.0428 42.0803 32.0428Z" fill="#FF4C04"/>
<path d="M22.2026 51.9197C22.2026 62.8981 31.1019 71.7966 42.0795 71.7966V32.0428C31.1019 32.0428 22.2026 40.9421 22.2026 51.9197Z" fill="#FF4C04"/>
<path d="M42.0803 43.1445L38.4055 52.4469L42.0803 60.6957C46.9268 60.6957 50.8555 56.7663 50.8555 51.9205C50.8555 47.0732 46.9268 43.1445 42.0803 43.1445Z" fill="#EFE2DD"/>
<path d="M33.3043 51.9197C33.3043 56.7663 37.2337 60.6957 42.0795 60.6957V43.1445C37.2337 43.1445 33.3043 47.0732 33.3043 51.9197Z" fill="#FFF5F5"/>
<path d="M70.9389 19.1655L74.8338 23.0604L44.0274 53.8668L40.1324 49.9719L70.9389 19.1655Z" fill="#B4D2D7"/>
<path d="M82.6581 0L65.6118 17.0462L67.7604 26.2396L76.9538 28.3875L94 11.3419L85.4937 8.50627L82.6581 0Z" fill="white"/>
</svg>
