<svg width="343" height="159" viewBox="0 0 343 159" fill="none" xmlns="http://www.w3.org/2000/svg">
<path d="M227.212 75.7468C229.474 84.1692 233.434 91.6829 238.625 98.0172C252.968 115.519 276.706 124.016 299.959 117.799C321.283 112.096 336.761 95.4728 342 75.5456L285.285 90.7117L263.793 64.5149L270.009 33.8087L326.724 18.6426C312.204 3.99918 290.471 -2.67402 269.148 3.02811C245.895 9.2461 229.594 28.451 225.94 50.765C224.617 58.8411 224.951 67.3245 227.212 75.7468Z" fill="#1E1D3D"/>
<path d="M23.7099 99.4295C7.49359 103.332 -2.30442 119.839 2.02452 135.964C6.35345 152.089 23.1083 161.496 39.1072 156.784L238.625 98.0172C233.434 91.6829 229.474 84.1692 227.212 75.7468C224.951 67.3245 224.617 58.8411 225.94 50.765L23.7099 99.4295Z" fill="#1E1D3D"/>
<path d="M99.8792 130.872C100.87 131.484 102.233 137.835 102.123 138.991C102.014 140.148 102.178 140.861 101.192 141.477C100.207 142.092 99.7691 141.821 98.6195 141.723C98.583 142.108 98.8275 142.953 97.2509 143.937C96.5402 144.381 95.3897 144.011 94.9518 143.74C94.6781 144.183 95.0862 144.266 94.1306 145.069C92.8715 146.127 91.8498 145.495 91.1199 145.044C90.9374 145.34 90.5944 145.699 89.5871 146.545C88.328 147.603 86.5764 146.521 82.6352 144.085C78.6941 141.649 75.5195 136.015 75.1912 134.588C74.8628 133.16 72.2354 131.537 70.4291 128.584C68.9841 126.222 65.5096 121.29 63.8677 117.419C66.0138 112.38 71.9515 109.562 74.652 108.783C76.2939 114.286 80.6769 122.187 82.9102 124.057C85.7018 126.394 93.3107 126.812 99.8792 130.872Z" fill="#F7CBB2"/>
<path fill-rule="evenodd" clip-rule="evenodd" d="M98.4854 139.189C98.8311 139.961 99.1608 140.781 99.3054 141.373L98.8228 141.491C98.6898 140.946 98.3768 140.163 98.032 139.392C97.6891 138.626 97.3222 137.89 97.0898 137.448L97.5296 137.217C97.7663 137.667 98.1378 138.413 98.4854 139.189ZM94.4906 140.17C95.141 141.565 95.3549 143.177 95.3816 143.817L94.8852 143.837C94.8603 143.24 94.6547 141.697 94.0404 140.38L94.4906 140.17ZM91.7381 142.917C91.7869 143.73 91.6665 144.587 91.5408 145.132L91.0568 145.02C91.1749 144.508 91.2874 143.7 91.2421 142.947C91.2195 142.571 91.1581 142.22 91.0456 141.929C90.9333 141.64 90.7761 141.426 90.57 141.299L90.8312 140.876C91.1571 141.078 91.3711 141.395 91.5088 141.75C91.6463 142.104 91.7136 142.511 91.7381 142.917Z" fill="#ECA98E"/>
<path d="M36.0489 69.5113C39.3805 59.1468 52.2441 21.3903 72.6034 7.50943C72.6034 7.50943 93.0004 -2 95.0002 11C97.0001 24.0001 79.5433 44.5259 79.5433 44.5259C73.2196 52.2376 60.387 68.6788 59.6466 72.7506C58.9062 76.8224 73.2188 105.911 80.4676 119.947C77.1361 124.759 69.8255 124.728 66.5866 124.111C55.0192 110.23 32.7173 79.8759 36.0489 69.5113Z" fill="#FFD501"/>
<path fill-rule="evenodd" clip-rule="evenodd" d="M81.5713 33.3643C82.4171 30.3591 82.3165 28.3724 82.0284 27.5079C82.4068 28.6434 83.3733 32.255 82.5023 35.3498C81.626 38.4636 80.4295 41.5112 77.0022 46.3497C70.2192 55.9253 62.1638 67.3584 59.5018 72.3495C62.1733 67.3406 68.7771 54.6848 75.5944 45.0607C78.9672 40.2992 80.7309 36.3505 81.5713 33.3643Z" fill="#FFA001"/>
<path d="M228.982 103.498C228.872 105.735 224.907 105.735 224.095 105.14C223.284 104.544 223.561 94.2431 226.754 94.4648C229.947 94.6864 229.153 99.9877 228.982 103.498Z" fill="#F7CBB2"/>
<path d="M232.974 104.025C232.865 106.262 228.899 106.262 228.088 105.667C227.276 105.071 227.553 94.7703 230.746 94.992C233.94 95.2137 233.146 100.515 232.974 104.025Z" fill="#F7CBB2"/>
<path d="M224.708 104.385C224.591 106.768 219.91 106.627 219.082 106.002C218.253 105.376 218.45 94.5607 222.115 94.779C225.78 94.9973 224.891 100.646 224.708 104.385Z" fill="#F7CBB2"/>
<path d="M219.064 103.837C218.643 105.658 215.152 105.91 214.603 104.701C214.055 103.492 215.732 95.7241 218.458 96.2197C221.185 96.7153 219.725 100.979 219.064 103.837Z" fill="#F7CBB2"/>
</svg>
