<svg width="370" height="280" viewBox="0 0 370 280" fill="none" xmlns="http://www.w3.org/2000/svg">
<g clip-path="url(#clip0)">
<path d="M237.911 42.0353C241.561 34.6499 250.513 31.625 257.904 35.2789L361.623 86.5543C369.014 90.2082 372.047 99.1575 368.396 106.543L286.755 271.693C283.104 279.079 274.153 282.103 266.761 278.45L163.042 227.174C155.651 223.52 152.619 214.571 156.269 207.186L237.911 42.0353Z" fill="#D8DCDD"/>
<path fill-rule="evenodd" clip-rule="evenodd" d="M277.68 31.9339L144.059 5.57516C137.394 4.26029 130.907 8.67256 129.571 15.4303L86.8953 231.308C85.5595 238.065 89.88 244.61 96.5454 245.925L230.166 272.283C236.832 273.598 243.318 269.186 244.654 262.428L287.33 46.5507C288.666 39.7932 284.346 33.2488 277.68 31.9339ZM145.096 0.331134C135.574 -1.54722 126.307 4.75604 124.399 14.41L81.723 230.287C79.8144 239.941 85.9868 249.29 95.5089 251.169L229.129 277.527C238.652 279.406 247.918 273.102 249.826 263.448L292.503 47.5711C294.411 37.9172 288.239 28.5686 278.717 26.6899L145.096 0.331134Z" fill="#4067F0"/>
<path d="M144.059 5.57516L277.68 31.9339C284.346 33.2488 288.666 39.7932 287.33 46.5507L244.654 262.428C243.318 269.186 236.832 273.598 230.166 272.283L96.5454 245.925C89.88 244.61 85.5595 238.065 86.8953 231.308L129.571 15.4303C130.907 8.67256 137.394 4.26028 144.059 5.57516Z" fill="#4067F0"/>
<path d="M132.023 40.8736C133.619 32.7878 141.474 27.5289 149.567 29.1269L263.124 51.5516C271.216 53.1497 276.482 60.9998 274.885 69.0856L239.179 249.896C237.583 257.982 229.728 263.242 221.636 261.644L108.078 239.218C99.9862 237.62 94.7203 229.77 96.3168 221.684L132.023 40.8736Z" fill="white"/>
<path d="M161.124 66.6111C161.439 65.0146 163.014 63.9813 164.642 64.3036L236.863 78.6034C238.491 78.9257 239.556 80.4815 239.242 82.078C238.927 83.675 237.352 84.7078 235.724 84.3855L163.503 70.0857C161.875 69.7634 160.81 68.2076 161.124 66.6111Z" fill="#EDF0F4"/>
<path d="M121.044 185.025C121.359 183.428 122.939 182.397 124.574 182.72L156.401 189.022C158.036 189.345 159.107 190.902 158.792 192.499C158.478 194.096 156.897 195.128 155.262 194.804L123.436 188.503C121.801 188.179 120.73 186.622 121.044 185.025Z" fill="#EDF0F4"/>
<path d="M118.372 200.028C118.687 198.431 120.267 197.399 121.902 197.723L153.729 204.025C155.364 204.348 156.435 205.905 156.12 207.502C155.806 209.098 154.225 210.131 152.59 209.807L120.763 203.505C119.128 203.181 118.058 201.625 118.372 200.028Z" fill="#EDF0F4"/>
<path d="M140.283 87.5077C140.597 85.9107 142.177 84.8791 143.811 85.2024L191.894 94.7224C193.528 95.0463 194.598 96.6027 194.283 98.1997C193.969 99.7962 192.389 100.828 190.755 100.505L142.672 90.9845C141.038 90.6611 139.968 89.1042 140.283 87.5077Z" fill="#EDF0F4"/>
<path d="M200.136 99.2956C200.45 97.6986 202.028 96.6664 203.66 96.9898L246.508 105.473C248.14 105.796 249.208 107.352 248.893 108.949C248.579 110.546 247.001 111.579 245.369 111.255L202.521 102.772C200.889 102.448 199.821 100.892 200.136 99.2956Z" fill="#EDF0F4"/>
<path d="M137.611 102.511C137.925 100.913 139.497 99.8797 141.121 100.201L206.541 113.155C208.165 113.476 209.227 115.031 208.912 116.628C208.598 118.225 207.027 119.259 205.403 118.937L139.982 105.983C138.357 105.662 137.296 104.107 137.611 102.511Z" fill="#EDF0F4"/>
<path d="M131.629 131.97C132 130.083 133.793 128.848 135.632 129.212L166.719 135.367C168.558 135.731 169.749 137.557 169.376 139.444C169.005 141.331 167.212 142.565 165.373 142.201L134.287 136.046C132.447 135.682 131.257 133.857 131.629 131.97Z" fill="#EDF0F4"/>
<path d="M219.909 118.585C220.223 116.988 221.793 115.954 223.414 116.275L243.232 120.199C244.853 120.52 245.913 122.075 245.598 123.671C245.284 125.268 243.714 126.302 242.093 125.981L222.275 122.057C220.653 121.736 219.594 120.182 219.909 118.585Z" fill="#EDF0F4"/>
<path d="M182.397 142.15C182.769 140.263 184.56 139.028 186.397 139.392L237.413 149.493C239.251 149.857 240.439 151.682 240.068 153.568C239.695 155.456 237.905 156.691 236.067 156.327L185.051 146.226C183.214 145.862 182.025 144.037 182.397 142.15Z" fill="#EDF0F4"/>
<path d="M134.404 117.513C134.719 115.916 136.295 114.884 137.924 115.206L195.461 126.598C197.09 126.921 198.156 128.477 197.842 130.074C197.527 131.67 195.951 132.703 194.322 132.381L136.786 120.988C135.156 120.666 134.09 119.11 134.404 117.513Z" fill="#EDF0F4"/>
<path d="M206.014 131.444C206.328 129.847 207.898 128.813 209.519 129.134L240.347 135.238C241.969 135.559 243.028 137.114 242.713 138.71C242.399 140.307 240.829 141.341 239.208 141.02L208.38 134.917C206.759 134.595 205.7 133.041 206.014 131.444Z" fill="#EDF0F4"/>
<path d="M171.656 33.8018C172.948 27.2564 179.282 22.9943 185.803 24.2818L233.621 33.7247C240.141 35.0123 244.379 41.3624 243.087 47.9073L240.864 59.1662L169.433 45.0602L171.656 33.8018Z" fill="#282D57"/>
<path d="M226.265 20.1482C224.69 28.1253 216.946 33.3152 208.969 31.7401C200.992 30.1645 195.802 22.4209 197.377 14.4438C198.953 6.46673 206.696 1.27704 214.673 2.85232C222.65 4.42761 227.84 12.1713 226.265 20.1482ZM205.537 16.0553C204.852 19.5256 207.109 22.8947 210.58 23.58C214.051 24.2653 217.419 22.0076 218.104 18.537C218.79 15.0666 216.532 11.6977 213.062 11.0124C209.591 10.327 206.222 12.5848 205.537 16.0553Z" fill="#282D57"/>
<path d="M129.798 138.826C120.246 158.176 96.8152 166.119 77.4647 156.567C58.1147 147.014 50.1719 123.584 59.724 104.233C69.2762 84.8834 92.7068 76.9406 112.057 86.4927C131.407 96.0448 139.35 119.475 129.798 138.826Z" fill="#D8DCDD" fill-opacity="0.8"/>
<path fill-rule="evenodd" clip-rule="evenodd" d="M143.209 145.846C129.927 172.751 97.3495 183.795 70.4449 170.513C43.5397 157.231 32.4961 124.654 45.7776 97.7489C59.0591 70.8437 91.6371 59.8001 118.542 73.0816C145.447 86.3631 156.491 118.941 143.209 145.846ZM77.4315 156.36C96.5197 165.783 119.633 157.947 129.056 138.859C138.479 119.771 130.643 96.6578 111.555 87.2347C92.4669 77.8116 69.3538 85.6473 59.9307 104.736C50.5076 123.824 58.3433 146.937 77.4315 156.36Z" fill="#282D57"/>
<path d="M122.916 104.28C114.026 91.4642 100.521 103.184 113.546 108.843C126.57 114.502 127.881 131.166 127.881 131.166C127.881 131.166 131.051 116.007 122.916 104.28Z" fill="white"/>
<path d="M50.0938 150.614C54.759 146.05 62.2301 146.106 66.7808 150.739C71.3315 155.372 71.2383 162.827 66.5725 167.39L20.0401 212.904C15.3748 217.468 7.90371 217.412 3.35304 212.779C-1.19762 208.146 -1.10447 200.691 3.5613 196.128L50.0938 150.614Z" fill="#282D57"/>
</g>
<defs>
<clipPath id="clip0">
<rect width="369.943" height="280" fill="white"/>
</clipPath>
</defs>
</svg>
