<svg width="332" height="300" viewBox="0 0 332 300" fill="none" xmlns="http://www.w3.org/2000/svg">
<g clip-path="url(#clip0)">
<path d="M247.337 162.426C247.337 228.602 193.691 282.249 127.515 282.249C61.3384 282.249 7.69226 228.602 7.69226 162.426C7.69226 96.2497 61.3384 42.6035 127.515 42.6035C193.691 42.6035 247.337 96.2497 247.337 162.426Z" fill="#F87373"/>
<path d="M321.194 123.294C299.157 163.763 248.455 178.722 207.946 156.707C194.197 149.234 183.389 138.463 175.972 125.909C172.243 119.599 169.371 112.838 167.413 105.82C161.791 85.6686 163.704 63.397 174.501 43.5698C196.537 3.10101 247.24 -11.8585 287.749 10.1568C328.257 32.1722 343.231 82.8254 321.194 123.294Z" fill="#4067F0"/>
<path d="M167.413 105.82L144.379 122.16L175.972 125.909C172.243 119.599 169.371 112.838 167.413 105.82Z" fill="#4067F0"/>
<path d="M192.308 63.9053C192.308 60.3107 195.188 57.3965 198.741 57.3965H296.525C300.078 57.3965 302.959 60.3107 302.959 63.9053C302.959 67.5 300.078 70.4142 296.525 70.4142H198.741C195.188 70.4142 192.308 67.5 192.308 63.9053Z" fill="white"/>
<path d="M192.308 85.7988C192.308 82.2041 195.188 79.2899 198.741 79.2899H296.525C300.078 79.2899 302.959 82.2041 302.959 85.7988C302.959 89.3935 300.078 92.3077 296.525 92.3077H198.741C195.188 92.3077 192.308 89.3935 192.308 85.7988Z" fill="white"/>
<path d="M192.308 107.101C192.308 103.506 195.188 100.592 198.741 100.592H296.525C300.078 100.592 302.959 103.506 302.959 107.101C302.959 110.695 300.078 113.609 296.525 113.609H198.741C195.188 113.609 192.308 110.695 192.308 107.101Z" fill="white"/>
<path d="M254.51 166.378C252.77 160.346 248.425 158.694 251.18 157.133C253.934 155.573 256.879 156.17 258.749 157.2C262.647 159.348 264.91 165.346 265.531 169.088C266.228 173.29 264.528 180.448 269.905 180.161C271.32 180.086 276.827 176.965 280.499 174.885C284.171 172.804 288.375 189.54 289.668 196.066C290.962 202.593 282.63 214.815 279.008 217.835C275.386 220.855 270.696 221.577 266.924 221.778C263.151 221.979 257.744 226.979 251.889 232.473C247.206 236.869 241.504 241.664 239.238 243.513C237.807 243.275 233.618 240.986 228.313 233.731C223.008 226.477 224.31 220.754 224.31 220.754C224.31 220.754 241.074 212.619 244.928 208.347C249.392 203.398 250.11 199.12 249.784 193.012C249.458 186.905 251.829 183.586 252.508 182.031C254.194 178.172 256.251 172.409 254.51 166.378Z" fill="#FDCAAD"/>
<path d="M277.518 176.301C281.885 173.097 283.451 173.641 285.214 174.633C286.978 175.625 288.466 180.495 287.477 181.891C286.241 183.636 278.3 188.173 272.613 186.612C268.562 185.499 272.06 180.305 277.518 176.301Z" fill="#FDCAAD"/>
<path d="M281.231 183.355C286.243 180.926 287.725 181.767 289.322 183.097C290.919 184.427 291.513 189.627 290.253 190.855C288.678 192.39 279.802 195.504 274.346 192.87C270.457 190.994 274.965 186.391 281.231 183.355Z" fill="#FDCAAD"/>
<path d="M283.568 191.71C288.58 189.282 290.062 190.122 291.659 191.452C293.256 192.782 293.85 197.982 292.591 199.21C291.015 200.745 282.14 203.859 276.683 201.225C272.795 199.35 277.302 194.746 283.568 191.71Z" fill="#FDCAAD"/>
<path d="M282.183 201.207C287.196 198.778 288.678 199.618 290.275 200.949C291.872 202.279 292.466 207.479 291.205 208.707C289.63 210.241 280.754 213.355 275.298 210.722C271.41 208.846 275.917 204.243 282.183 201.207Z" fill="#FDCAAD"/>
<path d="M270.468 184.746C270.035 183.635 271.704 181.689 272.592 180.854C271.092 181.879 269.766 181.989 269.169 186.851C268.573 191.714 270.556 195.133 272.202 199.768C273.848 204.404 270.686 205.238 272.921 209.314C275.155 213.391 279.733 212.749 283.159 212.881L284.454 210.922C281.354 211.088 274.938 210.863 274.074 208.643C273.209 206.421 278.162 203.701 280.747 202.618C278.87 202.404 274.999 201.508 274.527 199.644C274.054 197.78 276.951 195.579 278.46 194.711C275.256 195.827 272.415 195.034 271.85 193.175C271.398 191.687 274.233 188.324 275.708 186.828C272.478 187.473 271.008 186.134 270.468 184.746Z" fill="#ECA98E"/>
<path d="M133.539 190.167C123.855 179.444 100.566 176.748 91.4746 165.089C81.632 185.556 71.8912 260.351 83.1462 271.998C94.4013 283.645 146.856 297.442 157.583 299.935C168.309 302.428 255.03 232.209 255.03 232.209L239.204 210.749L158.299 250.185C154.104 245.835 143.224 200.889 133.539 190.167Z" fill="#FFD501"/>
<path fill-rule="evenodd" clip-rule="evenodd" d="M7.10059 161.372C20.4207 149.238 43.6905 154.303 43.6905 154.303C48.9243 159.354 67.0391 172.661 80.0657 173.827C93.0923 174.992 92.0722 165.158 92.0722 165.158C109.518 194.006 142.553 255.827 141.39 266.783C140.697 273.314 139.178 279.099 135.914 286.347C134.81 286.376 133.702 286.391 132.592 286.391C63.5325 286.391 7.50236 230.486 7.10059 161.372Z" fill="#FFD501"/>
<path fill-rule="evenodd" clip-rule="evenodd" d="M64.4065 144.825C68.5521 147.788 74.6509 150.986 82.4361 151.892C84.6687 152.153 86.9953 152.097 88.8586 151.927C89.7923 151.841 90.6261 151.725 91.2888 151.601C91.887 151.489 92.5095 151.342 92.8994 151.138L91.7255 148.678C91.7308 148.675 91.7337 148.674 91.7337 148.674C91.7337 148.673 91.6716 148.699 91.5136 148.742C91.3432 148.788 91.113 148.841 90.8261 148.895C90.2539 149.002 89.5 149.108 88.6302 149.187C86.8864 149.346 84.7403 149.394 82.7261 149.159C75.4716 148.315 69.7752 145.333 65.8852 142.553C63.9414 141.164 62.4556 139.83 61.4604 138.85C60.9633 138.359 60.5894 137.958 60.3432 137.684C60.2201 137.547 60.129 137.441 60.0704 137.372C60.0409 137.337 60.0196 137.312 60.0065 137.296L59.9935 137.28L59.9917 137.278C59.9923 137.279 59.9923 137.279 58.99 138.166C57.9876 139.053 57.9876 139.054 57.9882 139.054L57.9894 139.056L57.9917 139.059L57.9988 139.067L58.0231 139.097C58.0432 139.121 58.0722 139.156 58.1089 139.199C58.1829 139.286 58.2906 139.411 58.4302 139.567C58.7107 139.879 59.1225 140.321 59.6622 140.853C60.7403 141.915 62.3326 143.343 64.4065 144.825Z" fill="#ECA98E"/>
<path d="M129.928 56.6911C126.943 49.2414 117.167 42.9586 115.213 42.6035C112.282 43.9337 111.327 50.3592 110.474 50.5716C109.621 50.7846 85.7787 75.4923 73.9645 87.8195C73.9645 87.8195 83.1213 106.972 92.5118 124.95C94.3225 128.416 85.7728 161.385 87.5367 164.618C89.868 168.891 100.416 163.246 105.074 170.911C107.551 174.986 120.334 147.657 120.334 147.657C120.334 147.657 116.583 161.609 110.474 173.373C115.487 171.458 129.03 156.411 132.593 149.298C137.247 140.005 137.389 136.192 132.593 127.412C127.796 118.632 132.859 102.719 137.656 92.8746C142.453 83.0308 133.659 66.003 129.928 56.6911Z" fill="#111320"/>
<path d="M90.4693 177.161L93.4912 143.462L53.0622 123.077L48.5208 157.981C51.2811 163.132 60.4355 173.648 71.7628 174.501C83.0894 175.353 88.7776 180.092 90.4693 177.161Z" fill="#FDCAAD"/>
<path d="M121.827 85.2195C121.827 75.6532 126.077 71.1361 118.905 52.2698C111.732 33.4035 92.3397 32.1805 77.4639 28.3538C58.8687 23.5706 42.4326 34.5947 32.0385 48.5491C21.9438 62.1018 18.4249 70.9598 19.8184 81.7651C21.9438 98.2402 21.1468 100.101 27.7882 111.261C31.9314 118.224 42.9302 118.17 42.9302 118.17C42.9302 118.17 41.9202 118.17 62.3219 137.302C87.8237 161.218 106.419 145.54 114.654 131.988C122.889 118.435 121.827 97.1775 121.827 85.2195Z" fill="#FDCAAD"/>
<path d="M84.8313 149.14C89.9633 149.705 93.1325 148.354 94.0828 147.882C91.9059 149.984 85.2124 153.816 75.852 152.328C66.4917 150.84 59.2538 139.308 56.8047 133.728C56.8047 133.728 66.6556 147.134 84.8313 149.14Z" fill="#ECA98E"/>
<path d="M34.6284 100.626C34.5213 102.016 34.9331 102.856 35.0751 103.108C34.4627 102.543 33.3177 100.778 33.6414 98.2384C33.965 95.6988 37.1331 93.6254 38.6763 92.9065C38.6763 92.9065 35.0082 95.7041 34.6284 100.626Z" fill="#ECA98E"/>
<path d="M80.7515 182.491C73.9876 181.281 57.2923 174.033 49.1479 167.307C61.8787 177.821 81.2054 186.592 88.9444 186.873C96.6841 187.154 95.9852 180.412 95.9959 174.257C93.6361 183.805 87.516 183.702 80.7515 182.491Z" fill="#FFA001"/>
<path d="M78.1066 96.4497C78.1066 98.4107 79.6959 100 81.6569 100C83.6178 100 85.2072 98.4107 85.2072 96.4497C85.2072 94.4888 83.6178 92.8994 81.6569 92.8994C79.6959 92.8994 78.1066 94.4888 78.1066 96.4497Z" fill="#1E1D3D"/>
<path d="M110.059 96.4497C110.059 98.4107 111.649 100 113.609 100C115.57 100 117.16 98.4107 117.16 96.4497C117.16 94.4888 115.57 92.8994 113.609 92.8994C111.649 92.8994 110.059 94.4888 110.059 96.4497Z" fill="#1E1D3D"/>
<path d="M117.752 88.2462C112.315 83.5036 105.917 89.3491 105.917 89.3491C105.917 89.3491 111.966 86.7006 117.752 88.2462Z" fill="#1E1D3D"/>
<path d="M73.9645 90.3923C80.6526 84.7012 86.3905 91.716 86.3905 91.716C86.3905 91.716 80.0396 88.5379 73.9645 90.3923Z" fill="#1E1D3D"/>
<path d="M117.588 77.6675C112.194 67.4994 104.011 75.4817 105.354 76.6361C106.698 77.7905 111.878 74.3414 117.588 77.6675Z" fill="#1E1D3D"/>
<path d="M70.6154 77.2615C76.1562 67.3775 83.3745 73.7177 82.9822 76.1521C82.5899 78.587 76.139 74.1586 70.6154 77.2615Z" fill="#1E1D3D"/>
<path d="M104.729 109.886C104.953 103.985 97.0711 89.0325 94.0829 82.8402C95.2036 86.9379 102.488 106.838 102.488 109.067C102.488 112.021 97.7249 112.436 95.764 111.525C98.3787 113.347 104.505 115.788 104.729 109.886Z" fill="#1E1D3D"/>
<path d="M86.1609 116.568C89.7935 123.836 99.2024 121.436 101.183 120.621C98.3532 125.51 91.8035 124.479 89.1231 123.193C86.4432 121.907 85.1035 118.05 86.1609 116.568Z" fill="#1E1D3D"/>
<path d="M123.16 51.3728C122.454 46.3527 113.527 31.6846 105.046 26.6444C93.9314 20.039 70.0515 10.1825 47.3562 22.2973C20.6272 36.5651 19.6852 41.3325 17.039 59.0355C14.3923 76.7379 -1.21896 80.9467 3.54435 98.9142C7.57808 114.129 -0.265123 110.38 0.00706631 127.469C0.279256 144.558 8.98695 137.766 2.18399 155.969C10.0769 152.199 12.5177 146.982 13.1485 145.191C12.4242 147.677 10.0639 156.811 13.3408 160.316C16.5154 162.438 16.3343 156.512 25.5864 163.305C34.8384 170.097 36.2319 172.814 50.6219 167.924C50.6219 167.924 47.9006 155.698 50.6219 144.558C53.3426 133.419 53.3426 123.638 53.3426 123.638L44.0325 116.107C41.1213 115.667 36.5686 114.916 34.2408 111.087C29.7414 103.689 26.5662 89.3314 34.2408 88.5899C40.8035 87.9562 44.0325 88.5899 47.3562 92.9373C50.384 88.5899 54.0059 95.516 58.3603 84.1047C62.7142 72.6941 62.3597 64.0935 84.1296 65.4521C105.899 66.8101 100.879 36.5077 122.139 60.9497C126.266 65.6947 120.426 53.3107 123.16 51.3728Z" fill="#111320"/>
<path d="M33.3017 151.572C28.4219 159.31 29.7278 163.704 31.787 167.869L27.6556 164.662C25.9201 159.201 29.8479 155.46 33.3017 151.572Z" fill="#434266"/>
<path d="M68.0989 60.4515C80.6995 53.868 88.9273 61.8225 100.744 41.9467C87.7255 48.4704 95.5456 38.0503 95.5456 38.0503C95.5456 38.0503 84.6391 50.771 68.0989 60.4515C67.4906 60.7692 66.8717 61.1207 66.2421 61.5112C66.8687 61.1627 67.4876 60.8089 68.0989 60.4515Z" fill="#434266"/>
<path d="M32.8261 79.9124C41.19 74.0071 40.748 68.7728 50.8226 71.3562C35.074 67.3177 33.4326 79.326 26.4012 82.3852C19.3705 85.4444 18.8705 90.7574 21.4214 96.316C19.5574 86.6905 24.4622 85.8178 32.8261 79.9124Z" fill="#434266"/>
<path d="M122.531 254.947C125.38 243.767 125.758 220.575 121.169 203.418C128.342 230.237 129.176 249.44 124.236 261.458C119.296 273.476 110.291 278.057 99.9343 281.155C110.472 276.173 119.683 266.128 122.531 254.947Z" fill="#FFA001"/>
</g>
<defs>
<clipPath id="clip0">
<rect width="331.361" height="300" fill="white"/>
</clipPath>
</defs>
</svg>
