<svg width="450" height="269" viewBox="0 0 450 269" fill="none" xmlns="http://www.w3.org/2000/svg">
<g clip-path="url(#clip0)">
<path d="M10.4396 266.758C10.4396 265.696 11.3006 264.835 12.3627 264.835H204.121C205.183 264.835 206.044 265.696 206.044 266.758C206.044 267.82 205.183 268.681 204.121 268.681H12.3627C11.3006 268.681 10.4396 267.82 10.4396 266.758Z" fill="#D8DCDD"/>
<path d="M71.806 150.235C65.6076 152.338 62.8994 164.713 62.4368 171.069C66.717 167.303 76.7335 162.665 83.9516 165.773C91.1692 168.88 103.383 161.77 108.242 159.769C98.8725 155.414 93.6675 142.819 71.806 150.235Z" fill="#D8DCDD"/>
<path d="M25.3291 223.676H83.8901V231.769H25.3291V223.676Z" fill="#D8DCDD"/>
<path d="M31.7072 231.769H77.5121L71.9599 267.033H38.3006L31.7072 231.769Z" fill="#D8DCDD"/>
<path d="M63.5373 198.094C58.6692 189.41 60.0604 180.726 67.7098 181.768C75.3598 182.81 84.0527 176.21 91.7027 195.315C93.7087 200.325 94.3686 211.063 93.0939 217.895C78.1417 216.853 67.4318 205.042 63.5373 198.094Z" fill="#D8DCDD"/>
<path d="M59.1505 178.168C62.2725 168.476 63.3131 155.669 52.5593 154.63C43.2356 147.415 35.4966 155.669 34.1735 171.245C32.7626 187.859 41.9213 193.166 43.1933 199.974C55.2922 191.666 56.717 185.721 59.1505 178.168Z" fill="#D8DCDD"/>
<path d="M3.29675 175.116C7.43906 165.686 5.92016 149.378 21.9369 145.79C24.4682 145.79 33.6726 143.03 39.8863 148.205C46.0995 153.38 41.6121 155.796 31.2566 166.146C22.972 174.426 12.1566 174.656 3.29675 175.116Z" fill="#D8DCDD"/>
<path fill-rule="evenodd" clip-rule="evenodd" d="M55.8072 204.025C55.8072 190.052 61.0682 173.791 63.6956 167.404L64.6572 167.797C62.0517 174.13 56.8462 190.246 56.8462 204.025C56.8462 210.946 57.2022 216.07 57.6451 219.659C58.0907 223.267 58.6193 225.283 58.9434 226.018L57.9918 226.435C57.6022 225.551 57.0605 223.405 56.6138 219.786C56.1649 216.147 55.8072 210.98 55.8072 204.025ZM50.8121 226.216L51.8824 173.487L52.9215 173.508L51.8511 226.237L50.8121 226.216ZM62.011 206.224C61.955 212.675 62.2572 220.016 62.5544 224.807L61.5171 224.871C61.2193 220.065 60.9154 212.697 60.972 206.215C61.0006 202.975 61.1187 199.944 61.3753 197.56C61.5033 196.369 61.6676 195.326 61.8759 194.493C62.0786 193.686 62.3429 192.991 62.722 192.575L63.4901 193.273C63.2989 193.482 63.0825 193.953 62.8841 194.744C62.6918 195.512 62.5341 196.502 62.4083 197.67C62.1572 200.005 62.039 202.997 62.011 206.224ZM47.6006 223.452C47.6006 219.878 45.9407 202.826 45.1061 194.712L46.1396 194.606C46.9698 202.681 48.6401 219.809 48.6401 223.452V226.566L47.6006 226.566V223.452Z" fill="#D8DCDD"/>
<path d="M170.435 99.4505C170.435 93.3813 175.355 88.4615 181.424 88.4615H423.622C429.691 88.4615 434.611 93.3813 434.611 99.4505V253.487H170.435V99.4505Z" fill="#4067F0"/>
<path d="M181.301 104.143C181.301 101.108 183.761 98.6483 186.796 98.6483H418.251C421.285 98.6483 423.745 101.108 423.745 104.143V241.942H181.301V104.143Z" fill="white"/>
<path d="M155.495 257.438C155.495 263.508 160.414 268.427 166.484 268.427H438.563C444.632 268.427 449.552 263.508 449.552 257.438V250.091H155.495V257.438Z" fill="#4067F0"/>
<path d="M267.737 250.854C267.737 253.359 269.768 255.389 272.272 255.389H332.928C335.433 255.389 337.463 253.359 337.463 250.854H267.737Z" fill="#1F3C9F"/>
<path fill-rule="evenodd" clip-rule="evenodd" d="M365.487 116.309C371.437 117.837 383.49 132.009 390.812 147.937C398.134 163.865 419.001 209.434 421.006 215.966C423.012 222.498 421.43 227.062 413.472 232.42C410.643 234.325 404.286 237.66 396.233 241.758H342.007L377.214 210.141C373.319 203.701 364.114 187.953 358.453 176.491C356.323 172.18 354.269 168.608 352.471 165.482C348.294 158.219 345.5 153.36 346.355 147.218C347.579 138.431 351.925 112.023 365.487 116.309Z" fill="#F87373"/>
<path d="M1.50671 9.04192C1.50671 4.88043 4.88023 1.50697 9.04177 1.50697H198.561C202.722 1.50697 206.096 4.88049 206.096 9.04192V150.955C206.096 155.116 202.722 158.49 198.561 158.49H9.04177C4.88023 158.49 1.50671 155.116 1.50671 150.955V9.04192Z" fill="white"/>
<path fill-rule="evenodd" clip-rule="evenodd" d="M9.04176 0H198.561C203.555 0 207.603 4.04819 207.603 9.04192V150.955C207.603 155.948 203.555 159.997 198.561 159.997H9.04176C4.04819 159.997 0 155.948 0 150.955V9.04192C0 4.04819 4.04819 0 9.04176 0ZM9.04176 1.50698C4.8805 1.50698 1.50698 4.88049 1.50698 9.04192V150.955C1.50698 155.116 4.8805 158.49 9.04176 158.49H198.561C202.723 158.49 206.096 155.116 206.096 150.955V9.04192C206.096 4.88049 202.723 1.50698 198.561 1.50698H9.04176Z" fill="#D8DCDD"/>
<path d="M16.0642 20.1725C16.0642 16.011 19.4378 12.6374 23.5994 12.6374H182.824C186.985 12.6374 190.359 16.011 190.359 20.1725V25.5615C190.359 29.7225 186.985 33.0961 182.824 33.0961H23.5994C19.4378 33.0961 16.0642 29.7225 16.0642 25.5615V20.1725Z" fill="#ECF0F3"/>
<path d="M16.0642 106.436C16.0642 102.275 19.4378 98.9011 23.5994 98.9011H182.824C186.985 98.9011 190.359 102.275 190.359 106.436V111.825C190.359 115.986 186.985 119.36 182.824 119.36H23.5994C19.4378 119.36 16.0642 115.986 16.0642 111.825V106.436Z" fill="#ECF0F3"/>
<path d="M16.0642 48.1066C16.0642 43.9451 19.4378 40.5714 23.5994 40.5714H182.824C186.985 40.5714 190.359 43.9451 190.359 48.1066V53.889C190.359 58.0506 186.985 61.4242 182.824 61.4242H23.5994C19.4378 61.4242 16.0642 58.0506 16.0642 53.889V48.1066Z" fill="#ECF0F3"/>
<path d="M16.0642 134.37C16.0642 130.209 19.4378 126.835 23.5994 126.835H182.824C186.985 126.835 190.359 130.209 190.359 134.37V140.153C190.359 144.314 186.985 147.688 182.824 147.688H23.5994C19.4378 147.688 16.0642 144.314 16.0642 140.153V134.37Z" fill="#ECF0F3"/>
<path d="M16.0642 76.4341C16.0642 72.2725 19.4378 68.8989 23.5994 68.8989H182.824C186.985 68.8989 190.359 72.2725 190.359 76.4341V82.6099C190.359 86.7714 186.985 90.145 182.824 90.145H23.5994C19.4378 90.145 16.0642 86.7714 16.0642 82.6099V76.4341Z" fill="#ECF0F3"/>
<path d="M28.261 79.9154C28.261 79.0462 28.9654 78.3418 29.8346 78.3418H80.9819C81.8511 78.3418 82.5555 79.0462 82.5555 79.9154C82.5555 80.7846 81.8511 81.4896 80.9819 81.4896H29.8346C28.9654 81.4896 28.261 80.7846 28.261 79.9154Z" fill="#D8DCDD"/>
<path d="M28.4264 51.2011C28.4264 50.4082 29.0693 49.7654 29.8621 49.7654H57.8588C58.6517 49.7654 59.2945 50.4082 59.2945 51.2011C59.2945 51.994 58.6517 52.6368 57.8588 52.6368H29.8621C29.0693 52.6368 28.4264 51.994 28.4264 51.2011Z" fill="#D8DCDD"/>
<path d="M28.4264 137.465C28.4264 136.672 29.0693 136.029 29.8621 136.029H57.8588C58.6517 136.029 59.2945 136.672 59.2945 137.465C59.2945 138.258 58.6517 138.901 57.8588 138.901H29.8621C29.0693 138.901 28.4264 138.258 28.4264 137.465Z" fill="#D8DCDD"/>
<path d="M64.6786 51.2011C64.6786 50.4082 65.3214 49.7654 66.1143 49.7654H121.389C122.182 49.7654 122.825 50.4082 122.825 51.2011C122.825 51.994 122.182 52.6368 121.389 52.6368H66.1143C65.3214 52.6368 64.6786 51.994 64.6786 51.2011Z" fill="#D8DCDD"/>
<path d="M28.4264 23.9225C28.4264 23.1297 29.0693 22.4868 29.8621 22.4868H87.6495C88.4429 22.4868 89.0852 23.1297 89.0852 23.9225C89.0852 24.7154 88.4429 25.3582 87.6495 25.3582H29.8621C29.0693 25.3582 28.4264 24.7154 28.4264 23.9225Z" fill="#D8DCDD"/>
<path d="M28.4264 110.186C28.4264 109.393 29.0693 108.751 29.8621 108.751H87.6495C88.4429 108.751 89.0852 109.393 89.0852 110.186C89.0852 110.979 88.4429 111.622 87.6495 111.622H29.8621C29.0693 111.622 28.4264 110.979 28.4264 110.186Z" fill="#D8DCDD"/>
<path d="M280.763 92.2791C280.004 88.8654 279.972 64.7797 280.051 53.1637C281.476 48.3434 285.749 37.7544 291.446 33.9615C298.568 29.2203 318.034 35.1467 322.781 37.5176C327.529 39.8885 328.717 66.9132 331.09 66.6764C333.464 66.4396 336.313 68.0989 336.075 75.2104C335.886 80.9 329.863 81.5544 326.935 81.2385V126.981C326.397 131.286 325.348 150.526 304.069 145.46C297.211 143.827 294.924 120.818 294.924 115.471L296.26 104.379C296.26 104.379 295.184 104.379 291.446 103.658C284.418 102.304 281.713 96.5461 280.763 92.2791Z" fill="#F7CBB2"/>
<path d="M307.451 106.929C313.557 105.921 319.201 98.3747 319.876 94.3214C306.028 107.104 296.234 103.779 296.234 103.779C297.653 105.203 301.344 107.938 307.451 106.929Z" fill="#ECA98E"/>
<path d="M309.88 69.3275C309.88 70.4467 308.973 71.3538 307.853 71.3538C306.734 71.3538 305.826 70.4467 305.826 69.3275C305.826 68.2082 306.734 67.3005 307.853 67.3005C308.973 67.3005 309.88 68.2082 309.88 69.3275Z" fill="#1E1D3D"/>
<path d="M290.29 69.3275C290.29 70.4467 289.382 71.3538 288.263 71.3538C287.144 71.3538 286.236 70.4467 286.236 69.3275C286.236 68.2082 287.144 67.3005 288.263 67.3005C289.382 67.3005 290.29 68.2082 290.29 69.3275Z" fill="#1E1D3D"/>
<path fill-rule="evenodd" clip-rule="evenodd" d="M296.147 109.799C295.674 114.639 294.777 123.813 303.063 125.405L308.602 143.246L319.486 125.405C327.032 122.447 327.032 107.121 327.032 107.121C327.535 107.999 328.974 109.53 332.289 110.433C334.125 110.933 338.527 111.339 343.265 111.776C349.221 112.326 355.705 112.925 358.282 113.819C397.597 127.476 373.34 200.627 359.321 241.758H269.581C262.792 203.274 250.054 130.929 256.809 125.405C264.529 119.092 283.888 114.136 290.286 112.498C291.493 112.188 292.239 111.998 292.359 111.938C292.961 111.637 295.175 109.038 296.305 107.659C296.305 108.18 296.233 108.918 296.147 109.799Z" fill="#F87373"/>
<path d="M284.75 64.9423C288.163 60.611 292.18 65.95 292.18 65.95C292.18 65.95 288.382 63.5313 284.75 64.9423Z" fill="#1E1D3D"/>
<path d="M310.419 65.8698C306.42 62.6214 302.989 66.6258 302.989 66.6258C302.989 66.6258 306.786 64.8115 310.419 65.8698Z" fill="#1E1D3D"/>
<path d="M284.563 58.306C287.93 52.361 292.886 56.9467 292.057 57.6264C291.227 58.306 288.079 56.3357 284.563 58.306Z" fill="#1E1D3D"/>
<path d="M312.645 58.306C309.277 52.361 304.91 56.1626 305.151 57.6264C305.391 59.0896 309.295 56.4352 312.645 58.306Z" fill="#1E1D3D"/>
<path d="M292.859 77.8473C292.731 74.2198 297.23 65.028 298.936 61.2214C298.296 63.7407 294.138 75.9736 294.138 77.3434C294.138 79.1593 296.857 79.4148 297.977 78.8549C296.484 79.9747 292.987 81.4747 292.859 77.8473Z" fill="#1E1D3D"/>
<path d="M303.457 82.1621C301.383 86.6302 296.013 85.1549 294.882 84.6538C296.497 87.6588 299.069 90.1275 301.671 88.783C304.274 87.4379 304.06 83.0731 303.457 82.1621Z" fill="#1E1D3D"/>
<path fill-rule="evenodd" clip-rule="evenodd" d="M330.556 126.537C329.169 130.595 326.627 135.381 325.582 136.759L325.286 137.151L325.099 136.699C324.668 135.658 323.067 132.726 322.406 131.435C321.746 130.143 321.165 129.16 320.647 128.577C320.389 128.286 320.157 128.038 319.962 127.849C319.885 127.774 319.817 127.711 319.757 127.658L316.613 132.107L316.651 131.701L319.581 126.886L319.821 127.026C319.97 127.112 320.156 127.273 320.358 127.469C320.565 127.671 320.807 127.929 321.071 128.226C321.598 128.822 322.221 129.585 322.842 130.397C323.924 131.812 325.018 133.403 325.582 134.524C326.613 133.01 328.224 129.905 329.481 126.229C330.857 122.204 331.793 117.538 331.107 113.56L331.382 112.708C332.497 118.635 331.943 122.48 330.556 126.537Z" fill="#C71F1F"/>
<path fill-rule="evenodd" clip-rule="evenodd" d="M293.615 128.847C295.119 133.356 296.721 137.849 296.721 137.849C296.721 137.849 297.866 132.624 299.111 130.998C299.731 130.19 300.349 129.434 300.87 128.847C301.131 128.554 301.365 128.306 301.561 128.115C301.638 128.04 301.707 127.977 301.767 127.924L304.042 134.21L304.004 133.802L301.945 127.148L301.702 127.288C301.553 127.375 301.366 127.536 301.163 127.734C300.954 127.937 300.71 128.196 300.444 128.495C299.913 129.093 299.285 129.86 298.66 130.676C297.571 132.098 296.721 132.712 296.721 132.712C296.721 132.712 295.981 129.299 294.715 125.605C293.329 121.559 292.337 117.562 293.027 113.565L292.751 112.708C291.628 118.665 292.252 124.76 293.615 128.847Z" fill="#C71F1F"/>
<path d="M343.782 42.4758C344.583 50.1879 337.996 62.7593 335.102 68.8983C335.102 68.8983 329.135 62.7593 326.435 72.9016V61.6918C326.435 46.4791 320.986 41.4082 311.776 39.2731C302.765 37.1841 305.267 45.6786 289.264 48.0802C284.555 48.7874 282.484 53.6852 279.771 60.3577C278.867 59.8236 277.397 57.8231 274.359 55.0472C271.321 52.2714 271.454 48.1692 272.719 45.4115C272.719 45.4115 270.266 40.3126 271.635 34.7357C273.003 29.1582 284.913 18.4275 304.453 17.1209C320.703 16.0341 328.502 25.3055 331.305 30.7324C334.379 30.2874 343.027 35.2165 343.782 42.4758Z" fill="#1E1D3D"/>
<path d="M123.87 191.873C126.877 189.045 137.401 185.119 139.692 183.662L135.585 175.292C133.876 176.321 120.142 184.843 118.94 184.602C115.631 183.938 110.445 182.366 108.173 182.017C105.901 181.668 103.832 184.823 104.841 185.537C106.519 186.725 122.272 193.376 123.87 191.873Z" fill="#F7CBB2"/>
<path d="M121.543 190.377C123.293 190.237 128.802 188.257 131.337 187.284L126.641 182.291C124.762 182.96 119.287 182.747 118.156 182.272C115.045 180.964 110.275 178.393 108.117 177.599C105.959 176.805 103.306 179.486 104.152 180.387C105.561 181.885 119.356 190.552 121.543 190.377Z" fill="#F7CBB2"/>
<path d="M126.923 187.912C125.604 187.693 123.443 184.158 122.527 182.418L133.242 186.813C131.685 187.271 128.242 188.132 126.923 187.912Z" fill="#ECA98E"/>
<path d="M133.54 176.364C135.28 175.823 140.079 178.802 142.26 180.359L126.52 181.576C128.135 180.064 131.799 176.905 133.54 176.364Z" fill="#ECA98E"/>
<path d="M130.83 172.237C130.865 171.074 130.907 164.48 130.922 161.329C131.574 161.187 133.063 161.104 133.814 161.903C134.753 162.902 135.779 165.343 136.013 169.244C136.173 171.916 138.316 173.194 138.316 173.194C138.316 173.194 151.894 168.423 155.171 169.106C159.266 169.959 162.683 177.096 164.797 179.342C166.487 181.14 172.467 184.831 175.246 186.453C174.575 189.341 169.551 195.571 167.122 198.325C164.368 195.897 158.241 190.681 155.764 189.248C152.667 187.455 142.434 189.08 136.636 188.417C130.837 187.754 126.771 185.931 123.69 183.654C120.608 181.377 115.238 174.666 113.36 172.669C111.482 170.671 117.559 170.131 119.218 171.394C120.964 172.724 125.117 176.668 127.48 178.68C129.37 180.29 133.894 180.332 135.92 180.152C134.208 177.998 130.794 173.399 130.83 172.237Z" fill="#F7CBB2"/>
<path d="M149.725 174.176C151.542 174.316 155.416 177.417 156.868 179.67C156.868 179.67 152.747 177.747 148.695 176.099C144.642 174.451 140.246 174.8 140.246 174.8C144.505 174.176 147.908 174.035 149.725 174.176Z" fill="#ECA98E"/>
<path d="M280.964 164.186C289.814 149.054 294.514 131.054 292.354 125.303C288.302 116.594 264.25 121.173 256.35 125.209C248.449 129.244 246.695 140.036 239.015 154.049C232.871 165.259 225.248 181.83 222.204 188.715L168.784 176.296C168.784 176.296 163.748 181.723 161.89 185.44C160.031 189.158 157.574 196.631 157.574 196.631C181.556 207.908 215.789 227.748 224.742 231.194C233.696 234.642 238.342 233.32 242.543 227.932C246.745 222.543 272.113 179.318 280.964 164.186Z" fill="#F87373"/>
<path d="M263.38 205.887C263.38 205.887 260.701 183.329 263.38 153.097C262.416 159.899 259.06 169.492 260.035 185.069C261.008 200.645 263.38 205.887 263.38 205.887Z" fill="#C71F1F"/>
<path d="M351.543 150.866C351.543 150.866 357.167 172.876 370.554 200.114C367.205 194.116 359.04 187.103 354.339 172.22C349.638 157.338 351.543 150.866 351.543 150.866Z" fill="#C71F1F"/>
<path d="M384.843 207.755C384.843 207.755 364.068 219.237 343.132 241.209C347.604 235.994 353.428 227.308 365.77 217.756C378.112 208.203 384.843 207.755 384.843 207.755Z" fill="#C71F1F"/>
</g>
<defs>
<clipPath id="clip0">
<rect width="450" height="268.681" fill="white"/>
</clipPath>
</defs>
</svg>
