<svg width="450" height="260" viewBox="0 0 450 260" fill="none" xmlns="http://www.w3.org/2000/svg">
<g clip-path="url(#clip0)">
<path d="M98.6141 86.4482C89.6915 89.4816 85.7937 107.335 85.1279 116.505C91.288 111.071 105.707 104.38 116.096 108.863C126.486 113.346 144.067 103.09 151.06 100.203C137.574 93.9201 130.082 75.75 98.6141 86.4482Z" fill="#D8DCDD"/>
<path d="M31.7142 192.398H116.007V204.074H31.7142V192.398Z" fill="#D8DCDD"/>
<path d="M40.8949 204.074H106.827L98.8352 254.947H50.3852L40.8949 204.074Z" fill="#D8DCDD"/>
<path d="M86.7117 155.493C79.7047 142.964 81.7066 130.436 92.7181 131.94C103.73 133.443 116.242 123.921 127.254 151.484C130.141 158.712 131.091 174.202 129.256 184.058C107.733 182.555 92.3174 165.516 86.7117 155.493Z" fill="#D8DCDD"/>
<path d="M80.3969 126.745C84.891 112.763 86.3889 94.287 70.9098 92.7891C57.4893 82.3808 46.3495 94.2869 44.4451 116.758C42.414 140.727 55.597 148.383 57.4278 158.204C74.8437 146.22 76.8944 137.642 80.3969 126.745Z" fill="#D8DCDD"/>
<path d="M0 122.343C5.96237 108.738 3.77618 85.2122 26.8306 80.0359C30.4743 80.0359 43.7242 76.0542 52.6675 83.5203C61.6113 90.9859 55.1518 94.4698 40.2461 109.402C28.3212 121.347 12.7528 121.679 0 122.343Z" fill="#D8DCDD"/>
<path fill-rule="evenodd" clip-rule="evenodd" d="M75.5847 164.049C75.5847 143.89 83.1573 120.431 86.9396 111.217L88.3235 111.784C84.573 120.921 77.0804 144.171 77.0804 164.049C77.0804 174.033 77.593 181.426 78.2306 186.603C78.8714 191.808 79.6325 194.716 80.099 195.777L78.7294 196.379C78.1686 195.103 77.3889 192.007 76.746 186.786C76.0999 181.537 75.5847 174.082 75.5847 164.049ZM68.3947 196.063L69.9356 119.994L71.4308 120.024L69.89 196.093L68.3947 196.063ZM84.5147 167.22C84.4336 176.527 84.8693 187.118 85.2965 194.03L83.8039 194.122C83.3751 187.188 82.9378 176.56 83.0189 167.208C83.0598 162.533 83.2304 158.161 83.5993 154.722C83.7838 153.003 84.0202 151.498 84.3202 150.298C84.6117 149.132 84.9917 148.13 85.5382 147.531L86.6433 148.538C86.3682 148.839 86.0571 149.518 85.7714 150.66C85.4947 151.767 85.2674 153.196 85.0866 154.881C84.7251 158.249 84.5555 162.565 84.5147 167.22ZM63.7723 192.074C63.7723 186.919 61.3824 162.318 60.1808 150.613L61.6686 150.46C62.8644 162.109 65.2681 186.82 65.2681 192.074V196.567L63.7723 196.568V192.074Z" fill="#D8DCDD"/>
<path d="M210.744 93.9398C211.686 89.7037 211.725 59.8182 211.627 45.4044C209.86 39.4235 204.558 26.2844 197.489 21.5783C188.652 15.6949 164.498 23.0486 158.607 25.9903C152.715 28.932 151.242 62.4652 148.297 62.171C145.352 61.8768 141.817 63.936 142.112 72.7606C142.347 79.8207 149.82 80.6321 153.453 80.2399V136.999C154.121 142.34 153.426 156.306 179.829 150.02C188.339 147.994 190.926 122.07 191.515 120.305V108.953C191.515 108.953 192.851 108.953 197.489 108.059C206.209 106.378 209.565 99.2343 210.744 93.9398Z" fill="#F7CBB2"/>
<path d="M177.629 112.118C170.052 110.866 163.049 101.503 162.211 96.4738C179.394 112.335 191.548 108.209 191.548 108.209C189.785 109.976 185.205 113.37 177.629 112.118Z" fill="#ECA98E"/>
<path d="M176.46 65.461C176.46 66.8497 177.586 67.9754 178.974 67.9754C180.363 67.9754 181.489 66.8497 181.489 65.461C181.489 64.0723 180.363 62.9465 178.974 62.9465C177.586 62.9465 176.46 64.0723 176.46 65.461Z" fill="#1E1D3D"/>
<path d="M200.767 65.461C200.767 66.8497 201.893 67.9754 203.282 67.9754C204.671 67.9754 205.797 66.8497 205.797 65.461C205.797 64.0723 204.671 62.9465 203.282 62.9465C201.893 62.9465 200.767 64.0723 200.767 65.461Z" fill="#1E1D3D"/>
<path d="M206.074 61.2784C201.839 55.9039 196.854 62.5288 196.854 62.5288C196.854 62.5288 201.567 59.5272 206.074 61.2784Z" fill="#1E1D3D"/>
<path d="M173.945 61.1703C178.908 57.1399 183.165 62.1079 183.165 62.1079C183.165 62.1079 178.453 59.8574 173.945 61.1703Z" fill="#1E1D3D"/>
<path d="M206.028 51.785C201.849 44.409 195.7 50.0984 196.729 50.9417C197.759 51.785 201.665 49.3399 206.028 51.785Z" fill="#1E1D3D"/>
<path d="M171.183 51.785C175.362 44.4085 180.78 49.1258 180.482 50.9417C180.184 52.7576 175.34 49.464 171.183 51.785Z" fill="#1E1D3D"/>
<path d="M195.735 76.032C195.894 71.5309 190.311 60.1256 188.194 55.4025C188.988 58.5281 194.148 73.7067 194.148 75.4071C194.148 77.6597 190.774 77.9767 189.385 77.2823C191.237 78.6715 195.576 80.533 195.735 76.032Z" fill="#1E1D3D"/>
<path d="M182.584 81.3864C185.157 86.93 191.821 85.0993 193.224 84.4781C191.219 88.2069 185.517 89.7445 183.619 88.7634C181.721 87.7829 181.835 82.5164 182.584 81.3864Z" fill="#1E1D3D"/>
<path d="M178.494 135.329C190.626 132.993 191.515 117.832 191.515 113.627C192.915 115.34 195.657 118.567 196.404 118.941C197.337 119.408 232.03 123.196 237.247 130.654C244.37 140.838 237.247 165.901 237.247 165.901H109.204C109.204 165.901 90.9075 130.802 111.589 122.173C117.189 119.837 141.809 118.473 146.942 117.072C151.048 115.951 152.831 114.05 153.453 112.96C153.453 112.96 153.453 131.99 162.802 135.663L168.873 147.91L178.494 135.329Z" fill="#F87373"/>
<path fill-rule="evenodd" clip-rule="evenodd" d="M87.7378 147.615C93.6742 130.654 104.169 124.647 108.674 123.763C119.54 135.513 147.525 158.64 172.543 157.155C197.561 155.671 224.663 137.633 235.087 128.799C239.327 128.975 249.398 132.456 255.758 144.965C259.948 153.204 268.331 174.244 275.868 193.162C282.635 210.148 288.034 221.921 289.134 225C293.109 236.131 287.031 248.057 283.055 250.177C279.08 252.297 274.84 255.212 270.599 255.212C266.359 255.212 219.186 255.212 219.186 255.212L144.981 256.537C118.921 256.626 65.7408 256.749 61.5005 256.537C56.3502 256.28 54.8676 244.982 54.063 238.781C54.0397 238.601 54.0858 238.953 54.063 238.781C53.55 234.847 64.6457 206.847 74.5616 181.784C80.0093 168.015 85.1062 155.132 87.7378 147.615ZM92.2431 225C91.2715 225.089 91.077 226.59 104.433 230.83C106.838 231.594 109.168 231.93 111.854 232.421L107.879 191.078L92.2431 225ZM253.903 221.555C252.667 221.201 254.168 222.721 247.808 225.265C243.08 227.156 233.762 228.677 226.606 229.586L238.267 191.608L253.903 221.555Z" fill="#F87373"/>
<path d="M123.738 134.995C123.471 129.386 119.62 125.09 117.728 123.643C117.728 123.643 124.74 130.321 123.07 147.015C123.738 143.008 124.005 140.604 123.738 134.995Z" fill="#C71F1F"/>
<path d="M83.6735 225.055C87.442 223.333 91.9791 225.104 93.777 226.205C93.777 226.205 86.2595 222.583 76.1608 229.797C78.4632 227.839 79.9055 226.778 83.6735 225.055Z" fill="#C71F1F"/>
<path d="M262.947 221.345C259.179 219.623 254.642 221.394 252.844 222.495C252.844 222.495 260.361 218.872 270.46 226.087C268.158 224.129 266.715 223.068 262.947 221.345Z" fill="#C71F1F"/>
<path fill-rule="evenodd" clip-rule="evenodd" d="M149.075 136.268C150.737 141.297 152.515 145.704 153.766 147.411L154.697 148.589L154.92 148.03C155.437 146.739 156.887 144.517 158.368 142.512C159.104 141.515 159.841 140.583 160.46 139.86C160.77 139.498 161.049 139.192 161.282 138.957C161.374 138.865 161.455 138.787 161.527 138.721L168.825 148.03L168.779 147.527L161.571 136.873L161.282 137.046C161.104 137.152 160.881 137.352 160.639 137.595C160.391 137.846 160.101 138.165 159.785 138.534C159.153 139.272 158.406 140.217 157.663 141.224C156.367 142.977 155.056 144.948 154.38 146.337C153.145 144.462 151.215 140.615 149.709 136.059C148.06 131.07 146.939 125.289 147.76 120.359L147.431 119.303C146.095 126.648 147.413 131.241 149.075 136.268Z" fill="#C71F1F"/>
<path fill-rule="evenodd" clip-rule="evenodd" d="M192.85 138.534C189.178 145.879 184.747 149.645 184.747 149.645L184.523 149.087C184.007 147.796 182.557 145.574 181.076 143.569C180.339 142.572 179.603 141.64 178.983 140.917C178.673 140.555 178.395 140.249 178.162 140.014C178.07 139.921 177.989 139.843 177.917 139.778L173.819 143.008L173.865 142.505L178.162 136.873L178.451 137.046C178.629 137.153 178.851 137.352 179.093 137.596C179.341 137.846 179.631 138.165 179.947 138.534C180.58 139.272 181.326 140.217 182.07 141.224C183.365 142.977 184.677 144.948 185.353 146.337C187.175 145.011 191.678 139.885 193.184 135.329C194.833 130.34 196.013 125.411 195.192 120.482L195.522 119.425C196.857 126.771 195.218 133.798 192.85 138.534Z" fill="#C71F1F"/>
<path d="M132.967 31.8275C131.98 41.4758 140.09 57.2025 143.651 64.8816C143.651 64.8816 150.996 57.2025 154.321 69.8894V55.8668C154.321 36.8358 161.027 30.4924 172.364 27.8215C183.457 25.2079 180.377 35.8341 200.076 38.8394C205.873 39.7235 208.423 45.8507 211.762 54.1977C212.874 53.5298 214.685 51.0265 218.424 47.5542C222.164 44.082 222.001 38.9507 220.442 35.5002C220.442 35.5002 223.462 29.1222 221.778 22.1454C220.094 15.1685 205.433 1.74433 181.379 0.109698C161.377 -1.24984 151.776 10.3484 148.326 17.1371C144.542 16.5805 133.896 22.747 132.967 31.8275Z" fill="black"/>
<path d="M168.568 181.272V150.265L170.423 154.77L168.568 181.272Z" fill="#C71F1F"/>
<path d="M107.438 175.794C107.236 171.856 110.375 168.551 114.319 168.551H230.777C234.704 168.551 237.837 171.829 237.66 175.753L234.307 249.958C234.141 253.638 231.109 256.537 227.424 256.537H118.119C114.45 256.537 111.425 253.663 111.237 249.999L107.438 175.794Z" fill="#4067F0"/>
<path fill-rule="evenodd" clip-rule="evenodd" d="M19.6113 257.067C19.6113 255.604 20.7979 254.417 22.2615 254.417H428.269C429.732 254.417 430.919 255.604 430.919 257.067C430.919 258.531 429.732 259.717 428.269 259.717H22.2615C20.7979 259.717 19.6113 258.531 19.6113 257.067Z" fill="#E7E9EA"/>
<path d="M252.827 36.0424C252.827 29.0168 258.522 23.3215 265.548 23.3215H437.279C444.305 23.3215 450 29.0168 450 36.0424V156.89C450 163.916 444.305 169.611 437.279 169.611H265.548C258.522 169.611 252.827 163.916 252.827 156.89V36.0424Z" fill="#4067F0"/>
<path fill-rule="evenodd" clip-rule="evenodd" d="M437.279 27.5618H265.548C260.864 27.5618 257.067 31.3585 257.067 36.0424V156.89C257.067 161.574 260.864 165.371 265.548 165.371H437.279C441.963 165.371 445.76 161.574 445.76 156.89V36.0424C445.76 31.3585 441.963 27.5618 437.279 27.5618ZM265.548 23.3215C258.522 23.3215 252.827 29.0168 252.827 36.0424V156.89C252.827 163.916 258.522 169.611 265.548 169.611H437.279C444.305 169.611 450 163.916 450 156.89V36.0424C450 29.0168 444.305 23.3215 437.279 23.3215H265.548Z" fill="#4067F0"/>
<path d="M268.198 36.5724C268.198 35.109 267.011 33.9222 265.548 33.9222C264.084 33.9222 262.897 35.109 262.897 36.5724C262.897 38.0358 264.084 39.2226 265.548 39.2226C267.011 39.2226 268.198 38.0358 268.198 36.5724Z" fill="white"/>
<path d="M276.678 36.5724C276.678 35.109 275.492 33.9222 274.028 33.9222C272.565 33.9222 271.378 35.109 271.378 36.5724C271.378 38.0358 272.565 39.2226 274.028 39.2226C275.492 39.2226 276.678 38.0358 276.678 36.5724Z" fill="white"/>
<path d="M285.159 36.5724C285.159 35.109 283.972 33.9222 282.509 33.9222C281.045 33.9222 279.859 35.109 279.859 36.5724C279.859 38.0358 281.045 39.2226 282.509 39.2226C283.972 39.2226 285.159 38.0358 285.159 36.5724Z" fill="white"/>
<path d="M419.258 99.9116C419.258 63.7595 389.951 34.4523 353.799 34.4523C317.646 34.4523 288.339 63.7595 288.339 99.9116C288.339 136.064 317.646 165.371 353.799 165.371C389.951 165.371 419.258 136.064 419.258 99.9116Z" fill="white"/>
<path d="M314.822 65.5548C316.701 60.8597 322.855 56.8998 324.085 56.6767C325.93 57.5147 326.531 61.5642 327.068 61.6983C327.605 61.8324 342.613 77.4032 350.05 85.1719C350.05 85.1719 344.287 97.2414 338.375 108.571C337.236 110.756 342.617 131.533 341.507 133.571C340.039 136.263 333.4 132.705 330.467 137.536C328.908 140.104 320.861 122.881 320.861 122.881C320.861 122.881 323.222 131.674 327.068 139.088C323.913 137.881 315.387 128.398 313.145 123.916C310.215 118.059 310.125 115.656 313.145 110.123C316.164 104.59 312.977 94.5615 309.957 88.3574C306.938 82.1539 312.474 71.4228 314.822 65.5548Z" fill="#1E1D3D"/>
<path d="M339.437 141.674L337.539 120.468L362.926 107.64L365.778 129.604C364.045 132.846 358.296 139.463 351.184 140C344.071 140.536 340.499 143.518 339.437 141.674Z" fill="#FDCAAD"/>
<path d="M319.646 83.6624C319.646 77.6263 316.962 74.7758 321.491 62.8717C326.021 50.9677 338.267 50.196 347.661 47.7811C359.404 44.7631 369.783 51.7187 376.347 60.5242C382.722 69.0753 384.943 74.665 384.064 81.4829C382.722 91.8785 383.225 93.0519 379.031 100.094C376.414 104.487 369.469 104.454 369.469 104.454C369.469 104.454 370.107 104.454 357.223 116.526C341.119 131.616 329.376 121.723 324.175 113.172C318.975 104.621 319.646 91.2074 319.646 83.6624Z" fill="#FDCAAD"/>
<path d="M343.06 124.433C339.806 124.801 337.797 123.923 337.195 123.617C338.574 124.981 342.818 127.467 348.752 126.502C354.685 125.536 359.274 118.054 360.826 114.433C360.826 114.433 354.581 123.132 343.06 124.433Z" fill="#ECA98E"/>
<path d="M374.685 93.4521C374.749 94.3542 374.495 94.9001 374.407 95.0634C374.784 94.6961 375.489 93.5491 375.294 91.9007C375.098 90.2523 373.158 88.9108 372.211 88.4459C372.211 88.4459 374.458 90.257 374.685 93.4521Z" fill="#ECA98E"/>
<path d="M351.14 139.467C342.917 140.201 338.889 134.16 338.889 134.16C327.877 152.322 307.795 138.024 310.245 165.371H398.93C399.624 127.214 367.066 128.038 367.066 128.038C363.763 131.218 359.362 138.733 351.14 139.467Z" fill="#FFD501"/>
<path d="M349.869 144.828C354.11 144.064 364.58 139.509 369.692 135.289C361.702 141.885 349.581 147.396 344.73 147.58C339.88 147.765 340.326 143.545 340.326 139.692C341.794 145.665 345.629 145.594 349.869 144.828Z" fill="#FFA001"/>
<path d="M347.073 88.9945C347.073 90.1373 346.146 91.0638 345.003 91.0638C343.859 91.0638 342.933 90.1373 342.933 88.9945C342.933 87.8523 343.859 86.9258 345.003 86.9258C346.146 86.9258 347.073 87.8523 347.073 88.9945Z" fill="#1E1D3D"/>
<path d="M327.992 88.9945C327.992 90.1373 327.065 91.0638 325.921 91.0638C324.778 91.0638 323.852 90.1373 323.852 88.9945C323.852 87.8523 324.778 86.9258 325.921 86.9258C327.065 86.9258 327.992 87.8523 327.992 88.9945Z" fill="#1E1D3D"/>
<path d="M322.145 85.8138C325.711 82.1088 329.907 86.6756 329.907 86.6756C329.907 86.6756 325.94 84.6069 322.145 85.8138Z" fill="#1E1D3D"/>
<path d="M349.636 86.2553C345.457 82.5503 341.873 87.1171 341.873 87.1171C341.873 87.1171 345.841 85.0479 349.636 86.2553Z" fill="#1E1D3D"/>
<path d="M322.578 79.0617C326.074 72.8947 331.218 77.6512 330.357 78.3567C329.495 79.0617 326.228 77.0173 322.578 79.0617Z" fill="#1E1D3D"/>
<path d="M351.726 79.0617C348.23 72.8947 343.698 76.8387 343.948 78.3567C344.197 79.8748 348.249 77.1212 351.726 79.0617Z" fill="#1E1D3D"/>
<path d="M330.597 99.3498C330.46 95.6258 335.313 86.189 337.152 82.2811C336.462 84.8671 331.978 97.4258 331.978 98.8325C331.978 100.697 334.91 100.959 336.117 100.384C334.507 101.534 330.735 103.074 330.597 99.3498Z" fill="#1E1D3D"/>
<path d="M342.327 103.832C340.113 108.446 334.378 106.922 333.171 106.405C334.895 109.508 339.179 110.269 340.813 109.452C342.446 108.636 342.972 104.773 342.327 103.832Z" fill="#1E1D3D"/>
<path d="M318.639 62.3687C319.086 59.1832 324.746 49.8753 330.121 46.677C337.167 42.4855 352.304 36.2306 366.69 43.9182C383.633 52.9723 384.231 55.9977 385.908 67.2313C387.586 78.4654 397.481 81.1357 394.462 92.5373C391.905 102.192 396.877 99.8131 396.704 110.658C396.532 121.502 391.012 117.192 395.324 128.743C390.321 126.351 388.774 123.04 388.374 121.903C388.833 123.481 390.329 129.277 388.252 131.502C386.24 132.848 386.354 129.088 380.49 133.398C374.625 137.709 373.742 139.432 364.62 136.329C364.62 136.329 366.345 128.571 364.62 121.502C362.896 114.433 362.896 108.226 362.896 108.226L368.797 103.448C370.643 103.168 373.528 102.692 375.004 100.262C377.856 95.5675 379.869 86.4567 375.004 85.986C370.844 85.5838 368.797 85.9861 366.69 88.7444C364.771 85.9861 362.475 90.3811 359.715 83.1398C356.955 75.8989 357.18 70.4412 343.38 71.303C329.581 72.1654 332.762 52.9357 319.286 68.4461C316.67 71.4573 320.372 63.5984 318.639 62.3687Z" fill="#1E1D3D"/>
</g>
<defs>
<clipPath id="clip0">
<rect width="450" height="259.717" fill="white"/>
</clipPath>
</defs>
</svg>
