<svg width="450" height="280" viewBox="0 0 450 280" fill="none" xmlns="http://www.w3.org/2000/svg">
<g clip-path="url(#clip0)">
<path d="M0 23.4647C0 17.705 4.6691 13.0359 10.4287 13.0359H260.718C266.478 13.0359 271.147 17.705 271.147 23.4647V103.244C271.147 109.004 266.478 113.673 260.718 113.673H10.4287C4.6691 113.673 0 109.004 0 103.244V23.4647Z" fill="white"/>
<path fill-rule="evenodd" clip-rule="evenodd" d="M260.718 15.1217H10.4287C5.8208 15.1217 2.08575 18.8569 2.08575 23.4647V103.244C2.08575 107.852 5.8208 111.587 10.4287 111.587H260.718C265.326 111.587 269.061 107.852 269.061 103.244V23.4647C269.061 18.8569 265.326 15.1217 260.718 15.1217ZM10.4287 13.0359C4.6691 13.0359 0 17.705 0 23.4647V103.244C0 109.004 4.6691 113.673 10.4287 113.673H260.718C266.478 113.673 271.147 109.004 271.147 103.244V23.4647C271.147 17.705 266.478 13.0359 260.718 13.0359H10.4287Z" fill="#EDF0F4"/>
<path d="M15.6431 63.0939C15.6431 88.4362 36.1872 108.98 61.5295 108.98C86.8719 108.98 107.416 88.4362 107.416 63.0939C107.416 37.7515 86.8719 17.2074 61.5295 17.2074C36.1872 17.2074 15.6431 37.7515 15.6431 63.0939Z" fill="#EDF0F4"/>
<path d="M121.495 44.476C121.495 40.5881 124.646 37.4366 128.534 37.4366H246.9C250.788 37.4366 253.94 40.5881 253.94 44.476C253.94 48.3638 250.788 51.5154 246.9 51.5154H128.534C124.646 51.5154 121.495 48.3638 121.495 44.476Z" fill="#EDF0F4"/>
<path d="M121.495 64.812C121.495 60.9242 124.646 57.7726 128.534 57.7726H246.9C250.788 57.7726 253.94 60.9242 253.94 64.812C253.94 68.6998 250.788 71.8514 246.9 71.8514H128.534C124.646 71.8514 121.495 68.6998 121.495 64.812Z" fill="#EDF0F4"/>
<path d="M121.495 85.148C121.495 81.2602 124.646 78.1086 128.534 78.1086H246.9C250.788 78.1086 253.94 81.2602 253.94 85.148C253.94 89.0359 250.788 92.1874 246.9 92.1874H128.534C124.646 92.1874 121.495 89.0359 121.495 85.148Z" fill="#EDF0F4"/>
<path d="M96.0252 22.597C94.3457 18.3992 88.8461 14.8586 87.7469 14.6587C86.0976 15.4082 85.5605 19.0288 85.0808 19.1488C84.6011 19.2688 71.1881 33.1915 64.5414 40.1381C64.5414 40.1381 69.6927 50.9303 74.9759 61.0608C75.9942 63.0141 71.1845 81.5919 72.1768 83.4137C73.4882 85.8217 79.4221 82.6399 82.0429 86.9595C83.4362 89.2559 90.6278 73.8558 90.6278 73.8558C90.6278 73.8558 88.5176 81.718 85.0808 88.3471C87.9012 87.2677 95.5199 78.7891 97.5244 74.7808C100.142 69.5446 100.223 67.3957 97.5244 62.4483C94.8254 57.5009 97.674 48.5338 100.372 42.9862C103.071 37.4392 98.124 27.8442 96.0252 22.597Z" fill="#1E1D3D"/>
<path d="M74.0268 90.6596L75.7226 71.6976L53.0338 60.2275L50.485 79.8674C52.0342 82.7656 57.1714 88.6828 63.5282 89.1626C69.8851 89.6423 73.0773 92.3084 74.0268 90.6596Z" fill="#FDCAAD"/>
<path d="M91.714 38.7886C91.714 33.3913 94.1126 30.8425 90.0646 20.1983C86.0167 9.55403 75.0723 8.86396 66.6772 6.7051C56.1822 4.00651 46.9064 10.226 41.0402 18.0993C35.343 25.7454 33.3574 30.7434 34.1437 36.8395C35.343 46.1346 34.8935 47.1843 38.6416 53.4806C40.9797 57.4092 47.1869 57.3789 47.1869 57.3789C47.1869 57.3789 46.6175 57.3789 58.1313 68.1732C72.524 81.6664 83.0185 72.8207 87.666 65.1749C92.3136 57.5286 91.714 45.535 91.714 38.7886Z" fill="#FDCAAD"/>
<path d="M70.7897 75.2433C73.6973 75.5718 75.4926 74.7876 76.0312 74.5138C74.7975 75.7335 71.0056 77.9564 65.7021 77.0934C60.3991 76.2299 56.2985 69.5393 54.9109 66.3023C54.9109 66.3023 60.4924 74.08 70.7897 75.2433Z" fill="#ECA98E"/>
<path d="M42.5258 47.5415C42.4684 48.3481 42.6953 48.8367 42.7735 48.9827C42.4371 48.6542 41.8072 47.6286 41.9814 46.1545C42.1561 44.6809 43.8904 43.4811 44.7356 43.0655C44.7356 43.0655 42.7281 44.685 42.5258 47.5415Z" fill="#ECA98E"/>
<path d="M63.5679 88.686C70.9165 89.3419 74.5165 83.9414 74.5165 83.9414C84.3581 100.181 102.305 87.3959 100.116 111.848H20.8575C20.237 77.7295 49.3342 78.4669 49.3342 78.4669C52.2866 81.3103 56.2193 88.0295 63.5679 88.686Z" fill="#FFD501"/>
<path d="M64.703 93.4801C60.9132 92.7959 51.556 88.723 46.9877 84.9504C54.1283 90.8479 64.9611 95.776 69.2958 95.9407C73.6305 96.1055 73.2327 92.3319 73.2327 88.8872C71.9202 94.2289 68.4928 94.1647 64.703 93.4801Z" fill="#FFA001"/>
<path d="M66.2225 44.0864C66.2225 45.1079 67.051 45.936 68.0725 45.936C69.094 45.936 69.9226 45.1079 69.9226 44.0864C69.9226 43.0644 69.094 42.2364 68.0725 42.2364C67.051 42.2364 66.2225 43.0644 66.2225 44.0864Z" fill="#1E1D3D"/>
<path d="M83.9513 43.565C83.9513 44.5865 84.7799 45.4145 85.8014 45.4145C86.8229 45.4145 87.6514 44.5865 87.6514 43.565C87.6514 42.543 86.8229 41.7149 85.8014 41.7149C84.7799 41.7149 83.9513 42.543 83.9513 43.565Z" fill="#1E1D3D"/>
<path d="M89.4801 40.7122C86.2931 37.399 82.5429 41.4824 82.5429 41.4824C82.5429 41.4824 86.0882 39.6328 89.4801 40.7122Z" fill="#1E1D3D"/>
<path d="M64.6597 41.9298C68.3932 38.6171 71.5969 42.7005 71.5969 42.7005C71.5969 42.7005 68.0512 40.8504 64.6597 41.9298Z" fill="#1E1D3D"/>
<path d="M89.0922 34.6745C85.9683 29.1603 81.3713 33.4137 82.1409 34.0441C82.9106 34.6745 85.8306 32.8464 89.0922 34.6745Z" fill="#1E1D3D"/>
<path d="M63.0443 34.6745C66.1682 29.1603 70.2182 32.6863 69.9956 34.0441C69.7724 35.4014 66.1516 32.9392 63.0443 34.6745Z" fill="#1E1D3D"/>
<path d="M81.9261 52.8148C82.0496 49.4849 77.7123 41.0475 76.0682 37.5534C76.6846 39.8654 80.6929 51.0946 80.6929 52.3523C80.6929 54.0193 78.0721 54.2539 76.9933 53.7398C78.4319 54.7676 81.803 56.1447 81.9261 52.8148Z" fill="#1E1D3D"/>
<path d="M71.4431 56.8231C73.422 60.9487 78.5472 59.5862 79.626 59.1236C78.0846 61.8987 74.5164 61.3137 73.0569 60.5837C71.5969 59.8537 70.8669 57.6641 71.4431 56.8231Z" fill="#1E1D3D"/>
<path d="M92.6134 19.7485C92.2135 16.9 87.1556 8.57712 82.3516 5.71745C76.0547 1.96947 62.5271 -3.62325 49.6695 3.25085C34.5275 11.3465 33.994 14.0515 32.4944 24.0962C30.9952 34.1411 22.1512 36.5293 24.8501 46.7239C27.135 55.3568 22.6919 53.2293 22.8457 62.9259C23.0001 72.6226 27.9334 68.7686 24.0789 79.0973C28.5502 76.9583 29.9336 73.9976 30.2908 72.9819C29.8804 74.3923 28.5435 79.5749 30.3998 81.5637C32.1982 82.7677 32.0955 79.4054 37.337 83.2594C42.5784 87.1138 43.3679 88.6552 51.5195 85.8801C51.5195 85.8801 49.9781 78.9429 51.5195 72.6226C53.0609 66.3023 53.0609 60.7521 53.0609 60.7521L47.7866 56.4794C46.1378 56.2297 43.5587 55.8031 42.2395 53.6308C39.6907 49.4333 37.8918 41.2868 42.2395 40.866C45.9574 40.5063 47.7866 40.866 49.6695 43.3324C51.385 40.866 53.4368 44.7956 55.9032 38.3209C58.3702 31.8462 58.1694 26.9661 70.5019 27.7373C82.8349 28.508 79.991 11.3138 92.0346 25.1824C94.3728 27.875 91.0642 20.8479 92.6134 19.7485Z" fill="#1E1D3D"/>
<path d="M42.1472 77.6591C39.5588 81.7123 40.2748 84.0285 41.3938 86.2269L39.1677 84.5249C38.2172 81.6455 40.3097 79.6917 42.1472 77.6591Z" fill="#434266"/>
<path d="M60.2333 24.371C66.8503 20.921 71.1798 25.1065 77.3755 14.6719C70.5389 18.0901 74.6406 12.6209 74.6406 12.6209C74.6406 12.6209 68.9183 19.2967 60.2333 24.371C59.9141 24.5376 59.5893 24.7219 59.2587 24.9266C59.5872 24.7438 59.9126 24.5585 60.2333 24.371Z" fill="#434266"/>
<path d="M41.484 34.723C45.9277 31.6465 45.6794 28.9012 51.0549 30.2793C42.6525 28.1253 41.8057 34.4169 38.0654 36.0047C34.3257 37.5919 34.0712 40.3759 35.4436 43.2959C34.4279 38.2458 37.0398 37.7995 41.484 34.723Z" fill="#434266"/>
<path d="M121.495 164.253C121.495 158.493 125.978 153.824 131.508 153.824H438.422C443.952 153.824 448.436 158.493 448.436 164.253V269.061C448.436 274.821 443.952 279.49 438.422 279.49H131.508C125.978 279.49 121.495 274.821 121.495 269.061V164.253Z" fill="white"/>
<path fill-rule="evenodd" clip-rule="evenodd" d="M439.938 155.91H131.556C127.111 155.91 123.507 159.645 123.507 164.253V269.061C123.507 273.669 127.111 277.404 131.556 277.404H439.938C444.384 277.404 447.988 273.669 447.988 269.061V164.253C447.988 159.645 444.384 155.91 439.938 155.91ZM131.556 153.824C125.999 153.824 121.495 158.493 121.495 164.253V269.061C121.495 274.821 125.999 279.49 131.556 279.49H439.938C445.495 279.49 450 274.821 450 269.061V164.253C450 158.493 445.495 153.824 439.938 153.824H131.556Z" fill="#EDF0F4"/>
<path d="M141.309 216.696C141.309 244.342 163.721 266.754 191.367 266.754C219.013 266.754 241.425 244.342 241.425 216.696C241.425 189.049 219.013 166.638 191.367 166.638C163.721 166.638 141.309 189.049 141.309 216.696Z" fill="#EDF0F4"/>
<path d="M273.233 191.667C273.233 186.771 277.202 182.802 282.097 182.802H430.707C435.603 182.802 439.571 186.771 439.571 191.667C439.571 196.562 435.603 200.531 430.707 200.531H282.097C277.202 200.531 273.233 196.562 273.233 191.667Z" fill="#EDF0F4"/>
<path d="M273.233 217.217C273.233 212.321 277.202 208.353 282.097 208.353H430.707C435.603 208.353 439.571 212.321 439.571 217.217C439.571 222.113 435.603 226.081 430.707 226.081H282.097C277.202 226.081 273.233 222.113 273.233 217.217Z" fill="#EDF0F4"/>
<path d="M273.233 242.767C273.233 237.872 277.202 233.903 282.097 233.903H430.707C435.603 233.903 439.571 237.872 439.571 242.767C439.571 247.663 435.603 251.632 430.707 251.632H282.097C277.202 251.632 273.233 247.663 273.233 242.767Z" fill="#EDF0F4"/>
<path d="M159.28 219.232C158.544 215.93 158.514 192.633 158.59 181.397C159.968 176.734 164.101 166.492 169.612 162.823C176.501 158.237 195.33 163.969 199.923 166.263C204.515 168.556 205.663 194.697 207.959 194.467C210.255 194.238 213.011 195.843 212.781 202.722C212.598 208.225 206.772 208.858 203.94 208.552V252.798C203.419 256.963 203.961 267.849 183.378 262.949C176.745 261.369 174.728 241.16 174.269 239.785V230.936C174.269 230.936 173.228 230.936 169.612 230.239C162.814 228.929 160.198 223.36 159.28 219.232Z" fill="#F7CBB2"/>
<path d="M185.094 233.403C191 232.427 196.459 225.128 197.113 221.208C183.718 233.572 174.243 230.355 174.243 230.355C175.617 231.733 179.188 234.379 185.094 233.403Z" fill="#ECA98E"/>
<path d="M186.005 196.51C186.005 197.593 185.127 198.47 184.045 198.47C182.962 198.47 182.084 197.593 182.084 196.51C182.084 195.428 182.962 194.55 184.045 194.55C185.127 194.55 186.005 195.428 186.005 196.51Z" fill="#1E1D3D"/>
<path d="M168.099 195.467C168.099 196.55 167.222 197.427 166.139 197.427C165.056 197.427 164.179 196.55 164.179 195.467C164.179 194.385 165.056 193.507 166.139 193.507C167.222 193.507 168.099 194.385 168.099 195.467Z" fill="#1E1D3D"/>
<path d="M163.136 192.79C166.438 188.601 170.323 193.764 170.323 193.764C170.323 193.764 166.65 191.425 163.136 192.79Z" fill="#1E1D3D"/>
<path d="M187.965 193.687C184.097 190.545 180.778 194.418 180.778 194.418C180.778 194.418 184.452 192.664 187.965 193.687Z" fill="#1E1D3D"/>
<path d="M162.955 186.371C166.213 180.621 171.007 185.056 170.204 185.713C169.401 186.371 166.357 184.465 162.955 186.371Z" fill="#1E1D3D"/>
<path d="M190.118 186.371C186.861 180.621 182.637 184.298 182.87 185.713C183.103 187.129 186.878 184.562 190.118 186.371Z" fill="#1E1D3D"/>
<path d="M170.979 205.272C170.856 201.764 175.207 192.873 176.857 189.191C176.239 191.628 172.217 203.46 172.217 204.785C172.217 206.541 174.847 206.788 175.929 206.247C174.486 207.33 171.103 208.781 170.979 205.272Z" fill="#1E1D3D"/>
<path d="M181.231 209.447C179.226 213.768 174.031 212.341 172.937 211.857C174.499 214.763 178.116 214.15 179.595 213.386C181.075 212.621 181.815 210.327 181.231 209.447Z" fill="#1E1D3D"/>
<path d="M184.419 251.497C174.962 249.675 174.269 237.858 174.269 234.579C173.178 235.915 171.04 238.43 170.458 238.722C169.73 239.086 146.814 245.642 144.995 247.827C143.54 249.576 141.236 253.413 140.267 255.112C146.693 261.547 165.802 274.49 190.828 274.781C215.854 275.073 238.116 264.218 246.118 258.755C243.935 247.827 238.48 242.364 234.114 240.543C229.749 238.722 213.017 238.358 209.015 237.265C205.815 236.39 204.425 234.909 203.94 234.059C203.94 234.059 203.94 248.894 196.652 251.757L191.919 261.305L184.419 251.497Z" fill="#F87373"/>
<path d="M227.103 251.237C227.312 246.864 230.313 243.515 231.788 242.387C231.788 242.387 226.323 247.593 227.624 260.606C227.103 257.483 226.895 255.609 227.103 251.237Z" fill="#C71F1F"/>
<path fill-rule="evenodd" clip-rule="evenodd" d="M206.822 252.229C205.526 256.149 203.824 259.429 202.848 260.76L202.571 261.138L202.397 260.703C201.994 259.696 200.864 257.964 199.709 256.401C199.135 255.625 198.561 254.898 198.078 254.334C197.836 254.052 197.619 253.813 197.437 253.63C197.366 253.558 197.302 253.497 197.247 253.446L194.31 257.743L194.346 257.351L197.081 252.7L197.306 252.835C197.445 252.919 197.619 253.074 197.807 253.263C198.001 253.458 198.227 253.708 198.473 253.995C198.966 254.57 199.548 255.307 200.128 256.092C201.137 257.459 202.16 258.995 202.687 260.079C203.65 258.616 205.154 255.617 206.328 252.066C207.613 248.177 208.488 243.67 207.847 239.828L208.104 239.004C209.145 244.73 208.117 248.31 206.822 252.229Z" fill="#C71F1F"/>
<path fill-rule="evenodd" clip-rule="evenodd" d="M173.228 253.995C176.091 259.721 179.189 261.138 179.189 261.138L179.363 260.703C179.765 259.697 180.895 257.964 182.05 256.401C182.624 255.625 183.198 254.898 183.681 254.334C183.923 254.052 184.14 253.813 184.322 253.63C184.393 253.558 184.457 253.497 184.513 253.446L188.063 257.483L188.027 257.091L184.678 252.7L184.453 252.835C184.314 252.919 184.141 253.074 183.952 253.263C183.759 253.458 183.533 253.708 183.286 253.995C182.793 254.571 182.211 255.307 181.632 256.092C180.622 257.459 179.6 258.995 179.072 260.079C177.652 259.045 174.141 255.048 172.967 251.497C171.682 247.608 170.762 243.765 171.402 239.923L171.145 239.1C170.105 244.826 171.382 250.303 173.228 253.995Z" fill="#C71F1F"/>
<path d="M219.909 170.813C220.678 178.335 214.357 190.594 211.58 196.58C211.58 196.58 205.854 190.594 203.263 200.484V189.553C203.263 174.717 198.035 169.773 189.198 167.69C180.551 165.653 182.951 173.937 167.595 176.279C163.076 176.968 161.089 181.745 158.486 188.251C157.618 187.731 156.207 185.78 153.291 183.073C150.377 180.366 150.504 176.366 151.719 173.677C151.719 173.677 149.365 168.704 150.678 163.266C151.99 157.827 163.419 147.362 182.17 146.088C197.763 145.028 205.247 154.069 207.936 159.362C210.886 158.928 219.185 163.734 219.909 170.813Z" fill="#1E1D3D"/>
<path d="M349.884 63.0939C349.884 82.9648 333.776 99.073 313.905 99.073C294.034 99.073 277.926 82.9648 277.926 63.0939C277.926 43.2229 294.034 27.1147 313.905 27.1147C333.776 27.1147 349.884 43.2229 349.884 63.0939Z" fill="#4067F0"/>
<path d="M306.259 63.2837L308.691 54.4901L338.934 75.6083L292.526 69.92L296.788 60.4392L306.259 63.2837Z" fill="#7A98FF"/>
<path d="M308.652 54.6315L316.222 42.2364L338.934 75.6083L262.283 54.6315L301.555 55.5852L338.934 75.6083L308.652 54.6315Z" fill="#EDF0F4"/>
<path fill-rule="evenodd" clip-rule="evenodd" d="M40.6721 212.746C39.5906 212.746 38.5352 212.64 37.5158 212.439C36.668 212.271 35.8451 212.822 35.6777 213.67C35.5098 214.517 36.061 215.34 36.9083 215.508C38.1269 215.749 39.3857 215.875 40.6721 215.875H44.7502C45.6142 215.875 46.3145 215.175 46.3145 214.311C46.3145 213.447 45.6142 212.746 44.7502 212.746H40.6721ZM51.3428 214.311C51.3428 215.175 52.043 215.875 52.9071 215.875H61.0639C61.9279 215.875 62.6282 215.175 62.6282 214.311C62.6282 213.447 61.9279 212.746 61.0639 212.746H52.9071C52.043 212.746 51.3428 213.447 51.3428 214.311ZM67.6564 214.311C67.6564 215.175 68.3567 215.875 69.2207 215.875H77.3776C78.2416 215.875 78.9419 215.175 78.9419 214.311C78.9419 213.447 78.2416 212.746 77.3776 212.746H69.2207C68.3567 212.746 67.6564 213.447 67.6564 214.311ZM83.9701 214.311C83.9701 215.175 84.6704 215.875 85.5344 215.875H93.6912C94.5547 215.875 95.2556 215.175 95.2556 214.311C95.2556 213.447 94.5547 212.746 93.6912 212.746H85.5344C84.6704 212.746 83.9701 213.447 83.9701 214.311ZM100.283 214.311C100.283 215.175 100.984 215.875 101.848 215.875H110.004C110.868 215.875 111.569 215.175 111.569 214.311C111.569 213.447 110.868 212.746 110.004 212.746H101.848C100.984 212.746 100.283 213.447 100.283 214.311ZM361.3 58.4009C361.3 57.5369 362 56.8366 362.864 56.8366H371.021C371.885 56.8366 372.585 57.5369 372.585 58.4009C372.585 59.2649 371.885 59.9652 371.021 59.9652H362.864C362 59.9652 361.3 59.2649 361.3 58.4009ZM377.614 58.4009C377.614 57.5369 378.314 56.8366 379.178 56.8366H383.256C384.542 56.8366 385.801 56.9628 387.02 57.2037C387.867 57.3716 388.418 58.1944 388.25 59.0418C388.083 59.8896 387.26 60.4408 386.412 60.2729C385.393 60.0711 384.338 59.9652 383.256 59.9652H379.178C378.314 59.9652 377.614 59.2649 377.614 58.4009ZM391.807 60.5169C392.287 59.7989 393.259 59.6065 393.977 60.0872C396.08 61.4951 397.891 63.3056 399.299 65.409C399.779 66.1271 399.587 67.0985 398.869 67.5793C398.151 68.06 397.18 67.8676 396.699 67.1496C395.518 65.3861 394 63.8677 392.236 62.6871C391.518 62.2064 391.326 61.2349 391.807 60.5169ZM32.1216 212.195C32.6023 211.477 32.4099 210.505 31.6919 210.024C29.9284 208.844 28.41 207.325 27.2294 205.562C26.7487 204.844 25.7772 204.651 25.0592 205.132C24.3412 205.613 24.1488 206.584 24.6295 207.302C26.0374 209.405 27.8479 211.216 29.9513 212.624C30.6693 213.105 31.6408 212.913 32.1216 212.195ZM400.344 71.1355C401.191 70.9676 402.014 71.5187 402.182 72.366C402.423 73.5846 402.549 74.8434 402.549 76.1298V79.6495C402.549 80.5135 401.849 81.2138 400.985 81.2138C400.121 81.2138 399.421 80.5135 399.421 79.6495V76.1298C399.421 75.0483 399.315 73.9929 399.113 72.9735C398.945 72.1257 399.496 71.3028 400.344 71.1355ZM23.5841 201.576C24.4319 201.409 24.9831 200.586 24.8152 199.738C24.6134 198.719 24.5075 197.663 24.5075 196.582V193.062C24.5075 192.198 23.8072 191.498 22.9432 191.498C22.0792 191.498 21.3789 192.198 21.3789 193.062V196.582C21.3789 197.868 21.5051 199.127 21.746 200.345C21.9139 201.193 22.7367 201.744 23.5841 201.576ZM22.9432 187.587C23.8072 187.587 24.5075 186.887 24.5075 186.023V178.983C24.5075 178.119 23.8072 177.419 22.9432 177.419C22.0792 177.419 21.3789 178.119 21.3789 178.983V186.023C21.3789 186.887 22.0792 187.587 22.9432 187.587ZM400.985 85.1246C401.849 85.1246 402.549 85.8249 402.549 86.6889V93.7283C402.549 94.5923 401.849 95.2926 400.985 95.2926C400.121 95.2926 399.421 94.5923 399.421 93.7283V86.6889C399.421 85.8249 400.121 85.1246 400.985 85.1246ZM22.9432 173.508C23.8072 173.508 24.5075 172.808 24.5075 171.944V164.904C24.5075 164.04 23.8072 163.34 22.9432 163.34C22.0792 163.34 21.3789 164.04 21.3789 164.904V171.944C21.3789 172.808 22.0792 173.508 22.9432 173.508ZM400.985 99.2034C401.849 99.2034 402.549 99.9036 402.549 100.768V107.807C402.549 108.671 401.849 109.371 400.985 109.371C400.121 109.371 399.421 108.671 399.421 107.807V100.768C399.421 99.9036 400.121 99.2034 400.985 99.2034ZM22.9432 159.429C23.8072 159.429 24.5075 158.729 24.5075 157.865V154.345C24.5075 153.264 24.6134 152.208 24.8152 151.189C24.9831 150.341 24.4319 149.518 23.5841 149.351C22.7367 149.183 21.9139 149.734 21.746 150.582C21.5051 151.8 21.3789 153.059 21.3789 154.345V157.865C21.3789 158.729 22.0792 159.429 22.9432 159.429ZM400.985 113.282C401.849 113.282 402.549 113.982 402.549 114.846V118.366C402.549 119.653 402.423 120.911 402.182 122.13C402.014 122.977 401.191 123.528 400.344 123.36C399.496 123.193 398.945 122.37 399.113 121.522C399.315 120.503 399.421 119.448 399.421 118.366V114.846C399.421 113.982 400.121 113.282 400.985 113.282ZM25.0592 145.795C25.7772 146.276 26.7487 146.083 27.2294 145.365C28.41 143.602 29.9284 142.083 31.6919 140.903C32.4099 140.422 32.6023 139.45 32.1216 138.732C31.6408 138.014 30.6693 137.822 29.9513 138.303C27.8484 139.711 26.0374 141.521 24.6295 143.625C24.1488 144.343 24.3412 145.314 25.0592 145.795ZM398.869 126.917C399.587 127.397 399.779 128.369 399.299 129.087C397.891 131.19 396.08 133.001 393.977 134.409C393.259 134.889 392.287 134.697 391.807 133.979C391.326 133.261 391.518 132.29 392.236 131.809C394 130.628 395.518 129.11 396.699 127.346C397.18 126.628 398.151 126.436 398.869 126.917ZM35.6777 137.257C35.8451 138.105 36.668 138.656 37.5158 138.488C38.5352 138.287 39.5906 138.181 40.6721 138.181H44.7502C45.6142 138.181 46.3145 137.48 46.3145 136.616C46.3145 135.752 45.6142 135.052 44.7502 135.052H40.6721C39.3857 135.052 38.1269 135.178 36.9083 135.419C36.061 135.587 35.5098 136.41 35.6777 137.257ZM388.25 135.454C388.418 136.302 387.867 137.124 387.02 137.292C385.801 137.533 384.542 137.659 383.256 137.659H379.178C378.314 137.659 377.614 136.959 377.614 136.095C377.614 135.231 378.314 134.531 379.178 134.531H383.256C384.338 134.531 385.393 134.425 386.412 134.223C387.26 134.055 388.083 134.606 388.25 135.454ZM51.3428 136.095C51.3428 135.231 52.043 134.531 52.9071 134.531H61.0639C61.9279 134.531 62.6282 135.231 62.6282 136.095C62.6282 136.959 61.9279 137.659 61.0639 137.659H52.9071C52.043 137.659 51.3428 136.959 51.3428 136.095ZM67.6564 136.095C67.6564 135.231 68.3567 134.531 69.2207 134.531H77.3776C78.2416 134.531 78.9419 135.231 78.9419 136.095C78.9419 136.959 78.2416 137.659 77.3776 137.659H69.2207C68.3567 137.659 67.6564 136.959 67.6564 136.095ZM83.9701 136.095C83.9701 135.231 84.6704 134.531 85.5344 134.531H93.6912C94.5547 134.531 95.2556 135.231 95.2556 136.095C95.2556 136.959 94.5547 137.659 93.6912 137.659H85.5344C84.6704 137.659 83.9701 136.959 83.9701 136.095ZM100.284 136.095C100.284 135.231 100.984 134.531 101.848 134.531H110.004C110.868 134.531 111.569 135.231 111.569 136.095C111.569 136.959 110.868 137.659 110.004 137.659H101.848C100.984 137.659 100.284 136.959 100.284 136.095ZM116.597 136.095C116.597 135.231 117.297 134.531 118.161 134.531H126.318C127.182 134.531 127.882 135.231 127.882 136.095C127.882 136.959 127.182 137.659 126.318 137.659H118.161C117.297 137.659 116.597 136.959 116.597 136.095ZM132.911 136.095C132.911 135.231 133.611 134.531 134.475 134.531H142.632C143.496 134.531 144.196 135.231 144.196 136.095C144.196 136.959 143.496 137.659 142.632 137.659H134.475C133.611 137.659 132.911 136.959 132.911 136.095ZM149.224 136.095C149.224 135.231 149.925 134.531 150.789 134.531H158.945C159.809 134.531 160.51 135.231 160.51 136.095C160.51 136.959 159.809 137.659 158.945 137.659H150.789C149.925 137.659 149.224 136.959 149.224 136.095ZM165.537 136.095C165.537 135.231 166.238 134.531 167.102 134.531H175.259C176.123 134.531 176.823 135.231 176.823 136.095C176.823 136.959 176.123 137.659 175.259 137.659H167.102C166.238 137.659 165.537 136.959 165.537 136.095ZM181.851 136.095C181.851 135.231 182.551 134.531 183.415 134.531H191.572C192.436 134.531 193.137 135.231 193.137 136.095C193.137 136.959 192.436 137.659 191.572 137.659H183.415C182.551 137.659 181.851 136.959 181.851 136.095ZM198.165 136.095C198.165 135.231 198.865 134.531 199.729 134.531H207.886C208.749 134.531 209.45 135.231 209.45 136.095C209.45 136.959 208.749 137.659 207.886 137.659H199.729C198.865 137.659 198.165 136.959 198.165 136.095ZM214.478 136.095C214.478 135.231 215.179 134.531 216.042 134.531H224.199C225.063 134.531 225.763 135.231 225.763 136.095C225.763 136.959 225.063 137.659 224.199 137.659H216.042C215.179 137.659 214.478 136.959 214.478 136.095ZM230.792 136.095C230.792 135.231 231.492 134.531 232.356 134.531H240.513C241.377 134.531 242.077 135.231 242.077 136.095C242.077 136.959 241.377 137.659 240.513 137.659H232.356C231.492 137.659 230.792 136.959 230.792 136.095ZM247.105 136.095C247.105 135.231 247.806 134.531 248.67 134.531H256.826C257.69 134.531 258.391 135.231 258.391 136.095C258.391 136.959 257.69 137.659 256.826 137.659H248.67C247.806 137.659 247.105 136.959 247.105 136.095ZM263.419 136.095C263.419 135.231 264.119 134.531 264.983 134.531H273.14C274.004 134.531 274.704 135.231 274.704 136.095C274.704 136.959 274.004 137.659 273.14 137.659H264.983C264.119 137.659 263.419 136.959 263.419 136.095ZM279.732 136.095C279.732 135.231 280.432 134.531 281.296 134.531H289.453C290.317 134.531 291.018 135.231 291.018 136.095C291.018 136.959 290.317 137.659 289.453 137.659H281.296C280.432 137.659 279.732 136.959 279.732 136.095ZM296.046 136.095C296.046 135.231 296.746 134.531 297.61 134.531H305.767C306.631 134.531 307.331 135.231 307.331 136.095C307.331 136.959 306.631 137.659 305.767 137.659H297.61C296.746 137.659 296.046 136.959 296.046 136.095ZM312.359 136.095C312.359 135.231 313.06 134.531 313.924 134.531H322.081C322.944 134.531 323.645 135.231 323.645 136.095C323.645 136.959 322.944 137.659 322.081 137.659H313.924C313.06 137.659 312.359 136.959 312.359 136.095ZM328.673 136.095C328.673 135.231 329.373 134.531 330.237 134.531H338.394C339.258 134.531 339.958 135.231 339.958 136.095C339.958 136.959 339.258 137.659 338.394 137.659H330.237C329.373 137.659 328.673 136.959 328.673 136.095ZM344.986 136.095C344.986 135.231 345.687 134.531 346.551 134.531H354.707C355.571 134.531 356.272 135.231 356.272 136.095C356.272 136.959 355.571 137.659 354.707 137.659H346.551C345.687 137.659 344.986 136.959 344.986 136.095ZM361.3 136.095C361.3 135.231 362 134.531 362.864 134.531H371.021C371.885 134.531 372.585 135.231 372.585 136.095C372.585 136.959 371.885 137.659 371.021 137.659H362.864C362 137.659 361.3 136.959 361.3 136.095Z" fill="#4067F0"/>
</g>
<defs>
<clipPath id="clip0">
<rect width="450" height="279.49" fill="white"/>
</clipPath>
</defs>
</svg>
