<svg width="450" height="277" viewBox="0 0 450 277" fill="none" xmlns="http://www.w3.org/2000/svg">
<path d="M25.5204 275.641L168.878 274.896L207.09 274.885L219.749 274.88L258.035 274.869L432.947 274.821C432.947 274.821 472.955 223.555 430.22 174.865C385.911 124.381 364.367 165.495 350.748 94.4331C316.465 -84.4382 -22.4847 19.6702 66.419 171.882C98.4302 226.689 3.40749 197.559 25.5204 275.641Z" fill="#EBF3FA"/>
<path d="M157.405 238.309L156.63 237.884C155.802 237.433 155.497 236.391 155.951 235.564L159.512 229.065C159.965 228.237 161.007 227.933 161.835 228.386L162.945 228.993C163.107 229.082 163.167 229.286 163.078 229.448C162.99 229.61 162.785 229.67 162.623 229.581L161.513 228.973C161.009 228.697 160.376 228.882 160.1 229.386L156.538 235.886C156.262 236.388 156.447 237.022 156.952 237.298L157.727 237.723C158.23 237.998 158.864 237.813 159.14 237.309L161.504 232.995C161.592 232.833 161.797 232.773 161.959 232.862C162.121 232.951 162.181 233.154 162.092 233.317L159.727 237.631C159.274 238.458 158.233 238.762 157.405 238.309Z" fill="#AFCDFB"/>
<path d="M154.1 245.134L152.711 244.374C151.421 243.668 150.987 241.97 151.743 240.588L157.098 230.818C157.186 230.656 157.391 230.596 157.553 230.684C157.715 230.773 157.775 230.976 157.686 231.139L152.332 240.91C151.751 241.967 152.067 243.259 153.033 243.786L154.422 244.547C155.388 245.077 156.646 244.645 157.226 243.588L163.324 232.458C163.905 231.401 163.589 230.109 162.623 229.581C162.461 229.493 162.401 229.288 162.49 229.127C162.579 228.965 162.783 228.905 162.945 228.993C164.235 229.7 164.669 231.398 163.913 232.78L157.813 243.91C157.056 245.291 155.391 245.84 154.1 245.134Z" fill="#AFCDFB"/>
<path d="M287.966 202.161H117.394C113.201 202.161 109.801 198.765 109.801 194.575V51.5118C109.801 47.3214 113.201 43.9251 117.394 43.9251H287.966C292.16 43.9251 295.56 47.3214 295.56 51.5118V194.575C295.56 198.765 292.16 202.161 287.966 202.161ZM214.78 125.457C214.068 125.457 213.491 126.034 213.491 126.745C213.491 127.457 214.068 128.034 214.78 128.034H241.083C241.796 128.034 242.374 127.457 242.374 126.745C242.374 126.034 241.796 125.457 241.083 125.457H214.78ZM190.797 125.457C190.083 125.457 189.506 126.034 189.506 126.745C189.506 127.457 190.083 128.034 190.797 128.034H209.992C210.704 128.034 211.282 127.457 211.282 126.745C211.282 126.034 210.704 125.457 209.992 125.457H190.797ZM124.522 75.4148V128.034H177.18V75.4148H124.522ZM247.582 117.463C246.87 117.463 246.293 118.04 246.293 118.751C246.293 119.463 246.87 120.041 247.582 120.041H261.012C261.724 120.041 262.302 119.463 262.302 118.751C262.302 118.04 261.724 117.463 261.012 117.463H247.582ZM190.797 117.463C190.083 117.463 189.506 118.04 189.506 118.751C189.506 119.463 190.083 120.041 190.797 120.041H241.671C242.383 120.041 242.96 119.463 242.96 118.751C242.96 118.04 242.383 117.463 241.671 117.463H190.797ZM223.981 106.974C223.269 106.974 222.691 107.551 222.691 108.263C222.691 108.974 223.269 109.551 223.981 109.551H266.581C267.293 109.551 267.87 108.974 267.87 108.263C267.87 107.551 267.293 106.974 266.581 106.974H223.981ZM190.797 106.974C190.083 106.974 189.506 107.551 189.506 108.263C189.506 108.974 190.083 109.551 190.797 109.551H216.842C217.556 109.551 218.133 108.974 218.133 108.263C218.133 107.551 217.556 106.974 216.842 106.974H190.797ZM247.582 100.063C246.87 100.063 246.293 100.64 246.293 101.351C246.293 102.063 246.87 102.64 247.582 102.64H261.012C261.724 102.64 262.302 102.063 262.302 101.351C262.302 100.64 261.724 100.063 261.012 100.063H247.582ZM214.78 100.063C214.068 100.063 213.491 100.64 213.491 101.351C213.491 102.063 214.068 102.64 214.78 102.64H241.083C241.796 102.64 242.374 102.063 242.374 101.351C242.374 100.64 241.796 100.063 241.083 100.063H214.78ZM190.797 100.063C190.083 100.063 189.506 100.64 189.506 101.351C189.506 102.063 190.083 102.64 190.797 102.64H209.992C210.704 102.64 211.282 102.063 211.282 101.351C211.282 100.64 210.704 100.063 209.992 100.063H190.797ZM247.582 92.0686C246.87 92.0686 246.293 92.6455 246.293 93.3571C246.293 94.0687 246.87 94.6456 247.582 94.6456H261.012C261.724 94.6456 262.302 94.0687 262.302 93.3571C262.302 92.6455 261.724 92.0686 261.012 92.0686H247.582ZM190.797 92.0686C190.083 92.0686 189.506 92.6455 189.506 93.3571C189.506 94.0687 190.083 94.6456 190.797 94.6456H241.671C242.383 94.6456 242.96 94.0687 242.96 93.3571C242.96 92.6455 242.383 92.0686 241.671 92.0686H190.797ZM191.496 75.3609C190.397 75.3609 189.506 76.2516 189.506 77.3483C189.506 78.4466 190.397 79.3373 191.496 79.3373H233.381C234.48 79.3373 235.37 78.4466 235.37 77.3483C235.37 76.2516 234.48 75.3609 233.381 75.3609H191.496ZM241.582 72.6936C240.483 72.6936 239.592 73.5843 239.592 74.6826C239.592 75.7809 240.483 76.67 241.582 76.67H283.465C284.564 76.67 285.456 75.7809 285.456 74.6826C285.456 73.5843 284.564 72.6936 283.465 72.6936H241.582Z" fill="#F7FAFD"/>
<path d="M295.56 61.4839H109.801V49.5894C109.801 46.4609 112.339 43.9251 115.47 43.9251H289.892C293.022 43.9251 295.56 46.4609 295.56 49.5894V61.4839Z" fill="#699DEE"/>
<path d="M117.313 52.5974C117.313 51.4389 118.254 50.4991 119.414 50.4991C120.574 50.4991 121.515 51.4389 121.515 52.5974C121.515 53.7576 120.574 54.6974 119.414 54.6974C118.254 54.6974 117.313 53.7576 117.313 52.5974Z" fill="#DDE7FE"/>
<path d="M126.13 52.5974C126.13 51.4389 127.071 50.4991 128.231 50.4991C129.391 50.4991 130.332 51.4389 130.332 52.5974C130.332 53.7576 129.391 54.6974 128.231 54.6974C127.071 54.6974 126.13 53.7576 126.13 52.5974Z" fill="#DDE7FE"/>
<path d="M134.948 52.5974C134.948 51.4389 135.888 50.4991 137.047 50.4991C138.208 50.4991 139.149 51.4389 139.149 52.5974C139.149 53.7576 138.208 54.6974 137.047 54.6974C135.888 54.6974 134.948 53.7576 134.948 52.5974Z" fill="#DDE7FE"/>
<path d="M124.522 128.034H177.18V75.415H124.522V128.034Z" fill="#E2EDFC"/>
<path d="M233.381 79.3373H191.496C190.397 79.3373 189.506 78.4466 189.506 77.3483C189.506 76.2516 190.397 75.3609 191.496 75.3609H233.381C234.48 75.3609 235.37 76.2516 235.37 77.3483C235.37 78.4466 234.48 79.3373 233.381 79.3373Z" fill="#B9CAF7"/>
<path d="M283.465 76.67H241.582C240.483 76.67 239.592 75.7809 239.592 74.6826C239.592 73.5843 240.483 72.6936 241.582 72.6936H283.465C284.564 72.6936 285.455 73.5843 285.455 74.6826C285.455 75.7809 284.564 76.67 283.465 76.67Z" fill="#B9CAF7"/>
<path d="M241.671 94.6456H190.797C190.083 94.6456 189.506 94.0688 189.506 93.3572C189.506 92.6456 190.083 92.0687 190.797 92.0687H241.671C242.383 92.0687 242.96 92.6456 242.96 93.3572C242.96 94.0688 242.383 94.6456 241.671 94.6456Z" fill="#E5EEFC"/>
<path d="M261.012 94.6456H247.582C246.87 94.6456 246.293 94.0688 246.293 93.3572C246.293 92.6456 246.87 92.0687 247.582 92.0687H261.012C261.724 92.0687 262.301 92.6456 262.301 93.3572C262.301 94.0688 261.724 94.6456 261.012 94.6456Z" fill="#E5EEFC"/>
<path d="M209.992 102.64H190.797C190.083 102.64 189.506 102.063 189.506 101.351C189.506 100.64 190.083 100.063 190.797 100.063H209.992C210.704 100.063 211.282 100.64 211.282 101.351C211.282 102.063 210.704 102.64 209.992 102.64Z" fill="#E5EEFC"/>
<path d="M241.083 102.64H214.78C214.068 102.64 213.491 102.063 213.491 101.351C213.491 100.64 214.068 100.063 214.78 100.063H241.083C241.796 100.063 242.374 100.64 242.374 101.351C242.374 102.063 241.796 102.64 241.083 102.64Z" fill="#E5EEFC"/>
<path d="M261.012 102.64H247.582C246.87 102.64 246.293 102.063 246.293 101.351C246.293 100.64 246.87 100.063 247.582 100.063H261.012C261.724 100.063 262.301 100.64 262.301 101.351C262.301 102.063 261.724 102.64 261.012 102.64Z" fill="#E5EEFC"/>
<path d="M216.842 109.551H190.797C190.083 109.551 189.506 108.974 189.506 108.263C189.506 107.551 190.083 106.974 190.797 106.974H216.842C217.556 106.974 218.133 107.551 218.133 108.263C218.133 108.974 217.556 109.551 216.842 109.551Z" fill="#E5EEFC"/>
<path d="M266.58 109.551H223.981C223.269 109.551 222.691 108.974 222.691 108.263C222.691 107.551 223.269 106.974 223.981 106.974H266.58C267.293 106.974 267.87 107.551 267.87 108.263C267.87 108.974 267.293 109.551 266.58 109.551Z" fill="#E5EEFC"/>
<path d="M241.671 120.042H190.797C190.083 120.042 189.506 119.463 189.506 118.751C189.506 118.04 190.083 117.463 190.797 117.463H241.671C242.383 117.463 242.96 118.04 242.96 118.751C242.96 119.463 242.383 120.042 241.671 120.042Z" fill="#E5EEFC"/>
<path d="M261.012 120.042H247.582C246.87 120.042 246.293 119.463 246.293 118.751C246.293 118.04 246.87 117.463 247.582 117.463H261.012C261.724 117.463 262.301 118.04 262.301 118.751C262.301 119.463 261.724 120.042 261.012 120.042Z" fill="#E5EEFC"/>
<path d="M209.992 128.034H190.797C190.083 128.034 189.506 127.457 189.506 126.746C189.506 126.034 190.083 125.457 190.797 125.457H209.992C210.704 125.457 211.282 126.034 211.282 126.746C211.282 127.457 210.704 128.034 209.992 128.034Z" fill="#E5EEFC"/>
<path d="M241.083 128.034H214.78C214.068 128.034 213.491 127.457 213.491 126.746C213.491 126.034 214.068 125.457 214.78 125.457H241.083C241.796 125.457 242.374 126.034 242.374 126.746C242.374 127.457 241.796 128.034 241.083 128.034Z" fill="#E5EEFC"/>
<path d="M156.527 103.613L150.755 90.2667L145.031 103.613H156.527ZM148.132 83.26H153.57L168.262 116.865H162.06L158.674 108.81H142.884L139.45 116.865H133.439L148.132 83.26Z" fill="#BDD1F9"/>
<path d="M153.937 144.309H124.522V138.634H153.937V144.309Z" fill="#F99746"/>
<path d="M153.937 149.983H124.522V144.309H153.937V149.983Z" fill="#ED7D2B"/>
<path d="M153.937 155.657H124.522V149.983H153.937V155.657Z" fill="#474FEA"/>
<path d="M175.609 141.846H159.426C158.749 141.846 158.198 141.298 158.198 140.621C158.198 139.944 158.749 139.396 159.426 139.396H175.609C176.287 139.396 176.835 139.944 176.835 140.621C176.835 141.298 176.287 141.846 175.609 141.846Z" fill="#BDD1F9"/>
<path d="M170.157 146.165H159.426C158.749 146.165 158.198 145.617 158.198 144.94C158.198 144.263 158.749 143.715 159.426 143.715H170.157C170.834 143.715 171.383 144.263 171.383 144.94C171.383 145.617 170.834 146.165 170.157 146.165Z" fill="#BDD1F9"/>
<path d="M153.937 179.568H124.522V167.973H153.937V179.568Z" fill="#F99746"/>
<path d="M153.937 184.997H124.522V176.705H153.937V184.997Z" fill="#B5453C"/>
<path d="M124.522 167.973L135.075 176.83L124.522 184.997V167.973Z" fill="#474FEA"/>
<path d="M175.609 171.185H159.426C158.749 171.185 158.198 170.637 158.198 169.96C158.198 169.283 158.749 168.735 159.426 168.735H175.609C176.287 168.735 176.835 169.283 176.835 169.96C176.835 170.637 176.287 171.185 175.609 171.185Z" fill="#BDD1F9"/>
<path d="M170.157 175.505H159.426C158.749 175.505 158.198 174.957 158.198 174.28C158.198 173.604 158.749 173.054 159.426 173.054H170.157C170.834 173.054 171.383 173.604 171.383 174.28C171.383 174.957 170.834 175.505 170.157 175.505Z" fill="#BDD1F9"/>
<path d="M297.435 58.2555C297.435 58.2555 298.201 67.378 296.121 67.2402C294.041 67.1023 289.933 63.0862 281.646 63.7392C273.358 64.3922 263.217 66.2037 257.087 55.3647C250.957 44.5243 264.926 41.4052 264.926 41.4052L297.435 58.2555Z" fill="#233862"/>
<path d="M279.816 57.5867L321.58 61.0179L322.447 59.1621L282.409 29.6281L241.964 24.9052L241.187 26.5677L279.816 57.5867Z" fill="#2B478B"/>
<path d="M308.238 89.0162C307.991 88.1572 307.095 87.6596 306.235 87.9053C305.376 88.1525 304.879 89.0479 305.125 89.9069C305.371 90.7659 306.267 91.262 307.127 91.0179C307.986 90.7707 308.484 89.8752 308.238 89.0162Z" fill="#F99746"/>
<path d="M306.846 89.4647C308.521 89.3347 308.912 104.565 308.912 104.565C308.912 104.565 307.82 105.079 307.284 104.958C306.746 104.838 306.472 102.781 306.472 102.781L306.421 104.938C306.421 104.938 304.583 105.001 303.947 104.554C303.947 104.554 304.196 89.6723 306.846 89.4647Z" fill="#F99746"/>
<path d="M307.391 89.8086L307.089 56.5327L306.873 56.3711L285.059 40.2466L284.276 41.3053L305.872 57.2697L306.361 89.7515L307.391 89.8086Z" fill="#F99746"/>
<path d="M335.536 246.797H243.79V211.964H335.843C343.283 211.964 349.314 217.991 349.314 225.425V233.03C349.314 240.634 343.146 246.797 335.536 246.797Z" fill="#FCECDB"/>
<path d="M428.017 226.296V231.535C428.017 234.336 427.313 236.959 426.083 239.212C423.61 243.748 419.012 246.796 413.748 246.796H240.964C239.82 246.796 238.894 245.805 238.894 244.585V243.801C238.894 242.579 239.82 241.588 240.964 241.588H346.291C346.854 240.854 347.351 240.059 347.769 239.212C348.756 237.225 349.314 234.959 349.314 232.553V225.892C349.314 224.667 349.167 223.476 348.887 222.346C348.415 220.429 347.571 218.673 346.445 217.173H240.964C239.82 217.173 238.894 216.183 238.894 214.959V214.176C238.894 212.954 239.82 211.964 240.964 211.964H414.619C420.738 211.964 425.899 216.351 427.5 222.346C427.838 223.602 428.017 224.926 428.017 226.296Z" fill="#699DEE"/>
<path d="M427.501 222.346H348.887C348.415 220.429 347.571 218.673 346.445 217.173H240.964C239.82 217.173 238.894 216.183 238.894 214.959V214.176C238.894 212.954 239.82 211.964 240.964 211.964H414.619C420.738 211.964 425.899 216.351 427.501 222.346Z" fill="#548EE2"/>
<path d="M243.79 229.38L256.582 229.966L243.79 230.318V229.38Z" fill="#F4D2B8"/>
<path d="M243.79 234.846L274.227 235.431L243.79 235.784V234.846Z" fill="#F4D2B8"/>
<path d="M230.383 273.818H320.447V246.725H229.589C222.842 246.725 217.372 252.191 217.372 258.933V260.817C217.372 267.997 223.197 273.818 230.383 273.818Z" fill="#F99746"/>
<path d="M316.108 273.818H418.755V246.725H315.826C308.965 246.725 303.404 252.281 303.404 259.138V261.123C303.404 268.135 309.092 273.818 316.108 273.818Z" fill="#FCECDB"/>
<path d="M296.623 273.818H422.219C423.261 273.818 424.107 272.975 424.107 271.934V271.652C424.107 270.61 423.261 269.767 422.219 269.767H296.623C295.581 269.767 294.735 270.61 294.735 271.652V271.934C294.735 272.975 295.581 273.818 296.623 273.818Z" fill="#F99746"/>
<path d="M296.623 250.776H422.219C423.261 250.776 424.107 249.932 424.107 248.891V248.609C424.107 247.568 423.261 246.725 422.219 246.725H296.623C295.581 246.725 294.735 247.568 294.735 248.609V248.891C294.735 249.932 295.581 250.776 296.623 250.776Z" fill="#F99746"/>
<path d="M418.755 260.272L404.77 260.727L418.755 261.001V260.272Z" fill="#F4D2B8"/>
<path d="M418.755 254.036L385.484 254.492L418.755 254.766V254.036Z" fill="#F4D2B8"/>
<path d="M385.827 254.4C385.827 254.4 387.253 255.565 387.725 257.478C387.808 257.812 387.862 258.172 387.873 258.549C387.952 261.092 387.873 266.846 387.873 266.846L392.082 263.968L396.28 266.846V259.047C396.28 257.572 395.92 256.137 395.251 255.199C394.927 254.743 394.534 254.4 394.088 254.4H385.827Z" fill="#699DEE"/>
<path d="M385.827 254.4C385.827 254.4 387.253 255.565 387.725 257.478L396.161 257.592C396.161 257.592 395.83 254.852 394.088 254.4H385.827Z" fill="#568CDB"/>
<path d="M309.283 212.037H220.639V172.23H309.607C317.472 172.23 323.849 178.601 323.849 186.462V197.481C323.849 205.52 317.328 212.037 309.283 212.037Z" fill="#FCECDB"/>
<path d="M323.9 187.674V196.242C323.878 199.901 322.181 203.076 319.688 204.773C318.46 205.605 317.041 206.082 315.532 206.082H217.922C216.779 206.082 215.851 207.189 215.851 208.555V209.566C215.851 210.931 216.779 212.037 217.922 212.037H386.545C391.384 212.037 395.66 209.167 398.242 204.773C399.871 202.005 400.827 198.634 400.827 194.993V188.234C400.827 185.739 400.348 183.378 399.495 181.273C397.327 175.921 392.734 172.23 387.418 172.23H217.922C216.779 172.23 215.851 173.334 215.851 174.7V175.71C215.851 177.076 216.779 178.182 217.922 178.182H315.831C318.171 178.182 320.289 179.371 321.769 181.273C323.079 182.959 323.887 185.203 323.9 187.674Z" fill="#AFCDFB"/>
<path d="M215.851 208.555V209.566C215.851 210.931 216.779 212.037 217.922 212.037H386.545C391.384 212.037 395.66 209.167 398.242 204.773H319.688C318.46 205.605 317.041 206.082 315.532 206.082H217.922C216.779 206.082 215.851 207.189 215.851 208.555Z" fill="#A4C4F4"/>
<path d="M220.639 192.132L233.152 192.801L220.639 193.205V192.132Z" fill="#F4D2B8"/>
<path d="M220.639 182.972L250.408 183.641L220.639 184.043V182.972Z" fill="#F4D2B8"/>
<path d="M250.102 183.508C250.102 183.508 248.137 184.771 247.487 186.845C247.371 187.208 247.298 187.597 247.282 188.005C247.174 190.763 247.282 197.001 247.282 197.001L241.482 193.882L235.696 197.001V188.546C235.696 186.947 236.193 185.39 237.114 184.373C237.562 183.878 238.104 183.508 238.718 183.508H250.102Z" fill="#F99746"/>
<path d="M250.102 183.508C250.102 183.508 248.137 184.771 247.487 186.845L235.863 186.969C235.863 186.969 236.318 183.997 238.718 183.508H250.102Z" fill="#ED7D2B"/>
<path d="M101.929 208.515C101.929 208.515 120.099 216.427 123.398 216.282C126.696 216.138 147.02 210.097 147.02 210.097L146.502 213.59C146.502 213.59 130.818 222.605 125.334 223.116C119.936 223.619 101.476 218.275 99.6937 217.146C97.9115 216.018 96.7496 209.658 101.929 208.515Z" fill="#ED985F"/>
<path d="M99.1987 179.414C99.1987 179.414 92.4955 178.141 89.1571 180.577C83.1096 184.991 82.7847 200.206 80.5182 202.472C78.2516 204.739 72.788 203.772 72.3016 215.5C71.8154 227.226 74.4768 228.207 71.307 233.442C68.1373 238.677 72.6482 243.916 72.6482 243.916C72.6482 243.916 70.8005 241.027 71.5924 238.941C71.5924 238.941 72.3614 243.544 75.2881 244.623C78.2147 245.703 78.6477 246.493 79.1151 248.077C79.1151 248.077 104.083 235.292 104.11 226.223C104.137 217.156 109.023 208.173 106.624 204.244C106.624 204.244 107.693 205.924 107.824 207.794C107.824 207.794 109.263 205.038 106.768 202.472C104.272 199.906 109.695 194.595 108.892 188.446C108.341 184.224 105.376 179.598 99.1987 179.414Z" fill="#233862"/>
<path d="M104.137 217.156C102.541 218.262 100.54 219.173 98.0284 219.753C88.6122 221.928 85.0037 213.975 83.6485 208.515C84.9326 207.781 86.1409 207.62 86.8387 207.536C87.5192 207.456 88.235 207.403 88.8277 207.374C89.8851 206.564 91.4606 203.252 91.809 198.109L92.252 198.228L99.6729 200.258C99.6729 200.258 99.333 202.615 99.1663 204.843C99.0375 206.586 99.0172 208.254 99.3478 208.661C99.9268 208.786 100.274 208.869 100.274 208.869L100.278 208.875C100.378 209.038 102.531 212.577 104.137 217.156Z" fill="#FFB27D"/>
<path d="M99.6732 200.26C99.6732 200.26 99.332 202.615 99.1667 204.845C94.9625 204.425 93.0114 200.425 92.2519 198.229L99.6732 200.26Z" fill="#ED985F"/>
<path d="M100.929 202.472C100.929 202.472 90.9493 201.922 91.3879 195.717C91.8264 189.513 90.8339 185.262 97.2238 185.351C103.614 185.44 104.683 187.895 105.041 190.002C105.399 192.109 103.536 202.455 100.929 202.472Z" fill="#FFB27D"/>
<path d="M104.992 186.531C103.585 184.554 102.392 184.88 101.699 185.395C96.4657 182.011 92.6376 186.184 92.6376 186.184C91.6513 190.589 88.2556 192.909 88.2556 192.909C88.2556 192.909 89.9918 194.159 94.2574 193.384C95.5603 193.147 96.7678 192.319 97.8178 191.288C95.919 194.006 93.465 195.885 93.465 195.885C98.6338 193.933 101.142 187.124 101.395 186.403C101.964 186.993 103.078 188.265 103.361 189.454C103.744 191.069 105.398 193.595 106.355 193.552C106.355 193.552 107.102 189.495 104.992 186.531Z" fill="#233862"/>
<path d="M80.8061 237.431C79.9049 232.827 76.9665 214.435 79.9049 208.515C80.9602 206.39 85.1011 206.198 89.6443 206.384C91.0581 207.297 96.4451 210.742 98.6577 210.313C98.6815 210.308 98.7245 210.298 98.7815 210.284C99.8235 210.022 100.217 209.292 99.3477 208.661C99.346 208.66 101.598 208.444 104.392 208.97C105.971 209.267 110.228 211.468 110.228 211.468C110.228 211.468 108.084 215.338 104.923 216.674C105.46 221.479 104.661 223.598 99.6727 234.697C95.4573 244.078 100.241 252.524 100.241 252.524C100.241 252.524 75.4275 272.462 75.2893 262.31C75.1858 254.668 81.9578 243.314 80.8061 237.431Z" fill="#F9DDBF"/>
<path d="M101.471 274.203C102.821 274.051 104.036 273.312 104.79 272.184C104.91 272.005 105.038 271.811 105.174 271.607C107.998 267.334 109.097 254.248 115.451 240.307C116.998 236.914 122.553 236.304 124.068 232.467C124.068 232.467 127.796 220.032 116.932 219.665C106.068 219.298 87.8375 254.265 87.5497 257.933C87.2707 261.484 80.3673 276.582 101.471 274.203Z" fill="#DD6D22"/>
<path d="M144.649 273.916H129.187C129.187 273.916 128.609 271.452 129.624 269.775C130.523 268.292 130.179 267.447 129.513 266.219C130.214 266.505 131.119 266.765 132.117 266.708C132.887 266.664 133.703 266.315 134.416 265.9C135.082 266.659 137.933 269.886 138.822 270.525C139.833 271.251 144.338 270.992 144.649 273.916Z" fill="#233862"/>
<path d="M124.421 223.261C125.352 230.236 128.988 252.251 135.401 262.992C137.469 266.455 130.192 268.396 130.153 268.385C129.177 268.13 127.551 266.575 126.801 265.9C121.594 261.211 111.024 247.932 111.024 237.287C111.024 232.097 110.933 222.182 114.71 219.663C117.036 218.112 124.051 220.489 124.421 223.261Z" fill="#ED7D2B"/>
<path d="M92.2512 273.916C92.2512 273.916 92.8243 273.119 93.8235 271.607C95.0126 269.807 96.3284 266.264 97.925 261.724C99.6022 256.958 101.592 251.094 104.078 244.994C104.845 243.11 105.66 241.203 106.527 239.301C108.074 235.906 112.332 236.375 113.846 232.539C113.846 232.539 119.756 219.238 108.892 218.872C98.0286 218.505 77.3856 254.451 76.1992 257.933C74.9006 261.743 68.5647 277.568 92.2512 273.916Z" fill="#F99746"/>
<path d="M133.3 273.916H117.837C117.837 273.916 117.259 271.452 118.274 269.775C119.173 268.292 118.828 267.447 118.163 266.219C118.863 266.505 119.769 266.765 120.767 266.708C121.537 266.664 122.352 266.315 123.067 265.9C123.732 266.659 126.582 269.886 127.472 270.525C128.482 271.251 132.987 270.992 133.3 273.916Z" fill="#2B478B"/>
<path d="M97.925 261.724C99.6022 256.958 101.592 251.094 104.078 244.994C103.429 240.371 102.028 236.326 99.6727 234.697C99.6727 234.697 93.9587 252.386 97.925 261.724Z" fill="#ED7D2B"/>
<path d="M115.395 222.766C116.326 229.741 117.637 252.251 124.051 262.992C126.119 266.455 118.842 268.396 118.802 268.385C117.826 268.13 116.2 266.575 115.451 265.9C110.244 261.211 99.6732 247.932 99.6732 237.287C99.6732 232.097 105.769 222.598 109.547 220.078C111.873 218.527 115.025 219.994 115.395 222.766Z" fill="#F99746"/>
<path d="M102.797 198.903C102.797 198.903 101.853 198.531 99.1988 198.746C99.1988 198.746 99.3398 199.781 101.298 199.882C102.407 199.941 102.797 198.903 102.797 198.903Z" fill="white"/>
<path d="M148.958 202.787L145.753 197.007L138.819 216.346L142.909 220.734L148.958 202.787Z" fill="#163560"/>
<path d="M132.221 206.173L125.774 224.576L142.909 220.734L148.958 202.787L132.221 206.173Z" fill="#1C468A"/>
<path d="M126.116 223.648L125.816 223.123L131.915 205.707L132.221 206.173L126.116 223.648Z" fill="#EFDECE"/>
<path d="M131.915 205.707L148.161 202.548L148.958 202.787L132.221 206.173L131.915 205.707Z" fill="#FCECDB"/>
<path d="M148.958 202.788L145.493 197.29L143.282 203.498L148.161 202.548L148.958 202.788Z" fill="#EFDECE"/>
<path d="M137.168 208.838C136.611 208.731 135.416 208.281 134.206 207.948C134.567 207.667 134.968 207.323 135.081 206.97C135.297 206.288 135.441 206.068 134.721 206.284C134.001 206.501 131.482 207.655 131.482 207.655L131.489 207.658C130.058 208.075 128.74 210.097 128.74 210.097C128.74 210.097 111.024 216.319 108.892 216.427C105.595 216.592 83.6485 208.515 83.6485 208.515C78.4693 209.658 79.6312 216.018 81.4134 217.146C83.1955 218.275 98.9875 224.015 108.346 224.123C113.087 224.178 130.33 213.103 130.33 213.103C130.33 213.103 132.345 212.182 133.93 212.471C135.512 212.758 139.184 212.471 139.975 211.176C140.767 209.881 138.104 209.018 137.168 208.838Z" fill="#FFB27D"/>
<path d="M94.9553 212.498C94.9553 212.498 92.9925 218.707 86.2515 220.121C86.2515 220.121 75.1195 216.693 80.6622 209.116C80.6622 209.116 86.1424 205.046 94.9553 212.498Z" fill="#F9DDBF"/>
<path d="M148.671 209.306H148.67C148.675 209.135 148.657 208.965 148.611 208.802C148.611 208.802 147.022 206.292 146.502 206.189C144.919 205.876 144.919 207.961 145.255 209.306C145.488 210.241 146.083 211.141 146.565 211.626L146.502 213.59C149.179 212.121 148.671 209.306 148.671 209.306Z" fill="#FFB27D"/>
<path d="M55.6624 176.529C56.2953 160.879 43.1677 153.926 29.7451 153.926C16.3224 153.926 1.71517 157.402 0.449547 178.212C-0.364545 191.601 6.77767 199.84 27.3441 199.84C34.2803 199.84 39.6709 198.746 43.7999 196.797L54.0805 205.925L49.0285 193.307C53.5038 189.148 55.3894 183.284 55.6624 176.529Z" fill="#EBF3FA"/>
<path d="M19.5467 171.298V174.952H21.9397V171.298H22.9144V179.824H21.9397V175.838H19.5467V179.824H18.572V171.298H19.5467Z" fill="#91B5F8"/>
<path d="M26.9157 176.13C26.9284 174.916 26.4726 174.371 26.0041 174.371C25.3584 174.371 25.042 175.295 25.0039 176.13H26.9157ZM24.9914 176.851C24.9914 178.736 25.7382 179.129 26.4347 179.129C26.8651 179.129 27.2069 179.027 27.4475 178.9L27.6121 179.609C27.2702 179.786 26.7512 179.9 26.2575 179.9C24.7887 179.9 24.0292 178.697 24.0292 176.826C24.0292 174.853 24.8774 173.612 26.1056 173.612C27.3461 173.612 27.8525 174.929 27.8525 176.295C27.8525 176.534 27.84 176.699 27.8273 176.851H24.9914Z" fill="#91B5F8"/>
<path d="M28.9035 171.07H29.8783V179.824H28.9035V171.07Z" fill="#91B5F8"/>
<path d="M31.3217 171.07H32.2964V179.824H31.3217V171.07Z" fill="#91B5F8"/>
<path d="M34.449 176.762C34.449 177.775 34.6263 179.154 35.5125 179.154C36.3482 179.154 36.5253 177.724 36.5253 176.762C36.5253 175.826 36.3482 174.384 35.4871 174.384C34.6136 174.384 34.449 175.826 34.449 176.762ZM37.5001 176.762C37.5001 179.129 36.4113 179.926 35.4619 179.926C34.3603 179.926 33.4742 178.926 33.4742 176.775C33.4742 174.548 34.4743 173.612 35.525 173.612C36.6267 173.612 37.5001 174.637 37.5001 176.762Z" fill="#91B5F8"/>
<path d="M324.527 129.559C325.105 115.25 313.104 108.894 300.833 108.894C288.561 108.894 275.208 112.071 274.051 131.098C273.307 143.337 279.836 150.869 298.638 150.869C304.979 150.869 309.907 149.869 313.682 148.086L323.08 156.432L318.462 144.897C322.554 141.095 324.278 135.733 324.527 129.559Z" fill="#91B5F8"/>
<path d="M287.436 133.53C287.532 133.551 287.671 133.573 287.853 133.573C288.699 133.573 289.257 133.069 289.257 132.139C289.257 131.144 288.57 130.673 287.8 130.662H287.436V133.53ZM287.436 130.029H287.811C288.485 130.029 289.064 129.516 289.064 128.757C289.064 128.093 288.753 127.579 287.874 127.579C287.682 127.579 287.532 127.601 287.436 127.633V130.029ZM286.621 127.077C286.965 126.991 287.36 126.937 287.822 126.937C288.475 126.937 289.032 127.077 289.417 127.44C289.728 127.73 289.888 128.158 289.888 128.671C289.888 129.41 289.481 129.987 288.775 130.265V130.297C289.609 130.522 290.113 131.196 290.113 132.139C290.113 132.738 289.92 133.22 289.6 133.573C289.192 134.033 288.518 134.226 287.693 134.226C287.168 134.226 286.846 134.193 286.621 134.15V127.077Z" fill="white"/>
<path d="M291.687 131.592C291.687 132.45 291.838 133.616 292.588 133.616C293.294 133.616 293.444 132.407 293.444 131.592C293.444 130.801 293.294 129.581 292.566 129.581C291.826 129.581 291.687 130.801 291.687 131.592ZM294.269 131.592C294.269 133.594 293.347 134.269 292.545 134.269C291.612 134.269 290.864 133.423 290.864 131.603C290.864 129.72 291.709 128.928 292.597 128.928C293.53 128.928 294.269 129.795 294.269 131.592Z" fill="white"/>
<path d="M295.19 130.34C295.19 129.73 295.157 129.421 295.148 129.002H295.864L295.907 129.635H295.929C296.153 129.216 296.572 128.928 297.117 128.928C297.836 128.928 298.37 129.452 298.37 130.705V134.182H297.546V130.853C297.546 130.234 297.428 129.624 296.829 129.624C296.486 129.624 296.153 129.912 296.058 130.459C296.025 130.587 296.015 130.747 296.015 130.93V134.182H295.19V130.34Z" fill="white"/>
<path d="M300.492 127.665C300.492 127.986 300.299 128.2 299.999 128.2C299.72 128.2 299.517 127.986 299.517 127.665C299.517 127.345 299.731 127.129 300.01 127.129C300.299 127.129 300.492 127.345 300.492 127.665ZM298.649 135.67C298.886 135.607 299.174 135.521 299.346 135.264C299.528 134.985 299.592 134.6 299.592 133.616V129.002H300.416V133.85C300.416 134.942 300.256 135.445 299.891 135.83C299.582 136.152 299.078 136.312 298.756 136.323L298.649 135.67Z" fill="white"/>
<path d="M302.14 131.592C302.14 132.45 302.291 133.616 303.041 133.616C303.747 133.616 303.898 132.407 303.898 131.592C303.898 130.801 303.747 129.581 303.019 129.581C302.28 129.581 302.14 130.801 302.14 131.592ZM304.722 131.592C304.722 133.594 303.801 134.269 302.998 134.269C302.066 134.269 301.315 133.423 301.315 131.603C301.315 129.72 302.162 128.928 303.051 128.928C303.983 128.928 304.722 129.795 304.722 131.592Z" fill="white"/>
<path d="M308.749 132.77C308.749 133.337 308.781 133.797 308.792 134.182H308.073L308.01 133.637H307.988C307.839 133.893 307.442 134.269 306.886 134.269C305.986 134.269 305.621 133.562 305.621 132.277V129.002H306.446V132.159C306.446 132.973 306.575 133.573 307.142 133.573C307.625 133.573 307.839 133.123 307.882 132.887C307.913 132.749 307.924 132.587 307.924 132.416V129.002H308.749V132.77Z" fill="white"/>
<path d="M309.896 130.34C309.896 129.903 309.862 129.387 309.853 129.002H310.59L310.633 129.826H310.655C310.827 129.335 311.266 128.928 311.748 128.928C311.812 128.928 311.865 128.928 311.919 128.939V129.773C311.865 129.773 311.812 129.773 311.748 129.773C311.223 129.773 310.838 130.254 310.752 130.844C310.73 130.982 310.719 131.144 310.719 131.315V134.182H309.896V130.34Z" fill="white"/>
<path d="M320.707 205.052C323.619 210.2 327.313 212.206 327.313 212.206L342.74 212.314C342.74 212.314 318.486 201.125 320.707 205.052Z" fill="#233862"/>
<path d="M332.276 244.807C332.674 245.27 332.721 245.785 332.518 246.333L332.515 246.341C332.139 247.354 330.917 248.481 329.496 249.603C329.315 249.747 329.153 249.879 329.013 250.001C328.975 250.032 328.939 250.064 328.904 250.096C328.875 250.121 328.848 250.146 328.82 250.17C327.496 251.375 327.989 251.655 325.607 254.101C322.888 256.885 321.031 256.923 320.504 256.663C320.06 256.443 320.979 254.961 321.997 253.297C322.046 253.216 322.094 253.136 322.144 253.055C322.281 252.833 322.414 252.608 322.549 252.386C323.743 250.383 323.446 249.436 323.188 246.439C322.979 244.005 319.496 232.821 319.496 232.821L324.671 231.966C324.671 231.966 326.165 240.864 327.87 242.246C328.782 242.981 329.81 242.997 330.687 243.544C330.748 243.582 330.809 243.622 330.869 243.661C331.367 243.997 331.876 244.343 332.276 244.807Z" fill="#FFB27D"/>
<path d="M332.276 244.807C332.674 245.27 332.721 245.785 332.518 246.333L332.515 246.341C332.057 247.352 330.864 248.473 329.491 249.593C329.312 249.739 329.153 249.874 329.013 250.001C328.975 250.032 328.939 250.064 328.904 250.096C328.875 250.121 328.848 250.147 328.82 250.17C327.496 251.375 327.989 251.655 325.607 254.101C322.888 256.885 321.031 256.923 320.504 256.663C320.06 256.443 320.979 254.961 321.997 253.297C322.523 253.109 324.969 252.136 326.829 249.791C328.468 247.731 329.57 245.078 330.687 243.544C330.748 243.582 330.809 243.622 330.869 243.661C331.367 243.997 331.876 244.343 332.276 244.807Z" fill="#233862"/>
<path d="M290.62 241.287C290.29 242.88 288.017 242.598 285.481 241.959C282.945 241.32 283.543 242.062 279.93 241.637C276.317 241.211 275.231 239.856 275.124 239.319C275.029 238.842 276.817 238.685 278.734 238.479C278.977 238.453 279.218 238.425 279.46 238.396C281.627 238.141 283.221 236.756 285.194 235.624C287.064 234.553 289.874 230.15 289.874 230.15L294.831 230.576C294.831 230.576 292.199 234.509 291.181 236.219C290.582 237.225 290.604 238.561 290.67 239.593C290.705 240.154 290.737 240.726 290.62 241.287Z" fill="#FFB27D"/>
<path d="M285.481 241.959C282.945 241.32 283.543 242.062 279.93 241.637C276.317 241.211 275.231 239.856 275.124 239.319C275.029 238.842 276.817 238.685 278.734 238.479L278.753 238.515C278.753 238.515 280.91 240.067 283.92 240.16C286.372 240.238 288.977 239.553 290.67 239.593C290.705 240.154 290.737 240.726 290.62 241.287C290.29 242.88 288.017 242.598 285.481 241.959Z" fill="#233862"/>
<path d="M309.85 209.734L314.397 222.232L320.335 238.552C320.335 238.552 321.976 238.721 323.553 238.281C325.004 237.873 326.672 236.791 326.672 236.791C326.672 236.791 325.115 219.302 322.051 209.247C321.266 206.666 320.381 204.577 319.394 203.398C314.574 197.624 309.85 209.734 309.85 209.734Z" fill="#233862"/>
<path d="M314.703 189.969C317.746 189.012 326.4 190.329 335.089 192.093L336.934 189.104L355.739 187.769C355.739 187.769 361.843 201.556 358.388 210.29C357.878 211.574 356.64 212.108 354.949 212.124L354.948 212.125C354.948 212.125 343.73 212.32 340.096 212.295C330.75 212.228 320.36 205.735 319.012 205.455C316.806 204.998 315.891 209.407 313.648 214.029C311.407 218.65 292.735 234.415 292.735 234.415C292.735 234.415 289.882 234.425 288.707 233.974C287.443 233.489 286.984 232.87 286.984 232.87C286.984 232.87 307.837 192.129 314.703 189.969Z" fill="#2B478B"/>
<path d="M337.226 163.239C343.893 166.968 357.417 174.697 357.488 174.65C357.488 174.65 362.465 176.564 365.31 174.705C370.051 171.607 372.641 163.196 364.062 155.882C359.783 152.233 356.732 151.332 356.308 145.552C356.078 142.417 351.864 132.044 344.735 132.95C344.141 133.026 343.539 133.08 342.94 133.057C342.109 133.023 340.734 133.134 339.319 133.963C335.272 136.333 327.202 161.743 337.226 163.239Z" fill="#233862"/>
<path d="M342.858 160.143C342.829 160.162 346.144 161.319 348.372 160.351C350.469 159.443 352.075 156.018 352.045 156.016C351.094 155.966 350.056 155.127 349.292 149.671L348.886 149.813L342.061 152.213C342.061 152.213 342.539 154.4 342.843 156.479C343.099 158.226 343.232 159.899 342.858 160.143Z" fill="#FFB27D"/>
<path d="M342.061 152.213C342.061 152.213 342.352 153.745 342.756 155.936C346.67 155.259 348.32 151.923 348.886 149.813L342.061 152.213Z" fill="#ED975D"/>
<path d="M341.032 154.373C341.032 154.373 350.354 153.189 349.527 147.4C348.7 141.608 349.346 137.557 343.36 138.068C337.373 138.578 336.534 140.952 336.339 142.952C336.146 144.952 338.585 154.531 341.032 154.373Z" fill="#FFB27D"/>
<path d="M336.702 139.784C336.702 139.784 342.628 144.96 346.68 145.403C350.732 145.845 352.277 144.555 352.277 144.555C352.277 144.555 349.901 142.555 348.485 139.345C348.068 138.397 347.176 137.745 346.145 137.648C343.251 137.378 337.763 137.225 336.702 139.784Z" fill="#233862"/>
<path d="M340.433 139.35C340.433 139.35 338.423 141.263 337.785 142.689C337.17 144.063 336.964 147.361 337.438 148.675C337.438 148.675 334.372 142.615 336.153 139.694C338.041 136.595 340.433 139.35 340.433 139.35Z" fill="#233862"/>
<path d="M334.92 173.797C335.067 192.638 334.891 188.701 336.94 190.503C337.435 190.937 338.829 191.204 340.667 191.337C346.445 191.762 356.614 190.882 357.008 189.817C358.369 186.132 357.434 184.978 358.587 179.33C358.706 178.729 358.855 178.079 359.028 177.372C359.983 173.494 360.897 172.179 357.649 165.915C354.705 160.242 351.638 155.633 351.357 155.796C343.451 160.411 342.843 156.481 342.843 156.481C342.843 156.481 334.845 164.608 334.92 173.797Z" fill="#F9DDBF"/>
<path d="M314.397 222.232L320.335 238.552C320.335 238.552 321.976 238.721 323.553 238.281C325.004 237.873 326.672 236.791 326.672 236.791C326.672 236.791 325.115 219.302 322.051 209.247L314.397 222.232Z" fill="#2B478B"/>
<path d="M342.843 156.479C342.843 156.479 334.732 157.795 333.755 161.273C332.78 164.754 327.037 185.205 327.037 185.205C327.037 185.205 331.15 185.974 333.066 184.086C334.983 182.198 339.811 166.492 339.811 166.492L342.843 156.479Z" fill="#F9DDBF"/>
<path d="M340.667 191.337C346.445 191.762 356.614 190.882 357.008 189.817C358.368 186.132 357.434 184.978 358.587 179.33L355.855 171.464C355.855 171.464 356.253 180.205 353.658 182.485C351.066 184.764 343.07 186.847 341.804 188.758C341.192 189.674 340.788 190.597 340.667 191.337Z" fill="#F2CCAA"/>
<path d="M347.317 187.709C347.317 187.709 341.622 186.4 340.699 186.899C339.774 187.398 337.513 189.224 337.227 189.864C336.94 190.503 339.28 189.392 340.038 189.194C340.531 189.066 341.819 189.524 342.458 189.741C345.143 190.657 346.796 190.207 346.796 190.207L347.317 187.709Z" fill="#FFB27D"/>
<path d="M351.362 155.791C351.362 155.791 359.016 156.318 361.64 160.031C365.336 165.258 372.582 187.476 368.319 190.402C363.518 193.698 346.567 191.12 346.567 191.12C346.567 191.12 346.022 188.479 346.816 187.208C347.611 185.939 360.392 183.967 360.985 183.382C361.579 182.799 353.701 171.849 353.714 170.084C353.726 168.317 351.362 155.791 351.362 155.791Z" fill="#F9DDBF"/>
<path d="M340.412 188.484C340.412 188.484 339.205 190.015 338.813 190.197C338.42 190.378 338.166 190.33 338.166 190.33L338.983 188.888L340.412 188.484Z" fill="#FFB27D"/>
<path d="M340.699 186.899L337.213 188.562C337.213 188.562 337.359 188.804 337.787 188.787C338.214 188.771 339.297 188.384 339.297 188.384L340.699 186.899Z" fill="#FFB27D"/>
<path d="M339.555 192.682L312.073 192.489L303.951 171.887L331.391 172.081L339.555 192.682Z" fill="#F99746"/>
<path d="M311.756 191.687L348.049 191.942L348.042 192.743L312.073 192.489L311.756 191.687Z" fill="#ED7D2B"/>
<path d="M319.083 182.267C318.88 181.542 319.304 180.961 320.025 180.965C320.749 180.97 321.499 181.561 321.7 182.284C321.902 183.008 321.48 183.591 320.758 183.585C320.035 183.58 319.285 182.989 319.083 182.267Z" fill="white"/>
<path d="M256.037 257.527L256.034 274.116L172.533 274.098L172.536 257.511L256.037 257.527Z" fill="#C65447"/>
<path d="M172.531 274.1L160.259 268.854L153.122 265.802L160.427 262.683L172.536 257.511C172.536 257.511 174.152 261.55 174.176 265.348C174.214 271.309 172.531 274.1 172.531 274.1Z" fill="#FCECDB"/>
<path d="M265.743 263.031V268.276C265.742 271.502 263.125 274.116 259.897 274.116H256.034L256.037 257.527L260.238 257.529C263.28 257.529 265.745 259.993 265.743 263.031Z" fill="#FCECDB"/>
<path d="M160.427 262.683C160.731 264.358 160.994 266.925 160.259 268.854L153.122 265.802L160.427 262.683Z" fill="#2B478B"/>
<path d="M190.484 171.142C190.484 171.142 191.98 177.628 196.34 177.628C200.078 177.628 205.204 169.185 205.204 169.185L190.484 171.142Z" fill="#F99746"/>
<path d="M240.54 266.93L237.739 268.856C237.739 268.856 224.268 254.506 221.015 240.751C220.436 238.296 220.201 235.875 220.449 233.577C220.449 233.577 220.252 232.954 219.908 231.852C219.894 231.803 219.878 231.754 219.862 231.705C219.711 231.221 219.532 230.652 219.331 230.009C218.677 227.931 217.779 225.086 216.758 221.849C214.403 214.396 209.018 197.592 206.717 190.601L223.256 184.622C223.256 184.622 225.135 188.902 227.835 200.537C228.25 202.055 228.666 203.735 229.056 205.564C229.497 207.637 229.908 209.903 230.25 212.352C230.831 216.498 231.218 221.164 231.241 226.283C231.251 228.364 231.2 230.524 231.076 232.751C230.986 234.383 231.229 236.561 231.685 239.036C233.768 250.356 240.54 266.93 240.54 266.93Z" fill="#2B478B"/>
<path d="M249.352 273.845H235.98C235.98 273.845 235.481 271.715 236.358 270.265C237.135 268.981 236.838 268.25 236.263 267.188C236.868 267.436 237.652 267.662 238.515 267.611C239.181 267.573 239.885 267.272 240.504 266.913C241.078 267.569 243.542 270.36 244.313 270.913C245.187 271.54 249.082 271.317 249.352 273.845Z" fill="#233862"/>
<path d="M230.25 212.352L219.862 231.705C219.711 231.222 219.532 230.653 219.331 230.009C218.677 227.931 217.78 225.087 216.758 221.849C214.403 214.397 209.018 197.592 206.717 190.601L223.256 184.622C223.256 184.622 225.135 188.902 227.835 200.537C228.25 202.055 228.666 203.735 229.056 205.564C229.497 207.637 229.908 209.903 230.25 212.352Z" fill="#233862"/>
<path d="M206.448 269.662C206.448 269.662 205.523 271.932 206.394 273.845H213.667C213.667 273.845 213.818 272.121 211.179 270.119C209.18 268.604 206.448 269.662 206.448 269.662Z" fill="#233862"/>
<path d="M214.363 121.928C214.368 121.565 214.554 117.664 220.485 117.317C220.485 117.317 217.575 117.736 217.101 119.03C217.101 119.03 219.05 117.398 220.68 117.869C222.312 118.339 223.331 121.149 223.364 122.081C223.396 123.013 222.568 126.04 221.548 126.321C221.161 126.427 220.712 126.411 220.303 126.353C220.587 126.773 220.866 127.235 221.134 127.755C223.621 132.557 221.477 138.214 219.458 137.737C218.163 137.431 217.377 139.673 217.377 139.673L204.93 128.977C204.93 128.977 209.291 119.378 214.363 121.928Z" fill="#2C3A64"/>
<path d="M206.54 154.427C207.919 155.384 209.65 156.173 211.821 156.674C219.965 158.554 223.085 151.677 224.257 146.956C223.147 146.322 222.101 146.181 221.499 146.109C220.91 146.04 220.29 145.994 219.778 145.968C218.864 145.269 217.5 142.404 217.201 137.957L216.817 138.06L210.4 139.816C210.4 139.816 210.693 141.854 210.838 143.781C210.949 145.288 210.966 146.729 210.681 147.082C210.179 147.19 209.88 147.262 209.88 147.262L209.876 147.268C209.789 147.409 207.929 150.468 206.54 154.427Z" fill="#FFB27D"/>
<path d="M210.4 139.816C210.4 139.816 210.695 141.852 210.838 143.781C214.473 143.418 216.16 139.959 216.817 138.061L210.4 139.816Z" fill="#ED985F"/>
<path d="M210.325 142.876C210.325 142.876 218.696 140.726 217.275 135.538C215.856 130.35 215.979 126.578 210.576 127.73C205.171 128.884 204.679 131.145 204.731 132.993C204.784 134.839 208.111 143.301 210.325 142.876Z" fill="#FFB27D"/>
<path d="M204.186 130.04C205.046 128.128 206.113 128.202 206.787 128.522C210.654 124.769 214.606 127.663 214.606 127.663C216.186 131.232 219.458 132.627 219.458 132.627C219.458 132.627 218.197 133.982 214.447 134.042C213.302 134.061 212.14 133.564 211.074 132.865C213.144 134.851 215.542 136.031 215.542 136.031C210.828 135.247 207.551 129.895 207.215 129.326C206.833 129.922 206.102 131.189 206.064 132.245C206.011 133.679 206.571 136.45 205.753 136.575C205.753 136.575 202.898 132.911 204.186 130.04Z" fill="#2C3A64"/>
<path d="M207.918 146.829C207.918 146.829 221.976 143.418 228.088 148.457L225.034 191.032L197.539 184.393C197.539 184.393 198.313 181.701 203.585 174.537C208.857 167.372 206.563 156.864 207.918 146.829Z" fill="#FFB27D"/>
<path d="M216.113 186.292C216.113 186.292 216.097 186.436 216.068 186.712C216.055 186.829 216.04 186.974 216.022 187.14C215.903 188.243 215.68 190.36 215.391 193.113C214.636 200.334 213.453 211.931 212.646 221.085C212.014 228.242 211.613 233.906 211.83 234.816C212.481 237.553 211.83 270.271 211.83 270.271C209.493 271.392 205.95 270.271 205.95 270.271C205.95 270.271 199.726 240.788 200.597 236.689C201.468 232.591 200.015 229.093 200.015 229.093C195.181 206.602 195.71 194.136 196.67 188.169C196.949 186.433 197.265 185.248 197.496 184.525C197.693 183.91 197.828 183.63 197.828 183.63C208.489 180.762 216.113 186.292 216.113 186.292Z" fill="#2B478B"/>
<path d="M229.984 160.6C229.305 165.722 226.59 171.99 225.621 175.363C225.621 175.363 227.242 187.077 225.694 190.292C225.518 190.659 225.3 190.915 225.034 191.031C219.3 193.527 196.974 191.104 196.032 183.907C195.69 181.292 204.536 172.093 205.052 170.978C205.266 170.515 205.493 169.019 204.456 165.917C202.985 170.447 194.871 169.144 194.871 169.144C195.823 167.516 198.197 156.249 200.846 151.164C202.838 147.341 208.156 146.788 208.156 146.788C208.156 146.788 210.37 150.295 215.722 149.798C221.077 149.3 222.055 146.026 222.055 146.026C222.055 146.026 226.802 146.656 228.266 147.835C228.52 148.04 230.874 153.89 229.984 160.6Z" fill="#F99746"/>
<path d="M225.621 175.363C225.621 175.363 227.242 187.077 225.694 190.292C221.518 188.197 218.225 182.53 218.985 176.216C219.546 171.55 220.382 170.485 222.88 167.814C224.717 165.852 228.961 165.741 228.628 166.675C227.638 169.455 226.133 173.582 225.621 175.363Z" fill="#ED7D2B"/>
<path d="M208.184 161.513L217.757 176.859H201.469L192.348 161.844L208.184 161.513Z" fill="#1C468A"/>
<path d="M217.259 176.089L217.424 175.553L208.367 161.029L208.184 161.513L217.259 176.089Z" fill="#EFDECE"/>
<path d="M208.367 161.029L193.022 161.465L192.348 161.844L208.184 161.513L208.367 161.029Z" fill="#FCECDB"/>
<path d="M192.348 161.844L183.739 157.188L193.774 172.935L201.469 176.859L192.348 161.844Z" fill="#163560"/>
<path d="M237.901 172.599C236.98 173.02 234.613 175.805 233.768 176.089C229.969 177.358 213.805 173.979 213.805 173.979L214.306 171.15C214.306 171.15 230.171 171.57 231.915 171.104C232.244 171.016 233.958 168.337 234.618 167.952L237.901 172.599Z" fill="#FFB27D"/>
<path d="M214.306 171.149C214.306 171.149 212.393 169.594 211.101 169.946C209.808 170.298 207.905 171.932 207.199 172.318C206.494 172.705 204.574 174.089 205.547 174.925C206.519 175.762 209.547 175.043 210.747 174.402C211.946 173.761 213.807 173.979 213.807 173.979L214.306 171.149Z" fill="#FFB27D"/>
<path d="M211.467 169.895C211.467 169.895 209.142 169.618 208.506 169.63C207.872 169.643 208.045 169.783 208.395 170.274C208.746 170.767 209.956 170.955 210.011 171.128C210.067 171.299 211.467 169.895 211.467 169.895Z" fill="#FFB27D"/>
<path d="M222.055 146.025C222.055 146.025 228.951 146.843 230.85 149.797C233.249 153.535 238.914 168.413 238.732 172.163C238.732 172.163 234.589 179.208 220.387 178.079C220.387 178.079 218.909 172.864 221.897 171.143C221.897 171.143 229.192 169.846 230.031 169.106L224.084 158.305L222.055 146.025Z" fill="#F99746"/>
<path d="M194.554 167.455C194.34 166.586 192.446 167.128 191.807 167.629C191.652 167.749 191.485 167.957 191.322 168.198C191.301 168.054 191.284 167.914 191.274 167.806C191.239 167.397 190.764 166.667 190.646 167.214C190.527 167.762 190.334 170.058 190.334 170.058C190.31 171.909 191.501 172.673 192.266 172.071C193.03 171.469 194.767 168.323 194.554 167.455Z" fill="#FFB27D"/>
<path d="M447.654 275.324H13.3405C13.0328 275.324 12.7809 275.073 12.7809 274.766V274.4C12.7809 274.091 13.0328 273.84 13.3405 273.84H447.654C447.961 273.84 448.214 274.091 448.214 274.4V274.766C448.214 275.073 447.961 275.324 447.654 275.324Z" fill="#2E3552"/>
</svg>
