<svg width="1040" height="620" viewBox="0 0 1040 620" fill="none" xmlns="http://www.w3.org/2000/svg">
<path fill-rule="evenodd" clip-rule="evenodd" d="M112 340.083L112 336L116 336L116 340.083L112 340.083ZM112 356.417L112 348.25L116 348.25L116 356.417L112 356.417ZM112 372.75L112 364.583L116 364.583L116 372.75L112 372.75ZM112 389.083L112 380.917L116 380.917L116 389.083L112 389.083ZM112 405.417L112 397.25L116 397.25L116 405.417L112 405.417ZM112 421.75L112 413.583L116 413.583L116 421.75L112 421.75ZM112 438.083L112 429.917L116 429.917L116 438.083L112 438.083ZM112 454.417L112 446.25L116 446.25L116 454.417L112 454.417ZM112 470.75L112 462.583L116 462.583L116 470.75L112 470.75ZM112 483L112 478.917L116 478.917L116 483L112 483Z" fill="#E3E8EF"/>
<path d="M584 79C584 67.9543 592.954 59 604 59H774C785.046 59 794 67.9543 794 79V117C794 128.046 785.046 137 774 137H604C592.954 137 584 128.046 584 117V79Z" fill="white"/>
<path fill-rule="evenodd" clip-rule="evenodd" d="M774 61H604C594.059 61 586 69.0589 586 79V117C586 126.941 594.059 135 604 135H774C783.941 135 792 126.941 792 117V79C792 69.0589 783.941 61 774 61ZM604 59C592.954 59 584 67.9543 584 79V117C584 128.046 592.954 137 604 137H774C785.046 137 794 128.046 794 117V79C794 67.9543 785.046 59 774 59H604Z" fill="#EDF0F4"/>
<path d="M31 503C31 491.954 39.9543 483 51 483H221C232.046 483 241 491.954 241 503V541C241 552.046 232.046 561 221 561H51C39.9543 561 31 552.046 31 541V503Z" fill="white"/>
<path fill-rule="evenodd" clip-rule="evenodd" d="M221 485H51C41.0589 485 33 493.059 33 503V541C33 550.941 41.0589 559 51 559H221C230.941 559 239 550.941 239 541V503C239 493.059 230.941 485 221 485ZM51 483C39.9543 483 31 491.954 31 503V541C31 552.046 39.9543 561 51 561H221C232.046 561 241 552.046 241 541V503C241 491.954 232.046 483 221 483H51Z" fill="#EDF0F4"/>
<path d="M727 180C727 168.954 735.954 160 747 160H1005C1016.05 160 1025 168.954 1025 180V253C1025 264.046 1016.05 273 1005 273H747C735.954 273 727 264.046 727 253V180Z" fill="white"/>
<path fill-rule="evenodd" clip-rule="evenodd" d="M1005 162H747C737.059 162 729 170.059 729 180V253C729 262.941 737.059 271 747 271H1005C1014.94 271 1023 262.941 1023 253V180C1023 170.059 1014.94 162 1005 162ZM747 160C735.954 160 727 168.954 727 180V253C727 264.046 735.954 273 747 273H1005C1016.05 273 1025 264.046 1025 253V180C1025 168.954 1016.05 160 1005 160H747Z" fill="#EDF0F4"/>
<path d="M678 81.5C678 79.0147 680.015 77 682.5 77H776.5C778.985 77 781 79.0147 781 81.5C781 83.9853 778.985 86 776.5 86H682.5C680.015 86 678 83.9853 678 81.5Z" fill="#EDF0F4"/>
<path d="M125 505.5C125 503.015 127.015 501 129.5 501H223.5C225.985 501 228 503.015 228 505.5C228 507.985 225.985 510 223.5 510H129.5C127.015 510 125 507.985 125 505.5Z" fill="#EDF0F4"/>
<path d="M860 192.5C860 188.91 862.91 186 866.5 186H999.5C1003.09 186 1006 188.91 1006 192.5C1006 196.09 1003.09 199 999.5 199H866.5C862.91 199 860 196.09 860 192.5Z" fill="#EDF0F4"/>
<path d="M678 98C678 95.2386 680.239 93 683 93H776C778.761 93 781 95.2386 781 98C781 100.761 778.761 103 776 103H683C680.239 103 678 100.761 678 98Z" fill="#EDF0F4"/>
<path d="M125 522C125 519.239 127.239 517 130 517H223C225.761 517 228 519.239 228 522C228 524.761 225.761 527 223 527H130C127.239 527 125 524.761 125 522Z" fill="#EDF0F4"/>
<path d="M860 216.5C860 212.358 863.358 209 867.5 209H998.5C1002.64 209 1006 212.358 1006 216.5C1006 220.642 1002.64 224 998.5 224H867.5C863.358 224 860 220.642 860 216.5Z" fill="#EDF0F4"/>
<path d="M678 114.5C678 112.015 680.015 110 682.5 110H776.5C778.985 110 781 112.015 781 114.5C781 116.985 778.985 119 776.5 119H682.5C680.015 119 678 116.985 678 114.5Z" fill="#EDF0F4"/>
<path d="M125 538.5C125 536.015 127.015 534 129.5 534H223.5C225.985 534 228 536.015 228 538.5C228 540.985 225.985 543 223.5 543H129.5C127.015 543 125 540.985 125 538.5Z" fill="#EDF0F4"/>
<path d="M860 240.5C860 236.91 862.91 234 866.5 234H999.5C1003.09 234 1006 236.91 1006 240.5C1006 244.09 1003.09 247 999.5 247H866.5C862.91 247 860 244.09 860 240.5Z" fill="#EDF0F4"/>
<path d="M652 98.5C652 109.822 642.822 119 631.5 119C620.178 119 611 109.822 611 98.5C611 87.1782 620.178 78 631.5 78C642.822 78 652 87.1782 652 98.5Z" fill="#D8DCDD"/>
<path d="M99 522.5C99 533.822 89.8218 543 78.5 543C67.1782 543 58 533.822 58 522.5C58 511.178 67.1782 502 78.5 502C89.8218 502 99 511.178 99 522.5Z" fill="#D8DCDD"/>
<path d="M824 217.5C824 233.792 810.792 247 794.5 247C778.208 247 765 233.792 765 217.5C765 201.208 778.208 188 794.5 188C810.792 188 824 201.208 824 217.5Z" fill="#D8DCDD"/>
<path fill-rule="evenodd" clip-rule="evenodd" d="M723 218H727V222H723V218ZM707 218H715V222H707V218ZM691 218H699V222H691V218ZM675 218H683V222H675V218ZM659 218H667V222H659V218ZM643 218H651V222H643V218ZM627 218H635V222H627V218ZM611 218H619V222H611V218ZM595 218H603V222H595V218ZM579 218H587V222H579V218ZM563 218H571V222H563V218ZM547 218H555V222H547V218ZM535 218H539V222H535V218Z" fill="#E3E8EF"/>
<path fill-rule="evenodd" clip-rule="evenodd" d="M486 144.5V140.375H490V144.5H486ZM486 132.125V123.875H490V132.125H486ZM486 115.625V107.375H490V115.625H486ZM486 99.125V93H492V97H490V99.125H486ZM580 93H584V97H580V93ZM564 93H572V97H564V93ZM548 93H556V97H548V93ZM532 93H540V97H532V93ZM516 93H524V97H516V93ZM500 93H508V97H500V93Z" fill="#E3E8EF"/>
<path d="M15 165C15 153.954 23.9543 145 35 145H515C526.046 145 535 153.954 535 165V318C535 329.046 526.046 338 515 338H35C23.9543 338 15 329.046 15 318V165Z" fill="white"/>
<path fill-rule="evenodd" clip-rule="evenodd" d="M515 149H35C26.1634 149 19 156.163 19 165V318C19 326.837 26.1635 334 35 334H515C523.837 334 531 326.837 531 318V165C531 156.163 523.837 149 515 149ZM35 145C23.9543 145 15 153.954 15 165V318C15 329.046 23.9543 338 35 338H515C526.046 338 535 329.046 535 318V165C535 153.954 526.046 145 515 145H35Z" fill="#4067F0"/>
<path d="M45 241C45 289.601 84.3989 329 133 329C181.601 329 221 289.601 221 241C221 192.399 181.601 153 133 153C84.3989 153 45 192.399 45 241Z" fill="#EDF0F4"/>
<path d="M248 205.295C248 197.839 254.044 191.795 261.5 191.795H488.5C495.956 191.795 502 197.839 502 205.295C502 212.751 495.956 218.795 488.5 218.795H261.5C254.044 218.795 248 212.751 248 205.295Z" fill="#EDF0F4"/>
<path d="M248 244.295C248 236.839 254.044 230.795 261.5 230.795H488.5C495.956 230.795 502 236.839 502 244.295C502 251.751 495.956 257.795 488.5 257.795H261.5C254.044 257.795 248 251.751 248 244.295Z" fill="#EDF0F4"/>
<path d="M248 283.295C248 275.839 254.044 269.795 261.5 269.795H488.5C495.956 269.795 502 275.839 502 283.295C502 290.751 495.956 296.795 488.5 296.795H261.5C254.044 296.795 248 290.751 248 283.295Z" fill="#EDF0F4"/>
<path d="M199.155 163.336C195.934 155.286 185.387 148.495 183.279 148.112C180.116 149.55 179.086 156.493 178.166 156.723C177.246 156.953 151.523 183.654 138.776 196.976C138.776 196.976 148.655 217.673 158.787 237.101C160.74 240.847 151.516 276.475 153.419 279.969C155.934 284.587 167.314 278.485 172.34 286.769C175.012 291.173 188.804 261.639 188.804 261.639C188.804 261.639 184.757 276.717 178.166 289.43C183.575 287.36 198.186 271.1 202.03 263.413C207.051 253.371 207.205 249.25 202.03 239.762C196.854 230.274 202.317 213.077 207.492 202.438C212.668 191.8 203.18 173.399 199.155 163.336Z" fill="#1E1D3D"/>
<path d="M156.966 293.865L160.219 257.5L116.707 235.503L111.819 273.168C114.79 278.726 124.642 290.074 136.833 290.994C149.024 291.914 155.145 297.027 156.966 293.865Z" fill="#FDCAAD"/>
<path d="M190.887 194.388C190.887 184.037 195.487 179.149 187.724 158.736C179.961 138.322 158.972 136.999 142.871 132.859C122.745 127.684 104.956 139.611 93.7058 154.71C82.7802 169.374 78.9715 178.959 80.48 190.65C82.7802 208.476 81.9176 210.489 89.1055 222.564C93.5901 230.098 105.494 230.04 105.494 230.04C105.494 230.04 104.401 230.04 126.483 250.741C154.084 276.618 174.211 259.654 183.124 244.991C192.037 230.327 190.887 207.326 190.887 194.388Z" fill="#FDCAAD"/>
<path d="M150.758 264.3C156.334 264.93 159.778 263.426 160.81 262.901C158.445 265.24 151.172 269.503 141.002 267.848C130.832 266.192 122.968 253.361 120.307 247.153C120.307 247.153 131.01 262.069 150.758 264.3Z" fill="#ECA98E"/>
<path d="M96.5546 211.174C96.445 212.721 96.8802 213.658 97.0303 213.938C96.3846 213.308 95.1769 211.341 95.5113 208.514C95.8457 205.688 99.1721 203.387 100.793 202.59C100.793 202.59 96.9426 205.696 96.5546 211.174Z" fill="#ECA98E"/>
<path d="M136.909 290.08C151.002 291.338 157.906 280.981 157.906 280.981C176.781 312.124 211.2 287.606 207 334.5L55.0001 334.5C53.8104 269.068 109.612 270.482 109.612 270.482C115.275 275.935 122.816 288.821 136.909 290.08Z" fill="#FFD501"/>
<path d="M139.086 299.274C131.818 297.962 113.872 290.151 105.112 282.916C118.806 294.226 139.581 303.677 147.894 303.993C156.207 304.309 155.444 297.072 155.444 290.466C152.927 300.71 146.354 300.587 139.086 299.274Z" fill="#FFA001"/>
<path d="M144.03 206.209C144.03 208.169 145.618 209.757 147.578 209.757C149.537 209.757 151.125 208.169 151.125 206.209C151.125 204.25 149.537 202.662 147.578 202.662C145.618 202.662 144.03 204.25 144.03 206.209Z" fill="#1E1D3D"/>
<path d="M178.324 206.209C178.324 208.169 179.913 209.757 181.872 209.757C183.831 209.757 185.42 208.169 185.42 206.209C185.42 204.25 183.831 202.662 181.872 202.662C179.913 202.662 178.324 204.25 178.324 206.209Z" fill="#1E1D3D"/>
<path d="M186.603 198.077C180.491 191.723 173.299 199.554 173.299 199.554C173.299 199.554 180.099 196.007 186.603 198.077Z" fill="#1E1D3D"/>
<path d="M139.003 200.412C146.164 194.059 152.307 201.89 152.307 201.89C152.307 201.89 145.507 198.342 139.003 200.412Z" fill="#1E1D3D"/>
<path d="M185.859 186.498C179.868 175.923 171.052 184.08 172.528 185.289C174.004 186.498 179.604 182.992 185.859 186.498Z" fill="#1E1D3D"/>
<path d="M135.904 186.498C141.895 175.923 149.663 182.685 149.235 185.289C148.807 187.892 141.864 183.17 135.904 186.498Z" fill="#1E1D3D"/>
<path d="M172.116 221.287C172.353 214.901 164.035 198.72 160.882 192.019C162.064 196.453 169.751 217.988 169.751 220.4C169.751 223.597 164.725 224.047 162.656 223.061C165.415 225.032 171.88 227.673 172.116 221.287Z" fill="#1E1D3D"/>
<path d="M152.012 228.974C155.807 236.886 165.636 234.273 167.705 233.386C164.749 238.708 157.907 237.586 155.107 236.186C152.307 234.786 150.907 230.587 152.012 228.974Z" fill="#1E1D3D"/>
<path d="M192.612 157.873C191.845 152.41 182.146 136.449 172.932 130.965C160.856 123.777 134.913 113.051 110.256 126.234C81.2163 141.76 80.1929 146.948 77.3177 166.211C74.4425 185.475 57.4816 190.055 62.6569 209.606C67.0394 226.162 58.5179 222.082 58.8136 240.678C59.1092 259.274 68.5698 251.883 61.1787 271.691C69.7537 267.589 72.406 261.911 73.0912 259.963C72.3043 262.668 69.7399 272.607 73.3001 276.421C76.7489 278.73 76.5522 272.282 86.6041 279.673C96.656 287.065 98.1701 290.021 113.803 284.699C113.803 284.699 110.847 271.395 113.803 259.274C116.76 247.153 116.76 236.509 116.76 236.509L106.644 228.315C103.482 227.836 98.5358 227.018 96.0063 222.852C91.1185 214.802 87.6683 199.179 96.0063 198.372C103.137 197.682 106.644 198.372 110.256 203.102C113.545 198.372 117.48 205.908 122.211 193.491C126.941 181.074 126.556 171.715 150.207 173.194C173.859 174.672 168.405 141.697 191.503 168.294C195.987 173.458 189.641 159.982 192.612 157.873Z" fill="#1E1D3D"/>
<path d="M95.8284 268.933C90.8645 276.706 92.2379 281.148 94.3838 285.364L90.1142 282.1C88.2917 276.578 92.3042 272.832 95.8284 268.933Z" fill="#434266"/>
<path d="M130.514 166.738C143.204 160.122 151.507 168.149 163.388 148.137C150.277 154.693 158.144 144.204 158.144 144.204C158.144 144.204 147.17 157.007 130.514 166.738C129.901 167.058 129.278 167.411 128.644 167.804C129.275 167.453 129.898 167.098 130.514 166.738Z" fill="#434266"/>
<path d="M94.5565 186.591C103.079 180.691 102.603 175.426 112.912 178.069C96.798 173.938 95.1737 186.004 88.0011 189.049C80.8285 192.093 80.3412 197.432 82.9732 203.032C81.0252 193.347 86.0345 192.491 94.5565 186.591Z" fill="#434266"/>
<path d="M372 318C372 306.954 380.954 298 392 298H1005C1016.05 298 1025 306.954 1025 318V519C1025 530.046 1016.05 539 1005 539H392C380.954 539 372 530.046 372 519V318Z" fill="white"/>
<path fill-rule="evenodd" clip-rule="evenodd" d="M1005 302H392C383.163 302 376 309.163 376 318V519C376 527.837 383.163 535 392 535H1005C1013.84 535 1021 527.837 1021 519V318C1021 309.163 1013.84 302 1005 302ZM392 298C380.954 298 372 306.954 372 318V519C372 530.046 380.954 539 392 539H1005C1016.05 539 1025 530.046 1025 519V318C1025 306.954 1016.05 298 1005 298H392Z" fill="#4067F0"/>
<path d="M410 419C410 472.019 452.981 515 506 515C559.019 515 602 472.019 602 419C602 365.981 559.019 323 506 323C452.981 323 410 365.981 410 419Z" fill="#EDF0F4"/>
<path d="M663 371C663 361.611 670.611 354 680 354H965C974.389 354 982 361.611 982 371C982 380.389 974.389 388 965 388H680C670.611 388 663 380.389 663 371Z" fill="#EDF0F4"/>
<path d="M663 420C663 410.611 670.611 403 680 403H965C974.389 403 982 410.611 982 420C982 429.389 974.389 437 965 437H680C670.611 437 663 429.389 663 420Z" fill="#EDF0F4"/>
<path d="M663 469C663 459.611 670.611 452 680 452H965C974.389 452 982 459.611 982 469C982 478.389 974.389 486 965 486H680C670.611 486 663 478.389 663 469Z" fill="#EDF0F4"/>
<path d="M444.463 423.865C443.053 417.532 442.995 372.853 443.141 351.305C445.784 342.363 453.71 322.721 464.279 315.685C477.49 306.89 513.599 317.884 522.407 322.281C531.214 326.679 533.416 376.811 537.819 376.371C542.223 375.931 547.507 379.01 547.067 392.202C546.715 402.757 535.542 403.97 530.111 403.384V488.237C529.113 496.223 530.151 517.102 490.679 507.703C477.957 504.674 474.09 465.919 473.209 463.28V446.309C473.209 446.309 471.213 446.309 464.279 444.973C451.242 442.46 446.224 431.78 444.463 423.865Z" fill="#F7CBB2"/>
<path d="M493.969 451.041C505.296 449.17 515.765 435.172 517.018 427.653C491.33 451.365 473.16 445.197 473.16 445.197C475.795 447.84 482.642 452.912 493.969 451.041Z" fill="#ECA98E"/>
<circle cx="491.957" cy="381.289" r="3.75926" fill="#1E1D3D"/>
<circle cx="455.617" cy="381.289" r="3.75926" fill="#1E1D3D"/>
<path d="M451.858 373.155C458.19 365.12 465.642 375.024 465.642 375.024C465.642 375.024 458.597 370.537 451.858 373.155Z" fill="#1E1D3D"/>
<path d="M499.475 374.875C492.057 368.849 485.691 376.277 485.691 376.277C485.691 376.277 492.737 372.912 499.475 374.875Z" fill="#1E1D3D"/>
<path d="M451.512 360.844C457.76 349.816 466.953 358.322 465.414 359.583C463.874 360.844 458.035 357.189 451.512 360.844Z" fill="#1E1D3D"/>
<path d="M503.605 360.844C497.357 349.817 489.257 356.869 489.703 359.583C490.149 362.298 497.39 357.374 503.605 360.844Z" fill="#1E1D3D"/>
<path d="M466.9 397.093C466.663 390.364 475.009 373.313 478.173 366.252C476.986 370.925 469.274 393.617 469.274 396.158C469.274 399.527 474.317 400.001 476.393 398.962C473.624 401.039 467.138 403.822 466.9 397.093Z" fill="#1E1D3D"/>
<path d="M486.561 405.098C482.715 413.386 472.752 410.649 470.654 409.72C473.651 415.294 480.586 414.119 483.424 412.653C486.262 411.186 487.681 406.787 486.561 405.098Z" fill="#1E1D3D"/>
<path d="M492.675 485.741C474.538 482.249 473.209 459.584 473.209 453.297C471.116 455.859 467.016 460.683 465.9 461.241C464.505 461.94 420.557 474.513 417.069 478.705C414.278 482.057 409.86 489.415 408 492.675C420.324 505.016 456.971 529.837 504.966 530.395C552.96 530.954 595.653 510.138 611 499.66C606.814 478.705 596.351 468.227 587.979 464.734C579.608 461.241 547.519 460.543 539.845 458.447C533.707 456.771 531.041 453.929 530.111 452.299C530.111 452.299 530.111 480.75 516.135 486.241L507.058 504.55L492.675 485.741Z" fill="#F87373"/>
<path d="M574.534 485.242C574.933 476.857 580.69 470.434 583.519 468.272C583.519 468.272 573.037 478.254 575.532 503.211C574.534 497.222 574.135 493.628 574.534 485.242Z" fill="#C71F1F"/>
<path fill-rule="evenodd" clip-rule="evenodd" d="M535.638 487.146C533.154 494.663 529.889 500.955 528.018 503.506L527.486 504.232L527.152 503.397C526.38 501.467 524.212 498.144 521.998 495.147C520.897 493.657 519.796 492.263 518.869 491.182C518.406 490.642 517.99 490.184 517.641 489.833C517.504 489.694 517.382 489.577 517.275 489.48L511.643 497.721L511.712 496.969L516.958 488.049L517.39 488.308C517.656 488.468 517.989 488.765 518.35 489.13C518.721 489.504 519.155 489.982 519.627 490.533C520.573 491.636 521.689 493.049 522.801 494.554C524.737 497.175 526.697 500.122 527.709 502.199C529.555 499.394 532.439 493.643 534.691 486.833C537.156 479.375 538.833 470.731 537.605 463.362L538.097 461.783C540.093 472.764 538.123 479.63 535.638 487.146Z" fill="#C71F1F"/>
<path fill-rule="evenodd" clip-rule="evenodd" d="M471.212 490.533C476.703 501.514 482.644 504.232 482.644 504.232L482.978 503.397C483.75 501.467 485.918 498.144 488.132 495.147C489.233 493.657 490.334 492.263 491.26 491.182C491.724 490.642 492.14 490.184 492.488 489.833C492.625 489.694 492.748 489.577 492.855 489.48L499.663 497.222L499.594 496.469L493.171 488.049L492.74 488.308C492.474 488.468 492.141 488.765 491.78 489.129C491.408 489.504 490.975 489.982 490.502 490.533C489.557 491.636 488.441 493.049 487.329 494.554C485.392 497.175 483.432 500.121 482.421 502.199C479.698 500.216 472.965 492.552 470.713 485.741C468.248 478.283 466.483 470.915 467.712 463.546L467.219 461.966C465.223 472.947 467.672 483.452 471.212 490.533Z" fill="#C71F1F"/>
<path d="M560.736 331.008C562.212 345.432 550.088 368.943 544.764 380.423C544.764 380.423 533.783 368.943 528.813 387.91V366.946C528.813 338.496 518.787 329.012 501.838 325.019C485.255 321.112 489.859 336.998 460.41 341.49C451.743 342.812 447.931 351.972 442.94 364.451C441.276 363.453 438.569 359.711 432.979 354.52C427.388 349.329 427.633 341.657 429.962 336.499C429.962 336.499 425.448 326.964 427.966 316.533C430.483 306.103 452.401 286.034 488.361 283.59C518.265 281.558 532.618 298.897 537.776 309.046C543.433 308.214 559.348 317.432 560.736 331.008Z" fill="#1E1D3D"/>
<path d="M277.337 398.364L282 381.5L340 422L251 411.091L259.173 392.909L277.337 398.364Z" fill="#4067F0"/>
<path d="M281.926 381.771L296.444 358L340 422L193 381.771L268.315 383.6L340 422L281.926 381.771Z" fill="#7A98FF"/>
</svg>
